<?xml version="1.0" encoding="UTF-8" standalone="no"?>
<!DOCTYPE svg PUBLIC "-//W3C//DTD SVG 1.1//EN"
 "http://www.w3.org/Graphics/SVG/1.1/DTD/svg11.dtd">
<!-- Generated by graphviz version 2.40.1 (0)
 -->
<!-- Title: fractal/encoder.h Pages: 1 -->
<svg width="450pt" height="140pt"
 viewBox="0.00 0.00 450.00 140.00" xmlns="http://www.w3.org/2000/svg" xmlns:xlink="http://www.w3.org/1999/xlink">
<g id="graph0" class="graph" transform="scale(1 1) rotate(0) translate(4 136)">
<title>fractal/encoder.h</title>
<!-- Node0 -->
<g id="node1" class="node">
<title>Node0</title>
<g id="a_node1"><a xlink:title=" ">
<polygon fill="#bfbfbf" stroke="#000000" points="164,-112.5 164,-131.5 308,-131.5 308,-112.5 164,-112.5"/>
<text text-anchor="middle" x="236" y="-119.5" font-family="Helvetica,sans-Serif" font-size="10.00" fill="#000000">fractal/encoder.h</text>
</a>
</g>
</g>
<!-- Node1 -->
<g id="node2" class="node">
<title>Node1</title>
<g id="a_node2"><a xlink:href="settings_8h.html" target="_top" xlink:title=" ">
<polygon fill="none" stroke="#000000" points="0,-56.5 0,-75.5 92,-75.5 92,-56.5 0,-56.5"/>
<text text-anchor="middle" x="46" y="-63.5" font-family="Helvetica,sans-Serif" font-size="10.00" fill="#000000">settings.h</text>
</a>
</g>
</g>
<!-- Node0&#45;&gt;Node1 -->
<g id="edge1" class="edge">
<title>Node0&#45;&gt;Node1</title>
<path fill="none" stroke="#191970" d="M203.3378,-112.3733C171.4702,-102.9807 122.8469,-88.6496 88.093,-78.4064"/>
<polygon fill="#191970" stroke="#191970" points="88.8175,-74.9711 78.236,-75.5011 86.8385,-81.6855 88.8175,-74.9711"/>
</g>
<!-- Node3 -->
<g id="node4" class="node">
<title>Node3</title>
<g id="a_node4"><a xlink:title=" ">
<polygon fill="none" stroke="#bfbfbf" points="110,-56.5 110,-75.5 172,-75.5 172,-56.5 110,-56.5"/>
<text text-anchor="middle" x="141" y="-63.5" font-family="Helvetica,sans-Serif" font-size="10.00" fill="#000000">x265.h</text>
</a>
</g>
</g>
<!-- Node0&#45;&gt;Node3 -->
<g id="edge3" class="edge">
<title>Node0&#45;&gt;Node3</title>
<path fill="none" stroke="#191970" d="M219.4523,-112.2455C204.7401,-103.5731 183.0112,-90.7645 166.1495,-80.825"/>
<polygon fill="#191970" stroke="#191970" points="167.7502,-77.7057 157.3581,-75.6427 164.1954,-83.736 167.7502,-77.7057"/>
</g>
<!-- Node4 -->
<g id="node5" class="node">
<title>Node4</title>
<g id="a_node5"><a xlink:title=" ">
<polygon fill="none" stroke="#bfbfbf" points="190,-56.5 190,-75.5 282,-75.5 282,-56.5 190,-56.5"/>
<text text-anchor="middle" x="236" y="-63.5" font-family="Helvetica,sans-Serif" font-size="10.00" fill="#000000">functional</text>
</a>
</g>
</g>
<!-- Node0&#45;&gt;Node4 -->
<g id="edge4" class="edge">
<title>Node0&#45;&gt;Node4</title>
<path fill="none" stroke="#191970" d="M236,-112.2455C236,-104.9382 236,-94.6944 236,-85.7046"/>
<polygon fill="#191970" stroke="#191970" points="239.5001,-85.6426 236,-75.6427 232.5001,-85.6427 239.5001,-85.6426"/>
</g>
<!-- Node5 -->
<g id="node6" class="node">
<title>Node5</title>
<g id="a_node6"><a xlink:title=" ">
<polygon fill="none" stroke="#bfbfbf" points="300,-56.5 300,-75.5 362,-75.5 362,-56.5 300,-56.5"/>
<text text-anchor="middle" x="331" y="-63.5" font-family="Helvetica,sans-Serif" font-size="10.00" fill="#000000">memory</text>
</a>
</g>
</g>
<!-- Node0&#45;&gt;Node5 -->
<g id="edge5" class="edge">
<title>Node0&#45;&gt;Node5</title>
<path fill="none" stroke="#191970" d="M252.5477,-112.2455C267.2599,-103.5731 288.9888,-90.7645 305.8505,-80.825"/>
<polygon fill="#191970" stroke="#191970" points="307.8046,-83.736 314.6419,-75.6427 304.2498,-77.7057 307.8046,-83.736"/>
</g>
<!-- Node6 -->
<g id="node7" class="node">
<title>Node6</title>
<g id="a_node7"><a xlink:title=" ">
<polygon fill="none" stroke="#bfbfbf" points="380,-56.5 380,-75.5 442,-75.5 442,-56.5 380,-56.5"/>
<text text-anchor="middle" x="411" y="-63.5" font-family="Helvetica,sans-Serif" font-size="10.00" fill="#000000">vector</text>
</a>
</g>
</g>
<!-- Node0&#45;&gt;Node6 -->
<g id="edge6" class="edge">
<title>Node0&#45;&gt;Node6</title>
<path fill="none" stroke="#191970" d="M266.0836,-112.3733C295.1834,-103.0613 339.4523,-88.8953 371.403,-78.671"/>
<polygon fill="#191970" stroke="#191970" points="372.8515,-81.8824 381.309,-75.5011 370.718,-75.2155 372.8515,-81.8824"/>
</g>
<!-- Node2 -->
<g id="node3" class="node">
<title>Node2</title>
<g id="a_node3"><a xlink:title=" ">
<polygon fill="none" stroke="#bfbfbf" points="15,-.5 15,-19.5 77,-19.5 77,-.5 15,-.5"/>
<text text-anchor="middle" x="46" y="-7.5" font-family="Helvetica,sans-Serif" font-size="10.00" fill="#000000">string</text>
</a>
</g>
</g>
<!-- Node1&#45;&gt;Node2 -->
<g id="edge2" class="edge">
<title>Node1&#45;&gt;Node2</title>
<path fill="none" stroke="#191970" d="M46,-56.2455C46,-48.9382 46,-38.6944 46,-29.7046"/>
<polygon fill="#191970" stroke="#191970" points="49.5001,-29.6426 46,-19.6427 42.5001,-29.6427 49.5001,-29.6426"/>
</g>
</g>
</svg>
