<?xml version="1.0" encoding="UTF-8" standalone="no"?>
<!DOCTYPE svg PUBLIC "-//W3C//DTD SVG 1.1//EN"
 "http://www.w3.org/Graphics/SVG/1.1/DTD/svg11.dtd">
<!-- Generated by graphviz version 2.40.1 (0)
 -->
<!-- Title: fractal/encoder.cpp Pages: 1 -->
<svg width="645pt" height="196pt"
 viewBox="0.00 0.00 645.00 196.00" xmlns="http://www.w3.org/2000/svg" xmlns:xlink="http://www.w3.org/1999/xlink">
<g id="graph0" class="graph" transform="scale(1 1) rotate(0) translate(4 192)">
<title>fractal/encoder.cpp</title>
<!-- Node0 -->
<g id="node1" class="node">
<title>Node0</title>
<g id="a_node1"><a xlink:title=" ">
<polygon fill="#bfbfbf" stroke="#000000" points="356.5,-168.5 356.5,-187.5 515.5,-187.5 515.5,-168.5 356.5,-168.5"/>
<text text-anchor="middle" x="436" y="-175.5" font-family="Helvetica,sans-Serif" font-size="10.00" fill="#000000">fractal/encoder.cpp</text>
</a>
</g>
</g>
<!-- Node1 -->
<g id="node2" class="node">
<title>Node1</title>
<g id="a_node2"><a xlink:href="encoder_8h.html" target="_top" xlink:title=" ">
<polygon fill="none" stroke="#000000" points="194,-112.5 194,-131.5 278,-131.5 278,-112.5 194,-112.5"/>
<text text-anchor="middle" x="236" y="-119.5" font-family="Helvetica,sans-Serif" font-size="10.00" fill="#000000">encoder.h</text>
</a>
</g>
</g>
<!-- Node0&#45;&gt;Node1 -->
<g id="edge1" class="edge">
<title>Node0&#45;&gt;Node1</title>
<path fill="none" stroke="#191970" d="M401.6188,-168.3733C367.9299,-158.9404 316.4518,-144.5265 279.8382,-134.2747"/>
<polygon fill="#191970" stroke="#191970" points="280.506,-130.8271 269.9326,-131.5011 278.6185,-137.5679 280.506,-130.8271"/>
</g>
<!-- Node8 -->
<g id="node9" class="node">
<title>Node8</title>
<g id="a_node9"><a xlink:href="scope__exit_8h.html" target="_top" xlink:title=" ">
<polygon fill="none" stroke="#000000" points="326.5,-112.5 326.5,-131.5 433.5,-131.5 433.5,-112.5 326.5,-112.5"/>
<text text-anchor="middle" x="380" y="-119.5" font-family="Helvetica,sans-Serif" font-size="10.00" fill="#000000">scope_exit.h</text>
</a>
</g>
</g>
<!-- Node0&#45;&gt;Node8 -->
<g id="edge8" class="edge">
<title>Node0&#45;&gt;Node8</title>
<path fill="none" stroke="#191970" d="M426.2455,-168.2455C418.1352,-160.1352 406.4075,-148.4075 396.7919,-138.7919"/>
<polygon fill="#191970" stroke="#191970" points="399.1887,-136.2389 389.6427,-131.6427 394.2389,-141.1887 399.1887,-136.2389"/>
</g>
<!-- Node9 -->
<g id="node10" class="node">
<title>Node9</title>
<g id="a_node10"><a xlink:title=" ">
<polygon fill="none" stroke="#bfbfbf" points="451,-112.5 451,-131.5 535,-131.5 535,-112.5 451,-112.5"/>
<text text-anchor="middle" x="493" y="-119.5" font-family="Helvetica,sans-Serif" font-size="10.00" fill="#000000">algorithm</text>
</a>
</g>
</g>
<!-- Node0&#45;&gt;Node9 -->
<g id="edge10" class="edge">
<title>Node0&#45;&gt;Node9</title>
<path fill="none" stroke="#191970" d="M445.9286,-168.2455C454.1838,-160.1352 466.1209,-148.4075 475.9082,-138.7919"/>
<polygon fill="#191970" stroke="#191970" points="478.5046,-141.1476 483.1851,-131.6427 473.5989,-136.1542 478.5046,-141.1476"/>
</g>
<!-- Node10 -->
<g id="node11" class="node">
<title>Node10</title>
<g id="a_node11"><a xlink:title=" ">
<polygon fill="none" stroke="#bfbfbf" points="553,-112.5 553,-131.5 637,-131.5 637,-112.5 553,-112.5"/>
<text text-anchor="middle" x="595" y="-119.5" font-family="Helvetica,sans-Serif" font-size="10.00" fill="#000000">stdexcept</text>
</a>
</g>
</g>
<!-- Node0&#45;&gt;Node10 -->
<g id="edge11" class="edge">
<title>Node0&#45;&gt;Node10</title>
<path fill="none" stroke="#191970" d="M463.3331,-168.3733C489.5434,-159.1419 529.2984,-145.1402 558.2668,-134.9375"/>
<polygon fill="#191970" stroke="#191970" points="559.7542,-138.1244 568.0236,-131.5011 557.4288,-131.5219 559.7542,-138.1244"/>
</g>
<!-- Node2 -->
<g id="node3" class="node">
<title>Node2</title>
<g id="a_node3"><a xlink:href="settings_8h.html" target="_top" xlink:title=" ">
<polygon fill="none" stroke="#000000" points="0,-56.5 0,-75.5 92,-75.5 92,-56.5 0,-56.5"/>
<text text-anchor="middle" x="46" y="-63.5" font-family="Helvetica,sans-Serif" font-size="10.00" fill="#000000">settings.h</text>
</a>
</g>
</g>
<!-- Node1&#45;&gt;Node2 -->
<g id="edge2" class="edge">
<title>Node1&#45;&gt;Node2</title>
<path fill="none" stroke="#191970" d="M203.3378,-112.3733C171.4702,-102.9807 122.8469,-88.6496 88.093,-78.4064"/>
<polygon fill="#191970" stroke="#191970" points="88.8175,-74.9711 78.236,-75.5011 86.8385,-81.6855 88.8175,-74.9711"/>
</g>
<!-- Node4 -->
<g id="node5" class="node">
<title>Node4</title>
<g id="a_node5"><a xlink:title=" ">
<polygon fill="none" stroke="#bfbfbf" points="110,-56.5 110,-75.5 172,-75.5 172,-56.5 110,-56.5"/>
<text text-anchor="middle" x="141" y="-63.5" font-family="Helvetica,sans-Serif" font-size="10.00" fill="#000000">x265.h</text>
</a>
</g>
</g>
<!-- Node1&#45;&gt;Node4 -->
<g id="edge4" class="edge">
<title>Node1&#45;&gt;Node4</title>
<path fill="none" stroke="#191970" d="M219.4523,-112.2455C204.7401,-103.5731 183.0112,-90.7645 166.1495,-80.825"/>
<polygon fill="#191970" stroke="#191970" points="167.7502,-77.7057 157.3581,-75.6427 164.1954,-83.736 167.7502,-77.7057"/>
</g>
<!-- Node5 -->
<g id="node6" class="node">
<title>Node5</title>
<g id="a_node6"><a xlink:title=" ">
<polygon fill="none" stroke="#bfbfbf" points="350,-56.5 350,-75.5 442,-75.5 442,-56.5 350,-56.5"/>
<text text-anchor="middle" x="396" y="-63.5" font-family="Helvetica,sans-Serif" font-size="10.00" fill="#000000">functional</text>
</a>
</g>
</g>
<!-- Node1&#45;&gt;Node5 -->
<g id="edge5" class="edge">
<title>Node1&#45;&gt;Node5</title>
<path fill="none" stroke="#191970" d="M263.505,-112.3733C289.8802,-103.1419 329.8851,-89.1402 359.0358,-78.9375"/>
<polygon fill="#191970" stroke="#191970" points="360.5716,-82.1082 368.8539,-75.5011 358.2591,-75.5012 360.5716,-82.1082"/>
</g>
<!-- Node6 -->
<g id="node7" class="node">
<title>Node6</title>
<g id="a_node7"><a xlink:title=" ">
<polygon fill="none" stroke="#bfbfbf" points="190,-56.5 190,-75.5 252,-75.5 252,-56.5 190,-56.5"/>
<text text-anchor="middle" x="221" y="-63.5" font-family="Helvetica,sans-Serif" font-size="10.00" fill="#000000">memory</text>
</a>
</g>
</g>
<!-- Node1&#45;&gt;Node6 -->
<g id="edge6" class="edge">
<title>Node1&#45;&gt;Node6</title>
<path fill="none" stroke="#191970" d="M233.3872,-112.2455C231.4084,-104.8579 228.6256,-94.4689 226.1988,-85.4087"/>
<polygon fill="#191970" stroke="#191970" points="229.5511,-84.3966 223.5829,-75.6427 222.7895,-86.2078 229.5511,-84.3966"/>
</g>
<!-- Node7 -->
<g id="node8" class="node">
<title>Node7</title>
<g id="a_node8"><a xlink:title=" ">
<polygon fill="none" stroke="#bfbfbf" points="270,-56.5 270,-75.5 332,-75.5 332,-56.5 270,-56.5"/>
<text text-anchor="middle" x="301" y="-63.5" font-family="Helvetica,sans-Serif" font-size="10.00" fill="#000000">vector</text>
</a>
</g>
</g>
<!-- Node1&#45;&gt;Node7 -->
<g id="edge7" class="edge">
<title>Node1&#45;&gt;Node7</title>
<path fill="none" stroke="#191970" d="M247.3221,-112.2455C256.9223,-103.9746 270.8892,-91.9416 282.1695,-82.2232"/>
<polygon fill="#191970" stroke="#191970" points="284.516,-84.8214 289.8076,-75.6427 279.947,-79.5182 284.516,-84.8214"/>
</g>
<!-- Node3 -->
<g id="node4" class="node">
<title>Node3</title>
<g id="a_node4"><a xlink:title=" ">
<polygon fill="none" stroke="#bfbfbf" points="15,-.5 15,-19.5 77,-19.5 77,-.5 15,-.5"/>
<text text-anchor="middle" x="46" y="-7.5" font-family="Helvetica,sans-Serif" font-size="10.00" fill="#000000">string</text>
</a>
</g>
</g>
<!-- Node2&#45;&gt;Node3 -->
<g id="edge3" class="edge">
<title>Node2&#45;&gt;Node3</title>
<path fill="none" stroke="#191970" d="M46,-56.2455C46,-48.9382 46,-38.6944 46,-29.7046"/>
<polygon fill="#191970" stroke="#191970" points="49.5001,-29.6426 46,-19.6427 42.5001,-29.6427 49.5001,-29.6426"/>
</g>
<!-- Node8&#45;&gt;Node5 -->
<g id="edge9" class="edge">
<title>Node8&#45;&gt;Node5</title>
<path fill="none" stroke="#191970" d="M382.787,-112.2455C384.8977,-104.8579 387.866,-94.4689 390.4547,-85.4087"/>
<polygon fill="#191970" stroke="#191970" points="393.863,-86.2195 393.245,-75.6427 387.1323,-84.2964 393.863,-86.2195"/>
</g>
</g>
</svg>
