<?xml version="1.0" encoding="UTF-8" standalone="no"?>
<!DOCTYPE svg PUBLIC "-//W3C//DTD SVG 1.1//EN"
 "http://www.w3.org/Graphics/SVG/1.1/DTD/svg11.dtd">
<!-- Generated by graphviz version 2.40.1 (0)
 -->
<!-- Title: fractal/full_quad.cpp Pages: 1 -->
<svg width="310pt" height="196pt"
 viewBox="0.00 0.00 310.00 196.00" xmlns="http://www.w3.org/2000/svg" xmlns:xlink="http://www.w3.org/1999/xlink">
<g id="graph0" class="graph" transform="scale(1 1) rotate(0) translate(4 192)">
<title>fractal/full_quad.cpp</title>
<!-- Node0 -->
<g id="node1" class="node">
<title>Node0</title>
<g id="a_node1"><a xlink:title=" ">
<polygon fill="#bfbfbf" stroke="#000000" points="126.5,-168.5 126.5,-187.5 300.5,-187.5 300.5,-168.5 126.5,-168.5"/>
<text text-anchor="middle" x="213.5" y="-175.5" font-family="Helvetica,sans-Serif" font-size="10.00" fill="#000000">fractal/full_quad.cpp</text>
</a>
</g>
</g>
<!-- Node1 -->
<g id="node2" class="node">
<title>Node1</title>
<g id="a_node2"><a xlink:href="full__quad_8h.html" target="_top" xlink:title=" ">
<polygon fill="none" stroke="#000000" points="125,-112.5 125,-131.5 224,-131.5 224,-112.5 125,-112.5"/>
<text text-anchor="middle" x="174.5" y="-119.5" font-family="Helvetica,sans-Serif" font-size="10.00" fill="#000000">full_quad.h</text>
</a>
</g>
</g>
<!-- Node0&#45;&gt;Node1 -->
<g id="edge1" class="edge">
<title>Node0&#45;&gt;Node1</title>
<path fill="none" stroke="#191970" d="M206.7067,-168.2455C201.2822,-160.4564 193.5339,-149.3308 186.9967,-139.9439"/>
<polygon fill="#191970" stroke="#191970" points="189.8025,-137.8485 181.2154,-131.6427 184.0583,-141.849 189.8025,-137.8485"/>
</g>
<!-- Node3 -->
<g id="node4" class="node">
<title>Node3</title>
<g id="a_node4"><a xlink:title=" ">
<polygon fill="none" stroke="#bfbfbf" points="203,-.5 203,-19.5 302,-19.5 302,-.5 203,-.5"/>
<text text-anchor="middle" x="252.5" y="-7.5" font-family="Helvetica,sans-Serif" font-size="10.00" fill="#000000">glad/glad.h</text>
</a>
</g>
</g>
<!-- Node0&#45;&gt;Node3 -->
<g id="edge7" class="edge">
<title>Node0&#45;&gt;Node3</title>
<path fill="none" stroke="#191970" d="M218.5387,-168.399C223.1166,-159.2746 229.7156,-145.0472 233.5,-132 243.7071,-96.8102 248.7543,-54.2229 250.9815,-29.8049"/>
<polygon fill="#191970" stroke="#191970" points="254.4832,-29.9312 251.8368,-19.6722 247.508,-29.3424 254.4832,-29.9312"/>
</g>
<!-- Node2 -->
<g id="node3" class="node">
<title>Node2</title>
<g id="a_node3"><a xlink:href="gl__object_8h.html" target="_top" xlink:title=" ">
<polygon fill="none" stroke="#000000" points="125,-56.5 125,-75.5 224,-75.5 224,-56.5 125,-56.5"/>
<text text-anchor="middle" x="174.5" y="-63.5" font-family="Helvetica,sans-Serif" font-size="10.00" fill="#000000">gl_object.h</text>
</a>
</g>
</g>
<!-- Node1&#45;&gt;Node2 -->
<g id="edge2" class="edge">
<title>Node1&#45;&gt;Node2</title>
<path fill="none" stroke="#191970" d="M174.5,-112.2455C174.5,-104.9382 174.5,-94.6944 174.5,-85.7046"/>
<polygon fill="#191970" stroke="#191970" points="178.0001,-85.6426 174.5,-75.6427 171.0001,-85.6427 178.0001,-85.6426"/>
</g>
<!-- Node5 -->
<g id="node6" class="node">
<title>Node5</title>
<g id="a_node6"><a xlink:href="scope__exit_8h.html" target="_top" xlink:title=" ">
<polygon fill="none" stroke="#000000" points="0,-56.5 0,-75.5 107,-75.5 107,-56.5 0,-56.5"/>
<text text-anchor="middle" x="53.5" y="-63.5" font-family="Helvetica,sans-Serif" font-size="10.00" fill="#000000">scope_exit.h</text>
</a>
</g>
</g>
<!-- Node1&#45;&gt;Node5 -->
<g id="edge5" class="edge">
<title>Node1&#45;&gt;Node5</title>
<path fill="none" stroke="#191970" d="M153.6994,-112.3733C134.2757,-103.3838 105.0776,-89.8706 83.2036,-79.7471"/>
<polygon fill="#191970" stroke="#191970" points="84.5745,-76.5249 74.0292,-75.5011 81.6344,-82.8776 84.5745,-76.5249"/>
</g>
<!-- Node2&#45;&gt;Node3 -->
<g id="edge3" class="edge">
<title>Node2&#45;&gt;Node3</title>
<path fill="none" stroke="#191970" d="M188.0866,-56.2455C199.8305,-47.814 217.0199,-35.4729 230.6882,-25.6598"/>
<polygon fill="#191970" stroke="#191970" points="232.9871,-28.3179 239.0691,-19.6427 228.9046,-22.6316 232.9871,-28.3179"/>
</g>
<!-- Node4 -->
<g id="node5" class="node">
<title>Node4</title>
<g id="a_node5"><a xlink:title=" ">
<polygon fill="none" stroke="#bfbfbf" points="130.5,-.5 130.5,-19.5 184.5,-19.5 184.5,-.5 130.5,-.5"/>
<text text-anchor="middle" x="157.5" y="-7.5" font-family="Helvetica,sans-Serif" font-size="10.00" fill="#000000">array</text>
</a>
</g>
</g>
<!-- Node2&#45;&gt;Node4 -->
<g id="edge4" class="edge">
<title>Node2&#45;&gt;Node4</title>
<path fill="none" stroke="#191970" d="M171.5388,-56.2455C169.2962,-48.8579 166.1423,-38.4689 163.3919,-29.4087"/>
<polygon fill="#191970" stroke="#191970" points="166.6812,-28.1948 160.4272,-19.6427 159.983,-30.2282 166.6812,-28.1948"/>
</g>
<!-- Node6 -->
<g id="node7" class="node">
<title>Node6</title>
<g id="a_node7"><a xlink:title=" ">
<polygon fill="none" stroke="#bfbfbf" points="7.5,-.5 7.5,-19.5 99.5,-19.5 99.5,-.5 7.5,-.5"/>
<text text-anchor="middle" x="53.5" y="-7.5" font-family="Helvetica,sans-Serif" font-size="10.00" fill="#000000">functional</text>
</a>
</g>
</g>
<!-- Node5&#45;&gt;Node6 -->
<g id="edge6" class="edge">
<title>Node5&#45;&gt;Node6</title>
<path fill="none" stroke="#191970" d="M53.5,-56.2455C53.5,-48.9382 53.5,-38.6944 53.5,-29.7046"/>
<polygon fill="#191970" stroke="#191970" points="57.0001,-29.6426 53.5,-19.6427 50.0001,-29.6427 57.0001,-29.6426"/>
</g>
</g>
</svg>
