<?xml version="1.0" encoding="UTF-8" standalone="no"?>
<!DOCTYPE svg PUBLIC "-//W3C//DTD SVG 1.1//EN"
 "http://www.w3.org/Graphics/SVG/1.1/DTD/svg11.dtd">
<!-- Generated by graphviz version 2.40.1 (0)
 -->
<!-- Title: fractal/full_quad.h Pages: 1 -->
<svg width="472pt" height="140pt"
 viewBox="0.00 0.00 471.50 140.00" xmlns="http://www.w3.org/2000/svg" xmlns:xlink="http://www.w3.org/1999/xlink">
<g id="graph0" class="graph" transform="scale(1 1) rotate(0) translate(4 136)">
<title>fractal/full_quad.h</title>
<!-- Node6 -->
<g id="node1" class="node">
<title>Node6</title>
<g id="a_node1"><a xlink:title=" ">
<polygon fill="#bfbfbf" stroke="#000000" points="103.5,-112.5 103.5,-131.5 262.5,-131.5 262.5,-112.5 103.5,-112.5"/>
<text text-anchor="middle" x="183" y="-119.5" font-family="Helvetica,sans-Serif" font-size="10.00" fill="#000000">fractal/full_quad.h</text>
</a>
</g>
</g>
<!-- Node7 -->
<g id="node2" class="node">
<title>Node7</title>
<g id="a_node2"><a xlink:href="full__quad_8cpp.html" target="_top" xlink:title=" ">
<polygon fill="none" stroke="#000000" points="0,-56.5 0,-75.5 174,-75.5 174,-56.5 0,-56.5"/>
<text text-anchor="middle" x="87" y="-63.5" font-family="Helvetica,sans-Serif" font-size="10.00" fill="#000000">fractal/full_quad.cpp</text>
</a>
</g>
</g>
<!-- Node6&#45;&gt;Node7 -->
<g id="edge1" class="edge">
<title>Node6&#45;&gt;Node7</title>
<path fill="none" stroke="#191970" d="M157.3654,-107.0465C140.2841,-97.0824 118.336,-84.2794 103.5303,-75.6427"/>
<polygon fill="#191970" stroke="#191970" points="155.8767,-110.23 166.2781,-112.2455 159.4038,-104.1836 155.8767,-110.23"/>
</g>
<!-- Node8 -->
<g id="node3" class="node">
<title>Node8</title>
<g id="a_node3"><a xlink:href="main__window_8h.html" target="_top" xlink:title=" ">
<polygon fill="none" stroke="#000000" points="192,-56.5 192,-75.5 366,-75.5 366,-56.5 192,-56.5"/>
<text text-anchor="middle" x="279" y="-63.5" font-family="Helvetica,sans-Serif" font-size="10.00" fill="#000000">fractal/main_window.h</text>
</a>
</g>
</g>
<!-- Node6&#45;&gt;Node8 -->
<g id="edge2" class="edge">
<title>Node6&#45;&gt;Node8</title>
<path fill="none" stroke="#191970" d="M208.6346,-107.0465C225.7159,-97.0824 247.664,-84.2794 262.4697,-75.6427"/>
<polygon fill="#191970" stroke="#191970" points="206.5962,-104.1836 199.7219,-112.2455 210.1233,-110.23 206.5962,-104.1836"/>
</g>
<!-- Node9 -->
<g id="node4" class="node">
<title>Node9</title>
<g id="a_node4"><a xlink:href="main_8cpp.html" target="_top" xlink:title=" ">
<polygon fill="none" stroke="#000000" points="119.5,-.5 119.5,-19.5 256.5,-19.5 256.5,-.5 119.5,-.5"/>
<text text-anchor="middle" x="188" y="-7.5" font-family="Helvetica,sans-Serif" font-size="10.00" fill="#000000">fractal/main.cpp</text>
</a>
</g>
</g>
<!-- Node8&#45;&gt;Node9 -->
<g id="edge3" class="edge">
<title>Node8&#45;&gt;Node9</title>
<path fill="none" stroke="#191970" d="M254.2496,-50.769C238.1242,-40.8456 217.574,-28.1994 203.6693,-19.6427"/>
<polygon fill="#191970" stroke="#191970" points="252.7981,-53.9853 263.149,-56.2455 256.4668,-48.0237 252.7981,-53.9853"/>
</g>
<!-- Node10 -->
<g id="node5" class="node">
<title>Node10</title>
<g id="a_node5"><a xlink:href="main__window_8cpp.html" target="_top" xlink:title=" ">
<polygon fill="none" stroke="#000000" points="274.5,-.5 274.5,-19.5 463.5,-19.5 463.5,-.5 274.5,-.5"/>
<text text-anchor="middle" x="369" y="-7.5" font-family="Helvetica,sans-Serif" font-size="10.00" fill="#000000">fractal/main_window.cpp</text>
</a>
</g>
</g>
<!-- Node8&#45;&gt;Node10 -->
<g id="edge4" class="edge">
<title>Node8&#45;&gt;Node10</title>
<path fill="none" stroke="#191970" d="M303.4784,-50.769C319.4266,-40.8456 339.751,-28.1994 353.5028,-19.6427"/>
<polygon fill="#191970" stroke="#191970" points="301.3183,-47.9908 294.6768,-56.2455 305.0165,-53.9342 301.3183,-47.9908"/>
</g>
</g>
</svg>
