<?xml version="1.0" encoding="UTF-8" standalone="no"?>
<!DOCTYPE svg PUBLIC "-//W3C//DTD SVG 1.1//EN"
 "http://www.w3.org/Graphics/SVG/1.1/DTD/svg11.dtd">
<!-- Generated by graphviz version 2.40.1 (0)
 -->
<!-- Title: fractal/full_quad.h Pages: 1 -->
<svg width="312pt" height="140pt"
 viewBox="0.00 0.00 312.00 140.00" xmlns="http://www.w3.org/2000/svg" xmlns:xlink="http://www.w3.org/1999/xlink">
<g id="graph0" class="graph" transform="scale(1 1) rotate(0) translate(4 136)">
<title>fractal/full_quad.h</title>
<!-- Node0 -->
<g id="node1" class="node">
<title>Node0</title>
<g id="a_node1"><a xlink:title=" ">
<polygon fill="#bfbfbf" stroke="#000000" points="110,-112.5 110,-131.5 269,-131.5 269,-112.5 110,-112.5"/>
<text text-anchor="middle" x="189.5" y="-119.5" font-family="Helvetica,sans-Serif" font-size="10.00" fill="#000000">fractal/full_quad.h</text>
</a>
</g>
</g>
<!-- Node1 -->
<g id="node2" class="node">
<title>Node1</title>
<g id="a_node2"><a xlink:href="gl__object_8h.html" target="_top" xlink:title=" ">
<polygon fill="none" stroke="#000000" points="80,-56.5 80,-75.5 179,-75.5 179,-56.5 80,-56.5"/>
<text text-anchor="middle" x="129.5" y="-63.5" font-family="Helvetica,sans-Serif" font-size="10.00" fill="#000000">gl_object.h</text>
</a>
</g>
</g>
<!-- Node0&#45;&gt;Node1 -->
<g id="edge1" class="edge">
<title>Node0&#45;&gt;Node1</title>
<path fill="none" stroke="#191970" d="M179.0488,-112.2455C170.2731,-104.0549 157.5446,-92.1749 147.186,-82.5069"/>
<polygon fill="#191970" stroke="#191970" points="149.5301,-79.9072 139.8314,-75.6427 144.7539,-85.0246 149.5301,-79.9072"/>
</g>
<!-- Node4 -->
<g id="node5" class="node">
<title>Node4</title>
<g id="a_node5"><a xlink:href="scope__exit_8h.html" target="_top" xlink:title=" ">
<polygon fill="none" stroke="#000000" points="197,-56.5 197,-75.5 304,-75.5 304,-56.5 197,-56.5"/>
<text text-anchor="middle" x="250.5" y="-63.5" font-family="Helvetica,sans-Serif" font-size="10.00" fill="#000000">scope_exit.h</text>
</a>
</g>
</g>
<!-- Node0&#45;&gt;Node4 -->
<g id="edge4" class="edge">
<title>Node0&#45;&gt;Node4</title>
<path fill="none" stroke="#191970" d="M200.1254,-112.2455C209.0473,-104.0549 221.988,-92.1749 232.5192,-82.5069"/>
<polygon fill="#191970" stroke="#191970" points="234.9968,-84.9837 239.9964,-75.6427 230.2629,-79.8271 234.9968,-84.9837"/>
</g>
<!-- Node2 -->
<g id="node3" class="node">
<title>Node2</title>
<g id="a_node3"><a xlink:title=" ">
<polygon fill="none" stroke="#bfbfbf" points="0,-.5 0,-19.5 99,-19.5 99,-.5 0,-.5"/>
<text text-anchor="middle" x="49.5" y="-7.5" font-family="Helvetica,sans-Serif" font-size="10.00" fill="#000000">glad/glad.h</text>
</a>
</g>
</g>
<!-- Node1&#45;&gt;Node2 -->
<g id="edge2" class="edge">
<title>Node1&#45;&gt;Node2</title>
<path fill="none" stroke="#191970" d="M115.5651,-56.2455C103.4053,-47.7337 85.5536,-35.2375 71.4715,-25.3801"/>
<polygon fill="#191970" stroke="#191970" points="73.4747,-22.51 63.2752,-19.6427 69.4605,-28.2447 73.4747,-22.51"/>
</g>
<!-- Node3 -->
<g id="node4" class="node">
<title>Node3</title>
<g id="a_node4"><a xlink:title=" ">
<polygon fill="none" stroke="#bfbfbf" points="117.5,-.5 117.5,-19.5 171.5,-19.5 171.5,-.5 117.5,-.5"/>
<text text-anchor="middle" x="144.5" y="-7.5" font-family="Helvetica,sans-Serif" font-size="10.00" fill="#000000">array</text>
</a>
</g>
</g>
<!-- Node1&#45;&gt;Node3 -->
<g id="edge3" class="edge">
<title>Node1&#45;&gt;Node3</title>
<path fill="none" stroke="#191970" d="M132.1128,-56.2455C134.0916,-48.8579 136.8744,-38.4689 139.3012,-29.4087"/>
<polygon fill="#191970" stroke="#191970" points="142.7105,-30.2078 141.9171,-19.6427 135.9489,-28.3966 142.7105,-30.2078"/>
</g>
<!-- Node5 -->
<g id="node6" class="node">
<title>Node5</title>
<g id="a_node6"><a xlink:title=" ">
<polygon fill="none" stroke="#bfbfbf" points="204.5,-.5 204.5,-19.5 296.5,-19.5 296.5,-.5 204.5,-.5"/>
<text text-anchor="middle" x="250.5" y="-7.5" font-family="Helvetica,sans-Serif" font-size="10.00" fill="#000000">functional</text>
</a>
</g>
</g>
<!-- Node4&#45;&gt;Node5 -->
<g id="edge5" class="edge">
<title>Node4&#45;&gt;Node5</title>
<path fill="none" stroke="#191970" d="M250.5,-56.2455C250.5,-48.9382 250.5,-38.6944 250.5,-29.7046"/>
<polygon fill="#191970" stroke="#191970" points="254.0001,-29.6426 250.5,-19.6427 247.0001,-29.6427 254.0001,-29.6426"/>
</g>
</g>
</svg>
