<?xml version="1.0" encoding="UTF-8" standalone="no"?>
<!DOCTYPE svg PUBLIC "-//W3C//DTD SVG 1.1//EN"
 "http://www.w3.org/Graphics/SVG/1.1/DTD/svg11.dtd">
<!-- Generated by graphviz version 2.40.1 (0)
 -->
<!-- Title: fractal/gl_object.h Pages: 1 -->
<svg width="722pt" height="196pt"
 viewBox="0.00 0.00 721.50 196.00" xmlns="http://www.w3.org/2000/svg" xmlns:xlink="http://www.w3.org/1999/xlink">
<g id="graph0" class="graph" transform="scale(1 1) rotate(0) translate(4 192)">
<title>fractal/gl_object.h</title>
<!-- Node3 -->
<g id="node1" class="node">
<title>Node3</title>
<g id="a_node1"><a xlink:title=" ">
<polygon fill="#bfbfbf" stroke="#000000" points="282.5,-168.5 282.5,-187.5 441.5,-187.5 441.5,-168.5 282.5,-168.5"/>
<text text-anchor="middle" x="362" y="-175.5" font-family="Helvetica,sans-Serif" font-size="10.00" fill="#000000">fractal/gl_object.h</text>
</a>
</g>
</g>
<!-- Node4 -->
<g id="node2" class="node">
<title>Node4</title>
<g id="a_node2"><a xlink:href="full__quad_8h.html" target="_top" xlink:title=" ">
<polygon fill="none" stroke="#000000" points="116.5,-112.5 116.5,-131.5 275.5,-131.5 275.5,-112.5 116.5,-112.5"/>
<text text-anchor="middle" x="196" y="-119.5" font-family="Helvetica,sans-Serif" font-size="10.00" fill="#000000">fractal/full_quad.h</text>
</a>
</g>
</g>
<!-- Node3&#45;&gt;Node4 -->
<g id="edge1" class="edge">
<title>Node3&#45;&gt;Node4</title>
<path fill="none" stroke="#191970" d="M323.6333,-165.057C293.2534,-154.8084 251.5181,-140.729 224.164,-131.5011"/>
<polygon fill="#191970" stroke="#191970" points="322.8694,-168.4931 333.4636,-168.3733 325.107,-161.8603 322.8694,-168.4931"/>
</g>
<!-- Node9 -->
<g id="node7" class="node">
<title>Node9</title>
<g id="a_node7"><a xlink:href="shader_8h.html" target="_top" xlink:title=" ">
<polygon fill="none" stroke="#000000" points="293.5,-112.5 293.5,-131.5 430.5,-131.5 430.5,-112.5 293.5,-112.5"/>
<text text-anchor="middle" x="362" y="-119.5" font-family="Helvetica,sans-Serif" font-size="10.00" fill="#000000">fractal/shader.h</text>
</a>
</g>
</g>
<!-- Node3&#45;&gt;Node9 -->
<g id="edge6" class="edge">
<title>Node3&#45;&gt;Node9</title>
<path fill="none" stroke="#191970" d="M362,-158.1575C362,-149.155 362,-138.9199 362,-131.6427"/>
<polygon fill="#191970" stroke="#191970" points="358.5001,-158.2455 362,-168.2455 365.5001,-158.2456 358.5001,-158.2455"/>
</g>
<!-- Node11 -->
<g id="node9" class="node">
<title>Node11</title>
<g id="a_node9"><a xlink:href="texture_8h.html" target="_top" xlink:title=" ">
<polygon fill="none" stroke="#000000" points="449,-112.5 449,-131.5 593,-131.5 593,-112.5 449,-112.5"/>
<text text-anchor="middle" x="521" y="-119.5" font-family="Helvetica,sans-Serif" font-size="10.00" fill="#000000">fractal/texture.h</text>
</a>
</g>
</g>
<!-- Node3&#45;&gt;Node11 -->
<g id="edge9" class="edge">
<title>Node3&#45;&gt;Node11</title>
<path fill="none" stroke="#191970" d="M399.129,-164.9231C428.195,-154.686 467.9369,-140.6889 494.0236,-131.5011"/>
<polygon fill="#191970" stroke="#191970" points="397.6025,-161.75 389.3331,-168.3733 399.9279,-168.3524 397.6025,-161.75"/>
</g>
<!-- Node5 -->
<g id="node3" class="node">
<title>Node5</title>
<g id="a_node3"><a xlink:href="full__quad_8cpp.html" target="_top" xlink:title=" ">
<polygon fill="none" stroke="#000000" points="0,-56.5 0,-75.5 174,-75.5 174,-56.5 0,-56.5"/>
<text text-anchor="middle" x="87" y="-63.5" font-family="Helvetica,sans-Serif" font-size="10.00" fill="#000000">fractal/full_quad.cpp</text>
</a>
</g>
</g>
<!-- Node4&#45;&gt;Node5 -->
<g id="edge2" class="edge">
<title>Node4&#45;&gt;Node5</title>
<path fill="none" stroke="#191970" d="M167.9658,-107.5971C148.4254,-97.558 122.8908,-84.4393 105.7688,-75.6427"/>
<polygon fill="#191970" stroke="#191970" points="166.5194,-110.7889 177.0136,-112.2455 169.7183,-104.5625 166.5194,-110.7889"/>
</g>
<!-- Node6 -->
<g id="node4" class="node">
<title>Node6</title>
<g id="a_node4"><a xlink:href="main__window_8h.html" target="_top" xlink:title=" ">
<polygon fill="none" stroke="#000000" points="192,-56.5 192,-75.5 366,-75.5 366,-56.5 192,-56.5"/>
<text text-anchor="middle" x="279" y="-63.5" font-family="Helvetica,sans-Serif" font-size="10.00" fill="#000000">fractal/main_window.h</text>
</a>
</g>
</g>
<!-- Node4&#45;&gt;Node6 -->
<g id="edge3" class="edge">
<title>Node4&#45;&gt;Node6</title>
<path fill="none" stroke="#191970" d="M218.988,-106.49C233.6322,-96.6096 252.1444,-84.1194 264.7082,-75.6427"/>
<polygon fill="#191970" stroke="#191970" points="216.7896,-103.7511 210.4575,-112.2455 220.7047,-109.5539 216.7896,-103.7511"/>
</g>
<!-- Node7 -->
<g id="node5" class="node">
<title>Node7</title>
<g id="a_node5"><a xlink:href="main_8cpp.html" target="_top" xlink:title=" ">
<polygon fill="none" stroke="#000000" points="120.5,-.5 120.5,-19.5 257.5,-19.5 257.5,-.5 120.5,-.5"/>
<text text-anchor="middle" x="189" y="-7.5" font-family="Helvetica,sans-Serif" font-size="10.00" fill="#000000">fractal/main.cpp</text>
</a>
</g>
</g>
<!-- Node6&#45;&gt;Node7 -->
<g id="edge4" class="edge">
<title>Node6&#45;&gt;Node7</title>
<path fill="none" stroke="#191970" d="M254.5216,-50.769C238.5734,-40.8456 218.249,-28.1994 204.4972,-19.6427"/>
<polygon fill="#191970" stroke="#191970" points="252.9835,-53.9342 263.3232,-56.2455 256.6817,-47.9908 252.9835,-53.9342"/>
</g>
<!-- Node8 -->
<g id="node6" class="node">
<title>Node8</title>
<g id="a_node6"><a xlink:href="main__window_8cpp.html" target="_top" xlink:title=" ">
<polygon fill="none" stroke="#000000" points="275.5,-.5 275.5,-19.5 464.5,-19.5 464.5,-.5 275.5,-.5"/>
<text text-anchor="middle" x="370" y="-7.5" font-family="Helvetica,sans-Serif" font-size="10.00" fill="#000000">fractal/main_window.cpp</text>
</a>
</g>
</g>
<!-- Node6&#45;&gt;Node8 -->
<g id="edge5" class="edge">
<title>Node6&#45;&gt;Node8</title>
<path fill="none" stroke="#191970" d="M303.7504,-50.769C319.8758,-40.8456 340.426,-28.1994 354.3307,-19.6427"/>
<polygon fill="#191970" stroke="#191970" points="301.5332,-48.0237 294.851,-56.2455 305.2019,-53.9853 301.5332,-48.0237"/>
</g>
<!-- Node9&#45;&gt;Node6 -->
<g id="edge7" class="edge">
<title>Node9&#45;&gt;Node6</title>
<path fill="none" stroke="#191970" d="M339.012,-106.49C324.3678,-96.6096 305.8556,-84.1194 293.2918,-75.6427"/>
<polygon fill="#191970" stroke="#191970" points="337.2953,-109.5539 347.5425,-112.2455 341.2104,-103.7511 337.2953,-109.5539"/>
</g>
<!-- Node10 -->
<g id="node8" class="node">
<title>Node10</title>
<g id="a_node8"><a xlink:href="shader_8cpp.html" target="_top" xlink:title=" ">
<polygon fill="none" stroke="#000000" points="384,-56.5 384,-75.5 536,-75.5 536,-56.5 384,-56.5"/>
<text text-anchor="middle" x="460" y="-63.5" font-family="Helvetica,sans-Serif" font-size="10.00" fill="#000000">fractal/shader.cpp</text>
</a>
</g>
</g>
<!-- Node9&#45;&gt;Node10 -->
<g id="edge8" class="edge">
<title>Node9&#45;&gt;Node10</title>
<path fill="none" stroke="#191970" d="M388.1686,-107.0465C405.6058,-97.0824 428.0111,-84.2794 443.1253,-75.6427"/>
<polygon fill="#191970" stroke="#191970" points="386.0162,-104.2453 379.0703,-112.2455 389.4892,-110.323 386.0162,-104.2453"/>
</g>
<!-- Node11&#45;&gt;Node6 -->
<g id="edge10" class="edge">
<title>Node11&#45;&gt;Node6</title>
<path fill="none" stroke="#191970" d="M469.91,-110.1775C425.3413,-99.8641 361.5107,-85.0934 320.1559,-75.5237"/>
<polygon fill="#191970" stroke="#191970" points="469.142,-113.5922 479.6737,-112.4369 470.7202,-106.7724 469.142,-113.5922"/>
</g>
<!-- Node12 -->
<g id="node10" class="node">
<title>Node12</title>
<g id="a_node10"><a xlink:href="texture_8cpp.html" target="_top" xlink:title=" ">
<polygon fill="none" stroke="#000000" points="554.5,-56.5 554.5,-75.5 713.5,-75.5 713.5,-56.5 554.5,-56.5"/>
<text text-anchor="middle" x="634" y="-63.5" font-family="Helvetica,sans-Serif" font-size="10.00" fill="#000000">fractal/texture.cpp</text>
</a>
</g>
</g>
<!-- Node11&#45;&gt;Node12 -->
<g id="edge11" class="edge">
<title>Node11&#45;&gt;Node12</title>
<path fill="none" stroke="#191970" d="M549.5792,-107.8368C570.0058,-97.7139 596.9362,-84.3679 614.8281,-75.5011"/>
<polygon fill="#191970" stroke="#191970" points="547.8313,-104.7968 540.4254,-112.3733 550.9396,-111.0688 547.8313,-104.7968"/>
</g>
</g>
</svg>
