<?xml version="1.0" encoding="UTF-8" standalone="no"?>
<!DOCTYPE svg PUBLIC "-//W3C//DTD SVG 1.1//EN"
 "http://www.w3.org/Graphics/SVG/1.1/DTD/svg11.dtd">
<!-- Generated by graphviz version 2.40.1 (0)
 -->
<!-- Title: fractal/glad_glfw.h Pages: 1 -->
<svg width="486pt" height="196pt"
 viewBox="0.00 0.00 486.00 196.00" xmlns="http://www.w3.org/2000/svg" xmlns:xlink="http://www.w3.org/1999/xlink">
<g id="graph0" class="graph" transform="scale(1 1) rotate(0) translate(4 192)">
<title>fractal/glad_glfw.h</title>
<!-- Node3 -->
<g id="node1" class="node">
<title>Node3</title>
<g id="a_node1"><a xlink:title=" ">
<polygon fill="#bfbfbf" stroke="#000000" points="215,-168.5 215,-187.5 374,-187.5 374,-168.5 215,-168.5"/>
<text text-anchor="middle" x="294.5" y="-175.5" font-family="Helvetica,sans-Serif" font-size="10.00" fill="#000000">fractal/glad_glfw.h</text>
</a>
</g>
</g>
<!-- Node4 -->
<g id="node2" class="node">
<title>Node4</title>
<g id="a_node2"><a xlink:href="glfw__handle_8cpp.html" target="_top" xlink:title=" ">
<polygon fill="none" stroke="#000000" points="0,-112.5 0,-131.5 189,-131.5 189,-112.5 0,-112.5"/>
<text text-anchor="middle" x="94.5" y="-119.5" font-family="Helvetica,sans-Serif" font-size="10.00" fill="#000000">fractal/glfw_handle.cpp</text>
</a>
</g>
</g>
<!-- Node3&#45;&gt;Node4 -->
<g id="edge1" class="edge">
<title>Node3&#45;&gt;Node4</title>
<path fill="none" stroke="#191970" d="M250.1722,-165.5882C213.427,-155.2996 161.9625,-140.8895 128.4326,-131.5011"/>
<polygon fill="#191970" stroke="#191970" points="249.5454,-169.0473 260.1188,-168.3733 251.4329,-162.3065 249.5454,-169.0473"/>
</g>
<!-- Node5 -->
<g id="node3" class="node">
<title>Node5</title>
<g id="a_node3"><a xlink:href="glfw__window_8h.html" target="_top" xlink:title=" ">
<polygon fill="none" stroke="#000000" points="207.5,-112.5 207.5,-131.5 381.5,-131.5 381.5,-112.5 207.5,-112.5"/>
<text text-anchor="middle" x="294.5" y="-119.5" font-family="Helvetica,sans-Serif" font-size="10.00" fill="#000000">fractal/glfw_window.h</text>
</a>
</g>
</g>
<!-- Node3&#45;&gt;Node5 -->
<g id="edge2" class="edge">
<title>Node3&#45;&gt;Node5</title>
<path fill="none" stroke="#191970" d="M294.5,-158.1575C294.5,-149.155 294.5,-138.9199 294.5,-131.6427"/>
<polygon fill="#191970" stroke="#191970" points="291.0001,-158.2455 294.5,-168.2455 298.0001,-158.2456 291.0001,-158.2455"/>
</g>
<!-- Node8 -->
<g id="node6" class="node">
<title>Node8</title>
<g id="a_node6"><a xlink:href="main_8cpp.html" target="_top" xlink:title=" ">
<polygon fill="none" stroke="#000000" points="341,-.5 341,-19.5 478,-19.5 478,-.5 341,-.5"/>
<text text-anchor="middle" x="409.5" y="-7.5" font-family="Helvetica,sans-Serif" font-size="10.00" fill="#000000">fractal/main.cpp</text>
</a>
</g>
</g>
<!-- Node3&#45;&gt;Node8 -->
<g id="edge7" class="edge">
<title>Node3&#45;&gt;Node8</title>
<path fill="none" stroke="#191970" d="M343.824,-164.8771C361.1155,-157.8655 379.0577,-147.3931 390.5,-132 416.204,-97.4209 413.2576,-41.9324 410.8052,-19.6858"/>
<polygon fill="#191970" stroke="#191970" points="342.4717,-161.646 334.33,-168.4256 344.9225,-168.203 342.4717,-161.646"/>
</g>
<!-- Node6 -->
<g id="node4" class="node">
<title>Node6</title>
<g id="a_node4"><a xlink:href="glfw__window_8cpp.html" target="_top" xlink:title=" ">
<polygon fill="none" stroke="#000000" points="0,-56.5 0,-75.5 189,-75.5 189,-56.5 0,-56.5"/>
<text text-anchor="middle" x="94.5" y="-63.5" font-family="Helvetica,sans-Serif" font-size="10.00" fill="#000000">fractal/glfw_window.cpp</text>
</a>
</g>
</g>
<!-- Node5&#45;&gt;Node6 -->
<g id="edge3" class="edge">
<title>Node5&#45;&gt;Node6</title>
<path fill="none" stroke="#191970" d="M250.1722,-109.5882C213.427,-99.2996 161.9625,-84.8895 128.4326,-75.5011"/>
<polygon fill="#191970" stroke="#191970" points="249.5454,-113.0473 260.1188,-112.3733 251.4329,-106.3065 249.5454,-113.0473"/>
</g>
<!-- Node7 -->
<g id="node5" class="node">
<title>Node7</title>
<g id="a_node5"><a xlink:href="main__window_8h.html" target="_top" xlink:title=" ">
<polygon fill="none" stroke="#000000" points="207.5,-56.5 207.5,-75.5 381.5,-75.5 381.5,-56.5 207.5,-56.5"/>
<text text-anchor="middle" x="294.5" y="-63.5" font-family="Helvetica,sans-Serif" font-size="10.00" fill="#000000">fractal/main_window.h</text>
</a>
</g>
</g>
<!-- Node5&#45;&gt;Node7 -->
<g id="edge4" class="edge">
<title>Node5&#45;&gt;Node7</title>
<path fill="none" stroke="#191970" d="M294.5,-102.1575C294.5,-93.155 294.5,-82.9199 294.5,-75.6427"/>
<polygon fill="#191970" stroke="#191970" points="291.0001,-102.2455 294.5,-112.2455 298.0001,-102.2456 291.0001,-102.2455"/>
</g>
<!-- Node7&#45;&gt;Node8 -->
<g id="edge5" class="edge">
<title>Node7&#45;&gt;Node8</title>
<path fill="none" stroke="#191970" d="M323.3033,-51.9741C344.125,-41.8348 371.6978,-28.408 389.9888,-19.5011"/>
<polygon fill="#191970" stroke="#191970" points="321.7276,-48.8484 314.2692,-56.3733 324.7922,-55.1419 321.7276,-48.8484"/>
</g>
<!-- Node9 -->
<g id="node7" class="node">
<title>Node9</title>
<g id="a_node7"><a xlink:href="main__window_8cpp.html" target="_top" xlink:title=" ">
<polygon fill="none" stroke="#000000" points="134,-.5 134,-19.5 323,-19.5 323,-.5 134,-.5"/>
<text text-anchor="middle" x="228.5" y="-7.5" font-family="Helvetica,sans-Serif" font-size="10.00" fill="#000000">fractal/main_window.cpp</text>
</a>
</g>
</g>
<!-- Node7&#45;&gt;Node9 -->
<g id="edge6" class="edge">
<title>Node7&#45;&gt;Node9</title>
<path fill="none" stroke="#191970" d="M275.2245,-49.645C263.7462,-39.9058 249.5723,-27.8795 239.8646,-19.6427"/>
<polygon fill="#191970" stroke="#191970" points="273.1141,-52.4445 283.0037,-56.2455 277.643,-47.1069 273.1141,-52.4445"/>
</g>
</g>
</svg>
