<?xml version="1.0" encoding="UTF-8" standalone="no"?>
<!DOCTYPE svg PUBLIC "-//W3C//DTD SVG 1.1//EN"
 "http://www.w3.org/Graphics/SVG/1.1/DTD/svg11.dtd">
<!-- Generated by graphviz version 2.40.1 (0)
 -->
<!-- Title: fractal/glfw_handle.h Pages: 1 -->
<svg width="603pt" height="196pt"
 viewBox="0.00 0.00 603.00 196.00" xmlns="http://www.w3.org/2000/svg" xmlns:xlink="http://www.w3.org/1999/xlink">
<g id="graph0" class="graph" transform="scale(1 1) rotate(0) translate(4 192)">
<title>fractal/glfw_handle.h</title>
<!-- Node2 -->
<g id="node1" class="node">
<title>Node2</title>
<g id="a_node1"><a xlink:title=" ">
<polygon fill="#bfbfbf" stroke="#000000" points="207.5,-168.5 207.5,-187.5 381.5,-187.5 381.5,-168.5 207.5,-168.5"/>
<text text-anchor="middle" x="294.5" y="-175.5" font-family="Helvetica,sans-Serif" font-size="10.00" fill="#000000">fractal/glfw_handle.h</text>
</a>
</g>
</g>
<!-- Node3 -->
<g id="node2" class="node">
<title>Node3</title>
<g id="a_node2"><a xlink:href="glfw__handle_8cpp.html" target="_top" xlink:title=" ">
<polygon fill="none" stroke="#000000" points="0,-112.5 0,-131.5 189,-131.5 189,-112.5 0,-112.5"/>
<text text-anchor="middle" x="94.5" y="-119.5" font-family="Helvetica,sans-Serif" font-size="10.00" fill="#000000">fractal/glfw_handle.cpp</text>
</a>
</g>
</g>
<!-- Node2&#45;&gt;Node3 -->
<g id="edge1" class="edge">
<title>Node2&#45;&gt;Node3</title>
<path fill="none" stroke="#191970" d="M250.1722,-165.5882C213.427,-155.2996 161.9625,-140.8895 128.4326,-131.5011"/>
<polygon fill="#191970" stroke="#191970" points="249.5454,-169.0473 260.1188,-168.3733 251.4329,-162.3065 249.5454,-169.0473"/>
</g>
<!-- Node4 -->
<g id="node3" class="node">
<title>Node4</title>
<g id="a_node3"><a xlink:href="glfw__window_8h.html" target="_top" xlink:title=" ">
<polygon fill="none" stroke="#000000" points="207.5,-112.5 207.5,-131.5 381.5,-131.5 381.5,-112.5 207.5,-112.5"/>
<text text-anchor="middle" x="294.5" y="-119.5" font-family="Helvetica,sans-Serif" font-size="10.00" fill="#000000">fractal/glfw_window.h</text>
</a>
</g>
</g>
<!-- Node2&#45;&gt;Node4 -->
<g id="edge2" class="edge">
<title>Node2&#45;&gt;Node4</title>
<path fill="none" stroke="#191970" d="M294.5,-158.1575C294.5,-149.155 294.5,-138.9199 294.5,-131.6427"/>
<polygon fill="#191970" stroke="#191970" points="291.0001,-158.2455 294.5,-168.2455 298.0001,-158.2456 291.0001,-158.2455"/>
</g>
<!-- Node6 -->
<g id="node5" class="node">
<title>Node6</title>
<g id="a_node5"><a xlink:href="main__window_8h.html" target="_top" xlink:title=" ">
<polygon fill="none" stroke="#000000" points="322.5,-56.5 322.5,-75.5 496.5,-75.5 496.5,-56.5 322.5,-56.5"/>
<text text-anchor="middle" x="409.5" y="-63.5" font-family="Helvetica,sans-Serif" font-size="10.00" fill="#000000">fractal/main_window.h</text>
</a>
</g>
</g>
<!-- Node2&#45;&gt;Node6 -->
<g id="edge7" class="edge">
<title>Node2&#45;&gt;Node6</title>
<path fill="none" stroke="#191970" d="M341.1498,-164.7652C358.8071,-157.6413 377.7099,-147.1196 390.5,-132 404.3615,-115.6139 408.1236,-89.6414 409.1356,-75.6644"/>
<polygon fill="#191970" stroke="#191970" points="339.6478,-161.5905 331.5151,-168.3809 342.1073,-168.1441 339.6478,-161.5905"/>
</g>
<!-- Node5 -->
<g id="node4" class="node">
<title>Node5</title>
<g id="a_node4"><a xlink:href="glfw__window_8cpp.html" target="_top" xlink:title=" ">
<polygon fill="none" stroke="#000000" points="115,-56.5 115,-75.5 304,-75.5 304,-56.5 115,-56.5"/>
<text text-anchor="middle" x="209.5" y="-63.5" font-family="Helvetica,sans-Serif" font-size="10.00" fill="#000000">fractal/glfw_window.cpp</text>
</a>
</g>
</g>
<!-- Node4&#45;&gt;Node5 -->
<g id="edge3" class="edge">
<title>Node4&#45;&gt;Node5</title>
<path fill="none" stroke="#191970" d="M270.9581,-106.49C255.961,-96.6096 237.0027,-84.1194 224.1362,-75.6427"/>
<polygon fill="#191970" stroke="#191970" points="269.4179,-109.6666 279.6941,-112.2455 273.2691,-103.8212 269.4179,-109.6666"/>
</g>
<!-- Node4&#45;&gt;Node6 -->
<g id="edge4" class="edge">
<title>Node4&#45;&gt;Node6</title>
<path fill="none" stroke="#191970" d="M323.3033,-107.9741C344.125,-97.8348 371.6978,-84.408 389.9888,-75.5011"/>
<polygon fill="#191970" stroke="#191970" points="321.7276,-104.8484 314.2692,-112.3733 324.7922,-111.1419 321.7276,-104.8484"/>
</g>
<!-- Node7 -->
<g id="node6" class="node">
<title>Node7</title>
<g id="a_node6"><a xlink:href="main_8cpp.html" target="_top" xlink:title=" ">
<polygon fill="none" stroke="#000000" points="251,-.5 251,-19.5 388,-19.5 388,-.5 251,-.5"/>
<text text-anchor="middle" x="319.5" y="-7.5" font-family="Helvetica,sans-Serif" font-size="10.00" fill="#000000">fractal/main.cpp</text>
</a>
</g>
</g>
<!-- Node6&#45;&gt;Node7 -->
<g id="edge5" class="edge">
<title>Node6&#45;&gt;Node7</title>
<path fill="none" stroke="#191970" d="M385.0216,-50.769C369.0734,-40.8456 348.749,-28.1994 334.9972,-19.6427"/>
<polygon fill="#191970" stroke="#191970" points="383.4835,-53.9342 393.8232,-56.2455 387.1817,-47.9908 383.4835,-53.9342"/>
</g>
<!-- Node8 -->
<g id="node7" class="node">
<title>Node8</title>
<g id="a_node7"><a xlink:href="main__window_8cpp.html" target="_top" xlink:title=" ">
<polygon fill="none" stroke="#000000" points="406,-.5 406,-19.5 595,-19.5 595,-.5 406,-.5"/>
<text text-anchor="middle" x="500.5" y="-7.5" font-family="Helvetica,sans-Serif" font-size="10.00" fill="#000000">fractal/main_window.cpp</text>
</a>
</g>
</g>
<!-- Node6&#45;&gt;Node8 -->
<g id="edge6" class="edge">
<title>Node6&#45;&gt;Node8</title>
<path fill="none" stroke="#191970" d="M434.2504,-50.769C450.3758,-40.8456 470.926,-28.1994 484.8307,-19.6427"/>
<polygon fill="#191970" stroke="#191970" points="432.0332,-48.0237 425.351,-56.2455 435.7019,-53.9853 432.0332,-48.0237"/>
</g>
</g>
</svg>
