<?xml version="1.0" encoding="UTF-8" standalone="no"?>
<!DOCTYPE svg PUBLIC "-//W3C//DTD SVG 1.1//EN"
 "http://www.w3.org/Graphics/SVG/1.1/DTD/svg11.dtd">
<!-- Generated by graphviz version 2.40.1 (0)
 -->
<!-- Title: fractal/glfw_window.cpp Pages: 1 -->
<svg width="626pt" height="196pt"
 viewBox="0.00 0.00 625.50 196.00" xmlns="http://www.w3.org/2000/svg" xmlns:xlink="http://www.w3.org/1999/xlink">
<g id="graph0" class="graph" transform="scale(1 1) rotate(0) translate(4 192)">
<title>fractal/glfw_window.cpp</title>
<!-- Node0 -->
<g id="node1" class="node">
<title>Node0</title>
<g id="a_node1"><a xlink:title=" ">
<polygon fill="#bfbfbf" stroke="#000000" points="356,-168.5 356,-187.5 545,-187.5 545,-168.5 356,-168.5"/>
<text text-anchor="middle" x="450.5" y="-175.5" font-family="Helvetica,sans-Serif" font-size="10.00" fill="#000000">fractal/glfw_window.cpp</text>
</a>
</g>
</g>
<!-- Node1 -->
<g id="node2" class="node">
<title>Node1</title>
<g id="a_node2"><a xlink:href="glfw__window_8h.html" target="_top" xlink:title=" ">
<polygon fill="none" stroke="#000000" points="253.5,-112.5 253.5,-131.5 367.5,-131.5 367.5,-112.5 253.5,-112.5"/>
<text text-anchor="middle" x="310.5" y="-119.5" font-family="Helvetica,sans-Serif" font-size="10.00" fill="#000000">glfw_window.h</text>
</a>
</g>
</g>
<!-- Node0&#45;&gt;Node1 -->
<g id="edge1" class="edge">
<title>Node0&#45;&gt;Node1</title>
<path fill="none" stroke="#191970" d="M426.4331,-168.3733C403.6572,-159.2629 369.2656,-145.5062 343.851,-135.3404"/>
<polygon fill="#191970" stroke="#191970" points="344.8375,-131.9654 334.2528,-131.5011 342.2377,-138.4648 344.8375,-131.9654"/>
</g>
<!-- Node8 -->
<g id="node9" class="node">
<title>Node8</title>
<g id="a_node9"><a xlink:title=" ">
<polygon fill="none" stroke="#bfbfbf" points="386,-112.5 386,-131.5 515,-131.5 515,-112.5 386,-112.5"/>
<text text-anchor="middle" x="450.5" y="-119.5" font-family="Helvetica,sans-Serif" font-size="10.00" fill="#000000">spdlog/spdlog.h</text>
</a>
</g>
</g>
<!-- Node0&#45;&gt;Node8 -->
<g id="edge9" class="edge">
<title>Node0&#45;&gt;Node8</title>
<path fill="none" stroke="#191970" d="M450.5,-168.2455C450.5,-160.9382 450.5,-150.6944 450.5,-141.7046"/>
<polygon fill="#191970" stroke="#191970" points="454.0001,-141.6426 450.5,-131.6427 447.0001,-141.6427 454.0001,-141.6426"/>
</g>
<!-- Node9 -->
<g id="node10" class="node">
<title>Node9</title>
<g id="a_node10"><a xlink:title=" ">
<polygon fill="none" stroke="#bfbfbf" points="533.5,-112.5 533.5,-131.5 617.5,-131.5 617.5,-112.5 533.5,-112.5"/>
<text text-anchor="middle" x="575.5" y="-119.5" font-family="Helvetica,sans-Serif" font-size="10.00" fill="#000000">stdexcept</text>
</a>
</g>
</g>
<!-- Node0&#45;&gt;Node9 -->
<g id="edge10" class="edge">
<title>Node0&#45;&gt;Node9</title>
<path fill="none" stroke="#191970" d="M471.9883,-168.3733C492.144,-159.3435 522.488,-145.7494 545.118,-135.6111"/>
<polygon fill="#191970" stroke="#191970" points="546.5971,-138.7838 554.2921,-131.5011 543.7351,-132.3955 546.5971,-138.7838"/>
</g>
<!-- Node2 -->
<g id="node3" class="node">
<title>Node2</title>
<g id="a_node3"><a xlink:href="glad__glfw_8h.html" target="_top" xlink:title=" ">
<polygon fill="none" stroke="#000000" points="94,-56.5 94,-75.5 193,-75.5 193,-56.5 94,-56.5"/>
<text text-anchor="middle" x="143.5" y="-63.5" font-family="Helvetica,sans-Serif" font-size="10.00" fill="#000000">glad_glfw.h</text>
</a>
</g>
</g>
<!-- Node1&#45;&gt;Node2 -->
<g id="edge2" class="edge">
<title>Node1&#45;&gt;Node2</title>
<path fill="none" stroke="#191970" d="M281.7917,-112.3733C254.1423,-103.1016 212.1424,-89.0178 181.6834,-78.804"/>
<polygon fill="#191970" stroke="#191970" points="182.4276,-75.3621 171.8337,-75.5011 180.2021,-81.9989 182.4276,-75.3621"/>
</g>
<!-- Node5 -->
<g id="node6" class="node">
<title>Node5</title>
<g id="a_node6"><a xlink:href="glfw__handle_8h.html" target="_top" xlink:title=" ">
<polygon fill="none" stroke="#000000" points="211.5,-56.5 211.5,-75.5 325.5,-75.5 325.5,-56.5 211.5,-56.5"/>
<text text-anchor="middle" x="268.5" y="-63.5" font-family="Helvetica,sans-Serif" font-size="10.00" fill="#000000">glfw_handle.h</text>
</a>
</g>
</g>
<!-- Node1&#45;&gt;Node5 -->
<g id="edge5" class="edge">
<title>Node1&#45;&gt;Node5</title>
<path fill="none" stroke="#191970" d="M303.1842,-112.2455C297.2821,-104.3761 288.8258,-93.101 281.7406,-83.6542"/>
<polygon fill="#191970" stroke="#191970" points="284.5321,-81.5427 275.732,-75.6427 278.932,-85.7427 284.5321,-81.5427"/>
</g>
<!-- Node6 -->
<g id="node7" class="node">
<title>Node6</title>
<g id="a_node7"><a xlink:title=" ">
<polygon fill="none" stroke="#bfbfbf" points="295.5,-.5 295.5,-19.5 357.5,-19.5 357.5,-.5 295.5,-.5"/>
<text text-anchor="middle" x="326.5" y="-7.5" font-family="Helvetica,sans-Serif" font-size="10.00" fill="#000000">memory</text>
</a>
</g>
</g>
<!-- Node1&#45;&gt;Node6 -->
<g id="edge7" class="edge">
<title>Node1&#45;&gt;Node6</title>
<path fill="none" stroke="#191970" d="M317.3208,-112.328C323.1826,-103.3825 331.1966,-89.4728 334.5,-76 338.2793,-60.586 335.6909,-42.6899 332.4849,-29.4248"/>
<polygon fill="#191970" stroke="#191970" points="335.7912,-28.2468 329.7727,-19.5274 329.0401,-30.0968 335.7912,-28.2468"/>
</g>
<!-- Node7 -->
<g id="node8" class="node">
<title>Node7</title>
<g id="a_node8"><a xlink:title=" ">
<polygon fill="none" stroke="#bfbfbf" points="382,-56.5 382,-75.5 481,-75.5 481,-56.5 382,-56.5"/>
<text text-anchor="middle" x="431.5" y="-63.5" font-family="Helvetica,sans-Serif" font-size="10.00" fill="#000000">string_view</text>
</a>
</g>
</g>
<!-- Node1&#45;&gt;Node7 -->
<g id="edge8" class="edge">
<title>Node1&#45;&gt;Node7</title>
<path fill="none" stroke="#191970" d="M331.3006,-112.3733C350.7243,-103.3838 379.9224,-89.8706 401.7964,-79.7471"/>
<polygon fill="#191970" stroke="#191970" points="403.3656,-82.8776 410.9708,-75.5011 400.4255,-76.5249 403.3656,-82.8776"/>
</g>
<!-- Node3 -->
<g id="node4" class="node">
<title>Node3</title>
<g id="a_node4"><a xlink:title=" ">
<polygon fill="none" stroke="#bfbfbf" points="0,-.5 0,-19.5 99,-19.5 99,-.5 0,-.5"/>
<text text-anchor="middle" x="49.5" y="-7.5" font-family="Helvetica,sans-Serif" font-size="10.00" fill="#000000">glad/glad.h</text>
</a>
</g>
</g>
<!-- Node2&#45;&gt;Node3 -->
<g id="edge3" class="edge">
<title>Node2&#45;&gt;Node3</title>
<path fill="none" stroke="#191970" d="M127.1264,-56.2455C112.5692,-47.5731 91.069,-34.7645 74.3848,-24.825"/>
<polygon fill="#191970" stroke="#191970" points="76.0683,-21.7539 65.6859,-19.6427 72.4856,-27.7676 76.0683,-21.7539"/>
</g>
<!-- Node4 -->
<g id="node5" class="node">
<title>Node4</title>
<g id="a_node5"><a xlink:title=" ">
<polygon fill="none" stroke="#bfbfbf" points="117,-.5 117,-19.5 224,-19.5 224,-.5 117,-.5"/>
<text text-anchor="middle" x="170.5" y="-7.5" font-family="Helvetica,sans-Serif" font-size="10.00" fill="#000000">GLFW/glfw3.h</text>
</a>
</g>
</g>
<!-- Node2&#45;&gt;Node4 -->
<g id="edge4" class="edge">
<title>Node2&#45;&gt;Node4</title>
<path fill="none" stroke="#191970" d="M148.203,-56.2455C151.8424,-48.6973 156.9924,-38.0158 161.4262,-28.8197"/>
<polygon fill="#191970" stroke="#191970" points="164.6605,-30.1704 165.8509,-19.6427 158.3551,-27.1303 164.6605,-30.1704"/>
</g>
<!-- Node5&#45;&gt;Node6 -->
<g id="edge6" class="edge">
<title>Node5&#45;&gt;Node6</title>
<path fill="none" stroke="#191970" d="M278.6028,-56.2455C287.0028,-48.1352 299.1494,-36.4075 309.1084,-26.7919"/>
<polygon fill="#191970" stroke="#191970" points="311.75,-29.1066 316.5129,-19.6427 306.8878,-24.0707 311.75,-29.1066"/>
</g>
</g>
</svg>
