<?xml version="1.0" encoding="UTF-8" standalone="no"?>
<!DOCTYPE svg PUBLIC "-//W3C//DTD SVG 1.1//EN"
 "http://www.w3.org/Graphics/SVG/1.1/DTD/svg11.dtd">
<!-- Generated by graphviz version 2.40.1 (0)
 -->
<!-- Title: fractal/glfw_handle.cpp Pages: 1 -->
<svg width="352pt" height="140pt"
 viewBox="0.00 0.00 351.50 140.00" xmlns="http://www.w3.org/2000/svg" xmlns:xlink="http://www.w3.org/1999/xlink">
<g id="graph0" class="graph" transform="scale(1 1) rotate(0) translate(4 136)">
<title>fractal/glfw_handle.cpp</title>
<!-- Node0 -->
<g id="node1" class="node">
<title>Node0</title>
<g id="a_node1"><a xlink:title=" ">
<polygon fill="#bfbfbf" stroke="#000000" points="87.5,-112.5 87.5,-131.5 276.5,-131.5 276.5,-112.5 87.5,-112.5"/>
<text text-anchor="middle" x="182" y="-119.5" font-family="Helvetica,sans-Serif" font-size="10.00" fill="#000000">fractal/glfw_handle.cpp</text>
</a>
</g>
</g>
<!-- Node1 -->
<g id="node2" class="node">
<title>Node1</title>
<g id="a_node2"><a xlink:href="glfw__handle_8h.html" target="_top" xlink:title=" ">
<polygon fill="none" stroke="#000000" points="0,-56.5 0,-75.5 114,-75.5 114,-56.5 0,-56.5"/>
<text text-anchor="middle" x="57" y="-63.5" font-family="Helvetica,sans-Serif" font-size="10.00" fill="#000000">glfw_handle.h</text>
</a>
</g>
</g>
<!-- Node0&#45;&gt;Node1 -->
<g id="edge1" class="edge">
<title>Node0&#45;&gt;Node1</title>
<path fill="none" stroke="#191970" d="M160.5117,-112.3733C140.356,-103.3435 110.012,-89.7494 87.382,-79.6111"/>
<polygon fill="#191970" stroke="#191970" points="88.7649,-76.3955 78.2079,-75.5011 85.9029,-82.7838 88.7649,-76.3955"/>
</g>
<!-- Node3 -->
<g id="node4" class="node">
<title>Node3</title>
<g id="a_node4"><a xlink:href="glad__glfw_8h.html" target="_top" xlink:title=" ">
<polygon fill="none" stroke="#000000" points="132.5,-56.5 132.5,-75.5 231.5,-75.5 231.5,-56.5 132.5,-56.5"/>
<text text-anchor="middle" x="182" y="-63.5" font-family="Helvetica,sans-Serif" font-size="10.00" fill="#000000">glad_glfw.h</text>
</a>
</g>
</g>
<!-- Node0&#45;&gt;Node3 -->
<g id="edge3" class="edge">
<title>Node0&#45;&gt;Node3</title>
<path fill="none" stroke="#191970" d="M182,-112.2455C182,-104.9382 182,-94.6944 182,-85.7046"/>
<polygon fill="#191970" stroke="#191970" points="185.5001,-85.6426 182,-75.6427 178.5001,-85.6427 185.5001,-85.6426"/>
</g>
<!-- Node6 -->
<g id="node7" class="node">
<title>Node6</title>
<g id="a_node7"><a xlink:title=" ">
<polygon fill="none" stroke="#bfbfbf" points="250,-56.5 250,-75.5 334,-75.5 334,-56.5 250,-56.5"/>
<text text-anchor="middle" x="292" y="-63.5" font-family="Helvetica,sans-Serif" font-size="10.00" fill="#000000">stdexcept</text>
</a>
</g>
</g>
<!-- Node0&#45;&gt;Node6 -->
<g id="edge6" class="edge">
<title>Node0&#45;&gt;Node6</title>
<path fill="none" stroke="#191970" d="M201.1605,-112.2455C218.5111,-103.4125 244.2901,-90.2887 263.9583,-80.2758"/>
<polygon fill="#191970" stroke="#191970" points="265.7353,-83.2986 273.059,-75.6427 262.5595,-77.0605 265.7353,-83.2986"/>
</g>
<!-- Node2 -->
<g id="node3" class="node">
<title>Node2</title>
<g id="a_node3"><a xlink:title=" ">
<polygon fill="none" stroke="#bfbfbf" points="26,-.5 26,-19.5 88,-19.5 88,-.5 26,-.5"/>
<text text-anchor="middle" x="57" y="-7.5" font-family="Helvetica,sans-Serif" font-size="10.00" fill="#000000">memory</text>
</a>
</g>
</g>
<!-- Node1&#45;&gt;Node2 -->
<g id="edge2" class="edge">
<title>Node1&#45;&gt;Node2</title>
<path fill="none" stroke="#191970" d="M57,-56.2455C57,-48.9382 57,-38.6944 57,-29.7046"/>
<polygon fill="#191970" stroke="#191970" points="60.5001,-29.6426 57,-19.6427 53.5001,-29.6427 60.5001,-29.6426"/>
</g>
<!-- Node4 -->
<g id="node5" class="node">
<title>Node4</title>
<g id="a_node5"><a xlink:title=" ">
<polygon fill="none" stroke="#bfbfbf" points="119.5,-.5 119.5,-19.5 218.5,-19.5 218.5,-.5 119.5,-.5"/>
<text text-anchor="middle" x="169" y="-7.5" font-family="Helvetica,sans-Serif" font-size="10.00" fill="#000000">glad/glad.h</text>
</a>
</g>
</g>
<!-- Node3&#45;&gt;Node4 -->
<g id="edge4" class="edge">
<title>Node3&#45;&gt;Node4</title>
<path fill="none" stroke="#191970" d="M179.7356,-56.2455C178.0206,-48.8579 175.6088,-38.4689 173.5056,-29.4087"/>
<polygon fill="#191970" stroke="#191970" points="176.9092,-28.5922 171.2385,-19.6427 170.0905,-30.1751 176.9092,-28.5922"/>
</g>
<!-- Node5 -->
<g id="node6" class="node">
<title>Node5</title>
<g id="a_node6"><a xlink:title=" ">
<polygon fill="none" stroke="#bfbfbf" points="236.5,-.5 236.5,-19.5 343.5,-19.5 343.5,-.5 236.5,-.5"/>
<text text-anchor="middle" x="290" y="-7.5" font-family="Helvetica,sans-Serif" font-size="10.00" fill="#000000">GLFW/glfw3.h</text>
</a>
</g>
</g>
<!-- Node3&#45;&gt;Node5 -->
<g id="edge5" class="edge">
<title>Node3&#45;&gt;Node5</title>
<path fill="none" stroke="#191970" d="M200.8122,-56.2455C217.8473,-47.4125 243.1575,-34.2887 262.4681,-24.2758"/>
<polygon fill="#191970" stroke="#191970" points="264.137,-27.353 271.4034,-19.6427 260.9147,-21.1388 264.137,-27.353"/>
</g>
</g>
</svg>
