<?xml version="1.0" encoding="UTF-8" standalone="no"?>
<!DOCTYPE svg PUBLIC "-//W3C//DTD SVG 1.1//EN"
 "http://www.w3.org/Graphics/SVG/1.1/DTD/svg11.dtd">
<!-- Generated by graphviz version 2.40.1 (0)
 -->
<!-- Title: fractal/main_window.h Pages: 1 -->
<svg width="1117pt" height="196pt"
 viewBox="0.00 0.00 1117.17 196.00" xmlns="http://www.w3.org/2000/svg" xmlns:xlink="http://www.w3.org/1999/xlink">
<g id="graph0" class="graph" transform="scale(1 1) rotate(0) translate(4 192)">
<title>fractal/main_window.h</title>
<!-- Node0 -->
<g id="node1" class="node">
<title>Node0</title>
<g id="a_node1"><a xlink:title=" ">
<polygon fill="#bfbfbf" stroke="#000000" points="393.1676,-168.5 393.1676,-187.5 567.1676,-187.5 567.1676,-168.5 393.1676,-168.5"/>
<text text-anchor="middle" x="480.1676" y="-175.5" font-family="Helvetica,sans-Serif" font-size="10.00" fill="#000000">fractal/main_window.h</text>
</a>
</g>
</g>
<!-- Node1 -->
<g id="node2" class="node">
<title>Node1</title>
<g id="a_node2"><a xlink:href="full__quad_8h.html" target="_top" xlink:title=" ">
<polygon fill="none" stroke="#000000" points="123.6676,-112.5 123.6676,-131.5 222.6676,-131.5 222.6676,-112.5 123.6676,-112.5"/>
<text text-anchor="middle" x="173.1676" y="-119.5" font-family="Helvetica,sans-Serif" font-size="10.00" fill="#000000">full_quad.h</text>
</a>
</g>
</g>
<!-- Node0&#45;&gt;Node1 -->
<g id="edge1" class="edge">
<title>Node0&#45;&gt;Node1</title>
<path fill="none" stroke="#191970" d="M427.7412,-168.4369C373.6201,-158.5646 289.3222,-143.1878 232.7192,-132.8628"/>
<polygon fill="#191970" stroke="#191970" points="233.3014,-129.4114 222.8356,-131.06 232.0452,-136.2977 233.3014,-129.4114"/>
</g>
<!-- Node7 -->
<g id="node8" class="node">
<title>Node7</title>
<g id="a_node8"><a xlink:href="glfw__handle_8h.html" target="_top" xlink:title=" ">
<polygon fill="none" stroke="#000000" points="567.1676,-56.5 567.1676,-75.5 681.1676,-75.5 681.1676,-56.5 567.1676,-56.5"/>
<text text-anchor="middle" x="624.1676" y="-63.5" font-family="Helvetica,sans-Serif" font-size="10.00" fill="#000000">glfw_handle.h</text>
</a>
</g>
</g>
<!-- Node0&#45;&gt;Node7 -->
<g id="edge7" class="edge">
<title>Node0&#45;&gt;Node7</title>
<path fill="none" stroke="#191970" d="M494.8669,-168.3313C508.4305,-159.2753 529.0055,-145.1955 546.1676,-132 567.0507,-115.9434 589.9524,-96.3066 605.5039,-82.6461"/>
<polygon fill="#191970" stroke="#191970" points="608.1519,-84.9769 613.3278,-75.7324 603.5167,-79.7314 608.1519,-84.9769"/>
</g>
<!-- Node9 -->
<g id="node10" class="node">
<title>Node9</title>
<g id="a_node10"><a xlink:href="glfw__window_8h.html" target="_top" xlink:title=" ">
<polygon fill="none" stroke="#000000" points="423.1676,-112.5 423.1676,-131.5 537.1676,-131.5 537.1676,-112.5 423.1676,-112.5"/>
<text text-anchor="middle" x="480.1676" y="-119.5" font-family="Helvetica,sans-Serif" font-size="10.00" fill="#000000">glfw_window.h</text>
</a>
</g>
</g>
<!-- Node0&#45;&gt;Node9 -->
<g id="edge9" class="edge">
<title>Node0&#45;&gt;Node9</title>
<path fill="none" stroke="#191970" d="M480.1676,-168.2455C480.1676,-160.9382 480.1676,-150.6944 480.1676,-141.7046"/>
<polygon fill="#191970" stroke="#191970" points="483.6677,-141.6426 480.1676,-131.6427 476.6677,-141.6427 483.6677,-141.6426"/>
</g>
<!-- Node13 -->
<g id="node14" class="node">
<title>Node13</title>
<g id="a_node14"><a xlink:href="mandelbrot_8h.html" target="_top" xlink:title=" ">
<polygon fill="none" stroke="#000000" points="806.6676,-112.5 806.6676,-131.5 913.6676,-131.5 913.6676,-112.5 806.6676,-112.5"/>
<text text-anchor="middle" x="860.1676" y="-119.5" font-family="Helvetica,sans-Serif" font-size="10.00" fill="#000000">mandelbrot.h</text>
</a>
</g>
</g>
<!-- Node0&#45;&gt;Node13 -->
<g id="edge16" class="edge">
<title>Node0&#45;&gt;Node13</title>
<path fill="none" stroke="#191970" d="M545.0601,-168.4369C615.3705,-158.0754 726.8272,-141.6502 796.611,-131.3662"/>
<polygon fill="#191970" stroke="#191970" points="797.2119,-134.8156 806.5947,-129.8949 796.1913,-127.8904 797.2119,-134.8156"/>
</g>
<!-- Node22 -->
<g id="node23" class="node">
<title>Node22</title>
<g id="a_node23"><a xlink:href="settings_8h.html" target="_top" xlink:title=" ">
<polygon fill="none" stroke="#000000" points="991.1676,-112.5 991.1676,-131.5 1083.1676,-131.5 1083.1676,-112.5 991.1676,-112.5"/>
<text text-anchor="middle" x="1037.1676" y="-119.5" font-family="Helvetica,sans-Serif" font-size="10.00" fill="#000000">settings.h</text>
</a>
</g>
</g>
<!-- Node0&#45;&gt;Node22 -->
<g id="edge30" class="edge">
<title>Node0&#45;&gt;Node22</title>
<path fill="none" stroke="#191970" d="M567.1988,-169.25C682.6269,-157.645 883.1052,-137.4892 980.6326,-127.6839"/>
<polygon fill="#191970" stroke="#191970" points="981.2746,-131.1371 990.8743,-126.6543 980.5743,-124.1722 981.2746,-131.1371"/>
</g>
<!-- Node24 -->
<g id="node25" class="node">
<title>Node24</title>
<g id="a_node25"><a xlink:href="shader_8h.html" target="_top" xlink:title=" ">
<polygon fill="none" stroke="#000000" points="240.6676,-112.5 240.6676,-131.5 317.6676,-131.5 317.6676,-112.5 240.6676,-112.5"/>
<text text-anchor="middle" x="279.1676" y="-119.5" font-family="Helvetica,sans-Serif" font-size="10.00" fill="#000000">shader.h</text>
</a>
</g>
</g>
<!-- Node0&#45;&gt;Node24 -->
<g id="edge32" class="edge">
<title>Node0&#45;&gt;Node24</title>
<path fill="none" stroke="#191970" d="M445.6144,-168.3733C411.7571,-158.9404 360.0216,-144.5265 323.225,-134.2747"/>
<polygon fill="#191970" stroke="#191970" points="323.8423,-130.8135 313.2698,-131.5011 321.9636,-137.5566 323.8423,-130.8135"/>
</g>
<!-- Node25 -->
<g id="node26" class="node">
<title>Node25</title>
<g id="a_node26"><a xlink:href="texture_8h.html" target="_top" xlink:title=" ">
<polygon fill="none" stroke="#000000" points="21.1676,-112.5 21.1676,-131.5 105.1676,-131.5 105.1676,-112.5 21.1676,-112.5"/>
<text text-anchor="middle" x="63.1676" y="-119.5" font-family="Helvetica,sans-Serif" font-size="10.00" fill="#000000">texture.h</text>
</a>
</g>
</g>
<!-- Node0&#45;&gt;Node25 -->
<g id="edge36" class="edge">
<title>Node0&#45;&gt;Node25</title>
<path fill="none" stroke="#191970" d="M393.0371,-168.7516C321.1269,-160.725 216.1963,-148.111 115.475,-132.1262"/>
<polygon fill="#191970" stroke="#191970" points="115.8559,-128.6427 105.4284,-130.5182 114.7496,-135.5547 115.8559,-128.6427"/>
</g>
<!-- Node2 -->
<g id="node3" class="node">
<title>Node2</title>
<g id="a_node3"><a xlink:href="gl__object_8h.html" target="_top" xlink:title=" ">
<polygon fill="none" stroke="#000000" points="13.6676,-56.5 13.6676,-75.5 112.6676,-75.5 112.6676,-56.5 13.6676,-56.5"/>
<text text-anchor="middle" x="63.1676" y="-63.5" font-family="Helvetica,sans-Serif" font-size="10.00" fill="#000000">gl_object.h</text>
</a>
</g>
</g>
<!-- Node1&#45;&gt;Node2 -->
<g id="edge2" class="edge">
<title>Node1&#45;&gt;Node2</title>
<path fill="none" stroke="#191970" d="M154.007,-112.2455C136.6565,-103.4125 110.8775,-90.2887 91.2093,-80.2758"/>
<polygon fill="#191970" stroke="#191970" points="92.6081,-77.0605 82.1085,-75.6427 89.4323,-83.2986 92.6081,-77.0605"/>
</g>
<!-- Node5 -->
<g id="node6" class="node">
<title>Node5</title>
<g id="a_node6"><a xlink:href="scope__exit_8h.html" target="_top" xlink:title=" ">
<polygon fill="none" stroke="#000000" points="130.6676,-56.5 130.6676,-75.5 237.6676,-75.5 237.6676,-56.5 130.6676,-56.5"/>
<text text-anchor="middle" x="184.1676" y="-63.5" font-family="Helvetica,sans-Serif" font-size="10.00" fill="#000000">scope_exit.h</text>
</a>
</g>
</g>
<!-- Node1&#45;&gt;Node5 -->
<g id="edge5" class="edge">
<title>Node1&#45;&gt;Node5</title>
<path fill="none" stroke="#191970" d="M175.0836,-112.2455C176.519,-104.9382 178.5312,-94.6944 180.297,-85.7046"/>
<polygon fill="#191970" stroke="#191970" points="183.7803,-86.1298 182.2735,-75.6427 176.9116,-84.7805 183.7803,-86.1298"/>
</g>
<!-- Node3 -->
<g id="node4" class="node">
<title>Node3</title>
<g id="a_node4"><a xlink:title=" ">
<polygon fill="none" stroke="#bfbfbf" points="84.6676,-.5 84.6676,-19.5 183.6676,-19.5 183.6676,-.5 84.6676,-.5"/>
<text text-anchor="middle" x="134.1676" y="-7.5" font-family="Helvetica,sans-Serif" font-size="10.00" fill="#000000">glad/glad.h</text>
</a>
</g>
</g>
<!-- Node2&#45;&gt;Node3 -->
<g id="edge3" class="edge">
<title>Node2&#45;&gt;Node3</title>
<path fill="none" stroke="#191970" d="M75.5348,-56.2455C86.123,-47.8943 101.574,-35.7076 113.9569,-25.9408"/>
<polygon fill="#191970" stroke="#191970" points="116.2579,-28.5837 121.942,-19.6427 111.9229,-23.0875 116.2579,-28.5837"/>
</g>
<!-- Node4 -->
<g id="node5" class="node">
<title>Node4</title>
<g id="a_node5"><a xlink:title=" ">
<polygon fill="none" stroke="#bfbfbf" points="12.1676,-.5 12.1676,-19.5 66.1676,-19.5 66.1676,-.5 12.1676,-.5"/>
<text text-anchor="middle" x="39.1676" y="-7.5" font-family="Helvetica,sans-Serif" font-size="10.00" fill="#000000">array</text>
</a>
</g>
</g>
<!-- Node2&#45;&gt;Node4 -->
<g id="edge4" class="edge">
<title>Node2&#45;&gt;Node4</title>
<path fill="none" stroke="#191970" d="M58.9871,-56.2455C55.7866,-48.7776 51.2716,-38.2427 47.3592,-29.1137"/>
<polygon fill="#191970" stroke="#191970" points="50.4564,-27.4554 43.3002,-19.6427 44.0224,-30.2129 50.4564,-27.4554"/>
</g>
<!-- Node6 -->
<g id="node7" class="node">
<title>Node6</title>
<g id="a_node7"><a xlink:title=" ">
<polygon fill="none" stroke="#bfbfbf" points="202.1676,-.5 202.1676,-19.5 294.1676,-19.5 294.1676,-.5 202.1676,-.5"/>
<text text-anchor="middle" x="248.1676" y="-7.5" font-family="Helvetica,sans-Serif" font-size="10.00" fill="#000000">functional</text>
</a>
</g>
</g>
<!-- Node5&#45;&gt;Node6 -->
<g id="edge6" class="edge">
<title>Node5&#45;&gt;Node6</title>
<path fill="none" stroke="#191970" d="M195.3155,-56.2455C204.6762,-48.0549 218.2534,-36.1749 229.3025,-26.5069"/>
<polygon fill="#191970" stroke="#191970" points="231.9264,-28.8618 237.1474,-19.6427 227.3168,-23.5937 231.9264,-28.8618"/>
</g>
<!-- Node8 -->
<g id="node9" class="node">
<title>Node8</title>
<g id="a_node9"><a xlink:title=" ">
<polygon fill="none" stroke="#bfbfbf" points="460.1676,-.5 460.1676,-19.5 522.1676,-19.5 522.1676,-.5 460.1676,-.5"/>
<text text-anchor="middle" x="491.1676" y="-7.5" font-family="Helvetica,sans-Serif" font-size="10.00" fill="#000000">memory</text>
</a>
</g>
</g>
<!-- Node7&#45;&gt;Node8 -->
<g id="edge8" class="edge">
<title>Node7&#45;&gt;Node8</title>
<path fill="none" stroke="#191970" d="M601.3041,-56.3733C579.7626,-47.3032 547.2838,-33.6279 523.172,-23.4755"/>
<polygon fill="#191970" stroke="#191970" points="524.3073,-20.156 513.7327,-19.5011 521.5909,-26.6075 524.3073,-20.156"/>
</g>
<!-- Node9&#45;&gt;Node7 -->
<g id="edge13" class="edge">
<title>Node9&#45;&gt;Node7</title>
<path fill="none" stroke="#191970" d="M504.9221,-112.3733C528.4524,-103.2226 564.0362,-89.3844 590.2102,-79.2057"/>
<polygon fill="#191970" stroke="#191970" points="591.6847,-82.3877 599.7361,-75.5011 589.1475,-75.8636 591.6847,-82.3877"/>
</g>
<!-- Node9&#45;&gt;Node8 -->
<g id="edge14" class="edge">
<title>Node9&#45;&gt;Node8</title>
<path fill="none" stroke="#191970" d="M492.5888,-112.18C502.1692,-103.7529 514.6811,-90.6707 520.1676,-76 526.4251,-59.2676 516.6896,-40.6764 506.8498,-27.5007"/>
<polygon fill="#191970" stroke="#191970" points="509.5471,-25.2701 500.5356,-19.6984 504.1057,-29.6736 509.5471,-25.2701"/>
</g>
<!-- Node10 -->
<g id="node11" class="node">
<title>Node10</title>
<g id="a_node11"><a xlink:href="glad__glfw_8h.html" target="_top" xlink:title=" ">
<polygon fill="none" stroke="#000000" points="294.6676,-56.5 294.6676,-75.5 393.6676,-75.5 393.6676,-56.5 294.6676,-56.5"/>
<text text-anchor="middle" x="344.1676" y="-63.5" font-family="Helvetica,sans-Serif" font-size="10.00" fill="#000000">glad_glfw.h</text>
</a>
</g>
</g>
<!-- Node9&#45;&gt;Node10 -->
<g id="edge10" class="edge">
<title>Node9&#45;&gt;Node10</title>
<path fill="none" stroke="#191970" d="M456.7883,-112.3733C434.6631,-103.2629 401.2542,-89.5062 376.5657,-79.3404"/>
<polygon fill="#191970" stroke="#191970" points="377.8212,-76.0723 367.2417,-75.5011 375.1559,-82.5451 377.8212,-76.0723"/>
</g>
<!-- Node12 -->
<g id="node13" class="node">
<title>Node12</title>
<g id="a_node13"><a xlink:title=" ">
<polygon fill="none" stroke="#bfbfbf" points="411.6676,-56.5 411.6676,-75.5 510.6676,-75.5 510.6676,-56.5 411.6676,-56.5"/>
<text text-anchor="middle" x="461.1676" y="-63.5" font-family="Helvetica,sans-Serif" font-size="10.00" fill="#000000">string_view</text>
</a>
</g>
</g>
<!-- Node9&#45;&gt;Node12 -->
<g id="edge15" class="edge">
<title>Node9&#45;&gt;Node12</title>
<path fill="none" stroke="#191970" d="M476.858,-112.2455C474.3243,-104.7776 470.7499,-94.2427 467.6526,-85.1137"/>
<polygon fill="#191970" stroke="#191970" points="470.9667,-83.9879 464.4392,-75.6427 464.3378,-86.237 470.9667,-83.9879"/>
</g>
<!-- Node10&#45;&gt;Node3 -->
<g id="edge11" class="edge">
<title>Node10&#45;&gt;Node3</title>
<path fill="none" stroke="#191970" d="M308.0673,-56.3733C272.5428,-46.9001 218.1796,-32.4032 179.7057,-22.1435"/>
<polygon fill="#191970" stroke="#191970" points="180.361,-18.696 169.7968,-19.5011 178.5573,-25.4596 180.361,-18.696"/>
</g>
<!-- Node11 -->
<g id="node12" class="node">
<title>Node11</title>
<g id="a_node12"><a xlink:title=" ">
<polygon fill="none" stroke="#bfbfbf" points="312.6676,-.5 312.6676,-19.5 419.6676,-19.5 419.6676,-.5 312.6676,-.5"/>
<text text-anchor="middle" x="366.1676" y="-7.5" font-family="Helvetica,sans-Serif" font-size="10.00" fill="#000000">GLFW/glfw3.h</text>
</a>
</g>
</g>
<!-- Node10&#45;&gt;Node11 -->
<g id="edge12" class="edge">
<title>Node10&#45;&gt;Node11</title>
<path fill="none" stroke="#191970" d="M347.9997,-56.2455C350.9335,-48.7776 355.0722,-38.2427 358.6586,-29.1137"/>
<polygon fill="#191970" stroke="#191970" points="361.9804,-30.23 362.3794,-19.6427 355.4652,-27.6704 361.9804,-30.23"/>
</g>
<!-- Node14 -->
<g id="node15" class="node">
<title>Node14</title>
<g id="a_node15"><a xlink:href="palette_8h.html" target="_top" xlink:title=" ">
<polygon fill="none" stroke="#000000" points="907.1676,-56.5 907.1676,-75.5 991.1676,-75.5 991.1676,-56.5 907.1676,-56.5"/>
<text text-anchor="middle" x="949.1676" y="-63.5" font-family="Helvetica,sans-Serif" font-size="10.00" fill="#000000">palette.h</text>
</a>
</g>
</g>
<!-- Node13&#45;&gt;Node14 -->
<g id="edge17" class="edge">
<title>Node13&#45;&gt;Node14</title>
<path fill="none" stroke="#191970" d="M875.6702,-112.2455C889.3255,-103.6534 909.4333,-91.0014 925.1665,-81.1018"/>
<polygon fill="#191970" stroke="#191970" points="927.2427,-83.9307 933.8426,-75.6427 923.5147,-78.006 927.2427,-83.9307"/>
</g>
<!-- Node15 -->
<g id="node16" class="node">
<title>Node15</title>
<g id="a_node16"><a xlink:title=" ">
<polygon fill="none" stroke="#bfbfbf" points="979.6676,-.5 979.6676,-19.5 1048.6676,-19.5 1048.6676,-.5 979.6676,-.5"/>
<text text-anchor="middle" x="1014.1676" y="-7.5" font-family="Helvetica,sans-Serif" font-size="10.00" fill="#000000">cstdint</text>
</a>
</g>
</g>
<!-- Node13&#45;&gt;Node15 -->
<g id="edge27" class="edge">
<title>Node13&#45;&gt;Node15</title>
<path fill="none" stroke="#191970" d="M904.6378,-112.4743C940.5713,-103.8878 987.2267,-90.4261 1000.1676,-76 1011.2766,-63.616 1014.3682,-44.6578 1014.9192,-30.2323"/>
<polygon fill="#191970" stroke="#191970" points="1018.4192,-29.8478 1014.921,-19.8472 1011.4192,-29.8465 1018.4192,-29.8478"/>
</g>
<!-- Node16 -->
<g id="node17" class="node">
<title>Node16</title>
<g id="a_node17"><a xlink:title=" ">
<polygon fill="none" stroke="#bfbfbf" points="890.1676,-.5 890.1676,-19.5 952.1676,-19.5 952.1676,-.5 890.1676,-.5"/>
<text text-anchor="middle" x="921.1676" y="-7.5" font-family="Helvetica,sans-Serif" font-size="10.00" fill="#000000">vector</text>
</a>
</g>
</g>
<!-- Node13&#45;&gt;Node16 -->
<g id="edge29" class="edge">
<title>Node13&#45;&gt;Node16</title>
<path fill="none" stroke="#191970" d="M865.3684,-112.4509C875.4975,-93.8533 898.0247,-52.4919 911.1481,-28.3964"/>
<polygon fill="#191970" stroke="#191970" points="914.2705,-29.9809 915.9799,-19.5249 908.1232,-26.6328 914.2705,-29.9809"/>
</g>
<!-- Node17 -->
<g id="node18" class="node">
<title>Node17</title>
<g id="a_node18"><a xlink:href="thread__pool_8h.html" target="_top" xlink:title=" ">
<polygon fill="none" stroke="#000000" points="699.1676,-56.5 699.1676,-75.5 813.1676,-75.5 813.1676,-56.5 699.1676,-56.5"/>
<text text-anchor="middle" x="756.1676" y="-63.5" font-family="Helvetica,sans-Serif" font-size="10.00" fill="#000000">thread_pool.h</text>
</a>
</g>
</g>
<!-- Node13&#45;&gt;Node17 -->
<g id="edge20" class="edge">
<title>Node13&#45;&gt;Node17</title>
<path fill="none" stroke="#191970" d="M842.0522,-112.2455C825.7225,-103.4527 801.4966,-90.4079 782.9337,-80.4125"/>
<polygon fill="#191970" stroke="#191970" points="784.5395,-77.3021 774.0754,-75.6427 781.2208,-83.4654 784.5395,-77.3021"/>
</g>
<!-- Node19 -->
<g id="node20" class="node">
<title>Node19</title>
<g id="a_node20"><a xlink:title=" ">
<polygon fill="none" stroke="#bfbfbf" points="818.1676,-.5 818.1676,-19.5 872.1676,-19.5 872.1676,-.5 818.1676,-.5"/>
<text text-anchor="middle" x="845.1676" y="-7.5" font-family="Helvetica,sans-Serif" font-size="10.00" fill="#000000">queue</text>
</a>
</g>
</g>
<!-- Node13&#45;&gt;Node19 -->
<g id="edge28" class="edge">
<title>Node13&#45;&gt;Node19</title>
<path fill="none" stroke="#191970" d="M858.8887,-112.4509C856.4422,-94.184 851.0545,-53.9553 847.8057,-29.6976"/>
<polygon fill="#191970" stroke="#191970" points="851.2398,-28.9718 846.4432,-19.5249 844.3017,-29.901 851.2398,-28.9718"/>
</g>
<!-- Node14&#45;&gt;Node15 -->
<g id="edge18" class="edge">
<title>Node14&#45;&gt;Node15</title>
<path fill="none" stroke="#191970" d="M960.4897,-56.2455C970.0899,-47.9746 984.0568,-35.9416 995.3371,-26.2232"/>
<polygon fill="#191970" stroke="#191970" points="997.6836,-28.8214 1002.9752,-19.6427 993.1146,-23.5182 997.6836,-28.8214"/>
</g>
<!-- Node14&#45;&gt;Node16 -->
<g id="edge19" class="edge">
<title>Node14&#45;&gt;Node16</title>
<path fill="none" stroke="#191970" d="M944.2904,-56.2455C940.5162,-48.6973 935.1755,-38.0158 930.5774,-28.8197"/>
<polygon fill="#191970" stroke="#191970" points="933.5916,-27.0217 925.9889,-19.6427 927.3306,-30.1522 933.5916,-27.0217"/>
</g>
<!-- Node17&#45;&gt;Node6 -->
<g id="edge21" class="edge">
<title>Node17&#45;&gt;Node6</title>
<path fill="none" stroke="#191970" d="M698.9578,-57.1257C695.9871,-56.7294 693.0435,-56.3513 690.1676,-56 521.9651,-35.4513 476.0447,-43.1628 304.4704,-20.075"/>
<polygon fill="#191970" stroke="#191970" points="304.7151,-16.5761 294.3344,-18.6952 303.7709,-23.5122 304.7151,-16.5761"/>
</g>
<!-- Node17&#45;&gt;Node16 -->
<g id="edge26" class="edge">
<title>Node17&#45;&gt;Node16</title>
<path fill="none" stroke="#191970" d="M784.5321,-56.3733C811.8503,-47.1016 853.3472,-33.0178 883.4414,-22.804"/>
<polygon fill="#191970" stroke="#191970" points="884.8286,-26.0294 893.1732,-19.5011 882.5788,-19.4008 884.8286,-26.0294"/>
</g>
<!-- Node18 -->
<g id="node19" class="node">
<title>Node18</title>
<g id="a_node19"><a xlink:title=" ">
<polygon fill="none" stroke="#bfbfbf" points="738.1676,-.5 738.1676,-19.5 800.1676,-19.5 800.1676,-.5 738.1676,-.5"/>
<text text-anchor="middle" x="769.1676" y="-7.5" font-family="Helvetica,sans-Serif" font-size="10.00" fill="#000000">future</text>
</a>
</g>
</g>
<!-- Node17&#45;&gt;Node18 -->
<g id="edge22" class="edge">
<title>Node17&#45;&gt;Node18</title>
<path fill="none" stroke="#191970" d="M758.432,-56.2455C760.147,-48.8579 762.5587,-38.4689 764.662,-29.4087"/>
<polygon fill="#191970" stroke="#191970" points="768.0771,-30.1751 766.9291,-19.6427 761.2584,-28.5922 768.0771,-30.1751"/>
</g>
<!-- Node17&#45;&gt;Node19 -->
<g id="edge23" class="edge">
<title>Node17&#45;&gt;Node19</title>
<path fill="none" stroke="#191970" d="M771.6702,-56.2455C785.3255,-47.6534 805.4333,-35.0014 821.1665,-25.1018"/>
<polygon fill="#191970" stroke="#191970" points="823.2427,-27.9307 829.8426,-19.6427 819.5147,-22.006 823.2427,-27.9307"/>
</g>
<!-- Node20 -->
<g id="node21" class="node">
<title>Node20</title>
<g id="a_node21"><a xlink:title=" ">
<polygon fill="none" stroke="#bfbfbf" points="540.1676,-.5 540.1676,-19.5 602.1676,-19.5 602.1676,-.5 540.1676,-.5"/>
<text text-anchor="middle" x="571.1676" y="-7.5" font-family="Helvetica,sans-Serif" font-size="10.00" fill="#000000">thread</text>
</a>
</g>
</g>
<!-- Node17&#45;&gt;Node20 -->
<g id="edge24" class="edge">
<title>Node17&#45;&gt;Node20</title>
<path fill="none" stroke="#191970" d="M724.3649,-56.3733C693.2419,-46.9522 645.7051,-32.5627 611.8456,-22.3133"/>
<polygon fill="#191970" stroke="#191970" points="612.8325,-18.9553 602.2473,-19.4079 610.8044,-25.6551 612.8325,-18.9553"/>
</g>
<!-- Node21 -->
<g id="node22" class="node">
<title>Node21</title>
<g id="a_node22"><a xlink:title=" ">
<polygon fill="none" stroke="#bfbfbf" points="620.6676,-.5 620.6676,-19.5 719.6676,-19.5 719.6676,-.5 620.6676,-.5"/>
<text text-anchor="middle" x="670.1676" y="-7.5" font-family="Helvetica,sans-Serif" font-size="10.00" fill="#000000">type_traits</text>
</a>
</g>
</g>
<!-- Node17&#45;&gt;Node21 -->
<g id="edge25" class="edge">
<title>Node17&#45;&gt;Node21</title>
<path fill="none" stroke="#191970" d="M741.1875,-56.2455C727.9925,-47.6534 708.5625,-35.0014 693.3596,-25.1018"/>
<polygon fill="#191970" stroke="#191970" points="695.2658,-22.1665 684.976,-19.6427 691.4461,-28.0325 695.2658,-22.1665"/>
</g>
<!-- Node23 -->
<g id="node24" class="node">
<title>Node23</title>
<g id="a_node24"><a xlink:title=" ">
<polygon fill="none" stroke="#bfbfbf" points="1047.1676,-56.5 1047.1676,-75.5 1109.1676,-75.5 1109.1676,-56.5 1047.1676,-56.5"/>
<text text-anchor="middle" x="1078.1676" y="-63.5" font-family="Helvetica,sans-Serif" font-size="10.00" fill="#000000">string</text>
</a>
</g>
</g>
<!-- Node22&#45;&gt;Node23 -->
<g id="edge31" class="edge">
<title>Node22&#45;&gt;Node23</title>
<path fill="none" stroke="#191970" d="M1044.3092,-112.2455C1050.012,-104.4564 1058.1576,-93.3308 1065.03,-83.9439"/>
<polygon fill="#191970" stroke="#191970" points="1068.0244,-85.7789 1071.1078,-75.6427 1062.3763,-81.6437 1068.0244,-85.7789"/>
</g>
<!-- Node24&#45;&gt;Node2 -->
<g id="edge33" class="edge">
<title>Node24&#45;&gt;Node2</title>
<path fill="none" stroke="#191970" d="M242.0359,-112.3733C205.3409,-102.8598 149.1037,-88.2797 109.5024,-78.0127"/>
<polygon fill="#191970" stroke="#191970" points="110.3731,-74.6228 99.8148,-75.5011 108.6163,-81.3988 110.3731,-74.6228"/>
</g>
<!-- Node24&#45;&gt;Node3 -->
<g id="edge35" class="edge">
<title>Node24&#45;&gt;Node3</title>
<path fill="none" stroke="#191970" d="M276.6368,-112.152C272.5149,-97.9463 263.0646,-71.6917 246.1676,-56 229.3467,-40.379 206.4959,-29.7146 185.8206,-22.6205"/>
<polygon fill="#191970" stroke="#191970" points="186.7855,-19.2542 176.1938,-19.5132 184.6352,-25.9158 186.7855,-19.2542"/>
</g>
<!-- Node24&#45;&gt;Node5 -->
<g id="edge34" class="edge">
<title>Node24&#45;&gt;Node5</title>
<path fill="none" stroke="#191970" d="M262.6198,-112.2455C247.9077,-103.5731 226.1788,-90.7645 209.3171,-80.825"/>
<polygon fill="#191970" stroke="#191970" points="210.9177,-77.7057 200.5257,-75.6427 207.363,-83.736 210.9177,-77.7057"/>
</g>
<!-- Node25&#45;&gt;Node2 -->
<g id="edge37" class="edge">
<title>Node25&#45;&gt;Node2</title>
<path fill="none" stroke="#191970" d="M63.1676,-112.2455C63.1676,-104.9382 63.1676,-94.6944 63.1676,-85.7046"/>
<polygon fill="#191970" stroke="#191970" points="66.6677,-85.6426 63.1676,-75.6427 59.6677,-85.6427 66.6677,-85.6426"/>
</g>
<!-- Node25&#45;&gt;Node3 -->
<g id="edge39" class="edge">
<title>Node25&#45;&gt;Node3</title>
<path fill="none" stroke="#191970" d="M43.3506,-112.3177C20.7871,-99.9594 -11.0919,-77.5862 4.1676,-56 13.5919,-42.6683 49.8747,-30.4851 81.7217,-22.0108"/>
<polygon fill="#191970" stroke="#191970" points="82.6218,-25.3933 91.4282,-19.5028 80.8705,-18.6159 82.6218,-25.3933"/>
</g>
<!-- Node25&#45;&gt;Node5 -->
<g id="edge38" class="edge">
<title>Node25&#45;&gt;Node5</title>
<path fill="none" stroke="#191970" d="M83.9682,-112.3733C103.3919,-103.3838 132.5899,-89.8706 154.464,-79.7471"/>
<polygon fill="#191970" stroke="#191970" points="156.0332,-82.8776 163.6384,-75.5011 153.0931,-76.5249 156.0332,-82.8776"/>
</g>
</g>
</svg>
