<?xml version="1.0" encoding="UTF-8" standalone="no"?>
<!DOCTYPE svg PUBLIC "-//W3C//DTD SVG 1.1//EN"
 "http://www.w3.org/Graphics/SVG/1.1/DTD/svg11.dtd">
<!-- Generated by graphviz version 2.40.1 (0)
 -->
<!-- Title: fractal/main.cpp Pages: 1 -->
<svg width="1732pt" height="263pt"
 viewBox="0.00 0.00 1731.50 263.00" xmlns="http://www.w3.org/2000/svg" xmlns:xlink="http://www.w3.org/1999/xlink">
<g id="graph0" class="graph" transform="scale(1 1) rotate(0) translate(4 259)">
<title>fractal/main.cpp</title>
<!-- Node0 -->
<g id="node1" class="node">
<title>Node0</title>
<g id="a_node1"><a xlink:title=" ">
<polygon fill="#bfbfbf" stroke="#000000" points="907,-235.5 907,-254.5 1044,-254.5 1044,-235.5 907,-235.5"/>
<text text-anchor="middle" x="975.5" y="-242.5" font-family="Helvetica,sans-Serif" font-size="10.00" fill="#000000">fractal/main.cpp</text>
</a>
</g>
</g>
<!-- Node1 -->
<g id="node2" class="node">
<title>Node1</title>
<g id="a_node2"><a xlink:href="glad__glfw_8h.html" target="_top" xlink:title=" ">
<polygon fill="none" stroke="#000000" points="4,-56.5 4,-75.5 103,-75.5 103,-56.5 4,-56.5"/>
<text text-anchor="middle" x="53.5" y="-63.5" font-family="Helvetica,sans-Serif" font-size="10.00" fill="#000000">glad_glfw.h</text>
</a>
</g>
</g>
<!-- Node0&#45;&gt;Node1 -->
<g id="edge1" class="edge">
<title>Node0&#45;&gt;Node1</title>
<path fill="none" stroke="#191970" d="M906.6425,-240.0854C817.304,-233.2407 656.7412,-219.3432 520.5,-199 369.0341,-176.3835 327.1672,-182.2478 182.5,-132 144.1487,-118.6793 102.8854,-95.9246 77.6227,-80.924"/>
<polygon fill="#191970" stroke="#191970" points="79.1358,-77.7497 68.7633,-75.5904 75.5253,-83.7467 79.1358,-77.7497"/>
</g>
<!-- Node4 -->
<g id="node5" class="node">
<title>Node4</title>
<g id="a_node5"><a xlink:href="main__window_8h.html" target="_top" xlink:title=" ">
<polygon fill="none" stroke="#000000" points="529.5,-174 529.5,-193 643.5,-193 643.5,-174 529.5,-174"/>
<text text-anchor="middle" x="586.5" y="-181" font-family="Helvetica,sans-Serif" font-size="10.00" fill="#000000">main_window.h</text>
</a>
</g>
</g>
<!-- Node0&#45;&gt;Node4 -->
<g id="edge4" class="edge">
<title>Node0&#45;&gt;Node4</title>
<path fill="none" stroke="#191970" d="M915.1456,-235.4581C844.319,-224.2606 727.2209,-205.7477 653.6005,-194.1084"/>
<polygon fill="#191970" stroke="#191970" points="653.9342,-190.6178 643.5103,-192.5132 652.841,-197.5319 653.9342,-190.6178"/>
</g>
<!-- Node23 -->
<g id="node24" class="node">
<title>Node23</title>
<g id="a_node24"><a xlink:href="settings_8h.html" target="_top" xlink:title=" ">
<polygon fill="none" stroke="#000000" points="863.5,-112.5 863.5,-131.5 955.5,-131.5 955.5,-112.5 863.5,-112.5"/>
<text text-anchor="middle" x="909.5" y="-119.5" font-family="Helvetica,sans-Serif" font-size="10.00" fill="#000000">settings.h</text>
</a>
</g>
</g>
<!-- Node0&#45;&gt;Node23 -->
<g id="edge44" class="edge">
<title>Node0&#45;&gt;Node23</title>
<path fill="none" stroke="#191970" d="M939.9402,-235.3459C921.7535,-228.4075 901.2363,-217.0179 890.5,-199 879.6591,-180.8065 888.7042,-156.6787 897.6526,-140.3153"/>
<polygon fill="#191970" stroke="#191970" points="900.6808,-142.0706 902.7591,-131.6816 894.6557,-138.5071 900.6808,-142.0706"/>
</g>
<!-- Node27 -->
<g id="node28" class="node">
<title>Node27</title>
<g id="a_node28"><a xlink:href="render__video_8h.html" target="_top" xlink:title=" ">
<polygon fill="none" stroke="#000000" points="721.5,-174 721.5,-193 843.5,-193 843.5,-174 721.5,-174"/>
<text text-anchor="middle" x="782.5" y="-181" font-family="Helvetica,sans-Serif" font-size="10.00" fill="#000000">render_video.h</text>
</a>
</g>
</g>
<!-- Node0&#45;&gt;Node27 -->
<g id="edge42" class="edge">
<title>Node0&#45;&gt;Node27</title>
<path fill="none" stroke="#191970" d="M945.3438,-235.3906C912.2015,-224.8298 858.8238,-207.8208 822.2758,-196.1747"/>
<polygon fill="#191970" stroke="#191970" points="823.0351,-192.7433 812.4445,-193.0419 820.9098,-199.4129 823.0351,-192.7433"/>
</g>
<!-- Node28 -->
<g id="node29" class="node">
<title>Node28</title>
<g id="a_node29"><a xlink:title=" ">
<polygon fill="none" stroke="#bfbfbf" points="899.5,-168.5 899.5,-198.5 1051.5,-198.5 1051.5,-168.5 899.5,-168.5"/>
<text text-anchor="start" x="907.5" y="-186.5" font-family="Helvetica,sans-Serif" font-size="10.00" fill="#000000">spdlog/sinks/basic</text>
<text text-anchor="middle" x="975.5" y="-175.5" font-family="Helvetica,sans-Serif" font-size="10.00" fill="#000000">_file_sink.h</text>
</a>
</g>
</g>
<!-- Node0&#45;&gt;Node28 -->
<g id="edge45" class="edge">
<title>Node0&#45;&gt;Node28</title>
<path fill="none" stroke="#191970" d="M975.5,-235.3906C975.5,-228.2234 975.5,-218.0862 975.5,-208.671"/>
<polygon fill="#191970" stroke="#191970" points="979.0001,-208.5446 975.5,-198.5446 972.0001,-208.5446 979.0001,-208.5446"/>
</g>
<!-- Node29 -->
<g id="node30" class="node">
<title>Node29</title>
<g id="a_node30"><a xlink:title=" ">
<polygon fill="none" stroke="#bfbfbf" points="1070,-168.5 1070,-198.5 1229,-198.5 1229,-168.5 1070,-168.5"/>
<text text-anchor="start" x="1078" y="-186.5" font-family="Helvetica,sans-Serif" font-size="10.00" fill="#000000">spdlog/sinks/stdout</text>
<text text-anchor="middle" x="1149.5" y="-175.5" font-family="Helvetica,sans-Serif" font-size="10.00" fill="#000000">_color_sinks.h</text>
</a>
</g>
</g>
<!-- Node0&#45;&gt;Node29 -->
<g id="edge46" class="edge">
<title>Node0&#45;&gt;Node29</title>
<path fill="none" stroke="#191970" d="M1002.6875,-235.3906C1027.8716,-226.4893 1066.0159,-213.0073 1097.1118,-202.0165"/>
<polygon fill="#191970" stroke="#191970" points="1098.6728,-205.1771 1106.9348,-198.5446 1096.34,-198.5772 1098.6728,-205.1771"/>
</g>
<!-- Node30 -->
<g id="node31" class="node">
<title>Node30</title>
<g id="a_node31"><a xlink:title=" ">
<polygon fill="none" stroke="#bfbfbf" points="1247.5,-174 1247.5,-193 1511.5,-193 1511.5,-174 1247.5,-174"/>
<text text-anchor="middle" x="1379.5" y="-181" font-family="Helvetica,sans-Serif" font-size="10.00" fill="#000000">tinyfiledialogs/tinyfiledialogs.h</text>
</a>
</g>
</g>
<!-- Node0&#45;&gt;Node30 -->
<g id="edge47" class="edge">
<title>Node0&#45;&gt;Node30</title>
<path fill="none" stroke="#191970" d="M1038.1817,-235.4581C1110.8293,-224.3991 1230.3507,-206.2047 1306.9534,-194.5436"/>
<polygon fill="#191970" stroke="#191970" points="1307.6443,-197.9788 1317.0036,-193.0137 1306.5908,-191.0586 1307.6443,-197.9788"/>
</g>
<!-- Node31 -->
<g id="node32" class="node">
<title>Node31</title>
<g id="a_node32"><a xlink:title=" ">
<polygon fill="none" stroke="#bfbfbf" points="1529.5,-174 1529.5,-193 1621.5,-193 1621.5,-174 1529.5,-174"/>
<text text-anchor="middle" x="1575.5" y="-181" font-family="Helvetica,sans-Serif" font-size="10.00" fill="#000000">filesystem</text>
</a>
</g>
</g>
<!-- Node0&#45;&gt;Node31 -->
<g id="edge48" class="edge">
<title>Node0&#45;&gt;Node31</title>
<path fill="none" stroke="#191970" d="M1044.0201,-243.3957C1147.853,-240.0261 1350.925,-229.761 1520.5,-199 1525.4965,-198.0936 1530.6939,-196.93 1535.8119,-195.6483"/>
<polygon fill="#191970" stroke="#191970" points="1536.7195,-199.0287 1545.4829,-193.0744 1534.9191,-192.2641 1536.7195,-199.0287"/>
</g>
<!-- Node32 -->
<g id="node33" class="node">
<title>Node32</title>
<g id="a_node33"><a xlink:title=" ">
<polygon fill="none" stroke="#bfbfbf" points="1639.5,-174 1639.5,-193 1723.5,-193 1723.5,-174 1639.5,-174"/>
<text text-anchor="middle" x="1681.5" y="-181" font-family="Helvetica,sans-Serif" font-size="10.00" fill="#000000">stdexcept</text>
</a>
</g>
</g>
<!-- Node0&#45;&gt;Node32 -->
<g id="edge49" class="edge">
<title>Node0&#45;&gt;Node32</title>
<path fill="none" stroke="#191970" d="M1044.0399,-242.1418C1188.3878,-235.8025 1519.5205,-219.4911 1630.5,-199 1635.0245,-198.1646 1639.7153,-197.069 1644.337,-195.8459"/>
<polygon fill="#191970" stroke="#191970" points="1645.5977,-199.1259 1654.2532,-193.0159 1643.6766,-192.3947 1645.5977,-199.1259"/>
</g>
<!-- Node2 -->
<g id="node3" class="node">
<title>Node2</title>
<g id="a_node3"><a xlink:title=" ">
<polygon fill="none" stroke="#bfbfbf" points="379,-.5 379,-19.5 478,-19.5 478,-.5 379,-.5"/>
<text text-anchor="middle" x="428.5" y="-7.5" font-family="Helvetica,sans-Serif" font-size="10.00" fill="#000000">glad/glad.h</text>
</a>
</g>
</g>
<!-- Node1&#45;&gt;Node2 -->
<g id="edge2" class="edge">
<title>Node1&#45;&gt;Node2</title>
<path fill="none" stroke="#191970" d="M103.1597,-57.3485C105.9801,-56.885 108.7752,-56.4325 111.5,-56 200.8566,-41.8161 304.669,-27.0818 368.4735,-18.2253"/>
<polygon fill="#191970" stroke="#191970" points="369.323,-21.6412 378.7481,-16.802 368.3624,-14.7074 369.323,-21.6412"/>
</g>
<!-- Node3 -->
<g id="node4" class="node">
<title>Node3</title>
<g id="a_node4"><a xlink:title=" ">
<polygon fill="none" stroke="#bfbfbf" points="0,-.5 0,-19.5 107,-19.5 107,-.5 0,-.5"/>
<text text-anchor="middle" x="53.5" y="-7.5" font-family="Helvetica,sans-Serif" font-size="10.00" fill="#000000">GLFW/glfw3.h</text>
</a>
</g>
</g>
<!-- Node1&#45;&gt;Node3 -->
<g id="edge3" class="edge">
<title>Node1&#45;&gt;Node3</title>
<path fill="none" stroke="#191970" d="M53.5,-56.2455C53.5,-48.9382 53.5,-38.6944 53.5,-29.7046"/>
<polygon fill="#191970" stroke="#191970" points="57.0001,-29.6426 53.5,-19.6427 50.0001,-29.6427 57.0001,-29.6426"/>
</g>
<!-- Node5 -->
<g id="node6" class="node">
<title>Node5</title>
<g id="a_node6"><a xlink:href="full__quad_8h.html" target="_top" xlink:title=" ">
<polygon fill="none" stroke="#000000" points="606,-112.5 606,-131.5 705,-131.5 705,-112.5 606,-112.5"/>
<text text-anchor="middle" x="655.5" y="-119.5" font-family="Helvetica,sans-Serif" font-size="10.00" fill="#000000">full_quad.h</text>
</a>
</g>
</g>
<!-- Node4&#45;&gt;Node5 -->
<g id="edge5" class="edge">
<title>Node4&#45;&gt;Node5</title>
<path fill="none" stroke="#191970" d="M597.2813,-173.8906C607.8526,-164.4683 624.1825,-149.9134 636.8603,-138.6137"/>
<polygon fill="#191970" stroke="#191970" points="639.4304,-141.0114 644.5667,-131.7449 634.7728,-135.7858 639.4304,-141.0114"/>
</g>
<!-- Node10 -->
<g id="node11" class="node">
<title>Node10</title>
<g id="a_node11"><a xlink:href="glfw__handle_8h.html" target="_top" xlink:title=" ">
<polygon fill="none" stroke="#000000" points="276.5,-56.5 276.5,-75.5 390.5,-75.5 390.5,-56.5 276.5,-56.5"/>
<text text-anchor="middle" x="333.5" y="-63.5" font-family="Helvetica,sans-Serif" font-size="10.00" fill="#000000">glfw_handle.h</text>
</a>
</g>
</g>
<!-- Node4&#45;&gt;Node10 -->
<g id="edge11" class="edge">
<title>Node4&#45;&gt;Node10</title>
<path fill="none" stroke="#191970" d="M529.1137,-175.5822C490.4948,-168.4184 439.5179,-155.2898 399.5,-132 378.1922,-119.5992 358.9002,-98.6273 346.7537,-83.6518"/>
<polygon fill="#191970" stroke="#191970" points="349.3926,-81.345 340.4665,-75.6375 343.8851,-85.6656 349.3926,-81.345"/>
</g>
<!-- Node12 -->
<g id="node13" class="node">
<title>Node12</title>
<g id="a_node13"><a xlink:href="glfw__window_8h.html" target="_top" xlink:title=" ">
<polygon fill="none" stroke="#000000" points="191.5,-112.5 191.5,-131.5 305.5,-131.5 305.5,-112.5 191.5,-112.5"/>
<text text-anchor="middle" x="248.5" y="-119.5" font-family="Helvetica,sans-Serif" font-size="10.00" fill="#000000">glfw_window.h</text>
</a>
</g>
</g>
<!-- Node4&#45;&gt;Node12 -->
<g id="edge13" class="edge">
<title>Node4&#45;&gt;Node12</title>
<path fill="none" stroke="#191970" d="M534.0584,-173.9581C473.7751,-162.9894 374.9133,-145.0012 310.7716,-133.3305"/>
<polygon fill="#191970" stroke="#191970" points="311.2516,-129.8604 300.7866,-131.5137 309.9985,-136.7474 311.2516,-129.8604"/>
</g>
<!-- Node14 -->
<g id="node15" class="node">
<title>Node14</title>
<g id="a_node15"><a xlink:href="mandelbrot_8h.html" target="_top" xlink:title=" ">
<polygon fill="none" stroke="#000000" points="738,-112.5 738,-131.5 845,-131.5 845,-112.5 738,-112.5"/>
<text text-anchor="middle" x="791.5" y="-119.5" font-family="Helvetica,sans-Serif" font-size="10.00" fill="#000000">mandelbrot.h</text>
</a>
</g>
</g>
<!-- Node4&#45;&gt;Node14 -->
<g id="edge18" class="edge">
<title>Node4&#45;&gt;Node14</title>
<path fill="none" stroke="#191970" d="M618.5313,-173.8906C653.8846,-163.2846 710.9157,-146.1753 749.7478,-134.5257"/>
<polygon fill="#191970" stroke="#191970" points="751.1212,-137.7678 759.6937,-131.5419 749.1097,-131.0631 751.1212,-137.7678"/>
</g>
<!-- Node4&#45;&gt;Node23 -->
<g id="edge32" class="edge">
<title>Node4&#45;&gt;Node23</title>
<path fill="none" stroke="#191970" d="M636.6144,-173.9581C695.3627,-162.7723 792.4515,-144.2863 853.5924,-132.6449"/>
<polygon fill="#191970" stroke="#191970" points="854.2877,-136.0755 863.4566,-130.7668 852.9784,-129.1991 854.2877,-136.0755"/>
</g>
<!-- Node25 -->
<g id="node26" class="node">
<title>Node25</title>
<g id="a_node26"><a xlink:href="shader_8h.html" target="_top" xlink:title=" ">
<polygon fill="none" stroke="#000000" points="511,-112.5 511,-131.5 588,-131.5 588,-112.5 511,-112.5"/>
<text text-anchor="middle" x="549.5" y="-119.5" font-family="Helvetica,sans-Serif" font-size="10.00" fill="#000000">shader.h</text>
</a>
</g>
</g>
<!-- Node4&#45;&gt;Node25 -->
<g id="edge34" class="edge">
<title>Node4&#45;&gt;Node25</title>
<path fill="none" stroke="#191970" d="M580.7188,-173.8906C575.374,-165.0068 567.2841,-151.5601 560.6789,-140.5811"/>
<polygon fill="#191970" stroke="#191970" points="563.5171,-138.5093 555.3628,-131.7449 557.5189,-142.118 563.5171,-138.5093"/>
</g>
<!-- Node26 -->
<g id="node27" class="node">
<title>Node26</title>
<g id="a_node27"><a xlink:href="texture_8h.html" target="_top" xlink:title=" ">
<polygon fill="none" stroke="#000000" points="408.5,-112.5 408.5,-131.5 492.5,-131.5 492.5,-112.5 408.5,-112.5"/>
<text text-anchor="middle" x="450.5" y="-119.5" font-family="Helvetica,sans-Serif" font-size="10.00" fill="#000000">texture.h</text>
</a>
</g>
</g>
<!-- Node4&#45;&gt;Node26 -->
<g id="edge38" class="edge">
<title>Node4&#45;&gt;Node26</title>
<path fill="none" stroke="#191970" d="M565.25,-173.8906C542.5945,-163.6457 506.5202,-147.3326 480.8709,-135.7339"/>
<polygon fill="#191970" stroke="#191970" points="482.1546,-132.4732 471.6008,-131.5419 479.2703,-138.8514 482.1546,-132.4732"/>
</g>
<!-- Node6 -->
<g id="node7" class="node">
<title>Node6</title>
<g id="a_node7"><a xlink:href="gl__object_8h.html" target="_top" xlink:title=" ">
<polygon fill="none" stroke="#000000" points="485,-56.5 485,-75.5 584,-75.5 584,-56.5 485,-56.5"/>
<text text-anchor="middle" x="534.5" y="-63.5" font-family="Helvetica,sans-Serif" font-size="10.00" fill="#000000">gl_object.h</text>
</a>
</g>
</g>
<!-- Node5&#45;&gt;Node6 -->
<g id="edge6" class="edge">
<title>Node5&#45;&gt;Node6</title>
<path fill="none" stroke="#191970" d="M634.6994,-112.3733C615.2757,-103.3838 586.0776,-89.8706 564.2036,-79.7471"/>
<polygon fill="#191970" stroke="#191970" points="565.5745,-76.5249 555.0292,-75.5011 562.6344,-82.8776 565.5745,-76.5249"/>
</g>
<!-- Node8 -->
<g id="node9" class="node">
<title>Node8</title>
<g id="a_node9"><a xlink:href="scope__exit_8h.html" target="_top" xlink:title=" ">
<polygon fill="none" stroke="#000000" points="602,-56.5 602,-75.5 709,-75.5 709,-56.5 602,-56.5"/>
<text text-anchor="middle" x="655.5" y="-63.5" font-family="Helvetica,sans-Serif" font-size="10.00" fill="#000000">scope_exit.h</text>
</a>
</g>
</g>
<!-- Node5&#45;&gt;Node8 -->
<g id="edge9" class="edge">
<title>Node5&#45;&gt;Node8</title>
<path fill="none" stroke="#191970" d="M655.5,-112.2455C655.5,-104.9382 655.5,-94.6944 655.5,-85.7046"/>
<polygon fill="#191970" stroke="#191970" points="659.0001,-85.6426 655.5,-75.6427 652.0001,-85.6427 659.0001,-85.6426"/>
</g>
<!-- Node6&#45;&gt;Node2 -->
<g id="edge7" class="edge">
<title>Node6&#45;&gt;Node2</title>
<path fill="none" stroke="#191970" d="M516.0362,-56.2455C499.3926,-47.4527 474.7007,-34.4079 455.7808,-24.4125"/>
<polygon fill="#191970" stroke="#191970" points="457.2291,-21.2193 446.7522,-19.6427 453.9592,-27.4086 457.2291,-21.2193"/>
</g>
<!-- Node7 -->
<g id="node8" class="node">
<title>Node7</title>
<g id="a_node8"><a xlink:title=" ">
<polygon fill="none" stroke="#bfbfbf" points="507.5,-.5 507.5,-19.5 561.5,-19.5 561.5,-.5 507.5,-.5"/>
<text text-anchor="middle" x="534.5" y="-7.5" font-family="Helvetica,sans-Serif" font-size="10.00" fill="#000000">array</text>
</a>
</g>
</g>
<!-- Node6&#45;&gt;Node7 -->
<g id="edge8" class="edge">
<title>Node6&#45;&gt;Node7</title>
<path fill="none" stroke="#191970" d="M534.5,-56.2455C534.5,-48.9382 534.5,-38.6944 534.5,-29.7046"/>
<polygon fill="#191970" stroke="#191970" points="538.0001,-29.6426 534.5,-19.6427 531.0001,-29.6427 538.0001,-29.6426"/>
</g>
<!-- Node9 -->
<g id="node10" class="node">
<title>Node9</title>
<g id="a_node10"><a xlink:title=" ">
<polygon fill="none" stroke="#bfbfbf" points="717.5,-.5 717.5,-19.5 809.5,-19.5 809.5,-.5 717.5,-.5"/>
<text text-anchor="middle" x="763.5" y="-7.5" font-family="Helvetica,sans-Serif" font-size="10.00" fill="#000000">functional</text>
</a>
</g>
</g>
<!-- Node8&#45;&gt;Node9 -->
<g id="edge10" class="edge">
<title>Node8&#45;&gt;Node9</title>
<path fill="none" stroke="#191970" d="M674.3122,-56.2455C691.3473,-47.4125 716.6575,-34.2887 735.9681,-24.2758"/>
<polygon fill="#191970" stroke="#191970" points="737.637,-27.353 744.9034,-19.6427 734.4147,-21.1388 737.637,-27.353"/>
</g>
<!-- Node11 -->
<g id="node12" class="node">
<title>Node11</title>
<g id="a_node12"><a xlink:title=" ">
<polygon fill="none" stroke="#bfbfbf" points="257.5,-.5 257.5,-19.5 319.5,-19.5 319.5,-.5 257.5,-.5"/>
<text text-anchor="middle" x="288.5" y="-7.5" font-family="Helvetica,sans-Serif" font-size="10.00" fill="#000000">memory</text>
</a>
</g>
</g>
<!-- Node10&#45;&gt;Node11 -->
<g id="edge12" class="edge">
<title>Node10&#45;&gt;Node11</title>
<path fill="none" stroke="#191970" d="M325.6616,-56.2455C319.338,-48.3761 310.2776,-37.101 302.6864,-27.6542"/>
<polygon fill="#191970" stroke="#191970" points="305.2408,-25.2454 296.2486,-19.6427 299.7842,-29.6302 305.2408,-25.2454"/>
</g>
<!-- Node12&#45;&gt;Node1 -->
<g id="edge14" class="edge">
<title>Node12&#45;&gt;Node1</title>
<path fill="none" stroke="#191970" d="M214.9783,-112.3733C182.1317,-102.9404 131.9405,-88.5265 96.2422,-78.2747"/>
<polygon fill="#191970" stroke="#191970" points="97.1619,-74.8974 86.5843,-75.5011 95.2297,-81.6255 97.1619,-74.8974"/>
</g>
<!-- Node12&#45;&gt;Node10 -->
<g id="edge15" class="edge">
<title>Node12&#45;&gt;Node10</title>
<path fill="none" stroke="#191970" d="M263.3059,-112.2455C276.2256,-103.7337 295.1931,-91.2375 310.1552,-81.3801"/>
<polygon fill="#191970" stroke="#191970" points="312.4387,-84.067 318.8638,-75.6427 308.5876,-78.2216 312.4387,-84.067"/>
</g>
<!-- Node12&#45;&gt;Node11 -->
<g id="edge16" class="edge">
<title>Node12&#45;&gt;Node11</title>
<path fill="none" stroke="#191970" d="M250.7738,-112.4587C253.9694,-99.4968 260.2197,-75.6824 267.5,-56 270.8777,-46.8683 275.2702,-37.0152 279.1643,-28.7797"/>
<polygon fill="#191970" stroke="#191970" points="282.3559,-30.2193 283.5652,-19.6937 276.056,-27.1678 282.3559,-30.2193"/>
</g>
<!-- Node13 -->
<g id="node14" class="node">
<title>Node13</title>
<g id="a_node14"><a xlink:title=" ">
<polygon fill="none" stroke="#bfbfbf" points="121,-56.5 121,-75.5 220,-75.5 220,-56.5 121,-56.5"/>
<text text-anchor="middle" x="170.5" y="-63.5" font-family="Helvetica,sans-Serif" font-size="10.00" fill="#000000">string_view</text>
</a>
</g>
</g>
<!-- Node12&#45;&gt;Node13 -->
<g id="edge17" class="edge">
<title>Node12&#45;&gt;Node13</title>
<path fill="none" stroke="#191970" d="M234.9134,-112.2455C223.1695,-103.814 205.9801,-91.4729 192.3118,-81.6598"/>
<polygon fill="#191970" stroke="#191970" points="194.0954,-78.6316 183.9309,-75.6427 190.0129,-84.3179 194.0954,-78.6316"/>
</g>
<!-- Node15 -->
<g id="node16" class="node">
<title>Node15</title>
<g id="a_node16"><a xlink:href="palette_8h.html" target="_top" xlink:title=" ">
<polygon fill="none" stroke="#000000" points="765.5,-56.5 765.5,-75.5 849.5,-75.5 849.5,-56.5 765.5,-56.5"/>
<text text-anchor="middle" x="807.5" y="-63.5" font-family="Helvetica,sans-Serif" font-size="10.00" fill="#000000">palette.h</text>
</a>
</g>
</g>
<!-- Node14&#45;&gt;Node15 -->
<g id="edge19" class="edge">
<title>Node14&#45;&gt;Node15</title>
<path fill="none" stroke="#191970" d="M794.287,-112.2455C796.3977,-104.8579 799.366,-94.4689 801.9547,-85.4087"/>
<polygon fill="#191970" stroke="#191970" points="805.363,-86.2195 804.745,-75.6427 798.6323,-84.2964 805.363,-86.2195"/>
</g>
<!-- Node16 -->
<g id="node17" class="node">
<title>Node16</title>
<g id="a_node17"><a xlink:title=" ">
<polygon fill="none" stroke="#bfbfbf" points="630,-.5 630,-19.5 699,-19.5 699,-.5 630,-.5"/>
<text text-anchor="middle" x="664.5" y="-7.5" font-family="Helvetica,sans-Serif" font-size="10.00" fill="#000000">cstdint</text>
</a>
</g>
</g>
<!-- Node14&#45;&gt;Node16 -->
<g id="edge29" class="edge">
<title>Node14&#45;&gt;Node16</title>
<path fill="none" stroke="#191970" d="M780.7062,-112.0592C766.5382,-99.053 740.8439,-75.6099 718.5,-56 707.1063,-46.0004 694.1846,-34.9818 683.8387,-26.2361"/>
<polygon fill="#191970" stroke="#191970" points="686.0735,-23.5423 676.172,-19.7724 681.5614,-28.8941 686.0735,-23.5423"/>
</g>
<!-- Node17 -->
<g id="node18" class="node">
<title>Node17</title>
<g id="a_node18"><a xlink:title=" ">
<polygon fill="none" stroke="#bfbfbf" points="827.5,-.5 827.5,-19.5 889.5,-19.5 889.5,-.5 827.5,-.5"/>
<text text-anchor="middle" x="858.5" y="-7.5" font-family="Helvetica,sans-Serif" font-size="10.00" fill="#000000">vector</text>
</a>
</g>
</g>
<!-- Node14&#45;&gt;Node17 -->
<g id="edge31" class="edge">
<title>Node14&#45;&gt;Node17</title>
<path fill="none" stroke="#191970" d="M815.9712,-112.3462C831.2107,-104.9011 849.5612,-92.9799 858.5,-76 865.9969,-61.7592 865.2675,-43.2779 863.0818,-29.4959"/>
<polygon fill="#191970" stroke="#191970" points="866.5045,-28.7611 861.1461,-19.6212 859.6352,-30.1077 866.5045,-28.7611"/>
</g>
<!-- Node18 -->
<g id="node19" class="node">
<title>Node18</title>
<g id="a_node19"><a xlink:href="thread__pool_8h.html" target="_top" xlink:title=" ">
<polygon fill="none" stroke="#000000" points="943.5,-56.5 943.5,-75.5 1057.5,-75.5 1057.5,-56.5 943.5,-56.5"/>
<text text-anchor="middle" x="1000.5" y="-63.5" font-family="Helvetica,sans-Serif" font-size="10.00" fill="#000000">thread_pool.h</text>
</a>
</g>
</g>
<!-- Node14&#45;&gt;Node18 -->
<g id="edge22" class="edge">
<title>Node14&#45;&gt;Node18</title>
<path fill="none" stroke="#191970" d="M827.4284,-112.3733C862.7837,-102.9001 916.888,-88.4032 955.1788,-78.1435"/>
<polygon fill="#191970" stroke="#191970" points="956.287,-81.4701 965.0405,-75.5011 954.4753,-74.7086 956.287,-81.4701"/>
</g>
<!-- Node20 -->
<g id="node21" class="node">
<title>Node20</title>
<g id="a_node21"><a xlink:title=" ">
<polygon fill="none" stroke="#bfbfbf" points="907.5,-.5 907.5,-19.5 961.5,-19.5 961.5,-.5 907.5,-.5"/>
<text text-anchor="middle" x="934.5" y="-7.5" font-family="Helvetica,sans-Serif" font-size="10.00" fill="#000000">queue</text>
</a>
</g>
</g>
<!-- Node14&#45;&gt;Node20 -->
<g id="edge30" class="edge">
<title>Node14&#45;&gt;Node20</title>
<path fill="none" stroke="#191970" d="M813.1444,-112.4264C830.6275,-104.1424 855.3812,-91.1323 874.5,-76 892.3987,-61.8335 909.5781,-42.0988 920.9323,-27.9053"/>
<polygon fill="#191970" stroke="#191970" points="923.8021,-29.9173 927.2035,-19.8832 918.2872,-25.6061 923.8021,-29.9173"/>
</g>
<!-- Node15&#45;&gt;Node16 -->
<g id="edge20" class="edge">
<title>Node15&#45;&gt;Node16</title>
<path fill="none" stroke="#191970" d="M782.9174,-56.3733C759.5504,-47.2226 724.2138,-33.3844 698.2216,-23.2057"/>
<polygon fill="#191970" stroke="#191970" points="699.3495,-19.8886 688.7618,-19.5011 696.797,-26.4066 699.3495,-19.8886"/>
</g>
<!-- Node15&#45;&gt;Node17 -->
<g id="edge21" class="edge">
<title>Node15&#45;&gt;Node17</title>
<path fill="none" stroke="#191970" d="M816.3835,-56.2455C823.6966,-48.2155 834.2391,-36.6394 842.9467,-27.0781"/>
<polygon fill="#191970" stroke="#191970" points="845.5727,-29.3928 849.7183,-19.6427 840.3972,-24.6795 845.5727,-29.3928"/>
</g>
<!-- Node18&#45;&gt;Node9 -->
<g id="edge23" class="edge">
<title>Node18&#45;&gt;Node9</title>
<path fill="none" stroke="#191970" d="M960.0275,-56.4369C919.552,-46.8731 857.2133,-32.1432 813.6297,-21.845"/>
<polygon fill="#191970" stroke="#191970" points="814.3424,-18.4171 803.8055,-19.5237 812.7327,-25.2295 814.3424,-18.4171"/>
</g>
<!-- Node18&#45;&gt;Node17 -->
<g id="edge28" class="edge">
<title>Node18&#45;&gt;Node17</title>
<path fill="none" stroke="#191970" d="M976.0893,-56.3733C952.8858,-47.2226 917.7962,-33.3844 891.9858,-23.2057"/>
<polygon fill="#191970" stroke="#191970" points="893.1789,-19.9139 882.5921,-19.5011 890.6108,-26.4258 893.1789,-19.9139"/>
</g>
<!-- Node19 -->
<g id="node20" class="node">
<title>Node19</title>
<g id="a_node20"><a xlink:title=" ">
<polygon fill="none" stroke="#bfbfbf" points="1097.5,-.5 1097.5,-19.5 1159.5,-19.5 1159.5,-.5 1097.5,-.5"/>
<text text-anchor="middle" x="1128.5" y="-7.5" font-family="Helvetica,sans-Serif" font-size="10.00" fill="#000000">future</text>
</a>
</g>
</g>
<!-- Node18&#45;&gt;Node19 -->
<g id="edge24" class="edge">
<title>Node18&#45;&gt;Node19</title>
<path fill="none" stroke="#191970" d="M1022.504,-56.3733C1043.1435,-47.3435 1074.2158,-33.7494 1097.3889,-23.6111"/>
<polygon fill="#191970" stroke="#191970" points="1099.0245,-26.7159 1106.7831,-19.5011 1096.2187,-20.3028 1099.0245,-26.7159"/>
</g>
<!-- Node18&#45;&gt;Node20 -->
<g id="edge25" class="edge">
<title>Node18&#45;&gt;Node20</title>
<path fill="none" stroke="#191970" d="M989.0037,-56.2455C979.2558,-47.9746 965.0741,-35.9416 953.6202,-26.2232"/>
<polygon fill="#191970" stroke="#191970" points="955.7541,-23.4437 945.8646,-19.6427 951.2253,-28.7813 955.7541,-23.4437"/>
</g>
<!-- Node21 -->
<g id="node22" class="node">
<title>Node21</title>
<g id="a_node22"><a xlink:title=" ">
<polygon fill="none" stroke="#bfbfbf" points="1177.5,-.5 1177.5,-19.5 1239.5,-19.5 1239.5,-.5 1177.5,-.5"/>
<text text-anchor="middle" x="1208.5" y="-7.5" font-family="Helvetica,sans-Serif" font-size="10.00" fill="#000000">thread</text>
</a>
</g>
</g>
<!-- Node18&#45;&gt;Node21 -->
<g id="edge26" class="edge">
<title>Node18&#45;&gt;Node21</title>
<path fill="none" stroke="#191970" d="M1036.2565,-56.3733C1072.7221,-46.5556 1129.2288,-31.3423 1167.4887,-21.0415"/>
<polygon fill="#191970" stroke="#191970" points="1168.535,-24.3845 1177.2812,-18.4051 1166.7151,-17.6252 1168.535,-24.3845"/>
</g>
<!-- Node22 -->
<g id="node23" class="node">
<title>Node22</title>
<g id="a_node23"><a xlink:title=" ">
<polygon fill="none" stroke="#bfbfbf" points="980,-.5 980,-19.5 1079,-19.5 1079,-.5 980,-.5"/>
<text text-anchor="middle" x="1029.5" y="-7.5" font-family="Helvetica,sans-Serif" font-size="10.00" fill="#000000">type_traits</text>
</a>
</g>
</g>
<!-- Node18&#45;&gt;Node22 -->
<g id="edge27" class="edge">
<title>Node18&#45;&gt;Node22</title>
<path fill="none" stroke="#191970" d="M1005.5514,-56.2455C1009.5019,-48.617 1015.1097,-37.7881 1019.9058,-28.5267"/>
<polygon fill="#191970" stroke="#191970" points="1023.0159,-30.1321 1024.5065,-19.6427 1016.7999,-26.9131 1023.0159,-30.1321"/>
</g>
<!-- Node24 -->
<g id="node25" class="node">
<title>Node24</title>
<g id="a_node25"><a xlink:title=" ">
<polygon fill="none" stroke="#bfbfbf" points="1075.5,-56.5 1075.5,-75.5 1137.5,-75.5 1137.5,-56.5 1075.5,-56.5"/>
<text text-anchor="middle" x="1106.5" y="-63.5" font-family="Helvetica,sans-Serif" font-size="10.00" fill="#000000">string</text>
</a>
</g>
</g>
<!-- Node23&#45;&gt;Node24 -->
<g id="edge33" class="edge">
<title>Node23&#45;&gt;Node24</title>
<path fill="none" stroke="#191970" d="M943.3655,-112.3733C977.2529,-102.7403 1029.4141,-87.9128 1065.5943,-77.628"/>
<polygon fill="#191970" stroke="#191970" points="1066.6849,-80.9567 1075.3468,-74.8557 1064.7708,-74.2235 1066.6849,-80.9567"/>
</g>
<!-- Node25&#45;&gt;Node2 -->
<g id="edge37" class="edge">
<title>Node25&#45;&gt;Node2</title>
<path fill="none" stroke="#191970" d="M530.1291,-112.4342C514.5584,-104.1547 492.6893,-91.1469 476.5,-76 461.5371,-62.0006 448.1609,-42.7544 439.3542,-28.6577"/>
<polygon fill="#191970" stroke="#191970" points="442.1954,-26.5925 434.0239,-19.8489 436.2065,-30.2165 442.1954,-26.5925"/>
</g>
<!-- Node25&#45;&gt;Node6 -->
<g id="edge35" class="edge">
<title>Node25&#45;&gt;Node6</title>
<path fill="none" stroke="#191970" d="M546.8872,-112.2455C544.9084,-104.8579 542.1256,-94.4689 539.6988,-85.4087"/>
<polygon fill="#191970" stroke="#191970" points="543.0511,-84.3966 537.0829,-75.6427 536.2895,-86.2078 543.0511,-84.3966"/>
</g>
<!-- Node25&#45;&gt;Node8 -->
<g id="edge36" class="edge">
<title>Node25&#45;&gt;Node8</title>
<path fill="none" stroke="#191970" d="M567.9638,-112.2455C584.6074,-103.4527 609.2993,-90.4079 628.2192,-80.4125"/>
<polygon fill="#191970" stroke="#191970" points="630.0408,-83.4086 637.2478,-75.6427 626.7709,-77.2193 630.0408,-83.4086"/>
</g>
<!-- Node26&#45;&gt;Node2 -->
<g id="edge41" class="edge">
<title>Node26&#45;&gt;Node2</title>
<path fill="none" stroke="#191970" d="M448.6243,-112.4509C445.0199,-94.1013 437.0625,-53.5908 432.3047,-29.3693"/>
<polygon fill="#191970" stroke="#191970" points="435.7329,-28.6627 430.371,-19.5249 428.8641,-30.012 435.7329,-28.6627"/>
</g>
<!-- Node26&#45;&gt;Node6 -->
<g id="edge39" class="edge">
<title>Node26&#45;&gt;Node6</title>
<path fill="none" stroke="#191970" d="M465.1317,-112.2455C477.8994,-103.7337 496.6438,-91.2375 511.4299,-81.3801"/>
<polygon fill="#191970" stroke="#191970" points="513.6569,-84.1019 520.036,-75.6427 509.774,-78.2775 513.6569,-84.1019"/>
</g>
<!-- Node26&#45;&gt;Node8 -->
<g id="edge40" class="edge">
<title>Node26&#45;&gt;Node8</title>
<path fill="none" stroke="#191970" d="M485.7408,-112.3733C520.4194,-102.9001 573.4883,-88.4032 611.0462,-78.1435"/>
<polygon fill="#191970" stroke="#191970" points="611.9949,-81.5126 620.7191,-75.5011 610.1502,-74.7601 611.9949,-81.5126"/>
</g>
<!-- Node27&#45;&gt;Node23 -->
<g id="edge43" class="edge">
<title>Node27&#45;&gt;Node23</title>
<path fill="none" stroke="#191970" d="M802.3438,-173.8906C823.3136,-163.7359 856.5944,-147.6196 880.5036,-136.0416"/>
<polygon fill="#191970" stroke="#191970" points="882.3208,-139.0504 889.7956,-131.5419 879.2699,-132.7502 882.3208,-139.0504"/>
</g>
</g>
</svg>
