<?xml version="1.0" encoding="UTF-8" standalone="no"?>
<!DOCTYPE svg PUBLIC "-//W3C//DTD SVG 1.1//EN"
 "http://www.w3.org/Graphics/SVG/1.1/DTD/svg11.dtd">
<!-- Generated by graphviz version 2.40.1 (0)
 -->
<!-- Title: fractal/mandelbrot.cpp Pages: 1 -->
<svg width="618pt" height="196pt"
 viewBox="0.00 0.00 617.50 196.00" xmlns="http://www.w3.org/2000/svg" xmlns:xlink="http://www.w3.org/1999/xlink">
<g id="graph0" class="graph" transform="scale(1 1) rotate(0) translate(4 192)">
<title>fractal/mandelbrot.cpp</title>
<!-- Node0 -->
<g id="node1" class="node">
<title>Node0</title>
<g id="a_node1"><a xlink:title=" ">
<polygon fill="#bfbfbf" stroke="#000000" points="222.5,-168.5 222.5,-187.5 404.5,-187.5 404.5,-168.5 222.5,-168.5"/>
<text text-anchor="middle" x="313.5" y="-175.5" font-family="Helvetica,sans-Serif" font-size="10.00" fill="#000000">fractal/mandelbrot.cpp</text>
</a>
</g>
</g>
<!-- Node1 -->
<g id="node2" class="node">
<title>Node1</title>
<g id="a_node2"><a xlink:href="mandelbrot_8h.html" target="_top" xlink:title=" ">
<polygon fill="none" stroke="#000000" points="124,-112.5 124,-131.5 231,-131.5 231,-112.5 124,-112.5"/>
<text text-anchor="middle" x="177.5" y="-119.5" font-family="Helvetica,sans-Serif" font-size="10.00" fill="#000000">mandelbrot.h</text>
</a>
</g>
</g>
<!-- Node0&#45;&gt;Node1 -->
<g id="edge1" class="edge">
<title>Node0&#45;&gt;Node1</title>
<path fill="none" stroke="#191970" d="M290.1208,-168.3733C267.9955,-159.2629 234.5866,-145.5062 209.8981,-135.3404"/>
<polygon fill="#191970" stroke="#191970" points="211.1536,-132.0723 200.5742,-131.5011 208.4883,-138.5451 211.1536,-132.0723"/>
</g>
<!-- Node2 -->
<g id="node3" class="node">
<title>Node2</title>
<g id="a_node3"><a xlink:href="palette_8h.html" target="_top" xlink:title=" ">
<polygon fill="none" stroke="#000000" points="34.5,-56.5 34.5,-75.5 118.5,-75.5 118.5,-56.5 34.5,-56.5"/>
<text text-anchor="middle" x="76.5" y="-63.5" font-family="Helvetica,sans-Serif" font-size="10.00" fill="#000000">palette.h</text>
</a>
</g>
</g>
<!-- Node0&#45;&gt;Node2 -->
<g id="edge15" class="edge">
<title>Node0&#45;&gt;Node2</title>
<path fill="none" stroke="#191970" d="M247.1275,-168.4817C197.7344,-160.3384 135.4038,-147.4917 114.5,-132 98.9428,-120.4706 88.749,-100.5323 82.8735,-85.5797"/>
<polygon fill="#191970" stroke="#191970" points="86.0213,-83.9899 79.3436,-75.7645 79.4344,-86.359 86.0213,-83.9899"/>
</g>
<!-- Node11 -->
<g id="node12" class="node">
<title>Node11</title>
<g id="a_node12"><a xlink:title=" ">
<polygon fill="none" stroke="#bfbfbf" points="249,-112.5 249,-131.5 378,-131.5 378,-112.5 249,-112.5"/>
<text text-anchor="middle" x="313.5" y="-119.5" font-family="Helvetica,sans-Serif" font-size="10.00" fill="#000000">spdlog/spdlog.h</text>
</a>
</g>
</g>
<!-- Node0&#45;&gt;Node11 -->
<g id="edge16" class="edge">
<title>Node0&#45;&gt;Node11</title>
<path fill="none" stroke="#191970" d="M313.5,-168.2455C313.5,-160.9382 313.5,-150.6944 313.5,-141.7046"/>
<polygon fill="#191970" stroke="#191970" points="317.0001,-141.6426 313.5,-131.6427 310.0001,-141.6427 317.0001,-141.6426"/>
</g>
<!-- Node12 -->
<g id="node13" class="node">
<title>Node12</title>
<g id="a_node13"><a xlink:title=" ">
<polygon fill="none" stroke="#bfbfbf" points="396.5,-112.5 396.5,-131.5 458.5,-131.5 458.5,-112.5 396.5,-112.5"/>
<text text-anchor="middle" x="427.5" y="-119.5" font-family="Helvetica,sans-Serif" font-size="10.00" fill="#000000">chrono</text>
</a>
</g>
</g>
<!-- Node0&#45;&gt;Node12 -->
<g id="edge17" class="edge">
<title>Node0&#45;&gt;Node12</title>
<path fill="none" stroke="#191970" d="M333.0973,-168.3733C351.2331,-159.4644 378.4135,-146.1127 398.9587,-136.0203"/>
<polygon fill="#191970" stroke="#191970" points="400.7261,-139.0517 408.1584,-131.5011 397.6397,-132.7688 400.7261,-139.0517"/>
</g>
<!-- Node13 -->
<g id="node14" class="node">
<title>Node13</title>
<g id="a_node14"><a xlink:title=" ">
<polygon fill="none" stroke="#bfbfbf" points="476.5,-112.5 476.5,-131.5 530.5,-131.5 530.5,-112.5 476.5,-112.5"/>
<text text-anchor="middle" x="503.5" y="-119.5" font-family="Helvetica,sans-Serif" font-size="10.00" fill="#000000">cmath</text>
</a>
</g>
</g>
<!-- Node0&#45;&gt;Node13 -->
<g id="edge18" class="edge">
<title>Node0&#45;&gt;Node13</title>
<path fill="none" stroke="#191970" d="M346.1622,-168.3733C379.6715,-158.4968 431.7073,-143.16 466.6635,-132.8571"/>
<polygon fill="#191970" stroke="#191970" points="467.8792,-136.1477 476.4818,-129.9633 465.9002,-129.4332 467.8792,-136.1477"/>
</g>
<!-- Node1&#45;&gt;Node2 -->
<g id="edge2" class="edge">
<title>Node1&#45;&gt;Node2</title>
<path fill="none" stroke="#191970" d="M159.9071,-112.2455C144.121,-103.4928 120.7361,-90.527 102.7413,-80.5496"/>
<polygon fill="#191970" stroke="#191970" points="104.3341,-77.4308 93.8913,-75.6427 100.9397,-83.5528 104.3341,-77.4308"/>
</g>
<!-- Node3 -->
<g id="node4" class="node">
<title>Node3</title>
<g id="a_node4"><a xlink:title=" ">
<polygon fill="none" stroke="#bfbfbf" points="0,-.5 0,-19.5 69,-19.5 69,-.5 0,-.5"/>
<text text-anchor="middle" x="34.5" y="-7.5" font-family="Helvetica,sans-Serif" font-size="10.00" fill="#000000">cstdint</text>
</a>
</g>
</g>
<!-- Node1&#45;&gt;Node3 -->
<g id="edge12" class="edge">
<title>Node1&#45;&gt;Node3</title>
<path fill="none" stroke="#191970" d="M172.1689,-112.3627C164.0594,-98.4195 147.4414,-72.4886 127.5,-56 110.7905,-42.1838 89.2343,-31.1905 71.0831,-23.42"/>
<polygon fill="#191970" stroke="#191970" points="72.2537,-20.1169 61.6743,-19.545 69.5879,-26.5895 72.2537,-20.1169"/>
</g>
<!-- Node4 -->
<g id="node5" class="node">
<title>Node4</title>
<g id="a_node5"><a xlink:title=" ">
<polygon fill="none" stroke="#bfbfbf" points="87.5,-.5 87.5,-19.5 149.5,-19.5 149.5,-.5 87.5,-.5"/>
<text text-anchor="middle" x="118.5" y="-7.5" font-family="Helvetica,sans-Serif" font-size="10.00" fill="#000000">vector</text>
</a>
</g>
</g>
<!-- Node1&#45;&gt;Node4 -->
<g id="edge14" class="edge">
<title>Node1&#45;&gt;Node4</title>
<path fill="none" stroke="#191970" d="M176.4609,-112.0581C174.7298,-98.6422 170.4115,-74.315 160.5,-56 154.6494,-45.1889 145.7136,-34.9092 137.586,-26.8205"/>
<polygon fill="#191970" stroke="#191970" points="139.8343,-24.1292 130.1683,-19.791 135.0192,-29.2101 139.8343,-24.1292"/>
</g>
<!-- Node5 -->
<g id="node6" class="node">
<title>Node5</title>
<g id="a_node6"><a xlink:href="thread__pool_8h.html" target="_top" xlink:title=" ">
<polygon fill="none" stroke="#000000" points="274.5,-56.5 274.5,-75.5 388.5,-75.5 388.5,-56.5 274.5,-56.5"/>
<text text-anchor="middle" x="331.5" y="-63.5" font-family="Helvetica,sans-Serif" font-size="10.00" fill="#000000">thread_pool.h</text>
</a>
</g>
</g>
<!-- Node1&#45;&gt;Node5 -->
<g id="edge5" class="edge">
<title>Node1&#45;&gt;Node5</title>
<path fill="none" stroke="#191970" d="M203.9735,-112.3733C229.3597,-103.1419 267.8645,-89.1402 295.922,-78.9375"/>
<polygon fill="#191970" stroke="#191970" points="297.1701,-82.2079 305.3719,-75.5011 294.7778,-75.6293 297.1701,-82.2079"/>
</g>
<!-- Node8 -->
<g id="node9" class="node">
<title>Node8</title>
<g id="a_node9"><a xlink:title=" ">
<polygon fill="none" stroke="#bfbfbf" points="555.5,-.5 555.5,-19.5 609.5,-19.5 609.5,-.5 555.5,-.5"/>
<text text-anchor="middle" x="582.5" y="-7.5" font-family="Helvetica,sans-Serif" font-size="10.00" fill="#000000">queue</text>
</a>
</g>
</g>
<!-- Node1&#45;&gt;Node8 -->
<g id="edge13" class="edge">
<title>Node1&#45;&gt;Node8</title>
<path fill="none" stroke="#191970" d="M231.3415,-112.8661C276.1893,-104.7526 341.5347,-91.7544 397.5,-76 451.5074,-60.7968 512.5104,-37.8736 549.2084,-23.4336"/>
<polygon fill="#191970" stroke="#191970" points="550.8803,-26.536 558.8886,-19.5992 548.3024,-20.0279 550.8803,-26.536"/>
</g>
<!-- Node2&#45;&gt;Node3 -->
<g id="edge3" class="edge">
<title>Node2&#45;&gt;Node3</title>
<path fill="none" stroke="#191970" d="M69.1842,-56.2455C63.2821,-48.3761 54.8258,-37.101 47.7406,-27.6542"/>
<polygon fill="#191970" stroke="#191970" points="50.5321,-25.5427 41.732,-19.6427 44.932,-29.7427 50.5321,-25.5427"/>
</g>
<!-- Node2&#45;&gt;Node4 -->
<g id="edge4" class="edge">
<title>Node2&#45;&gt;Node4</title>
<path fill="none" stroke="#191970" d="M83.8158,-56.2455C89.7179,-48.3761 98.1742,-37.101 105.2594,-27.6542"/>
<polygon fill="#191970" stroke="#191970" points="108.068,-29.7427 111.268,-19.6427 102.4679,-25.5427 108.068,-29.7427"/>
</g>
<!-- Node5&#45;&gt;Node4 -->
<g id="edge11" class="edge">
<title>Node5&#45;&gt;Node4</title>
<path fill="none" stroke="#191970" d="M294.884,-56.3733C257.2435,-46.4772 198.751,-31.0989 159.5618,-20.7956"/>
<polygon fill="#191970" stroke="#191970" points="160.3543,-17.3851 149.793,-18.2273 158.5744,-24.155 160.3543,-17.3851"/>
</g>
<!-- Node6 -->
<g id="node7" class="node">
<title>Node6</title>
<g id="a_node7"><a xlink:title=" ">
<polygon fill="none" stroke="#bfbfbf" points="285.5,-.5 285.5,-19.5 377.5,-19.5 377.5,-.5 285.5,-.5"/>
<text text-anchor="middle" x="331.5" y="-7.5" font-family="Helvetica,sans-Serif" font-size="10.00" fill="#000000">functional</text>
</a>
</g>
</g>
<!-- Node5&#45;&gt;Node6 -->
<g id="edge6" class="edge">
<title>Node5&#45;&gt;Node6</title>
<path fill="none" stroke="#191970" d="M331.5,-56.2455C331.5,-48.9382 331.5,-38.6944 331.5,-29.7046"/>
<polygon fill="#191970" stroke="#191970" points="335.0001,-29.6426 331.5,-19.6427 328.0001,-29.6427 335.0001,-29.6426"/>
</g>
<!-- Node7 -->
<g id="node8" class="node">
<title>Node7</title>
<g id="a_node8"><a xlink:title=" ">
<polygon fill="none" stroke="#bfbfbf" points="395.5,-.5 395.5,-19.5 457.5,-19.5 457.5,-.5 395.5,-.5"/>
<text text-anchor="middle" x="426.5" y="-7.5" font-family="Helvetica,sans-Serif" font-size="10.00" fill="#000000">future</text>
</a>
</g>
</g>
<!-- Node5&#45;&gt;Node7 -->
<g id="edge7" class="edge">
<title>Node5&#45;&gt;Node7</title>
<path fill="none" stroke="#191970" d="M348.0477,-56.2455C362.7599,-47.5731 384.4888,-34.7645 401.3505,-24.825"/>
<polygon fill="#191970" stroke="#191970" points="403.3046,-27.736 410.1419,-19.6427 399.7498,-21.7057 403.3046,-27.736"/>
</g>
<!-- Node5&#45;&gt;Node8 -->
<g id="edge8" class="edge">
<title>Node5&#45;&gt;Node8</title>
<path fill="none" stroke="#191970" d="M380.3627,-56.4181C421.8456,-48.0868 483.1662,-35.3108 545.4222,-20.1619"/>
<polygon fill="#191970" stroke="#191970" points="546.5404,-23.4915 555.4191,-17.7105 544.8732,-16.6929 546.5404,-23.4915"/>
</g>
<!-- Node9 -->
<g id="node10" class="node">
<title>Node9</title>
<g id="a_node10"><a xlink:title=" ">
<polygon fill="none" stroke="#bfbfbf" points="475.5,-.5 475.5,-19.5 537.5,-19.5 537.5,-.5 475.5,-.5"/>
<text text-anchor="middle" x="506.5" y="-7.5" font-family="Helvetica,sans-Serif" font-size="10.00" fill="#000000">thread</text>
</a>
</g>
</g>
<!-- Node5&#45;&gt;Node9 -->
<g id="edge9" class="edge">
<title>Node5&#45;&gt;Node9</title>
<path fill="none" stroke="#191970" d="M361.5836,-56.3733C390.6834,-47.0613 434.9523,-32.8953 466.903,-22.671"/>
<polygon fill="#191970" stroke="#191970" points="468.3515,-25.8824 476.809,-19.5011 466.218,-19.2155 468.3515,-25.8824"/>
</g>
<!-- Node10 -->
<g id="node11" class="node">
<title>Node10</title>
<g id="a_node11"><a xlink:title=" ">
<polygon fill="none" stroke="#bfbfbf" points="168,-.5 168,-19.5 267,-19.5 267,-.5 168,-.5"/>
<text text-anchor="middle" x="217.5" y="-7.5" font-family="Helvetica,sans-Serif" font-size="10.00" fill="#000000">type_traits</text>
</a>
</g>
</g>
<!-- Node5&#45;&gt;Node10 -->
<g id="edge10" class="edge">
<title>Node5&#45;&gt;Node10</title>
<path fill="none" stroke="#191970" d="M311.9027,-56.3733C293.7669,-47.4644 266.5865,-34.1127 246.0413,-24.0203"/>
<polygon fill="#191970" stroke="#191970" points="247.3603,-20.7688 236.8416,-19.5011 244.2739,-27.0517 247.3603,-20.7688"/>
</g>
</g>
</svg>
