<?xml version="1.0" encoding="UTF-8" standalone="no"?>
<!DOCTYPE svg PUBLIC "-//W3C//DTD SVG 1.1//EN"
 "http://www.w3.org/Graphics/SVG/1.1/DTD/svg11.dtd">
<!-- Generated by graphviz version 2.40.1 (0)
 -->
<!-- Title: fractal/mandelbrot.h Pages: 1 -->
<svg width="618pt" height="140pt"
 viewBox="0.00 0.00 617.50 140.00" xmlns="http://www.w3.org/2000/svg" xmlns:xlink="http://www.w3.org/1999/xlink">
<g id="graph0" class="graph" transform="scale(1 1) rotate(0) translate(4 136)">
<title>fractal/mandelbrot.h</title>
<!-- Node0 -->
<g id="node1" class="node">
<title>Node0</title>
<g id="a_node1"><a xlink:title=" ">
<polygon fill="#bfbfbf" stroke="#000000" points="98,-112.5 98,-131.5 265,-131.5 265,-112.5 98,-112.5"/>
<text text-anchor="middle" x="181.5" y="-119.5" font-family="Helvetica,sans-Serif" font-size="10.00" fill="#000000">fractal/mandelbrot.h</text>
</a>
</g>
</g>
<!-- Node1 -->
<g id="node2" class="node">
<title>Node1</title>
<g id="a_node2"><a xlink:href="palette_8h.html" target="_top" xlink:title=" ">
<polygon fill="none" stroke="#000000" points="69.5,-56.5 69.5,-75.5 153.5,-75.5 153.5,-56.5 69.5,-56.5"/>
<text text-anchor="middle" x="111.5" y="-63.5" font-family="Helvetica,sans-Serif" font-size="10.00" fill="#000000">palette.h</text>
</a>
</g>
</g>
<!-- Node0&#45;&gt;Node1 -->
<g id="edge1" class="edge">
<title>Node0&#45;&gt;Node1</title>
<path fill="none" stroke="#191970" d="M169.3069,-112.2455C158.8679,-103.8943 143.6345,-91.7076 131.426,-81.9408"/>
<polygon fill="#191970" stroke="#191970" points="133.5485,-79.1566 123.5533,-75.6427 129.1756,-84.6227 133.5485,-79.1566"/>
</g>
<!-- Node2 -->
<g id="node3" class="node">
<title>Node2</title>
<g id="a_node3"><a xlink:title=" ">
<polygon fill="none" stroke="#bfbfbf" points="0,-.5 0,-19.5 69,-19.5 69,-.5 0,-.5"/>
<text text-anchor="middle" x="34.5" y="-7.5" font-family="Helvetica,sans-Serif" font-size="10.00" fill="#000000">cstdint</text>
</a>
</g>
</g>
<!-- Node0&#45;&gt;Node2 -->
<g id="edge11" class="edge">
<title>Node0&#45;&gt;Node2</title>
<path fill="none" stroke="#191970" d="M130.0663,-112.4738C106.3154,-105.7733 79.2838,-94.5602 60.5,-76 47.9345,-63.5841 41.2875,-44.3615 37.8716,-29.8577"/>
<polygon fill="#191970" stroke="#191970" points="41.265,-28.9806 35.8447,-19.8773 34.405,-30.3738 41.265,-28.9806"/>
</g>
<!-- Node3 -->
<g id="node4" class="node">
<title>Node3</title>
<g id="a_node4"><a xlink:title=" ">
<polygon fill="none" stroke="#bfbfbf" points="87.5,-.5 87.5,-19.5 149.5,-19.5 149.5,-.5 87.5,-.5"/>
<text text-anchor="middle" x="118.5" y="-7.5" font-family="Helvetica,sans-Serif" font-size="10.00" fill="#000000">vector</text>
</a>
</g>
</g>
<!-- Node0&#45;&gt;Node3 -->
<g id="edge13" class="edge">
<title>Node0&#45;&gt;Node3</title>
<path fill="none" stroke="#191970" d="M180.2293,-112.477C178.1316,-99.121 173.0779,-74.4004 162.5,-56 156.1746,-44.9969 146.6695,-34.6085 138.1105,-26.4976"/>
<polygon fill="#191970" stroke="#191970" points="140.3992,-23.8484 130.6346,-19.7369 135.7039,-29.0402 140.3992,-23.8484"/>
</g>
<!-- Node4 -->
<g id="node5" class="node">
<title>Node4</title>
<g id="a_node5"><a xlink:href="thread__pool_8h.html" target="_top" xlink:title=" ">
<polygon fill="none" stroke="#000000" points="251.5,-56.5 251.5,-75.5 365.5,-75.5 365.5,-56.5 251.5,-56.5"/>
<text text-anchor="middle" x="308.5" y="-63.5" font-family="Helvetica,sans-Serif" font-size="10.00" fill="#000000">thread_pool.h</text>
</a>
</g>
</g>
<!-- Node0&#45;&gt;Node4 -->
<g id="edge4" class="edge">
<title>Node0&#45;&gt;Node4</title>
<path fill="none" stroke="#191970" d="M203.3321,-112.3733C223.8103,-103.3435 254.6399,-89.7494 277.6319,-79.6111"/>
<polygon fill="#191970" stroke="#191970" points="279.215,-82.7383 286.9528,-75.5011 276.3907,-76.3333 279.215,-82.7383"/>
</g>
<!-- Node7 -->
<g id="node8" class="node">
<title>Node7</title>
<g id="a_node8"><a xlink:title=" ">
<polygon fill="none" stroke="#bfbfbf" points="555.5,-.5 555.5,-19.5 609.5,-19.5 609.5,-.5 555.5,-.5"/>
<text text-anchor="middle" x="582.5" y="-7.5" font-family="Helvetica,sans-Serif" font-size="10.00" fill="#000000">queue</text>
</a>
</g>
</g>
<!-- Node0&#45;&gt;Node7 -->
<g id="edge12" class="edge">
<title>Node0&#45;&gt;Node7</title>
<path fill="none" stroke="#191970" d="M225.4254,-112.4946C264.6968,-103.7678 323.7164,-90.0886 374.5,-76 435.0379,-59.2054 504.4234,-36.4753 545.7928,-22.5462"/>
<polygon fill="#191970" stroke="#191970" points="547.0804,-25.8056 555.4338,-19.2885 544.8395,-19.1739 547.0804,-25.8056"/>
</g>
<!-- Node1&#45;&gt;Node2 -->
<g id="edge2" class="edge">
<title>Node1&#45;&gt;Node2</title>
<path fill="none" stroke="#191970" d="M98.0876,-56.2455C86.4943,-47.814 69.5252,-35.4729 56.0322,-25.6598"/>
<polygon fill="#191970" stroke="#191970" points="57.9047,-22.6938 47.7587,-19.6427 53.7874,-28.355 57.9047,-22.6938"/>
</g>
<!-- Node1&#45;&gt;Node3 -->
<g id="edge3" class="edge">
<title>Node1&#45;&gt;Node3</title>
<path fill="none" stroke="#191970" d="M112.7193,-56.2455C113.6327,-48.9382 114.9132,-38.6944 116.0369,-29.7046"/>
<polygon fill="#191970" stroke="#191970" points="119.5272,-29.9996 117.2947,-19.6427 112.5813,-29.1313 119.5272,-29.9996"/>
</g>
<!-- Node4&#45;&gt;Node3 -->
<g id="edge10" class="edge">
<title>Node4&#45;&gt;Node3</title>
<path fill="none" stroke="#191970" d="M275.8378,-56.3733C243.6805,-46.8953 194.4614,-32.3886 159.6486,-22.128"/>
<polygon fill="#191970" stroke="#191970" points="160.3722,-18.6925 149.7906,-19.2225 158.3932,-25.4069 160.3722,-18.6925"/>
</g>
<!-- Node5 -->
<g id="node6" class="node">
<title>Node5</title>
<g id="a_node6"><a xlink:title=" ">
<polygon fill="none" stroke="#bfbfbf" points="167.5,-.5 167.5,-19.5 259.5,-19.5 259.5,-.5 167.5,-.5"/>
<text text-anchor="middle" x="213.5" y="-7.5" font-family="Helvetica,sans-Serif" font-size="10.00" fill="#000000">functional</text>
</a>
</g>
</g>
<!-- Node4&#45;&gt;Node5 -->
<g id="edge5" class="edge">
<title>Node4&#45;&gt;Node5</title>
<path fill="none" stroke="#191970" d="M291.9523,-56.2455C277.2401,-47.5731 255.5112,-34.7645 238.6495,-24.825"/>
<polygon fill="#191970" stroke="#191970" points="240.2502,-21.7057 229.8581,-19.6427 236.6954,-27.736 240.2502,-21.7057"/>
</g>
<!-- Node6 -->
<g id="node7" class="node">
<title>Node6</title>
<g id="a_node7"><a xlink:title=" ">
<polygon fill="none" stroke="#bfbfbf" points="277.5,-.5 277.5,-19.5 339.5,-19.5 339.5,-.5 277.5,-.5"/>
<text text-anchor="middle" x="308.5" y="-7.5" font-family="Helvetica,sans-Serif" font-size="10.00" fill="#000000">future</text>
</a>
</g>
</g>
<!-- Node4&#45;&gt;Node6 -->
<g id="edge6" class="edge">
<title>Node4&#45;&gt;Node6</title>
<path fill="none" stroke="#191970" d="M308.5,-56.2455C308.5,-48.9382 308.5,-38.6944 308.5,-29.7046"/>
<polygon fill="#191970" stroke="#191970" points="312.0001,-29.6426 308.5,-19.6427 305.0001,-29.6427 312.0001,-29.6426"/>
</g>
<!-- Node4&#45;&gt;Node7 -->
<g id="edge7" class="edge">
<title>Node4&#45;&gt;Node7</title>
<path fill="none" stroke="#191970" d="M364.5512,-56.4732C410.6827,-48.3359 477.9703,-35.7898 545.4744,-20.1054"/>
<polygon fill="#191970" stroke="#191970" points="546.497,-23.4606 555.4331,-17.7687 544.8979,-16.6457 546.497,-23.4606"/>
</g>
<!-- Node8 -->
<g id="node9" class="node">
<title>Node8</title>
<g id="a_node9"><a xlink:title=" ">
<polygon fill="none" stroke="#bfbfbf" points="357.5,-.5 357.5,-19.5 419.5,-19.5 419.5,-.5 357.5,-.5"/>
<text text-anchor="middle" x="388.5" y="-7.5" font-family="Helvetica,sans-Serif" font-size="10.00" fill="#000000">thread</text>
</a>
</g>
</g>
<!-- Node4&#45;&gt;Node8 -->
<g id="edge8" class="edge">
<title>Node4&#45;&gt;Node8</title>
<path fill="none" stroke="#191970" d="M322.4349,-56.2455C334.5947,-47.7337 352.4464,-35.2375 366.5285,-25.3801"/>
<polygon fill="#191970" stroke="#191970" points="368.5395,-28.2447 374.7248,-19.6427 364.5253,-22.51 368.5395,-28.2447"/>
</g>
<!-- Node9 -->
<g id="node10" class="node">
<title>Node9</title>
<g id="a_node10"><a xlink:title=" ">
<polygon fill="none" stroke="#bfbfbf" points="438,-.5 438,-19.5 537,-19.5 537,-.5 438,-.5"/>
<text text-anchor="middle" x="487.5" y="-7.5" font-family="Helvetica,sans-Serif" font-size="10.00" fill="#000000">type_traits</text>
</a>
</g>
</g>
<!-- Node4&#45;&gt;Node9 -->
<g id="edge9" class="edge">
<title>Node4&#45;&gt;Node9</title>
<path fill="none" stroke="#191970" d="M339.2712,-56.3733C369.165,-47.021 414.7093,-32.7725 447.4217,-22.5385"/>
<polygon fill="#191970" stroke="#191970" points="448.6315,-25.8273 457.1303,-19.5011 446.5414,-19.1466 448.6315,-25.8273"/>
</g>
</g>
</svg>
