<?xml version="1.0" encoding="UTF-8" standalone="no"?>
<!DOCTYPE svg PUBLIC "-//W3C//DTD SVG 1.1//EN"
 "http://www.w3.org/Graphics/SVG/1.1/DTD/svg11.dtd">
<!-- Generated by graphviz version 2.40.1 (0)
 -->
<!-- Title: fractal::anonymous_namespace{main::cpp}::main_impl Pages: 1 -->
<svg width="858pt" height="323pt"
 viewBox="0.00 0.00 858.00 323.00" xmlns="http://www.w3.org/2000/svg" xmlns:xlink="http://www.w3.org/1999/xlink">
<g id="graph0" class="graph" transform="scale(1 1) rotate(0) translate(4 319)">
<title>fractal::anonymous_namespace{main::cpp}::main_impl</title>
<!-- Node16 -->
<g id="node1" class="node">
<title>Node16</title>
<g id="a_node1"><a xlink:title=" ">
<polygon fill="#bfbfbf" stroke="#000000" points="0,-93.5 0,-134.5 174,-134.5 174,-93.5 0,-93.5"/>
<text text-anchor="start" x="8" y="-122.5" font-family="Helvetica,sans-Serif" font-size="10.00" fill="#000000">fractal::anonymous</text>
<text text-anchor="start" x="8" y="-111.5" font-family="Helvetica,sans-Serif" font-size="10.00" fill="#000000">_namespace{main::cpp}</text>
<text text-anchor="middle" x="87" y="-100.5" font-family="Helvetica,sans-Serif" font-size="10.00" fill="#000000">::main_impl</text>
</a>
</g>
</g>
<!-- Node17 -->
<g id="node2" class="node">
<title>Node17</title>
<g id="a_node2"><a xlink:href="structfractal_1_1_main_window.html#a96ec873be43b90688d41fff6ae3ec360" target="_top" xlink:title=" ">
<polygon fill="none" stroke="#000000" points="217.5,-121 217.5,-151 376.5,-151 376.5,-121 217.5,-121"/>
<text text-anchor="start" x="225.5" y="-139" font-family="Helvetica,sans-Serif" font-size="10.00" fill="#000000">fractal::MainWindow</text>
<text text-anchor="middle" x="297" y="-128" font-family="Helvetica,sans-Serif" font-size="10.00" fill="#000000">::loop</text>
</a>
</g>
</g>
<!-- Node16&#45;&gt;Node17 -->
<g id="edge1" class="edge">
<title>Node16&#45;&gt;Node17</title>
<path fill="none" stroke="#191970" d="M174.2345,-123.1389C185.1919,-124.2868 196.415,-125.4625 207.4079,-126.6142"/>
<polygon fill="#191970" stroke="#191970" points="207.1141,-130.1025 217.4244,-127.6635 207.8435,-123.1406 207.1141,-130.1025"/>
</g>
<!-- Node29 -->
<g id="node14" class="node">
<title>Node29</title>
<g id="a_node14"><a xlink:href="namespacefractal.html#a8c2e0355fc7336950a444ca81a5ef949" target="_top" xlink:title=" ">
<polygon fill="none" stroke="#000000" points="210,-82.5 210,-101.5 384,-101.5 384,-82.5 210,-82.5"/>
<text text-anchor="middle" x="297" y="-89.5" font-family="Helvetica,sans-Serif" font-size="10.00" fill="#000000">fractal::render_video</text>
</a>
</g>
</g>
<!-- Node16&#45;&gt;Node29 -->
<g id="edge13" class="edge">
<title>Node16&#45;&gt;Node29</title>
<path fill="none" stroke="#191970" d="M174.2345,-104.8611C182.6581,-103.9787 191.2388,-103.0797 199.7511,-102.188"/>
<polygon fill="#191970" stroke="#191970" points="200.1182,-105.6688 209.699,-101.1458 199.3888,-98.7069 200.1182,-105.6688"/>
</g>
<!-- Node18 -->
<g id="node3" class="node">
<title>Node18</title>
<g id="a_node3"><a xlink:href="structfractal_1_1_shader_program.html#a65c0c65a3cac5af4a64e898ba200db0b" target="_top" xlink:title=" ">
<polygon fill="none" stroke="#000000" points="427.5,-246 427.5,-276 609.5,-276 609.5,-246 427.5,-246"/>
<text text-anchor="start" x="435.5" y="-264" font-family="Helvetica,sans-Serif" font-size="10.00" fill="#000000">fractal::ShaderProgram</text>
<text text-anchor="middle" x="518.5" y="-253" font-family="Helvetica,sans-Serif" font-size="10.00" fill="#000000">::bind</text>
</a>
</g>
</g>
<!-- Node17&#45;&gt;Node18 -->
<g id="edge2" class="edge">
<title>Node17&#45;&gt;Node18</title>
<path fill="none" stroke="#191970" d="M312.7874,-151.297C335.0106,-172.0624 377.5653,-209.0884 420,-231 428.4879,-235.3828 437.7241,-239.243 447.0264,-242.6079"/>
<polygon fill="#191970" stroke="#191970" points="446.1211,-245.9976 456.7158,-245.9363 448.3953,-239.3773 446.1211,-245.9976"/>
</g>
<!-- Node21 -->
<g id="node6" class="node">
<title>Node21</title>
<g id="a_node6"><a xlink:href="structfractal_1_1_full_quad.html#ab741333738e9ad68ed05cf9c7976d7d6" target="_top" xlink:title=" ">
<polygon fill="none" stroke="#000000" points="424,-202.5 424,-221.5 613,-221.5 613,-202.5 424,-202.5"/>
<text text-anchor="middle" x="518.5" y="-209.5" font-family="Helvetica,sans-Serif" font-size="10.00" fill="#000000">fractal::FullQuad::bind</text>
</a>
</g>
</g>
<!-- Node17&#45;&gt;Node21 -->
<g id="edge5" class="edge">
<title>Node17&#45;&gt;Node21</title>
<path fill="none" stroke="#191970" d="M324.5499,-151.137C348.9767,-163.9759 385.9557,-182.01 420,-193 428.5808,-195.77 437.7196,-198.1967 446.8397,-200.3057"/>
<polygon fill="#191970" stroke="#191970" points="446.1835,-203.7449 456.7014,-202.4707 447.6845,-196.9077 446.1835,-203.7449"/>
</g>
<!-- Node23 -->
<g id="node8" class="node">
<title>Node23</title>
<g id="a_node8"><a xlink:href="structfractal_1_1_texture.html#a88a52fe97f3eb1d7a86c8158b71f1f15" target="_top" xlink:title=" ">
<polygon fill="none" stroke="#000000" points="427.5,-164.5 427.5,-183.5 609.5,-183.5 609.5,-164.5 427.5,-164.5"/>
<text text-anchor="middle" x="518.5" y="-171.5" font-family="Helvetica,sans-Serif" font-size="10.00" fill="#000000">fractal::Texture::bind</text>
</a>
</g>
</g>
<!-- Node17&#45;&gt;Node23 -->
<g id="edge7" class="edge">
<title>Node17&#45;&gt;Node23</title>
<path fill="none" stroke="#191970" d="M376.6536,-149.6652C401.7226,-153.966 429.1048,-158.6636 453.0668,-162.7744"/>
<polygon fill="#191970" stroke="#191970" points="452.6623,-166.2561 463.1101,-164.4975 453.846,-159.3569 452.6623,-166.2561"/>
</g>
<!-- Node25 -->
<g id="node10" class="node">
<title>Node25</title>
<g id="a_node10"><a xlink:href="structfractal_1_1_glfw_window.html#a3777ec5f1b219cfb104c901f6121299b" target="_top" xlink:title=" ">
<polygon fill="none" stroke="#000000" points="420,-126.5 420,-145.5 617,-145.5 617,-126.5 420,-126.5"/>
<text text-anchor="middle" x="518.5" y="-133.5" font-family="Helvetica,sans-Serif" font-size="10.00" fill="#000000">fractal::GlfwWindow::ptr</text>
</a>
</g>
</g>
<!-- Node17&#45;&gt;Node25 -->
<g id="edge9" class="edge">
<title>Node17&#45;&gt;Node25</title>
<path fill="none" stroke="#191970" d="M376.6536,-136C387.3839,-136 398.538,-136 409.6663,-136"/>
<polygon fill="#191970" stroke="#191970" points="409.866,-139.5001 419.866,-136 409.8659,-132.5001 409.866,-139.5001"/>
</g>
<!-- Node26 -->
<g id="node11" class="node">
<title>Node26</title>
<g id="a_node11"><a xlink:href="structfractal_1_1_mandelbrot.html#afc6aa66d3967bb1d6828a4cf2efa61d6" target="_top" xlink:title="pointer may be invalidated after any interaction with this object">
<polygon fill="none" stroke="#000000" points="439,-77 439,-107 598,-107 598,-77 439,-77"/>
<text text-anchor="start" x="447" y="-95" font-family="Helvetica,sans-Serif" font-size="10.00" fill="#000000">fractal::Mandelbrot</text>
<text text-anchor="middle" x="518.5" y="-84" font-family="Helvetica,sans-Serif" font-size="10.00" fill="#000000">::generate</text>
</a>
</g>
</g>
<!-- Node17&#45;&gt;Node26 -->
<g id="edge10" class="edge">
<title>Node17&#45;&gt;Node26</title>
<path fill="none" stroke="#191970" d="M372.6082,-120.9808C392.0137,-117.126 413.0249,-112.9522 432.896,-109.0049"/>
<polygon fill="#191970" stroke="#191970" points="433.7303,-112.4076 442.8567,-107.0262 432.3664,-105.5417 433.7303,-112.4076"/>
</g>
<!-- Node27 -->
<g id="node12" class="node">
<title>Node27</title>
<g id="a_node12"><a xlink:href="structfractal_1_1_texture.html#a46e23d483c95de7b675e1c60b86d6d36" target="_top" xlink:title=" ">
<polygon fill="none" stroke="#000000" points="420,-38.5 420,-57.5 617,-57.5 617,-38.5 420,-38.5"/>
<text text-anchor="middle" x="518.5" y="-45.5" font-family="Helvetica,sans-Serif" font-size="10.00" fill="#000000">fractal::Texture::update</text>
</a>
</g>
</g>
<!-- Node17&#45;&gt;Node27 -->
<g id="edge11" class="edge">
<title>Node17&#45;&gt;Node27</title>
<path fill="none" stroke="#191970" d="M364.8441,-120.9738C371.5762,-118.1849 378.0941,-114.89 384,-111 405.101,-97.1015 398.2999,-79.9432 420,-67 423.6599,-64.817 427.52,-62.8778 431.5086,-61.1556"/>
<polygon fill="#191970" stroke="#191970" points="432.9259,-64.3609 441.015,-57.5187 430.4245,-57.823 432.9259,-64.3609"/>
</g>
<!-- Node28 -->
<g id="node13" class="node">
<title>Node28</title>
<g id="a_node13"><a xlink:href="structfractal_1_1_full_quad.html#a8c3275ce999f6088f63f1eb1748d21c6" target="_top" xlink:title="Needs to be bound first.">
<polygon fill="none" stroke="#000000" points="424,-.5 424,-19.5 613,-19.5 613,-.5 424,-.5"/>
<text text-anchor="middle" x="518.5" y="-7.5" font-family="Helvetica,sans-Serif" font-size="10.00" fill="#000000">fractal::FullQuad::draw</text>
</a>
</g>
</g>
<!-- Node17&#45;&gt;Node28 -->
<g id="edge12" class="edge">
<title>Node17&#45;&gt;Node28</title>
<path fill="none" stroke="#191970" d="M369.4627,-120.8187C374.6931,-118.0707 379.6226,-114.8274 384,-111 413.9637,-84.8012 388.8972,-53.8358 420,-29 422.0839,-27.336 424.271,-25.803 426.5414,-24.3914"/>
<polygon fill="#191970" stroke="#191970" points="428.49,-27.319 435.6697,-19.5279 425.1984,-21.1412 428.49,-27.319"/>
</g>
<!-- Node19 -->
<g id="node4" class="node">
<title>Node19</title>
<g id="a_node4"><a xlink:href="structfractal_1_1_gl_object.html#af52b46835d8ac261160a1da910ca0294" target="_top" xlink:title=" ">
<polygon fill="none" stroke="#000000" points="664.5,-295.5 664.5,-314.5 838.5,-314.5 838.5,-295.5 664.5,-295.5"/>
<text text-anchor="middle" x="751.5" y="-302.5" font-family="Helvetica,sans-Serif" font-size="10.00" fill="#000000">fractal::GlObject::id</text>
</a>
</g>
</g>
<!-- Node18&#45;&gt;Node19 -->
<g id="edge3" class="edge">
<title>Node18&#45;&gt;Node19</title>
<path fill="none" stroke="#191970" d="M598.0337,-276.0192C628.4438,-281.7619 662.6028,-288.2125 690.9602,-293.5676"/>
<polygon fill="#191970" stroke="#191970" points="690.6516,-297.0711 701.1274,-295.4876 691.9506,-290.1927 690.6516,-297.0711"/>
</g>
<!-- Node20 -->
<g id="node5" class="node">
<title>Node20</title>
<g id="a_node5"><a xlink:href="structfractal_1_1_shader_program.html#a7ab43c66ed517bc2060f596965a37940" target="_top" xlink:title=" ">
<polygon fill="none" stroke="#000000" points="660.5,-246 660.5,-276 842.5,-276 842.5,-246 660.5,-246"/>
<text text-anchor="start" x="668.5" y="-264" font-family="Helvetica,sans-Serif" font-size="10.00" fill="#000000">fractal::ShaderProgram</text>
<text text-anchor="middle" x="751.5" y="-253" font-family="Helvetica,sans-Serif" font-size="10.00" fill="#000000">::unbind</text>
</a>
</g>
</g>
<!-- Node18&#45;&gt;Node20 -->
<g id="edge4" class="edge">
<title>Node18&#45;&gt;Node20</title>
<path fill="none" stroke="#191970" d="M609.5849,-261C622.909,-261 636.6992,-261 650.2117,-261"/>
<polygon fill="#191970" stroke="#191970" points="650.4784,-264.5001 660.4783,-261 650.4783,-257.5001 650.4784,-264.5001"/>
</g>
<!-- Node22 -->
<g id="node7" class="node">
<title>Node22</title>
<g id="a_node7"><a xlink:href="structfractal_1_1_full_quad.html#a9b052b47f4ad954fd2ff9c04a04932d7" target="_top" xlink:title=" ">
<polygon fill="none" stroke="#000000" points="672,-197 672,-227 831,-227 831,-197 672,-197"/>
<text text-anchor="start" x="680" y="-215" font-family="Helvetica,sans-Serif" font-size="10.00" fill="#000000">fractal::FullQuad::</text>
<text text-anchor="middle" x="751.5" y="-204" font-family="Helvetica,sans-Serif" font-size="10.00" fill="#000000">unbind</text>
</a>
</g>
</g>
<!-- Node21&#45;&gt;Node22 -->
<g id="edge6" class="edge">
<title>Node21&#45;&gt;Node22</title>
<path fill="none" stroke="#191970" d="M613.27,-212C629.1862,-212 645.6634,-212 661.4558,-212"/>
<polygon fill="#191970" stroke="#191970" points="661.7221,-215.5001 671.722,-212 661.722,-208.5001 661.7221,-215.5001"/>
</g>
<!-- Node24 -->
<g id="node9" class="node">
<title>Node24</title>
<g id="a_node9"><a xlink:href="structfractal_1_1_texture.html#a697a1987a6b47324e89a8789bd69bb98" target="_top" xlink:title=" ">
<polygon fill="none" stroke="#000000" points="653,-158.5 653,-177.5 850,-177.5 850,-158.5 653,-158.5"/>
<text text-anchor="middle" x="751.5" y="-165.5" font-family="Helvetica,sans-Serif" font-size="10.00" fill="#000000">fractal::Texture::unbind</text>
</a>
</g>
</g>
<!-- Node23&#45;&gt;Node24 -->
<g id="edge8" class="edge">
<title>Node23&#45;&gt;Node24</title>
<path fill="none" stroke="#191970" d="M609.5849,-171.6545C620.432,-171.3751 631.5881,-171.0879 642.6518,-170.803"/>
<polygon fill="#191970" stroke="#191970" points="642.8682,-174.2986 652.7748,-170.5423 642.6879,-167.301 642.8682,-174.2986"/>
</g>
</g>
</svg>
