<?xml version="1.0" encoding="UTF-8" standalone="no"?>
<!DOCTYPE svg PUBLIC "-//W3C//DTD SVG 1.1//EN"
 "http://www.w3.org/Graphics/SVG/1.1/DTD/svg11.dtd">
<!-- Generated by graphviz version 2.40.1 (0)
 -->
<!-- Title: fractal::anonymous_namespace{main::cpp}::main Pages: 1 -->
<svg width="1113pt" height="323pt"
 viewBox="0.00 0.00 1113.00 323.00" xmlns="http://www.w3.org/2000/svg" xmlns:xlink="http://www.w3.org/1999/xlink">
<g id="graph0" class="graph" transform="scale(1 1) rotate(0) translate(4 319)">
<title>fractal::anonymous_namespace{main::cpp}::main</title>
<!-- Node0 -->
<g id="node1" class="node">
<title>Node0</title>
<g id="a_node1"><a xlink:title=" ">
<polygon fill="#bfbfbf" stroke="#000000" points="0,-99 0,-129 219,-129 219,-99 0,-99"/>
<text text-anchor="start" x="8" y="-117" font-family="Helvetica,sans-Serif" font-size="10.00" fill="#000000">fractal::anonymous</text>
<text text-anchor="middle" x="109.5" y="-106" font-family="Helvetica,sans-Serif" font-size="10.00" fill="#000000">_namespace{main::cpp}::main</text>
</a>
</g>
</g>
<!-- Node1 -->
<g id="node2" class="node">
<title>Node1</title>
<g id="a_node2"><a xlink:href="namespacefractal_1_1anonymous__namespace_02main_8cpp_03.html#ae8627868777810181cf8e38d084bee20" target="_top" xlink:title=" ">
<polygon fill="none" stroke="#000000" points="255,-93.5 255,-134.5 429,-134.5 429,-93.5 255,-93.5"/>
<text text-anchor="start" x="263" y="-122.5" font-family="Helvetica,sans-Serif" font-size="10.00" fill="#000000">fractal::anonymous</text>
<text text-anchor="start" x="263" y="-111.5" font-family="Helvetica,sans-Serif" font-size="10.00" fill="#000000">_namespace{main::cpp}</text>
<text text-anchor="middle" x="342" y="-100.5" font-family="Helvetica,sans-Serif" font-size="10.00" fill="#000000">::main_impl</text>
</a>
</g>
</g>
<!-- Node0&#45;&gt;Node1 -->
<g id="edge1" class="edge">
<title>Node0&#45;&gt;Node1</title>
<path fill="none" stroke="#191970" d="M219.282,-114C227.7245,-114 236.2127,-114 244.5676,-114"/>
<polygon fill="#191970" stroke="#191970" points="244.6807,-117.5001 254.6807,-114 244.6807,-110.5001 244.6807,-117.5001"/>
</g>
<!-- Node2 -->
<g id="node3" class="node">
<title>Node2</title>
<g id="a_node3"><a xlink:href="structfractal_1_1_main_window.html#a96ec873be43b90688d41fff6ae3ec360" target="_top" xlink:title=" ">
<polygon fill="none" stroke="#000000" points="472.5,-121 472.5,-151 631.5,-151 631.5,-121 472.5,-121"/>
<text text-anchor="start" x="480.5" y="-139" font-family="Helvetica,sans-Serif" font-size="10.00" fill="#000000">fractal::MainWindow</text>
<text text-anchor="middle" x="552" y="-128" font-family="Helvetica,sans-Serif" font-size="10.00" fill="#000000">::loop</text>
</a>
</g>
</g>
<!-- Node1&#45;&gt;Node2 -->
<g id="edge2" class="edge">
<title>Node1&#45;&gt;Node2</title>
<path fill="none" stroke="#191970" d="M429.2345,-123.1389C440.1919,-124.2868 451.415,-125.4625 462.4079,-126.6142"/>
<polygon fill="#191970" stroke="#191970" points="462.1141,-130.1025 472.4244,-127.6635 462.8435,-123.1406 462.1141,-130.1025"/>
</g>
<!-- Node14 -->
<g id="node15" class="node">
<title>Node14</title>
<g id="a_node15"><a xlink:href="namespacefractal.html#a8c2e0355fc7336950a444ca81a5ef949" target="_top" xlink:title=" ">
<polygon fill="none" stroke="#000000" points="465,-82.5 465,-101.5 639,-101.5 639,-82.5 465,-82.5"/>
<text text-anchor="middle" x="552" y="-89.5" font-family="Helvetica,sans-Serif" font-size="10.00" fill="#000000">fractal::render_video</text>
</a>
</g>
</g>
<!-- Node1&#45;&gt;Node14 -->
<g id="edge14" class="edge">
<title>Node1&#45;&gt;Node14</title>
<path fill="none" stroke="#191970" d="M429.2345,-104.8611C437.6581,-103.9787 446.2388,-103.0797 454.7511,-102.188"/>
<polygon fill="#191970" stroke="#191970" points="455.1182,-105.6688 464.699,-101.1458 454.3888,-98.7069 455.1182,-105.6688"/>
</g>
<!-- Node3 -->
<g id="node4" class="node">
<title>Node3</title>
<g id="a_node4"><a xlink:href="structfractal_1_1_shader_program.html#a65c0c65a3cac5af4a64e898ba200db0b" target="_top" xlink:title=" ">
<polygon fill="none" stroke="#000000" points="682.5,-246 682.5,-276 864.5,-276 864.5,-246 682.5,-246"/>
<text text-anchor="start" x="690.5" y="-264" font-family="Helvetica,sans-Serif" font-size="10.00" fill="#000000">fractal::ShaderProgram</text>
<text text-anchor="middle" x="773.5" y="-253" font-family="Helvetica,sans-Serif" font-size="10.00" fill="#000000">::bind</text>
</a>
</g>
</g>
<!-- Node2&#45;&gt;Node3 -->
<g id="edge3" class="edge">
<title>Node2&#45;&gt;Node3</title>
<path fill="none" stroke="#191970" d="M567.7874,-151.297C590.0106,-172.0624 632.5653,-209.0884 675,-231 683.4879,-235.3828 692.7241,-239.243 702.0264,-242.6079"/>
<polygon fill="#191970" stroke="#191970" points="701.1211,-245.9976 711.7158,-245.9363 703.3953,-239.3773 701.1211,-245.9976"/>
</g>
<!-- Node6 -->
<g id="node7" class="node">
<title>Node6</title>
<g id="a_node7"><a xlink:href="structfractal_1_1_full_quad.html#ab741333738e9ad68ed05cf9c7976d7d6" target="_top" xlink:title=" ">
<polygon fill="none" stroke="#000000" points="679,-202.5 679,-221.5 868,-221.5 868,-202.5 679,-202.5"/>
<text text-anchor="middle" x="773.5" y="-209.5" font-family="Helvetica,sans-Serif" font-size="10.00" fill="#000000">fractal::FullQuad::bind</text>
</a>
</g>
</g>
<!-- Node2&#45;&gt;Node6 -->
<g id="edge6" class="edge">
<title>Node2&#45;&gt;Node6</title>
<path fill="none" stroke="#191970" d="M579.5499,-151.137C603.9767,-163.9759 640.9557,-182.01 675,-193 683.5808,-195.77 692.7196,-198.1967 701.8397,-200.3057"/>
<polygon fill="#191970" stroke="#191970" points="701.1835,-203.7449 711.7014,-202.4707 702.6845,-196.9077 701.1835,-203.7449"/>
</g>
<!-- Node8 -->
<g id="node9" class="node">
<title>Node8</title>
<g id="a_node9"><a xlink:href="structfractal_1_1_texture.html#a88a52fe97f3eb1d7a86c8158b71f1f15" target="_top" xlink:title=" ">
<polygon fill="none" stroke="#000000" points="682.5,-164.5 682.5,-183.5 864.5,-183.5 864.5,-164.5 682.5,-164.5"/>
<text text-anchor="middle" x="773.5" y="-171.5" font-family="Helvetica,sans-Serif" font-size="10.00" fill="#000000">fractal::Texture::bind</text>
</a>
</g>
</g>
<!-- Node2&#45;&gt;Node8 -->
<g id="edge8" class="edge">
<title>Node2&#45;&gt;Node8</title>
<path fill="none" stroke="#191970" d="M631.6536,-149.6652C656.7226,-153.966 684.1048,-158.6636 708.0668,-162.7744"/>
<polygon fill="#191970" stroke="#191970" points="707.6623,-166.2561 718.1101,-164.4975 708.846,-159.3569 707.6623,-166.2561"/>
</g>
<!-- Node10 -->
<g id="node11" class="node">
<title>Node10</title>
<g id="a_node11"><a xlink:href="structfractal_1_1_glfw_window.html#a3777ec5f1b219cfb104c901f6121299b" target="_top" xlink:title=" ">
<polygon fill="none" stroke="#000000" points="675,-126.5 675,-145.5 872,-145.5 872,-126.5 675,-126.5"/>
<text text-anchor="middle" x="773.5" y="-133.5" font-family="Helvetica,sans-Serif" font-size="10.00" fill="#000000">fractal::GlfwWindow::ptr</text>
</a>
</g>
</g>
<!-- Node2&#45;&gt;Node10 -->
<g id="edge10" class="edge">
<title>Node2&#45;&gt;Node10</title>
<path fill="none" stroke="#191970" d="M631.6536,-136C642.3839,-136 653.538,-136 664.6663,-136"/>
<polygon fill="#191970" stroke="#191970" points="664.866,-139.5001 674.866,-136 664.8659,-132.5001 664.866,-139.5001"/>
</g>
<!-- Node11 -->
<g id="node12" class="node">
<title>Node11</title>
<g id="a_node12"><a xlink:href="structfractal_1_1_mandelbrot.html#afc6aa66d3967bb1d6828a4cf2efa61d6" target="_top" xlink:title="pointer may be invalidated after any interaction with this object">
<polygon fill="none" stroke="#000000" points="694,-77 694,-107 853,-107 853,-77 694,-77"/>
<text text-anchor="start" x="702" y="-95" font-family="Helvetica,sans-Serif" font-size="10.00" fill="#000000">fractal::Mandelbrot</text>
<text text-anchor="middle" x="773.5" y="-84" font-family="Helvetica,sans-Serif" font-size="10.00" fill="#000000">::generate</text>
</a>
</g>
</g>
<!-- Node2&#45;&gt;Node11 -->
<g id="edge11" class="edge">
<title>Node2&#45;&gt;Node11</title>
<path fill="none" stroke="#191970" d="M627.6082,-120.9808C647.0137,-117.126 668.0249,-112.9522 687.896,-109.0049"/>
<polygon fill="#191970" stroke="#191970" points="688.7303,-112.4076 697.8567,-107.0262 687.3664,-105.5417 688.7303,-112.4076"/>
</g>
<!-- Node12 -->
<g id="node13" class="node">
<title>Node12</title>
<g id="a_node13"><a xlink:href="structfractal_1_1_texture.html#a46e23d483c95de7b675e1c60b86d6d36" target="_top" xlink:title=" ">
<polygon fill="none" stroke="#000000" points="675,-38.5 675,-57.5 872,-57.5 872,-38.5 675,-38.5"/>
<text text-anchor="middle" x="773.5" y="-45.5" font-family="Helvetica,sans-Serif" font-size="10.00" fill="#000000">fractal::Texture::update</text>
</a>
</g>
</g>
<!-- Node2&#45;&gt;Node12 -->
<g id="edge12" class="edge">
<title>Node2&#45;&gt;Node12</title>
<path fill="none" stroke="#191970" d="M619.8441,-120.9738C626.5762,-118.1849 633.0941,-114.89 639,-111 660.101,-97.1015 653.2999,-79.9432 675,-67 678.6599,-64.817 682.52,-62.8778 686.5086,-61.1556"/>
<polygon fill="#191970" stroke="#191970" points="687.9259,-64.3609 696.015,-57.5187 685.4245,-57.823 687.9259,-64.3609"/>
</g>
<!-- Node13 -->
<g id="node14" class="node">
<title>Node13</title>
<g id="a_node14"><a xlink:href="structfractal_1_1_full_quad.html#a8c3275ce999f6088f63f1eb1748d21c6" target="_top" xlink:title="Needs to be bound first.">
<polygon fill="none" stroke="#000000" points="679,-.5 679,-19.5 868,-19.5 868,-.5 679,-.5"/>
<text text-anchor="middle" x="773.5" y="-7.5" font-family="Helvetica,sans-Serif" font-size="10.00" fill="#000000">fractal::FullQuad::draw</text>
</a>
</g>
</g>
<!-- Node2&#45;&gt;Node13 -->
<g id="edge13" class="edge">
<title>Node2&#45;&gt;Node13</title>
<path fill="none" stroke="#191970" d="M624.4627,-120.8187C629.6931,-118.0707 634.6226,-114.8274 639,-111 668.9637,-84.8012 643.8972,-53.8358 675,-29 677.0839,-27.336 679.271,-25.803 681.5414,-24.3914"/>
<polygon fill="#191970" stroke="#191970" points="683.49,-27.319 690.6697,-19.5279 680.1984,-21.1412 683.49,-27.319"/>
</g>
<!-- Node4 -->
<g id="node5" class="node">
<title>Node4</title>
<g id="a_node5"><a xlink:href="structfractal_1_1_gl_object.html#af52b46835d8ac261160a1da910ca0294" target="_top" xlink:title=" ">
<polygon fill="none" stroke="#000000" points="919.5,-295.5 919.5,-314.5 1093.5,-314.5 1093.5,-295.5 919.5,-295.5"/>
<text text-anchor="middle" x="1006.5" y="-302.5" font-family="Helvetica,sans-Serif" font-size="10.00" fill="#000000">fractal::GlObject::id</text>
</a>
</g>
</g>
<!-- Node3&#45;&gt;Node4 -->
<g id="edge4" class="edge">
<title>Node3&#45;&gt;Node4</title>
<path fill="none" stroke="#191970" d="M853.0337,-276.0192C883.4438,-281.7619 917.6028,-288.2125 945.9602,-293.5676"/>
<polygon fill="#191970" stroke="#191970" points="945.6516,-297.0711 956.1274,-295.4876 946.9506,-290.1927 945.6516,-297.0711"/>
</g>
<!-- Node5 -->
<g id="node6" class="node">
<title>Node5</title>
<g id="a_node6"><a xlink:href="structfractal_1_1_shader_program.html#a7ab43c66ed517bc2060f596965a37940" target="_top" xlink:title=" ">
<polygon fill="none" stroke="#000000" points="915.5,-246 915.5,-276 1097.5,-276 1097.5,-246 915.5,-246"/>
<text text-anchor="start" x="923.5" y="-264" font-family="Helvetica,sans-Serif" font-size="10.00" fill="#000000">fractal::ShaderProgram</text>
<text text-anchor="middle" x="1006.5" y="-253" font-family="Helvetica,sans-Serif" font-size="10.00" fill="#000000">::unbind</text>
</a>
</g>
</g>
<!-- Node3&#45;&gt;Node5 -->
<g id="edge5" class="edge">
<title>Node3&#45;&gt;Node5</title>
<path fill="none" stroke="#191970" d="M864.5849,-261C877.909,-261 891.6992,-261 905.2117,-261"/>
<polygon fill="#191970" stroke="#191970" points="905.4784,-264.5001 915.4783,-261 905.4783,-257.5001 905.4784,-264.5001"/>
</g>
<!-- Node7 -->
<g id="node8" class="node">
<title>Node7</title>
<g id="a_node8"><a xlink:href="structfractal_1_1_full_quad.html#a9b052b47f4ad954fd2ff9c04a04932d7" target="_top" xlink:title=" ">
<polygon fill="none" stroke="#000000" points="927,-197 927,-227 1086,-227 1086,-197 927,-197"/>
<text text-anchor="start" x="935" y="-215" font-family="Helvetica,sans-Serif" font-size="10.00" fill="#000000">fractal::FullQuad::</text>
<text text-anchor="middle" x="1006.5" y="-204" font-family="Helvetica,sans-Serif" font-size="10.00" fill="#000000">unbind</text>
</a>
</g>
</g>
<!-- Node6&#45;&gt;Node7 -->
<g id="edge7" class="edge">
<title>Node6&#45;&gt;Node7</title>
<path fill="none" stroke="#191970" d="M868.27,-212C884.1862,-212 900.6634,-212 916.4558,-212"/>
<polygon fill="#191970" stroke="#191970" points="916.7221,-215.5001 926.722,-212 916.722,-208.5001 916.7221,-215.5001"/>
</g>
<!-- Node9 -->
<g id="node10" class="node">
<title>Node9</title>
<g id="a_node10"><a xlink:href="structfractal_1_1_texture.html#a697a1987a6b47324e89a8789bd69bb98" target="_top" xlink:title=" ">
<polygon fill="none" stroke="#000000" points="908,-158.5 908,-177.5 1105,-177.5 1105,-158.5 908,-158.5"/>
<text text-anchor="middle" x="1006.5" y="-165.5" font-family="Helvetica,sans-Serif" font-size="10.00" fill="#000000">fractal::Texture::unbind</text>
</a>
</g>
</g>
<!-- Node8&#45;&gt;Node9 -->
<g id="edge9" class="edge">
<title>Node8&#45;&gt;Node9</title>
<path fill="none" stroke="#191970" d="M864.5849,-171.6545C875.432,-171.3751 886.5881,-171.0879 897.6518,-170.803"/>
<polygon fill="#191970" stroke="#191970" points="897.8682,-174.2986 907.7748,-170.5423 897.6879,-167.301 897.8682,-174.2986"/>
</g>
</g>
</svg>
