<?xml version="1.0" encoding="UTF-8" standalone="no"?>
<!DOCTYPE svg PUBLIC "-//W3C//DTD SVG 1.1//EN"
 "http://www.w3.org/Graphics/SVG/1.1/DTD/svg11.dtd">
<!-- Generated by graphviz version 2.40.1 (0)
 -->
<!-- Title: fractal/palette.h Pages: 1 -->
<svg width="740pt" height="196pt"
 viewBox="0.00 0.00 740.00 196.00" xmlns="http://www.w3.org/2000/svg" xmlns:xlink="http://www.w3.org/1999/xlink">
<g id="graph0" class="graph" transform="scale(1 1) rotate(0) translate(4 192)">
<title>fractal/palette.h</title>
<!-- Node3 -->
<g id="node1" class="node">
<title>Node3</title>
<g id="a_node1"><a xlink:title=" ">
<polygon fill="#bfbfbf" stroke="#000000" points="473.5,-168.5 473.5,-187.5 617.5,-187.5 617.5,-168.5 473.5,-168.5"/>
<text text-anchor="middle" x="545.5" y="-175.5" font-family="Helvetica,sans-Serif" font-size="10.00" fill="#000000">fractal/palette.h</text>
</a>
</g>
</g>
<!-- Node4 -->
<g id="node2" class="node">
<title>Node4</title>
<g id="a_node2"><a xlink:href="mandelbrot_8h.html" target="_top" xlink:title=" ">
<polygon fill="none" stroke="#000000" points="327,-112.5 327,-131.5 494,-131.5 494,-112.5 327,-112.5"/>
<text text-anchor="middle" x="410.5" y="-119.5" font-family="Helvetica,sans-Serif" font-size="10.00" fill="#000000">fractal/mandelbrot.h</text>
</a>
</g>
</g>
<!-- Node3&#45;&gt;Node4 -->
<g id="edge1" class="edge">
<title>Node3&#45;&gt;Node4</title>
<path fill="none" stroke="#191970" d="M513.0009,-164.5189C488.4146,-154.3201 455.2634,-140.5685 433.4045,-131.5011"/>
<polygon fill="#191970" stroke="#191970" points="511.7148,-167.7745 522.2927,-168.3733 514.3969,-161.3087 511.7148,-167.7745"/>
</g>
<!-- Node8 -->
<g id="node6" class="node">
<title>Node8</title>
<g id="a_node6"><a xlink:href="mandelbrot_8cpp.html" target="_top" xlink:title=" ">
<polygon fill="none" stroke="#000000" points="479.5,-56.5 479.5,-75.5 661.5,-75.5 661.5,-56.5 479.5,-56.5"/>
<text text-anchor="middle" x="570.5" y="-63.5" font-family="Helvetica,sans-Serif" font-size="10.00" fill="#000000">fractal/mandelbrot.cpp</text>
</a>
</g>
</g>
<!-- Node3&#45;&gt;Node8 -->
<g id="edge7" class="edge">
<title>Node3&#45;&gt;Node8</title>
<path fill="none" stroke="#191970" d="M549.8306,-158.5987C555.2404,-134.363 564.2824,-93.8551 568.3739,-75.5249"/>
<polygon fill="#191970" stroke="#191970" points="546.3942,-157.9286 547.6315,-168.4509 553.226,-159.4536 546.3942,-157.9286"/>
</g>
<!-- Node10 -->
<g id="node8" class="node">
<title>Node10</title>
<g id="a_node8"><a xlink:href="palette_8cpp.html" target="_top" xlink:title=" ">
<polygon fill="none" stroke="#000000" points="573,-112.5 573,-131.5 732,-131.5 732,-112.5 573,-112.5"/>
<text text-anchor="middle" x="652.5" y="-119.5" font-family="Helvetica,sans-Serif" font-size="10.00" fill="#000000">fractal/palette.cpp</text>
</a>
</g>
</g>
<!-- Node3&#45;&gt;Node10 -->
<g id="edge8" class="edge">
<title>Node3&#45;&gt;Node10</title>
<path fill="none" stroke="#191970" d="M573.0199,-163.5971C592.2017,-153.558 617.2678,-140.4393 634.0756,-131.6427"/>
<polygon fill="#191970" stroke="#191970" points="571.375,-160.5075 564.138,-168.2455 574.6209,-166.7095 571.375,-160.5075"/>
</g>
<!-- Node5 -->
<g id="node3" class="node">
<title>Node5</title>
<g id="a_node3"><a xlink:href="main__window_8h.html" target="_top" xlink:title=" ">
<polygon fill="none" stroke="#000000" points="71.5,-56.5 71.5,-75.5 245.5,-75.5 245.5,-56.5 71.5,-56.5"/>
<text text-anchor="middle" x="158.5" y="-63.5" font-family="Helvetica,sans-Serif" font-size="10.00" fill="#000000">fractal/main_window.h</text>
</a>
</g>
</g>
<!-- Node4&#45;&gt;Node5 -->
<g id="edge2" class="edge">
<title>Node4&#45;&gt;Node5</title>
<path fill="none" stroke="#191970" d="M357.5911,-110.2425C311.1678,-99.9262 244.5107,-85.1135 201.3565,-75.5237"/>
<polygon fill="#191970" stroke="#191970" points="356.9448,-113.6842 367.466,-112.4369 358.4634,-106.8508 356.9448,-113.6842"/>
</g>
<!-- Node4&#45;&gt;Node8 -->
<g id="edge5" class="edge">
<title>Node4&#45;&gt;Node8</title>
<path fill="none" stroke="#191970" d="M447.4799,-109.057C476.7618,-98.8084 516.9885,-84.729 543.3539,-75.5011"/>
<polygon fill="#191970" stroke="#191970" points="446.2873,-105.7662 438.005,-112.3733 448.5998,-112.3732 446.2873,-105.7662"/>
</g>
<!-- Node9 -->
<g id="node7" class="node">
<title>Node9</title>
<g id="a_node7"><a xlink:href="render__video_8cpp.html" target="_top" xlink:title=" ">
<polygon fill="none" stroke="#000000" points="264,-56.5 264,-75.5 461,-75.5 461,-56.5 264,-56.5"/>
<text text-anchor="middle" x="362.5" y="-63.5" font-family="Helvetica,sans-Serif" font-size="10.00" fill="#000000">fractal/render_video.cpp</text>
</a>
</g>
</g>
<!-- Node4&#45;&gt;Node9 -->
<g id="edge6" class="edge">
<title>Node4&#45;&gt;Node9</title>
<path fill="none" stroke="#191970" d="M395.5003,-104.5004C387.3378,-94.9775 377.5511,-83.5596 370.7651,-75.6427"/>
<polygon fill="#191970" stroke="#191970" points="392.9737,-106.9307 402.139,-112.2455 398.2885,-102.3752 392.9737,-106.9307"/>
</g>
<!-- Node6 -->
<g id="node4" class="node">
<title>Node6</title>
<g id="a_node4"><a xlink:href="main_8cpp.html" target="_top" xlink:title=" ">
<polygon fill="none" stroke="#000000" points="0,-.5 0,-19.5 137,-19.5 137,-.5 0,-.5"/>
<text text-anchor="middle" x="68.5" y="-7.5" font-family="Helvetica,sans-Serif" font-size="10.00" fill="#000000">fractal/main.cpp</text>
</a>
</g>
</g>
<!-- Node5&#45;&gt;Node6 -->
<g id="edge3" class="edge">
<title>Node5&#45;&gt;Node6</title>
<path fill="none" stroke="#191970" d="M134.0216,-50.769C118.0734,-40.8456 97.749,-28.1994 83.9972,-19.6427"/>
<polygon fill="#191970" stroke="#191970" points="132.4835,-53.9342 142.8232,-56.2455 136.1817,-47.9908 132.4835,-53.9342"/>
</g>
<!-- Node7 -->
<g id="node5" class="node">
<title>Node7</title>
<g id="a_node5"><a xlink:href="main__window_8cpp.html" target="_top" xlink:title=" ">
<polygon fill="none" stroke="#000000" points="155,-.5 155,-19.5 344,-19.5 344,-.5 155,-.5"/>
<text text-anchor="middle" x="249.5" y="-7.5" font-family="Helvetica,sans-Serif" font-size="10.00" fill="#000000">fractal/main_window.cpp</text>
</a>
</g>
</g>
<!-- Node5&#45;&gt;Node7 -->
<g id="edge4" class="edge">
<title>Node5&#45;&gt;Node7</title>
<path fill="none" stroke="#191970" d="M183.2504,-50.769C199.3758,-40.8456 219.926,-28.1994 233.8307,-19.6427"/>
<polygon fill="#191970" stroke="#191970" points="181.0332,-48.0237 174.351,-56.2455 184.7019,-53.9853 181.0332,-48.0237"/>
</g>
</g>
</svg>
