<?xml version="1.0" encoding="UTF-8" standalone="no"?>
<!DOCTYPE svg PUBLIC "-//W3C//DTD SVG 1.1//EN"
 "http://www.w3.org/Graphics/SVG/1.1/DTD/svg11.dtd">
<!-- Generated by graphviz version 2.40.1 (0)
 -->
<!-- Title: fractal/render_video.h Pages: 1 -->
<svg width="360pt" height="84pt"
 viewBox="0.00 0.00 360.00 84.00" xmlns="http://www.w3.org/2000/svg" xmlns:xlink="http://www.w3.org/1999/xlink">
<g id="graph0" class="graph" transform="scale(1 1) rotate(0) translate(4 80)">
<title>fractal/render_video.h</title>
<!-- Node3 -->
<g id="node1" class="node">
<title>Node3</title>
<g id="a_node1"><a xlink:title=" ">
<polygon fill="#bfbfbf" stroke="#000000" points="69.5,-56.5 69.5,-75.5 251.5,-75.5 251.5,-56.5 69.5,-56.5"/>
<text text-anchor="middle" x="160.5" y="-63.5" font-family="Helvetica,sans-Serif" font-size="10.00" fill="#000000">fractal/render_video.h</text>
</a>
</g>
</g>
<!-- Node4 -->
<g id="node2" class="node">
<title>Node4</title>
<g id="a_node2"><a xlink:href="main_8cpp.html" target="_top" xlink:title=" ">
<polygon fill="none" stroke="#000000" points="0,-.5 0,-19.5 137,-19.5 137,-.5 0,-.5"/>
<text text-anchor="middle" x="68.5" y="-7.5" font-family="Helvetica,sans-Serif" font-size="10.00" fill="#000000">fractal/main.cpp</text>
</a>
</g>
</g>
<!-- Node3&#45;&gt;Node4 -->
<g id="edge1" class="edge">
<title>Node3&#45;&gt;Node4</title>
<path fill="none" stroke="#191970" d="M135.4776,-50.769C119.175,-40.8456 98.399,-28.1994 84.3415,-19.6427"/>
<polygon fill="#191970" stroke="#191970" points="134.113,-54.0357 144.4748,-56.2455 137.7527,-48.0563 134.113,-54.0357"/>
</g>
<!-- Node5 -->
<g id="node3" class="node">
<title>Node5</title>
<g id="a_node3"><a xlink:href="render__video_8cpp.html" target="_top" xlink:title=" ">
<polygon fill="none" stroke="#000000" points="155,-.5 155,-19.5 352,-19.5 352,-.5 155,-.5"/>
<text text-anchor="middle" x="253.5" y="-7.5" font-family="Helvetica,sans-Serif" font-size="10.00" fill="#000000">fractal/render_video.cpp</text>
</a>
</g>
</g>
<!-- Node3&#45;&gt;Node5 -->
<g id="edge2" class="edge">
<title>Node3&#45;&gt;Node5</title>
<path fill="none" stroke="#191970" d="M185.3335,-51.0465C201.8811,-41.0824 223.1432,-28.2794 237.4863,-19.6427"/>
<polygon fill="#191970" stroke="#191970" points="183.4607,-48.0886 176.6994,-56.2455 187.0717,-54.0854 183.4607,-48.0886"/>
</g>
</g>
</svg>
