<?xml version="1.0" encoding="UTF-8" standalone="no"?>
<!DOCTYPE svg PUBLIC "-//W3C//DTD SVG 1.1//EN"
 "http://www.w3.org/Graphics/SVG/1.1/DTD/svg11.dtd">
<!-- Generated by graphviz version 2.40.1 (0)
 -->
<!-- Title: fractal/render_video.cpp Pages: 1 -->
<svg width="890pt" height="196pt"
 viewBox="0.00 0.00 890.00 196.00" xmlns="http://www.w3.org/2000/svg" xmlns:xlink="http://www.w3.org/1999/xlink">
<g id="graph0" class="graph" transform="scale(1 1) rotate(0) translate(4 192)">
<title>fractal/render_video.cpp</title>
<!-- Node0 -->
<g id="node1" class="node">
<title>Node0</title>
<g id="a_node1"><a xlink:title=" ">
<polygon fill="#bfbfbf" stroke="#000000" points="289.5,-168.5 289.5,-187.5 486.5,-187.5 486.5,-168.5 289.5,-168.5"/>
<text text-anchor="middle" x="388" y="-175.5" font-family="Helvetica,sans-Serif" font-size="10.00" fill="#000000">fractal/render_video.cpp</text>
</a>
</g>
</g>
<!-- Node1 -->
<g id="node2" class="node">
<title>Node1</title>
<g id="a_node2"><a xlink:href="render__video_8h.html" target="_top" xlink:title=" ">
<polygon fill="none" stroke="#000000" points="39,-112.5 39,-131.5 161,-131.5 161,-112.5 39,-112.5"/>
<text text-anchor="middle" x="100" y="-119.5" font-family="Helvetica,sans-Serif" font-size="10.00" fill="#000000">render_video.h</text>
</a>
</g>
</g>
<!-- Node0&#45;&gt;Node1 -->
<g id="edge1" class="edge">
<title>Node0&#45;&gt;Node1</title>
<path fill="none" stroke="#191970" d="M338.8183,-168.4369C289.0116,-158.7522 211.9615,-143.7703 158.9212,-133.4569"/>
<polygon fill="#191970" stroke="#191970" points="159.4631,-129.9968 148.9789,-131.5237 158.127,-136.8681 159.4631,-129.9968"/>
</g>
<!-- Node4 -->
<g id="node5" class="node">
<title>Node4</title>
<g id="a_node5"><a xlink:href="encoder_8h.html" target="_top" xlink:title=" ">
<polygon fill="none" stroke="#000000" points="206,-112.5 206,-131.5 290,-131.5 290,-112.5 206,-112.5"/>
<text text-anchor="middle" x="248" y="-119.5" font-family="Helvetica,sans-Serif" font-size="10.00" fill="#000000">encoder.h</text>
</a>
</g>
</g>
<!-- Node0&#45;&gt;Node4 -->
<g id="edge4" class="edge">
<title>Node0&#45;&gt;Node4</title>
<path fill="none" stroke="#191970" d="M363.9331,-168.3733C341.1572,-159.2629 306.7656,-145.5062 281.351,-135.3404"/>
<polygon fill="#191970" stroke="#191970" points="282.3375,-131.9654 271.7528,-131.5011 279.7377,-138.4648 282.3375,-131.9654"/>
</g>
<!-- Node9 -->
<g id="node10" class="node">
<title>Node9</title>
<g id="a_node10"><a xlink:href="mandelbrot_8h.html" target="_top" xlink:title=" ">
<polygon fill="none" stroke="#000000" points="334.5,-112.5 334.5,-131.5 441.5,-131.5 441.5,-112.5 334.5,-112.5"/>
<text text-anchor="middle" x="388" y="-119.5" font-family="Helvetica,sans-Serif" font-size="10.00" fill="#000000">mandelbrot.h</text>
</a>
</g>
</g>
<!-- Node0&#45;&gt;Node9 -->
<g id="edge10" class="edge">
<title>Node0&#45;&gt;Node9</title>
<path fill="none" stroke="#191970" d="M388,-168.2455C388,-160.9382 388,-150.6944 388,-141.7046"/>
<polygon fill="#191970" stroke="#191970" points="391.5001,-141.6426 388,-131.6427 384.5001,-141.6427 391.5001,-141.6426"/>
</g>
<!-- Node17 -->
<g id="node18" class="node">
<title>Node17</title>
<g id="a_node18"><a xlink:title=" ">
<polygon fill="none" stroke="#bfbfbf" points="459.5,-112.5 459.5,-131.5 588.5,-131.5 588.5,-112.5 459.5,-112.5"/>
<text text-anchor="middle" x="524" y="-119.5" font-family="Helvetica,sans-Serif" font-size="10.00" fill="#000000">spdlog/spdlog.h</text>
</a>
</g>
</g>
<!-- Node0&#45;&gt;Node17 -->
<g id="edge24" class="edge">
<title>Node0&#45;&gt;Node17</title>
<path fill="none" stroke="#191970" d="M411.3792,-168.3733C433.5045,-159.2629 466.9134,-145.5062 491.6019,-135.3404"/>
<polygon fill="#191970" stroke="#191970" points="493.0117,-138.5451 500.9258,-131.5011 490.3464,-132.0723 493.0117,-138.5451"/>
</g>
<!-- Node18 -->
<g id="node19" class="node">
<title>Node18</title>
<g id="a_node19"><a xlink:title=" ">
<polygon fill="none" stroke="#bfbfbf" points="606.5,-112.5 606.5,-131.5 675.5,-131.5 675.5,-112.5 606.5,-112.5"/>
<text text-anchor="middle" x="641" y="-119.5" font-family="Helvetica,sans-Serif" font-size="10.00" fill="#000000">fstream</text>
</a>
</g>
</g>
<!-- Node0&#45;&gt;Node18 -->
<g id="edge25" class="edge">
<title>Node0&#45;&gt;Node18</title>
<path fill="none" stroke="#191970" d="M432.2829,-168.4729C472.6486,-159.7498 534.1962,-146.3527 596.3052,-132.3653"/>
<polygon fill="#191970" stroke="#191970" points="597.2905,-135.731 606.275,-130.1159 595.7499,-128.9026 597.2905,-135.731"/>
</g>
<!-- Node2 -->
<g id="node3" class="node">
<title>Node2</title>
<g id="a_node3"><a xlink:href="settings_8h.html" target="_top" xlink:title=" ">
<polygon fill="none" stroke="#000000" points="0,-56.5 0,-75.5 92,-75.5 92,-56.5 0,-56.5"/>
<text text-anchor="middle" x="46" y="-63.5" font-family="Helvetica,sans-Serif" font-size="10.00" fill="#000000">settings.h</text>
</a>
</g>
</g>
<!-- Node1&#45;&gt;Node2 -->
<g id="edge2" class="edge">
<title>Node1&#45;&gt;Node2</title>
<path fill="none" stroke="#191970" d="M90.5939,-112.2455C82.8507,-104.2155 71.688,-92.6394 62.4682,-83.0781"/>
<polygon fill="#191970" stroke="#191970" points="64.7591,-80.4117 55.2983,-75.6427 59.7202,-85.2706 64.7591,-80.4117"/>
</g>
<!-- Node3 -->
<g id="node4" class="node">
<title>Node3</title>
<g id="a_node4"><a xlink:title=" ">
<polygon fill="none" stroke="#bfbfbf" points="15,-.5 15,-19.5 77,-19.5 77,-.5 15,-.5"/>
<text text-anchor="middle" x="46" y="-7.5" font-family="Helvetica,sans-Serif" font-size="10.00" fill="#000000">string</text>
</a>
</g>
</g>
<!-- Node2&#45;&gt;Node3 -->
<g id="edge3" class="edge">
<title>Node2&#45;&gt;Node3</title>
<path fill="none" stroke="#191970" d="M46,-56.2455C46,-48.9382 46,-38.6944 46,-29.7046"/>
<polygon fill="#191970" stroke="#191970" points="49.5001,-29.6426 46,-19.6427 42.5001,-29.6427 49.5001,-29.6426"/>
</g>
<!-- Node4&#45;&gt;Node2 -->
<g id="edge5" class="edge">
<title>Node4&#45;&gt;Node2</title>
<path fill="none" stroke="#191970" d="M213.275,-112.3733C179.2492,-102.9404 127.2563,-88.5265 90.2766,-78.2747"/>
<polygon fill="#191970" stroke="#191970" points="90.8435,-74.7999 80.2719,-75.5011 88.9734,-81.5455 90.8435,-74.7999"/>
</g>
<!-- Node5 -->
<g id="node6" class="node">
<title>Node5</title>
<g id="a_node6"><a xlink:title=" ">
<polygon fill="none" stroke="#bfbfbf" points="190,-56.5 190,-75.5 252,-75.5 252,-56.5 190,-56.5"/>
<text text-anchor="middle" x="221" y="-63.5" font-family="Helvetica,sans-Serif" font-size="10.00" fill="#000000">x265.h</text>
</a>
</g>
</g>
<!-- Node4&#45;&gt;Node5 -->
<g id="edge6" class="edge">
<title>Node4&#45;&gt;Node5</title>
<path fill="none" stroke="#191970" d="M243.297,-112.2455C239.6576,-104.6973 234.5076,-94.0158 230.0738,-84.8197"/>
<polygon fill="#191970" stroke="#191970" points="233.1449,-83.1303 225.6491,-75.6427 226.8395,-86.1704 233.1449,-83.1303"/>
</g>
<!-- Node6 -->
<g id="node7" class="node">
<title>Node6</title>
<g id="a_node7"><a xlink:title=" ">
<polygon fill="none" stroke="#bfbfbf" points="440,-.5 440,-19.5 532,-19.5 532,-.5 440,-.5"/>
<text text-anchor="middle" x="486" y="-7.5" font-family="Helvetica,sans-Serif" font-size="10.00" fill="#000000">functional</text>
</a>
</g>
</g>
<!-- Node4&#45;&gt;Node6 -->
<g id="edge7" class="edge">
<title>Node4&#45;&gt;Node6</title>
<path fill="none" stroke="#191970" d="M290.0497,-115.4089C338.6325,-107.1895 414.9769,-92.2299 439,-76 456.2363,-64.3552 469.2422,-44.1415 477.1538,-29.1438"/>
<polygon fill="#191970" stroke="#191970" points="480.4985,-30.2772 481.8066,-19.7634 474.2275,-27.1667 480.4985,-30.2772"/>
</g>
<!-- Node7 -->
<g id="node8" class="node">
<title>Node7</title>
<g id="a_node8"><a xlink:title=" ">
<polygon fill="none" stroke="#bfbfbf" points="110,-56.5 110,-75.5 172,-75.5 172,-56.5 110,-56.5"/>
<text text-anchor="middle" x="141" y="-63.5" font-family="Helvetica,sans-Serif" font-size="10.00" fill="#000000">memory</text>
</a>
</g>
</g>
<!-- Node4&#45;&gt;Node7 -->
<g id="edge8" class="edge">
<title>Node4&#45;&gt;Node7</title>
<path fill="none" stroke="#191970" d="M229.362,-112.2455C212.5614,-103.4527 187.6366,-90.4079 168.5382,-80.4125"/>
<polygon fill="#191970" stroke="#191970" points="169.9073,-77.1787 159.4244,-75.6427 166.6614,-83.3807 169.9073,-77.1787"/>
</g>
<!-- Node8 -->
<g id="node9" class="node">
<title>Node8</title>
<g id="a_node9"><a xlink:title=" ">
<polygon fill="none" stroke="#bfbfbf" points="272,-.5 272,-19.5 334,-19.5 334,-.5 272,-.5"/>
<text text-anchor="middle" x="303" y="-7.5" font-family="Helvetica,sans-Serif" font-size="10.00" fill="#000000">vector</text>
</a>
</g>
</g>
<!-- Node4&#45;&gt;Node8 -->
<g id="edge9" class="edge">
<title>Node4&#45;&gt;Node8</title>
<path fill="none" stroke="#191970" d="M252.6893,-112.4509C261.7814,-93.936 281.9531,-52.8591 293.8078,-28.7187"/>
<polygon fill="#191970" stroke="#191970" points="297.0563,-30.0438 298.3226,-19.5249 290.773,-26.9582 297.0563,-30.0438"/>
</g>
<!-- Node9&#45;&gt;Node8 -->
<g id="edge23" class="edge">
<title>Node9&#45;&gt;Node8</title>
<path fill="none" stroke="#191970" d="M374.6228,-112.1595C363.5472,-103.5273 347.9135,-90.1699 337,-76 325.8441,-61.5153 316.6126,-42.8198 310.5978,-29.0265"/>
<polygon fill="#191970" stroke="#191970" points="313.736,-27.4588 306.6468,-19.5852 307.2786,-30.1612 313.736,-27.4588"/>
</g>
<!-- Node10 -->
<g id="node11" class="node">
<title>Node10</title>
<g id="a_node11"><a xlink:href="palette_8h.html" target="_top" xlink:title=" ">
<polygon fill="none" stroke="#000000" points="346,-56.5 346,-75.5 430,-75.5 430,-56.5 346,-56.5"/>
<text text-anchor="middle" x="388" y="-63.5" font-family="Helvetica,sans-Serif" font-size="10.00" fill="#000000">palette.h</text>
</a>
</g>
</g>
<!-- Node9&#45;&gt;Node10 -->
<g id="edge11" class="edge">
<title>Node9&#45;&gt;Node10</title>
<path fill="none" stroke="#191970" d="M388,-112.2455C388,-104.9382 388,-94.6944 388,-85.7046"/>
<polygon fill="#191970" stroke="#191970" points="391.5001,-85.6426 388,-75.6427 384.5001,-85.6427 391.5001,-85.6426"/>
</g>
<!-- Node11 -->
<g id="node12" class="node">
<title>Node11</title>
<g id="a_node12"><a xlink:title=" ">
<polygon fill="none" stroke="#bfbfbf" points="352.5,-.5 352.5,-19.5 421.5,-19.5 421.5,-.5 352.5,-.5"/>
<text text-anchor="middle" x="387" y="-7.5" font-family="Helvetica,sans-Serif" font-size="10.00" fill="#000000">cstdint</text>
</a>
</g>
</g>
<!-- Node9&#45;&gt;Node11 -->
<g id="edge21" class="edge">
<title>Node9&#45;&gt;Node11</title>
<path fill="none" stroke="#191970" d="M404.4976,-112.4702C422.9988,-100.4404 449.1709,-78.5767 439,-56 433.4303,-43.6369 422.7137,-33.2563 412.4494,-25.5033"/>
<polygon fill="#191970" stroke="#191970" points="414.2549,-22.4948 404.0567,-19.623 410.2382,-28.2277 414.2549,-22.4948"/>
</g>
<!-- Node12 -->
<g id="node13" class="node">
<title>Node12</title>
<g id="a_node13"><a xlink:href="thread__pool_8h.html" target="_top" xlink:title=" ">
<polygon fill="none" stroke="#000000" points="524,-56.5 524,-75.5 638,-75.5 638,-56.5 524,-56.5"/>
<text text-anchor="middle" x="581" y="-63.5" font-family="Helvetica,sans-Serif" font-size="10.00" fill="#000000">thread_pool.h</text>
</a>
</g>
</g>
<!-- Node9&#45;&gt;Node12 -->
<g id="edge14" class="edge">
<title>Node9&#45;&gt;Node12</title>
<path fill="none" stroke="#191970" d="M421.1779,-112.3733C453.5487,-102.9807 502.9398,-88.6496 538.2424,-78.4064"/>
<polygon fill="#191970" stroke="#191970" points="539.6265,-81.6492 548.2551,-75.5011 537.6758,-74.9264 539.6265,-81.6492"/>
</g>
<!-- Node14 -->
<g id="node15" class="node">
<title>Node14</title>
<g id="a_node15"><a xlink:title=" ">
<polygon fill="none" stroke="#bfbfbf" points="828,-.5 828,-19.5 882,-19.5 882,-.5 828,-.5"/>
<text text-anchor="middle" x="855" y="-7.5" font-family="Helvetica,sans-Serif" font-size="10.00" fill="#000000">queue</text>
</a>
</g>
</g>
<!-- Node9&#45;&gt;Node14 -->
<g id="edge22" class="edge">
<title>Node9&#45;&gt;Node14</title>
<path fill="none" stroke="#191970" d="M441.5983,-113.3347C505.6599,-102.8278 608.9755,-85.3664 647,-76 708.3408,-60.8903 778.0215,-37.4619 819.1514,-22.9627"/>
<polygon fill="#191970" stroke="#191970" points="820.4675,-26.2096 828.7222,-19.568 818.1274,-19.6123 820.4675,-26.2096"/>
</g>
<!-- Node10&#45;&gt;Node8 -->
<g id="edge13" class="edge">
<title>Node10&#45;&gt;Node8</title>
<path fill="none" stroke="#191970" d="M373.1941,-56.2455C360.2744,-47.7337 341.3069,-35.2375 326.3448,-25.3801"/>
<polygon fill="#191970" stroke="#191970" points="327.9124,-22.2216 317.6362,-19.6427 324.0613,-28.067 327.9124,-22.2216"/>
</g>
<!-- Node10&#45;&gt;Node11 -->
<g id="edge12" class="edge">
<title>Node10&#45;&gt;Node11</title>
<path fill="none" stroke="#191970" d="M387.8258,-56.2455C387.6953,-48.9382 387.5124,-38.6944 387.3519,-29.7046"/>
<polygon fill="#191970" stroke="#191970" points="390.8503,-29.5786 387.1722,-19.6427 383.8514,-29.7036 390.8503,-29.5786"/>
</g>
<!-- Node12&#45;&gt;Node6 -->
<g id="edge15" class="edge">
<title>Node12&#45;&gt;Node6</title>
<path fill="none" stroke="#191970" d="M564.4523,-56.2455C549.7401,-47.5731 528.0112,-34.7645 511.1495,-24.825"/>
<polygon fill="#191970" stroke="#191970" points="512.7502,-21.7057 502.3581,-19.6427 509.1954,-27.736 512.7502,-21.7057"/>
</g>
<!-- Node12&#45;&gt;Node8 -->
<g id="edge20" class="edge">
<title>Node12&#45;&gt;Node8</title>
<path fill="none" stroke="#191970" d="M528.1391,-56.4841C482.1735,-48.0409 413.5591,-35.0342 344.107,-19.9406"/>
<polygon fill="#191970" stroke="#191970" points="344.8205,-16.514 334.3037,-17.7972 343.3253,-23.3525 344.8205,-16.514"/>
</g>
<!-- Node13 -->
<g id="node14" class="node">
<title>Node13</title>
<g id="a_node14"><a xlink:title=" ">
<polygon fill="none" stroke="#bfbfbf" points="550,-.5 550,-19.5 612,-19.5 612,-.5 550,-.5"/>
<text text-anchor="middle" x="581" y="-7.5" font-family="Helvetica,sans-Serif" font-size="10.00" fill="#000000">future</text>
</a>
</g>
</g>
<!-- Node12&#45;&gt;Node13 -->
<g id="edge16" class="edge">
<title>Node12&#45;&gt;Node13</title>
<path fill="none" stroke="#191970" d="M581,-56.2455C581,-48.9382 581,-38.6944 581,-29.7046"/>
<polygon fill="#191970" stroke="#191970" points="584.5001,-29.6426 581,-19.6427 577.5001,-29.6427 584.5001,-29.6426"/>
</g>
<!-- Node12&#45;&gt;Node14 -->
<g id="edge17" class="edge">
<title>Node12&#45;&gt;Node14</title>
<path fill="none" stroke="#191970" d="M637.0512,-56.4732C683.1827,-48.3359 750.4703,-35.7898 817.9744,-20.1054"/>
<polygon fill="#191970" stroke="#191970" points="818.997,-23.4606 827.9331,-17.7687 817.3979,-16.6457 818.997,-23.4606"/>
</g>
<!-- Node15 -->
<g id="node16" class="node">
<title>Node15</title>
<g id="a_node16"><a xlink:title=" ">
<polygon fill="none" stroke="#bfbfbf" points="630,-.5 630,-19.5 692,-19.5 692,-.5 630,-.5"/>
<text text-anchor="middle" x="661" y="-7.5" font-family="Helvetica,sans-Serif" font-size="10.00" fill="#000000">thread</text>
</a>
</g>
</g>
<!-- Node12&#45;&gt;Node15 -->
<g id="edge18" class="edge">
<title>Node12&#45;&gt;Node15</title>
<path fill="none" stroke="#191970" d="M594.9349,-56.2455C607.0947,-47.7337 624.9464,-35.2375 639.0285,-25.3801"/>
<polygon fill="#191970" stroke="#191970" points="641.0395,-28.2447 647.2248,-19.6427 637.0253,-22.51 641.0395,-28.2447"/>
</g>
<!-- Node16 -->
<g id="node17" class="node">
<title>Node16</title>
<g id="a_node17"><a xlink:title=" ">
<polygon fill="none" stroke="#bfbfbf" points="710.5,-.5 710.5,-19.5 809.5,-19.5 809.5,-.5 710.5,-.5"/>
<text text-anchor="middle" x="760" y="-7.5" font-family="Helvetica,sans-Serif" font-size="10.00" fill="#000000">type_traits</text>
</a>
</g>
</g>
<!-- Node12&#45;&gt;Node16 -->
<g id="edge19" class="edge">
<title>Node12&#45;&gt;Node16</title>
<path fill="none" stroke="#191970" d="M611.7712,-56.3733C641.665,-47.021 687.2093,-32.7725 719.9217,-22.5385"/>
<polygon fill="#191970" stroke="#191970" points="721.1315,-25.8273 729.6303,-19.5011 719.0414,-19.1466 721.1315,-25.8273"/>
</g>
</g>
</svg>
