<?xml version="1.0" encoding="UTF-8" standalone="no"?>
<!DOCTYPE svg PUBLIC "-//W3C//DTD SVG 1.1//EN"
 "http://www.w3.org/Graphics/SVG/1.1/DTD/svg11.dtd">
<!-- Generated by graphviz version 2.40.1 (0)
 -->
<!-- Title: fractal/scope_exit.h Pages: 1 -->
<svg width="899pt" height="196pt"
 viewBox="0.00 0.00 899.00 196.00" xmlns="http://www.w3.org/2000/svg" xmlns:xlink="http://www.w3.org/1999/xlink">
<g id="graph0" class="graph" transform="scale(1 1) rotate(0) translate(4 192)">
<title>fractal/scope_exit.h</title>
<!-- Node2 -->
<g id="node1" class="node">
<title>Node2</title>
<g id="a_node1"><a xlink:title=" ">
<polygon fill="#bfbfbf" stroke="#000000" points="339,-168.5 339,-187.5 506,-187.5 506,-168.5 339,-168.5"/>
<text text-anchor="middle" x="422.5" y="-175.5" font-family="Helvetica,sans-Serif" font-size="10.00" fill="#000000">fractal/scope_exit.h</text>
</a>
</g>
</g>
<!-- Node3 -->
<g id="node2" class="node">
<title>Node3</title>
<g id="a_node2"><a xlink:href="encoder_8cpp.html" target="_top" xlink:title=" ">
<polygon fill="none" stroke="#000000" points="0,-112.5 0,-131.5 159,-131.5 159,-112.5 0,-112.5"/>
<text text-anchor="middle" x="79.5" y="-119.5" font-family="Helvetica,sans-Serif" font-size="10.00" fill="#000000">fractal/encoder.cpp</text>
</a>
</g>
</g>
<!-- Node2&#45;&gt;Node3 -->
<g id="edge1" class="edge">
<title>Node2&#45;&gt;Node3</title>
<path fill="none" stroke="#191970" d="M354.032,-166.8215C290.733,-156.487 197.6783,-141.2944 137.8325,-131.5237"/>
<polygon fill="#191970" stroke="#191970" points="353.4926,-170.2797 363.9259,-168.4369 354.6206,-163.3712 353.4926,-170.2797"/>
</g>
<!-- Node4 -->
<g id="node3" class="node">
<title>Node4</title>
<g id="a_node3"><a xlink:href="full__quad_8h.html" target="_top" xlink:title=" ">
<polygon fill="none" stroke="#000000" points="177,-112.5 177,-131.5 336,-131.5 336,-112.5 177,-112.5"/>
<text text-anchor="middle" x="256.5" y="-119.5" font-family="Helvetica,sans-Serif" font-size="10.00" fill="#000000">fractal/full_quad.h</text>
</a>
</g>
</g>
<!-- Node2&#45;&gt;Node4 -->
<g id="edge2" class="edge">
<title>Node2&#45;&gt;Node4</title>
<path fill="none" stroke="#191970" d="M384.1333,-165.057C353.7534,-154.8084 312.0181,-140.729 284.664,-131.5011"/>
<polygon fill="#191970" stroke="#191970" points="383.3694,-168.4931 393.9636,-168.3733 385.607,-161.8603 383.3694,-168.4931"/>
</g>
<!-- Node9 -->
<g id="node8" class="node">
<title>Node9</title>
<g id="a_node8"><a xlink:href="shader_8h.html" target="_top" xlink:title=" ">
<polygon fill="none" stroke="#000000" points="354,-112.5 354,-131.5 491,-131.5 491,-112.5 354,-112.5"/>
<text text-anchor="middle" x="422.5" y="-119.5" font-family="Helvetica,sans-Serif" font-size="10.00" fill="#000000">fractal/shader.h</text>
</a>
</g>
</g>
<!-- Node2&#45;&gt;Node9 -->
<g id="edge7" class="edge">
<title>Node2&#45;&gt;Node9</title>
<path fill="none" stroke="#191970" d="M422.5,-158.1575C422.5,-149.155 422.5,-138.9199 422.5,-131.6427"/>
<polygon fill="#191970" stroke="#191970" points="419.0001,-158.2455 422.5,-168.2455 426.0001,-158.2456 419.0001,-158.2455"/>
</g>
<!-- Node11 -->
<g id="node10" class="node">
<title>Node11</title>
<g id="a_node10"><a xlink:href="texture_8h.html" target="_top" xlink:title=" ">
<polygon fill="none" stroke="#000000" points="509.5,-112.5 509.5,-131.5 653.5,-131.5 653.5,-112.5 509.5,-112.5"/>
<text text-anchor="middle" x="581.5" y="-119.5" font-family="Helvetica,sans-Serif" font-size="10.00" fill="#000000">fractal/texture.h</text>
</a>
</g>
</g>
<!-- Node2&#45;&gt;Node11 -->
<g id="edge10" class="edge">
<title>Node2&#45;&gt;Node11</title>
<path fill="none" stroke="#191970" d="M459.629,-164.9231C488.695,-154.686 528.4369,-140.6889 554.5236,-131.5011"/>
<polygon fill="#191970" stroke="#191970" points="458.1025,-161.75 449.8331,-168.3733 460.4279,-168.3524 458.1025,-161.75"/>
</g>
<!-- Node13 -->
<g id="node12" class="node">
<title>Node13</title>
<g id="a_node12"><a xlink:href="scope__exit_8test_8cpp.html" target="_top" xlink:title=" ">
<polygon fill="none" stroke="#000000" points="672,-112.5 672,-131.5 891,-131.5 891,-112.5 672,-112.5"/>
<text text-anchor="middle" x="781.5" y="-119.5" font-family="Helvetica,sans-Serif" font-size="10.00" fill="#000000">fractal/scope_exit.test.cpp</text>
</a>
</g>
</g>
<!-- Node2&#45;&gt;Node13 -->
<g id="edge13" class="edge">
<title>Node2&#45;&gt;Node13</title>
<path fill="none" stroke="#191970" d="M493.7533,-166.8853C560.0126,-156.5496 657.6801,-141.3145 720.4465,-131.5237"/>
<polygon fill="#191970" stroke="#191970" points="493.1474,-163.4374 483.8064,-168.4369 494.2264,-170.3537 493.1474,-163.4374"/>
</g>
<!-- Node5 -->
<g id="node4" class="node">
<title>Node5</title>
<g id="a_node4"><a xlink:href="full__quad_8cpp.html" target="_top" xlink:title=" ">
<polygon fill="none" stroke="#000000" points="60.5,-56.5 60.5,-75.5 234.5,-75.5 234.5,-56.5 60.5,-56.5"/>
<text text-anchor="middle" x="147.5" y="-63.5" font-family="Helvetica,sans-Serif" font-size="10.00" fill="#000000">fractal/full_quad.cpp</text>
</a>
</g>
</g>
<!-- Node4&#45;&gt;Node5 -->
<g id="edge3" class="edge">
<title>Node4&#45;&gt;Node5</title>
<path fill="none" stroke="#191970" d="M228.4658,-107.5971C208.9254,-97.558 183.3908,-84.4393 166.2688,-75.6427"/>
<polygon fill="#191970" stroke="#191970" points="227.0194,-110.7889 237.5136,-112.2455 230.2183,-104.5625 227.0194,-110.7889"/>
</g>
<!-- Node6 -->
<g id="node5" class="node">
<title>Node6</title>
<g id="a_node5"><a xlink:href="main__window_8h.html" target="_top" xlink:title=" ">
<polygon fill="none" stroke="#000000" points="252.5,-56.5 252.5,-75.5 426.5,-75.5 426.5,-56.5 252.5,-56.5"/>
<text text-anchor="middle" x="339.5" y="-63.5" font-family="Helvetica,sans-Serif" font-size="10.00" fill="#000000">fractal/main_window.h</text>
</a>
</g>
</g>
<!-- Node4&#45;&gt;Node6 -->
<g id="edge4" class="edge">
<title>Node4&#45;&gt;Node6</title>
<path fill="none" stroke="#191970" d="M279.488,-106.49C294.1322,-96.6096 312.6444,-84.1194 325.2082,-75.6427"/>
<polygon fill="#191970" stroke="#191970" points="277.2896,-103.7511 270.9575,-112.2455 281.2047,-109.5539 277.2896,-103.7511"/>
</g>
<!-- Node7 -->
<g id="node6" class="node">
<title>Node7</title>
<g id="a_node6"><a xlink:href="main_8cpp.html" target="_top" xlink:title=" ">
<polygon fill="none" stroke="#000000" points="181,-.5 181,-19.5 318,-19.5 318,-.5 181,-.5"/>
<text text-anchor="middle" x="249.5" y="-7.5" font-family="Helvetica,sans-Serif" font-size="10.00" fill="#000000">fractal/main.cpp</text>
</a>
</g>
</g>
<!-- Node6&#45;&gt;Node7 -->
<g id="edge5" class="edge">
<title>Node6&#45;&gt;Node7</title>
<path fill="none" stroke="#191970" d="M315.0216,-50.769C299.0734,-40.8456 278.749,-28.1994 264.9972,-19.6427"/>
<polygon fill="#191970" stroke="#191970" points="313.4835,-53.9342 323.8232,-56.2455 317.1817,-47.9908 313.4835,-53.9342"/>
</g>
<!-- Node8 -->
<g id="node7" class="node">
<title>Node8</title>
<g id="a_node7"><a xlink:href="main__window_8cpp.html" target="_top" xlink:title=" ">
<polygon fill="none" stroke="#000000" points="336,-.5 336,-19.5 525,-19.5 525,-.5 336,-.5"/>
<text text-anchor="middle" x="430.5" y="-7.5" font-family="Helvetica,sans-Serif" font-size="10.00" fill="#000000">fractal/main_window.cpp</text>
</a>
</g>
</g>
<!-- Node6&#45;&gt;Node8 -->
<g id="edge6" class="edge">
<title>Node6&#45;&gt;Node8</title>
<path fill="none" stroke="#191970" d="M364.2504,-50.769C380.3758,-40.8456 400.926,-28.1994 414.8307,-19.6427"/>
<polygon fill="#191970" stroke="#191970" points="362.0332,-48.0237 355.351,-56.2455 365.7019,-53.9853 362.0332,-48.0237"/>
</g>
<!-- Node9&#45;&gt;Node6 -->
<g id="edge8" class="edge">
<title>Node9&#45;&gt;Node6</title>
<path fill="none" stroke="#191970" d="M399.512,-106.49C384.8678,-96.6096 366.3556,-84.1194 353.7918,-75.6427"/>
<polygon fill="#191970" stroke="#191970" points="397.7953,-109.5539 408.0425,-112.2455 401.7104,-103.7511 397.7953,-109.5539"/>
</g>
<!-- Node10 -->
<g id="node9" class="node">
<title>Node10</title>
<g id="a_node9"><a xlink:href="shader_8cpp.html" target="_top" xlink:title=" ">
<polygon fill="none" stroke="#000000" points="444.5,-56.5 444.5,-75.5 596.5,-75.5 596.5,-56.5 444.5,-56.5"/>
<text text-anchor="middle" x="520.5" y="-63.5" font-family="Helvetica,sans-Serif" font-size="10.00" fill="#000000">fractal/shader.cpp</text>
</a>
</g>
</g>
<!-- Node9&#45;&gt;Node10 -->
<g id="edge9" class="edge">
<title>Node9&#45;&gt;Node10</title>
<path fill="none" stroke="#191970" d="M448.6686,-107.0465C466.1058,-97.0824 488.5111,-84.2794 503.6253,-75.6427"/>
<polygon fill="#191970" stroke="#191970" points="446.5162,-104.2453 439.5703,-112.2455 449.9892,-110.323 446.5162,-104.2453"/>
</g>
<!-- Node11&#45;&gt;Node6 -->
<g id="edge11" class="edge">
<title>Node11&#45;&gt;Node6</title>
<path fill="none" stroke="#191970" d="M530.41,-110.1775C485.8413,-99.8641 422.0107,-85.0934 380.6559,-75.5237"/>
<polygon fill="#191970" stroke="#191970" points="529.642,-113.5922 540.1737,-112.4369 531.2202,-106.7724 529.642,-113.5922"/>
</g>
<!-- Node12 -->
<g id="node11" class="node">
<title>Node12</title>
<g id="a_node11"><a xlink:href="texture_8cpp.html" target="_top" xlink:title=" ">
<polygon fill="none" stroke="#000000" points="615,-56.5 615,-75.5 774,-75.5 774,-56.5 615,-56.5"/>
<text text-anchor="middle" x="694.5" y="-63.5" font-family="Helvetica,sans-Serif" font-size="10.00" fill="#000000">fractal/texture.cpp</text>
</a>
</g>
</g>
<!-- Node11&#45;&gt;Node12 -->
<g id="edge12" class="edge">
<title>Node11&#45;&gt;Node12</title>
<path fill="none" stroke="#191970" d="M610.0792,-107.8368C630.5058,-97.7139 657.4362,-84.3679 675.3281,-75.5011"/>
<polygon fill="#191970" stroke="#191970" points="608.3313,-104.7968 600.9254,-112.3733 611.4396,-111.0688 608.3313,-104.7968"/>
</g>
</g>
</svg>
