<?xml version="1.0" encoding="UTF-8" standalone="no"?>
<!DOCTYPE svg PUBLIC "-//W3C//DTD SVG 1.1//EN"
 "http://www.w3.org/Graphics/SVG/1.1/DTD/svg11.dtd">
<!-- Generated by graphviz version 2.40.1 (0)
 -->
<!-- Title: fractal/settings.h Pages: 1 -->
<svg width="856pt" height="140pt"
 viewBox="0.00 0.00 856.00 140.00" xmlns="http://www.w3.org/2000/svg" xmlns:xlink="http://www.w3.org/1999/xlink">
<g id="graph0" class="graph" transform="scale(1 1) rotate(0) translate(4 136)">
<title>fractal/settings.h</title>
<!-- Node2 -->
<g id="node1" class="node">
<title>Node2</title>
<g id="a_node1"><a xlink:title=" ">
<polygon fill="#bfbfbf" stroke="#000000" points="384.5,-112.5 384.5,-131.5 536.5,-131.5 536.5,-112.5 384.5,-112.5"/>
<text text-anchor="middle" x="460.5" y="-119.5" font-family="Helvetica,sans-Serif" font-size="10.00" fill="#000000">fractal/settings.h</text>
</a>
</g>
</g>
<!-- Node3 -->
<g id="node2" class="node">
<title>Node3</title>
<g id="a_node2"><a xlink:href="encoder_8h.html" target="_top" xlink:title=" ">
<polygon fill="none" stroke="#000000" points="88.5,-56.5 88.5,-75.5 232.5,-75.5 232.5,-56.5 88.5,-56.5"/>
<text text-anchor="middle" x="160.5" y="-63.5" font-family="Helvetica,sans-Serif" font-size="10.00" fill="#000000">fractal/encoder.h</text>
</a>
</g>
</g>
<!-- Node2&#45;&gt;Node3 -->
<g id="edge1" class="edge">
<title>Node2&#45;&gt;Node3</title>
<path fill="none" stroke="#191970" d="M399.2432,-110.5654C343.9141,-100.2373 263.4322,-85.214 211.5197,-75.5237"/>
<polygon fill="#191970" stroke="#191970" points="398.7966,-114.0424 409.269,-112.4369 400.0811,-107.1613 398.7966,-114.0424"/>
</g>
<!-- Node6 -->
<g id="node5" class="node">
<title>Node6</title>
<g id="a_node5"><a xlink:href="main__window_8h.html" target="_top" xlink:title=" ">
<polygon fill="none" stroke="#000000" points="488.5,-56.5 488.5,-75.5 662.5,-75.5 662.5,-56.5 488.5,-56.5"/>
<text text-anchor="middle" x="575.5" y="-63.5" font-family="Helvetica,sans-Serif" font-size="10.00" fill="#000000">fractal/main_window.h</text>
</a>
</g>
</g>
<!-- Node2&#45;&gt;Node6 -->
<g id="edge4" class="edge">
<title>Node2&#45;&gt;Node6</title>
<path fill="none" stroke="#191970" d="M489.3033,-107.9741C510.125,-97.8348 537.6978,-84.408 555.9888,-75.5011"/>
<polygon fill="#191970" stroke="#191970" points="487.7276,-104.8484 480.2692,-112.3733 490.7922,-111.1419 487.7276,-104.8484"/>
</g>
<!-- Node7 -->
<g id="node6" class="node">
<title>Node7</title>
<g id="a_node6"><a xlink:href="main_8cpp.html" target="_top" xlink:title=" ">
<polygon fill="none" stroke="#000000" points="392,-.5 392,-19.5 529,-19.5 529,-.5 392,-.5"/>
<text text-anchor="middle" x="460.5" y="-7.5" font-family="Helvetica,sans-Serif" font-size="10.00" fill="#000000">fractal/main.cpp</text>
</a>
</g>
</g>
<!-- Node2&#45;&gt;Node7 -->
<g id="edge10" class="edge">
<title>Node2&#45;&gt;Node7</title>
<path fill="none" stroke="#191970" d="M460.5,-102.2702C460.5,-77.9985 460.5,-37.7725 460.5,-19.5249"/>
<polygon fill="#191970" stroke="#191970" points="457.0001,-102.4509 460.5,-112.4509 464.0001,-102.451 457.0001,-102.4509"/>
</g>
<!-- Node9 -->
<g id="node8" class="node">
<title>Node9</title>
<g id="a_node8"><a xlink:href="render__video_8h.html" target="_top" xlink:title=" ">
<polygon fill="none" stroke="#000000" points="250.5,-56.5 250.5,-75.5 432.5,-75.5 432.5,-56.5 250.5,-56.5"/>
<text text-anchor="middle" x="341.5" y="-63.5" font-family="Helvetica,sans-Serif" font-size="10.00" fill="#000000">fractal/render_video.h</text>
</a>
</g>
</g>
<!-- Node2&#45;&gt;Node9 -->
<g id="edge7" class="edge">
<title>Node2&#45;&gt;Node9</title>
<path fill="none" stroke="#191970" d="M430.9856,-108.1109C409.4062,-97.9559 380.7024,-84.4482 361.6899,-75.5011"/>
<polygon fill="#191970" stroke="#191970" points="429.5047,-111.2821 440.0432,-112.3733 432.4853,-104.9484 429.5047,-111.2821"/>
</g>
<!-- Node10 -->
<g id="node9" class="node">
<title>Node10</title>
<g id="a_node9"><a xlink:href="settings_8cpp.html" target="_top" xlink:title=" ">
<polygon fill="none" stroke="#000000" points="681,-56.5 681,-75.5 848,-75.5 848,-56.5 681,-56.5"/>
<text text-anchor="middle" x="764.5" y="-63.5" font-family="Helvetica,sans-Serif" font-size="10.00" fill="#000000">fractal/settings.cpp</text>
</a>
</g>
</g>
<!-- Node2&#45;&gt;Node10 -->
<g id="edge11" class="edge">
<title>Node2&#45;&gt;Node10</title>
<path fill="none" stroke="#191970" d="M522.5736,-110.5654C578.6404,-100.2373 660.1954,-85.214 712.8001,-75.5237"/>
<polygon fill="#191970" stroke="#191970" points="521.6145,-107.1831 512.414,-112.4369 522.8827,-114.0673 521.6145,-107.1831"/>
</g>
<!-- Node4 -->
<g id="node3" class="node">
<title>Node4</title>
<g id="a_node3"><a xlink:href="encoder_8cpp.html" target="_top" xlink:title=" ">
<polygon fill="none" stroke="#000000" points="0,-.5 0,-19.5 159,-19.5 159,-.5 0,-.5"/>
<text text-anchor="middle" x="79.5" y="-7.5" font-family="Helvetica,sans-Serif" font-size="10.00" fill="#000000">fractal/encoder.cpp</text>
</a>
</g>
</g>
<!-- Node3&#45;&gt;Node4 -->
<g id="edge2" class="edge">
<title>Node3&#45;&gt;Node4</title>
<path fill="none" stroke="#191970" d="M138.066,-50.49C123.7746,-40.6096 105.7084,-28.1194 93.4474,-19.6427"/>
<polygon fill="#191970" stroke="#191970" points="136.1749,-53.4376 146.3909,-56.2455 140.1557,-47.6797 136.1749,-53.4376"/>
</g>
<!-- Node5 -->
<g id="node4" class="node">
<title>Node5</title>
<g id="a_node4"><a xlink:href="render__video_8cpp.html" target="_top" xlink:title=" ">
<polygon fill="none" stroke="#000000" points="177,-.5 177,-19.5 374,-19.5 374,-.5 177,-.5"/>
<text text-anchor="middle" x="275.5" y="-7.5" font-family="Helvetica,sans-Serif" font-size="10.00" fill="#000000">fractal/render_video.cpp</text>
</a>
</g>
</g>
<!-- Node3&#45;&gt;Node5 -->
<g id="edge3" class="edge">
<title>Node3&#45;&gt;Node5</title>
<path fill="none" stroke="#191970" d="M189.3033,-51.9741C210.125,-41.8348 237.6978,-28.408 255.9888,-19.5011"/>
<polygon fill="#191970" stroke="#191970" points="187.7276,-48.8484 180.2692,-56.3733 190.7922,-55.1419 187.7276,-48.8484"/>
</g>
<!-- Node6&#45;&gt;Node7 -->
<g id="edge5" class="edge">
<title>Node6&#45;&gt;Node7</title>
<path fill="none" stroke="#191970" d="M546.6967,-51.9741C525.875,-41.8348 498.3022,-28.408 480.0112,-19.5011"/>
<polygon fill="#191970" stroke="#191970" points="545.2078,-55.1419 555.7308,-56.3733 548.2724,-48.8484 545.2078,-55.1419"/>
</g>
<!-- Node8 -->
<g id="node7" class="node">
<title>Node8</title>
<g id="a_node7"><a xlink:href="main__window_8cpp.html" target="_top" xlink:title=" ">
<polygon fill="none" stroke="#000000" points="547,-.5 547,-19.5 736,-19.5 736,-.5 547,-.5"/>
<text text-anchor="middle" x="641.5" y="-7.5" font-family="Helvetica,sans-Serif" font-size="10.00" fill="#000000">fractal/main_window.cpp</text>
</a>
</g>
</g>
<!-- Node6&#45;&gt;Node8 -->
<g id="edge6" class="edge">
<title>Node6&#45;&gt;Node8</title>
<path fill="none" stroke="#191970" d="M594.7755,-49.645C606.2538,-39.9058 620.4277,-27.8795 630.1354,-19.6427"/>
<polygon fill="#191970" stroke="#191970" points="592.357,-47.1069 586.9963,-56.2455 596.8859,-52.4445 592.357,-47.1069"/>
</g>
<!-- Node9&#45;&gt;Node5 -->
<g id="edge9" class="edge">
<title>Node9&#45;&gt;Node5</title>
<path fill="none" stroke="#191970" d="M322.2245,-49.645C310.7462,-39.9058 296.5723,-27.8795 286.8646,-19.6427"/>
<polygon fill="#191970" stroke="#191970" points="320.1141,-52.4445 330.0037,-56.2455 324.643,-47.1069 320.1141,-52.4445"/>
</g>
<!-- Node9&#45;&gt;Node7 -->
<g id="edge8" class="edge">
<title>Node9&#45;&gt;Node7</title>
<path fill="none" stroke="#191970" d="M371.0144,-52.1109C392.5938,-41.9559 421.2976,-28.4482 440.3101,-19.5011"/>
<polygon fill="#191970" stroke="#191970" points="369.5147,-48.9484 361.9568,-56.3733 372.4953,-55.2821 369.5147,-48.9484"/>
</g>
</g>
</svg>
