<?xml version="1.0" encoding="UTF-8" standalone="no"?>
<!DOCTYPE svg PUBLIC "-//W3C//DTD SVG 1.1//EN"
 "http://www.w3.org/Graphics/SVG/1.1/DTD/svg11.dtd">
<!-- Generated by graphviz version 2.40.1 (0)
 -->
<!-- Title: fractal/settings.cpp Pages: 1 -->
<svg width="343pt" height="140pt"
 viewBox="0.00 0.00 342.50 140.00" xmlns="http://www.w3.org/2000/svg" xmlns:xlink="http://www.w3.org/1999/xlink">
<g id="graph0" class="graph" transform="scale(1 1) rotate(0) translate(4 136)">
<title>fractal/settings.cpp</title>
<!-- Node0 -->
<g id="node1" class="node">
<title>Node0</title>
<g id="a_node1"><a xlink:title=" ">
<polygon fill="#bfbfbf" stroke="#000000" points="76.5,-112.5 76.5,-131.5 243.5,-131.5 243.5,-112.5 76.5,-112.5"/>
<text text-anchor="middle" x="160" y="-119.5" font-family="Helvetica,sans-Serif" font-size="10.00" fill="#000000">fractal/settings.cpp</text>
</a>
</g>
</g>
<!-- Node1 -->
<g id="node2" class="node">
<title>Node1</title>
<g id="a_node2"><a xlink:href="settings_8h.html" target="_top" xlink:title=" ">
<polygon fill="none" stroke="#000000" points="0,-56.5 0,-75.5 92,-75.5 92,-56.5 0,-56.5"/>
<text text-anchor="middle" x="46" y="-63.5" font-family="Helvetica,sans-Serif" font-size="10.00" fill="#000000">settings.h</text>
</a>
</g>
</g>
<!-- Node0&#45;&gt;Node1 -->
<g id="edge1" class="edge">
<title>Node0&#45;&gt;Node1</title>
<path fill="none" stroke="#191970" d="M140.4027,-112.3733C122.2669,-103.4644 95.0865,-90.1127 74.5413,-80.0203"/>
<polygon fill="#191970" stroke="#191970" points="75.8603,-76.7688 65.3416,-75.5011 72.7739,-83.0517 75.8603,-76.7688"/>
</g>
<!-- Node3 -->
<g id="node4" class="node">
<title>Node3</title>
<g id="a_node4"><a xlink:title=" ">
<polygon fill="none" stroke="#bfbfbf" points="110.5,-56.5 110.5,-75.5 209.5,-75.5 209.5,-56.5 110.5,-56.5"/>
<text text-anchor="middle" x="160" y="-63.5" font-family="Helvetica,sans-Serif" font-size="10.00" fill="#000000">cxxopts.hpp</text>
</a>
</g>
</g>
<!-- Node0&#45;&gt;Node3 -->
<g id="edge3" class="edge">
<title>Node0&#45;&gt;Node3</title>
<path fill="none" stroke="#191970" d="M160,-112.2455C160,-104.9382 160,-94.6944 160,-85.7046"/>
<polygon fill="#191970" stroke="#191970" points="163.5001,-85.6426 160,-75.6427 156.5001,-85.6427 163.5001,-85.6426"/>
</g>
<!-- Node4 -->
<g id="node5" class="node">
<title>Node4</title>
<g id="a_node5"><a xlink:title=" ">
<polygon fill="none" stroke="#bfbfbf" points="227.5,-56.5 227.5,-75.5 334.5,-75.5 334.5,-56.5 227.5,-56.5"/>
<text text-anchor="middle" x="281" y="-63.5" font-family="Helvetica,sans-Serif" font-size="10.00" fill="#000000">fmt/printf.h</text>
</a>
</g>
</g>
<!-- Node0&#45;&gt;Node4 -->
<g id="edge4" class="edge">
<title>Node0&#45;&gt;Node4</title>
<path fill="none" stroke="#191970" d="M180.8006,-112.3733C200.2243,-103.3838 229.4224,-89.8706 251.2964,-79.7471"/>
<polygon fill="#191970" stroke="#191970" points="252.8656,-82.8776 260.4708,-75.5011 249.9255,-76.5249 252.8656,-82.8776"/>
</g>
<!-- Node2 -->
<g id="node3" class="node">
<title>Node2</title>
<g id="a_node3"><a xlink:title=" ">
<polygon fill="none" stroke="#bfbfbf" points="15,-.5 15,-19.5 77,-19.5 77,-.5 15,-.5"/>
<text text-anchor="middle" x="46" y="-7.5" font-family="Helvetica,sans-Serif" font-size="10.00" fill="#000000">string</text>
</a>
</g>
</g>
<!-- Node1&#45;&gt;Node2 -->
<g id="edge2" class="edge">
<title>Node1&#45;&gt;Node2</title>
<path fill="none" stroke="#191970" d="M46,-56.2455C46,-48.9382 46,-38.6944 46,-29.7046"/>
<polygon fill="#191970" stroke="#191970" points="49.5001,-29.6426 46,-19.6427 42.5001,-29.6427 49.5001,-29.6426"/>
</g>
</g>
</svg>
