<?xml version="1.0" encoding="UTF-8" standalone="no"?>
<!DOCTYPE svg PUBLIC "-//W3C//DTD SVG 1.1//EN"
 "http://www.w3.org/Graphics/SVG/1.1/DTD/svg11.dtd">
<!-- Generated by graphviz version 2.40.1 (0)
 -->
<!-- Title: fractal/shader.h Pages: 1 -->
<svg width="424pt" height="140pt"
 viewBox="0.00 0.00 423.50 140.00" xmlns="http://www.w3.org/2000/svg" xmlns:xlink="http://www.w3.org/1999/xlink">
<g id="graph0" class="graph" transform="scale(1 1) rotate(0) translate(4 136)">
<title>fractal/shader.h</title>
<!-- Node6 -->
<g id="node1" class="node">
<title>Node6</title>
<g id="a_node1"><a xlink:title=" ">
<polygon fill="#bfbfbf" stroke="#000000" points="180,-112.5 180,-131.5 317,-131.5 317,-112.5 180,-112.5"/>
<text text-anchor="middle" x="248.5" y="-119.5" font-family="Helvetica,sans-Serif" font-size="10.00" fill="#000000">fractal/shader.h</text>
</a>
</g>
</g>
<!-- Node7 -->
<g id="node2" class="node">
<title>Node7</title>
<g id="a_node2"><a xlink:href="main__window_8h.html" target="_top" xlink:title=" ">
<polygon fill="none" stroke="#000000" points="71.5,-56.5 71.5,-75.5 245.5,-75.5 245.5,-56.5 71.5,-56.5"/>
<text text-anchor="middle" x="158.5" y="-63.5" font-family="Helvetica,sans-Serif" font-size="10.00" fill="#000000">fractal/main_window.h</text>
</a>
</g>
</g>
<!-- Node6&#45;&gt;Node7 -->
<g id="edge1" class="edge">
<title>Node6&#45;&gt;Node7</title>
<path fill="none" stroke="#191970" d="M224.0216,-106.769C208.0734,-96.8456 187.749,-84.1994 173.9972,-75.6427"/>
<polygon fill="#191970" stroke="#191970" points="222.4835,-109.9342 232.8232,-112.2455 226.1817,-103.9908 222.4835,-109.9342"/>
</g>
<!-- Node10 -->
<g id="node5" class="node">
<title>Node10</title>
<g id="a_node5"><a xlink:href="shader_8cpp.html" target="_top" xlink:title=" ">
<polygon fill="none" stroke="#000000" points="263.5,-56.5 263.5,-75.5 415.5,-75.5 415.5,-56.5 263.5,-56.5"/>
<text text-anchor="middle" x="339.5" y="-63.5" font-family="Helvetica,sans-Serif" font-size="10.00" fill="#000000">fractal/shader.cpp</text>
</a>
</g>
</g>
<!-- Node6&#45;&gt;Node10 -->
<g id="edge4" class="edge">
<title>Node6&#45;&gt;Node10</title>
<path fill="none" stroke="#191970" d="M273.2504,-106.769C289.3758,-96.8456 309.926,-84.1994 323.8307,-75.6427"/>
<polygon fill="#191970" stroke="#191970" points="271.0332,-104.0237 264.351,-112.2455 274.7019,-109.9853 271.0332,-104.0237"/>
</g>
<!-- Node8 -->
<g id="node3" class="node">
<title>Node8</title>
<g id="a_node3"><a xlink:href="main_8cpp.html" target="_top" xlink:title=" ">
<polygon fill="none" stroke="#000000" points="0,-.5 0,-19.5 137,-19.5 137,-.5 0,-.5"/>
<text text-anchor="middle" x="68.5" y="-7.5" font-family="Helvetica,sans-Serif" font-size="10.00" fill="#000000">fractal/main.cpp</text>
</a>
</g>
</g>
<!-- Node7&#45;&gt;Node8 -->
<g id="edge2" class="edge">
<title>Node7&#45;&gt;Node8</title>
<path fill="none" stroke="#191970" d="M134.0216,-50.769C118.0734,-40.8456 97.749,-28.1994 83.9972,-19.6427"/>
<polygon fill="#191970" stroke="#191970" points="132.4835,-53.9342 142.8232,-56.2455 136.1817,-47.9908 132.4835,-53.9342"/>
</g>
<!-- Node9 -->
<g id="node4" class="node">
<title>Node9</title>
<g id="a_node4"><a xlink:href="main__window_8cpp.html" target="_top" xlink:title=" ">
<polygon fill="none" stroke="#000000" points="155,-.5 155,-19.5 344,-19.5 344,-.5 155,-.5"/>
<text text-anchor="middle" x="249.5" y="-7.5" font-family="Helvetica,sans-Serif" font-size="10.00" fill="#000000">fractal/main_window.cpp</text>
</a>
</g>
</g>
<!-- Node7&#45;&gt;Node9 -->
<g id="edge3" class="edge">
<title>Node7&#45;&gt;Node9</title>
<path fill="none" stroke="#191970" d="M183.2504,-50.769C199.3758,-40.8456 219.926,-28.1994 233.8307,-19.6427"/>
<polygon fill="#191970" stroke="#191970" points="181.0332,-48.0237 174.351,-56.2455 184.7019,-53.9853 181.0332,-48.0237"/>
</g>
</g>
</svg>
