<?xml version="1.0" encoding="UTF-8" standalone="no"?>
<!DOCTYPE svg PUBLIC "-//W3C//DTD SVG 1.1//EN"
 "http://www.w3.org/Graphics/SVG/1.1/DTD/svg11.dtd">
<!-- Generated by graphviz version 2.40.1 (0)
 -->
<!-- Title: fractal::Palette Pages: 1 -->
<svg width="387pt" height="251pt"
 viewBox="0.00 0.00 386.50 251.00" xmlns="http://www.w3.org/2000/svg" xmlns:xlink="http://www.w3.org/1999/xlink">
<g id="graph0" class="graph" transform="scale(1 1) rotate(0) translate(4 247)">
<title>fractal::Palette</title>
<!-- Node1 -->
<g id="node1" class="node">
<title>Node1</title>
<g id="a_node1"><a xlink:title=" ">
<polygon fill="#bfbfbf" stroke="#000000" points="94,-.5 94,-19.5 231,-19.5 231,-.5 94,-.5"/>
<text text-anchor="middle" x="162.5" y="-7.5" font-family="Helvetica,sans-Serif" font-size="10.00" fill="#000000">fractal::Palette</text>
</a>
</g>
</g>
<!-- Node2 -->
<g id="node2" class="node">
<title>Node2</title>
<g id="a_node2"><a xlink:title=" ">
<polygon fill="none" stroke="#bfbfbf" points="79,-67.5 79,-97.5 246,-97.5 246,-67.5 79,-67.5"/>
<text text-anchor="start" x="87" y="-85.5" font-family="Helvetica,sans-Serif" font-size="10.00" fill="#000000">std::vector&lt; fractal</text>
<text text-anchor="middle" x="162.5" y="-74.5" font-family="Helvetica,sans-Serif" font-size="10.00" fill="#000000">::Palette::Color &gt;</text>
</a>
</g>
</g>
<!-- Node2&#45;&gt;Node1 -->
<g id="edge1" class="edge">
<title>Node2&#45;&gt;Node1</title>
<path fill="none" stroke="#9a32cd" stroke-dasharray="5,2" d="M162.5,-57.305C162.5,-44.424 162.5,-29.4836 162.5,-19.8957"/>
<polygon fill="#9a32cd" stroke="#9a32cd" points="159.0001,-57.4779 162.5,-67.478 166.0001,-57.478 159.0001,-57.4779"/>
<text text-anchor="middle" x="204" y="-41" font-family="Helvetica,sans-Serif" font-size="10.00" fill="#000000"> generated_</text>
</g>
<!-- Node3 -->
<g id="node3" class="node">
<title>Node3</title>
<g id="a_node3"><a xlink:href="structfractal_1_1_palette_1_1_color.html" target="_top" xlink:title=" ">
<polygon fill="none" stroke="#000000" points="0,-156.5 0,-175.5 189,-175.5 189,-156.5 0,-156.5"/>
<text text-anchor="middle" x="94.5" y="-163.5" font-family="Helvetica,sans-Serif" font-size="10.00" fill="#000000">fractal::Palette::Color</text>
</a>
</g>
</g>
<!-- Node3&#45;&gt;Node2 -->
<g id="edge2" class="edge">
<title>Node3&#45;&gt;Node2</title>
<path fill="none" stroke="#9a32cd" stroke-dasharray="5,2" d="M108.8375,-148.3944C121.1024,-133.3338 138.5687,-111.8863 150.2054,-97.597"/>
<polygon fill="#9a32cd" stroke="#9a32cd" points="105.9012,-146.4573 102.3005,-156.4215 111.3291,-150.8776 105.9012,-146.4573"/>
<text text-anchor="middle" x="168.5" y="-124.5" font-family="Helvetica,sans-Serif" font-size="10.00" fill="#000000"> elements</text>
</g>
<!-- Node4 -->
<g id="node4" class="node">
<title>Node4</title>
<g id="a_node4"><a xlink:title="STL class.">
<polygon fill="none" stroke="#bfbfbf" points="207,-156.5 207,-175.5 344,-175.5 344,-156.5 207,-156.5"/>
<text text-anchor="middle" x="275.5" y="-163.5" font-family="Helvetica,sans-Serif" font-size="10.00" fill="#000000">std::vector&lt; T &gt;</text>
</a>
</g>
</g>
<!-- Node4&#45;&gt;Node2 -->
<g id="edge3" class="edge">
<title>Node4&#45;&gt;Node2</title>
<path fill="none" stroke="#ffa500" stroke-dasharray="5,2" d="M254.4732,-150.4625C234.0267,-135.3538 203.1719,-112.554 182.9307,-97.597"/>
<polygon fill="#ffa500" stroke="#ffa500" points="252.4149,-153.2934 262.5375,-156.4215 256.575,-147.6637 252.4149,-153.2934"/>
<text text-anchor="start" x="235.5" y="-130" font-family="Helvetica,sans-Serif" font-size="10.00" fill="#000000"> &lt; fractal::Palette</text>
<text text-anchor="middle" x="307" y="-119" font-family="Helvetica,sans-Serif" font-size="10.00" fill="#000000">::Color &gt;</text>
</g>
<!-- Node5 -->
<g id="node5" class="node">
<title>Node5</title>
<g id="a_node5"><a xlink:title=" ">
<polygon fill="none" stroke="#bfbfbf" points="261,-223.5 261,-242.5 290,-242.5 290,-223.5 261,-223.5"/>
<text text-anchor="middle" x="275.5" y="-230.5" font-family="Helvetica,sans-Serif" font-size="10.00" fill="#000000">T</text>
</a>
</g>
</g>
<!-- Node5&#45;&gt;Node4 -->
<g id="edge4" class="edge">
<title>Node5&#45;&gt;Node4</title>
<path fill="none" stroke="#9a32cd" stroke-dasharray="5,2" d="M275.5,-213.1079C275.5,-200.714 275.5,-185.3263 275.5,-175.5817"/>
<polygon fill="#9a32cd" stroke="#9a32cd" points="272.0001,-213.4005 275.5,-223.4005 279.0001,-213.4006 272.0001,-213.4005"/>
<text text-anchor="middle" x="309.5" y="-197" font-family="Helvetica,sans-Serif" font-size="10.00" fill="#000000"> elements</text>
</g>
</g>
</svg>
