<?xml version="1.0" encoding="UTF-8" standalone="no"?>
<!DOCTYPE svg PUBLIC "-//W3C//DTD SVG 1.1//EN"
 "http://www.w3.org/Graphics/SVG/1.1/DTD/svg11.dtd">
<!-- Generated by graphviz version 2.40.1 (0)
 -->
<!-- Title: fractal::ShaderProgram::bind Pages: 1 -->
<svg width="408pt" height="78pt"
 viewBox="0.00 0.00 408.00 77.50" xmlns="http://www.w3.org/2000/svg" xmlns:xlink="http://www.w3.org/1999/xlink">
<g id="graph0" class="graph" transform="scale(1 1) rotate(0) translate(4 73.5)">
<title>fractal::ShaderProgram::bind</title>
<!-- Node5 -->
<g id="node1" class="node">
<title>Node5</title>
<g id="a_node1"><a xlink:title=" ">
<polygon fill="#bfbfbf" stroke="#000000" points="0,-22.5 0,-52.5 182,-52.5 182,-22.5 0,-22.5"/>
<text text-anchor="start" x="8" y="-40.5" font-family="Helvetica,sans-Serif" font-size="10.00" fill="#000000">fractal::ShaderProgram</text>
<text text-anchor="middle" x="91" y="-29.5" font-family="Helvetica,sans-Serif" font-size="10.00" fill="#000000">::bind</text>
</a>
</g>
</g>
<!-- Node6 -->
<g id="node2" class="node">
<title>Node6</title>
<g id="a_node2"><a xlink:href="structfractal_1_1_gl_object.html#af52b46835d8ac261160a1da910ca0294" target="_top" xlink:title=" ">
<polygon fill="none" stroke="#000000" points="222,-50 222,-69 396,-69 396,-50 222,-50"/>
<text text-anchor="middle" x="309" y="-57" font-family="Helvetica,sans-Serif" font-size="10.00" fill="#000000">fractal::GlObject::id</text>
</a>
</g>
</g>
<!-- Node5&#45;&gt;Node6 -->
<g id="edge1" class="edge">
<title>Node5&#45;&gt;Node6</title>
<path fill="none" stroke="#191970" d="M182.1885,-46.7025C191.8871,-47.6813 201.7791,-48.6795 211.546,-49.6652"/>
<polygon fill="#191970" stroke="#191970" points="211.3647,-53.1646 221.6656,-50.6864 212.0676,-46.2 211.3647,-53.1646"/>
</g>
<!-- Node7 -->
<g id="node3" class="node">
<title>Node7</title>
<g id="a_node3"><a xlink:href="structfractal_1_1_shader_program.html#a7ab43c66ed517bc2060f596965a37940" target="_top" xlink:title=" ">
<polygon fill="none" stroke="#000000" points="218,-.5 218,-30.5 400,-30.5 400,-.5 218,-.5"/>
<text text-anchor="start" x="226" y="-18.5" font-family="Helvetica,sans-Serif" font-size="10.00" fill="#000000">fractal::ShaderProgram</text>
<text text-anchor="middle" x="309" y="-7.5" font-family="Helvetica,sans-Serif" font-size="10.00" fill="#000000">::unbind</text>
</a>
</g>
</g>
<!-- Node5&#45;&gt;Node7 -->
<g id="edge2" class="edge">
<title>Node5&#45;&gt;Node7</title>
<path fill="none" stroke="#191970" d="M182.1885,-28.2975C190.6584,-27.4427 199.2757,-26.5731 207.8285,-25.71"/>
<polygon fill="#191970" stroke="#191970" points="208.2283,-29.1875 217.8263,-24.701 207.5254,-22.2229 208.2283,-29.1875"/>
</g>
</g>
</svg>
