<?xml version="1.0" encoding="UTF-8" standalone="no"?>
<!DOCTYPE svg PUBLIC "-//W3C//DTD SVG 1.1//EN"
 "http://www.w3.org/Graphics/SVG/1.1/DTD/svg11.dtd">
<!-- Generated by graphviz version 2.40.1 (0)
 -->
<!-- Title: fractal::Encoder Pages: 1 -->
<svg width="455pt" height="262pt"
 viewBox="0.00 0.00 455.00 262.00" xmlns="http://www.w3.org/2000/svg" xmlns:xlink="http://www.w3.org/1999/xlink">
<g id="graph0" class="graph" transform="scale(1 1) rotate(0) translate(4 258)">
<title>fractal::Encoder</title>
<!-- Node1 -->
<g id="node1" class="node">
<title>Node1</title>
<g id="a_node1"><a xlink:title=" ">
<polygon fill="#bfbfbf" stroke="#000000" points="121.5,-.5 121.5,-19.5 258.5,-19.5 258.5,-.5 121.5,-.5"/>
<text text-anchor="middle" x="190" y="-7.5" font-family="Helvetica,sans-Serif" font-size="10.00" fill="#000000">fractal::Encoder</text>
</a>
</g>
</g>
<!-- Node2 -->
<g id="node2" class="node">
<title>Node2</title>
<g id="a_node2"><a xlink:title=" ">
<polygon fill="none" stroke="#bfbfbf" points="0,-78.5 0,-97.5 182,-97.5 182,-78.5 0,-78.5"/>
<text text-anchor="middle" x="91" y="-85.5" font-family="Helvetica,sans-Serif" font-size="10.00" fill="#000000">std::vector&lt; uint8_t &gt;</text>
</a>
</g>
</g>
<!-- Node2&#45;&gt;Node1 -->
<g id="edge1" class="edge">
<title>Node2&#45;&gt;Node1</title>
<path fill="none" stroke="#9a32cd" stroke-dasharray="5,2" d="M111.0192,-72.2273C131.0066,-56.4797 161.0823,-32.7836 177.7614,-19.6426"/>
<polygon fill="#9a32cd" stroke="#9a32cd" points="108.8282,-69.4977 103.1393,-78.4357 113.1603,-74.9961 108.8282,-69.4977"/>
<text text-anchor="middle" x="172" y="-41" font-family="Helvetica,sans-Serif" font-size="10.00" fill="#000000"> yuv_</text>
</g>
<!-- Node3 -->
<g id="node3" class="node">
<title>Node3</title>
<g id="a_node3"><a xlink:title="STL class.">
<polygon fill="none" stroke="#bfbfbf" points="44.5,-167.5 44.5,-186.5 181.5,-186.5 181.5,-167.5 44.5,-167.5"/>
<text text-anchor="middle" x="113" y="-174.5" font-family="Helvetica,sans-Serif" font-size="10.00" fill="#000000">std::vector&lt; T &gt;</text>
</a>
</g>
</g>
<!-- Node3&#45;&gt;Node2 -->
<g id="edge2" class="edge">
<title>Node3&#45;&gt;Node2</title>
<path fill="none" stroke="#ffa500" stroke-dasharray="5,2" d="M108.2437,-157.7584C103.674,-139.2723 96.9551,-112.0912 93.4042,-97.7259"/>
<polygon fill="#ffa500" stroke="#ffa500" points="104.8481,-158.6075 110.6456,-167.4754 111.6436,-156.9277 104.8481,-158.6075"/>
<text text-anchor="middle" x="151.5" y="-135.5" font-family="Helvetica,sans-Serif" font-size="10.00" fill="#000000"> &lt; uint8_t &gt;</text>
</g>
<!-- Node4 -->
<g id="node4" class="node">
<title>Node4</title>
<g id="a_node4"><a xlink:title=" ">
<polygon fill="none" stroke="#bfbfbf" points="182.5,-234.5 182.5,-253.5 211.5,-253.5 211.5,-234.5 182.5,-234.5"/>
<text text-anchor="middle" x="197" y="-241.5" font-family="Helvetica,sans-Serif" font-size="10.00" fill="#000000">T</text>
</a>
</g>
</g>
<!-- Node4&#45;&gt;Node3 -->
<g id="edge3" class="edge">
<title>Node4&#45;&gt;Node3</title>
<path fill="none" stroke="#9a32cd" stroke-dasharray="5,2" d="M177.1358,-228.1559C160.942,-215.2395 138.6013,-197.4201 125.0128,-186.5817"/>
<polygon fill="#9a32cd" stroke="#9a32cd" points="174.9646,-230.9011 184.9648,-234.4005 179.3295,-225.4287 174.9646,-230.9011"/>
<text text-anchor="middle" x="195" y="-208" font-family="Helvetica,sans-Serif" font-size="10.00" fill="#000000"> elements</text>
</g>
<!-- Node6 -->
<g id="node6" class="node">
<title>Node6</title>
<g id="a_node6"><a xlink:title="STL class.">
<polygon fill="none" stroke="#bfbfbf" points="203.5,-167.5 203.5,-186.5 370.5,-186.5 370.5,-167.5 203.5,-167.5"/>
<text text-anchor="middle" x="287" y="-174.5" font-family="Helvetica,sans-Serif" font-size="10.00" fill="#000000">std::unique_ptr&lt; T &gt;</text>
</a>
</g>
</g>
<!-- Node4&#45;&gt;Node6 -->
<g id="edge6" class="edge">
<title>Node4&#45;&gt;Node6</title>
<path fill="none" stroke="#9a32cd" stroke-dasharray="5,2" d="M218.2831,-228.1559C235.6335,-215.2395 259.57,-197.4201 274.1291,-186.5817"/>
<polygon fill="#9a32cd" stroke="#9a32cd" points="215.8261,-225.6216 209.8948,-234.4005 220.0062,-231.2365 215.8261,-225.6216"/>
<text text-anchor="middle" x="262.5" y="-208" font-family="Helvetica,sans-Serif" font-size="10.00" fill="#000000"> ptr</text>
</g>
<!-- Node5 -->
<g id="node5" class="node">
<title>Node5</title>
<g id="a_node5"><a xlink:title=" ">
<polygon fill="none" stroke="#bfbfbf" points="200,-67.5 200,-108.5 382,-108.5 382,-67.5 200,-67.5"/>
<text text-anchor="start" x="208" y="-96.5" font-family="Helvetica,sans-Serif" font-size="10.00" fill="#000000">std::unique_ptr&lt; x265</text>
<text text-anchor="start" x="208" y="-85.5" font-family="Helvetica,sans-Serif" font-size="10.00" fill="#000000">_encoder, void(*)(x265</text>
<text text-anchor="middle" x="291" y="-74.5" font-family="Helvetica,sans-Serif" font-size="10.00" fill="#000000">_encoder *)&gt;</text>
</a>
</g>
</g>
<!-- Node5&#45;&gt;Node1 -->
<g id="edge4" class="edge">
<title>Node5&#45;&gt;Node1</title>
<path fill="none" stroke="#9a32cd" stroke-dasharray="5,2" d="M256.1879,-61.1154C237.592,-46.7542 215.8451,-29.9596 202.4978,-19.6517"/>
<polygon fill="#9a32cd" stroke="#9a32cd" points="254.1451,-63.96 264.199,-67.3022 258.4237,-58.4198 254.1451,-63.96"/>
<text text-anchor="middle" x="274" y="-41" font-family="Helvetica,sans-Serif" font-size="10.00" fill="#000000"> encoder_</text>
</g>
<!-- Node6&#45;&gt;Node5 -->
<g id="edge5" class="edge">
<title>Node6&#45;&gt;Node5</title>
<path fill="none" stroke="#ffa500" stroke-dasharray="5,2" d="M287.8921,-157.1498C288.5426,-142.6776 289.4214,-123.124 290.0786,-108.5022"/>
<polygon fill="#ffa500" stroke="#ffa500" points="284.3807,-157.3283 287.4281,-167.4754 291.3736,-157.6427 284.3807,-157.3283"/>
<text text-anchor="start" x="289" y="-141" font-family="Helvetica,sans-Serif" font-size="10.00" fill="#000000"> &lt; x265_encoder, void</text>
<text text-anchor="middle" x="368" y="-130" font-family="Helvetica,sans-Serif" font-size="10.00" fill="#000000">(*)(x265_encoder *)&gt;</text>
</g>
</g>
</svg>
