<?xml version="1.0" encoding="UTF-8" standalone="no"?>
<!DOCTYPE svg PUBLIC "-//W3C//DTD SVG 1.1//EN"
 "http://www.w3.org/Graphics/SVG/1.1/DTD/svg11.dtd">
<!-- Generated by graphviz version 2.40.1 (0)
 -->
<!-- Title: fractal::Mandelbrot Pages: 1 -->
<svg width="1828pt" height="270pt"
 viewBox="0.00 0.00 1828.00 269.50" xmlns="http://www.w3.org/2000/svg" xmlns:xlink="http://www.w3.org/1999/xlink">
<g id="graph0" class="graph" transform="scale(1 1) rotate(0) translate(4 265.5)">
<title>fractal::Mandelbrot</title>
<!-- Node1 -->
<g id="node1" class="node">
<title>Node1</title>
<g id="a_node1"><a xlink:title=" ">
<polygon fill="#bfbfbf" stroke="#000000" points="1661,-101.5 1661,-120.5 1820,-120.5 1820,-101.5 1661,-101.5"/>
<text text-anchor="middle" x="1740.5" y="-108.5" font-family="Helvetica,sans-Serif" font-size="10.00" fill="#000000">fractal::Mandelbrot</text>
</a>
</g>
</g>
<!-- Node2 -->
<g id="node2" class="node">
<title>Node2</title>
<g id="a_node2"><a xlink:title=" ">
<polygon fill="none" stroke="#bfbfbf" points="791,-231 791,-261 980,-261 980,-231 791,-231"/>
<text text-anchor="start" x="799" y="-249" font-family="Helvetica,sans-Serif" font-size="10.00" fill="#000000">std::queue&lt; std::future</text>
<text text-anchor="middle" x="885.5" y="-238" font-family="Helvetica,sans-Serif" font-size="10.00" fill="#000000">&lt; void &gt; &gt;</text>
</a>
</g>
</g>
<!-- Node2&#45;&gt;Node1 -->
<g id="edge1" class="edge">
<title>Node2&#45;&gt;Node1</title>
<path fill="none" stroke="#9a32cd" stroke-dasharray="5,2" d="M990.2072,-231.7238C1117.2359,-214.3464 1337.8829,-183.9761 1527,-157 1578.5841,-149.6419 1592.1192,-151.2343 1643,-140 1666.6251,-134.7837 1692.8872,-126.8451 1712.1979,-120.5918"/>
<polygon fill="#9a32cd" stroke="#9a32cd" points="989.5289,-228.2839 980.0954,-233.1067 990.4775,-235.2194 989.5289,-228.2839"/>
<text text-anchor="middle" x="1243.5" y="-208" font-family="Helvetica,sans-Serif" font-size="10.00" fill="#000000"> futures_</text>
</g>
<!-- Node3 -->
<g id="node3" class="node">
<title>Node3</title>
<g id="a_node3"><a xlink:title="STL class.">
<polygon fill="none" stroke="#bfbfbf" points="163,-210.5 163,-229.5 292,-229.5 292,-210.5 163,-210.5"/>
<text text-anchor="middle" x="227.5" y="-217.5" font-family="Helvetica,sans-Serif" font-size="10.00" fill="#000000">std::queue&lt; T &gt;</text>
</a>
</g>
</g>
<!-- Node3&#45;&gt;Node2 -->
<g id="edge2" class="edge">
<title>Node3&#45;&gt;Node2</title>
<path fill="none" stroke="#ffa500" stroke-dasharray="5,2" d="M302.2615,-228.8264C314.8447,-230.0674 327.7826,-231.1929 340,-232 497.8651,-242.4282 681.9044,-245.2086 790.7889,-245.8814"/>
<polygon fill="#ffa500" stroke="#ffa500" points="302.5695,-225.3397 292.2667,-227.8102 301.8614,-232.3038 302.5695,-225.3397"/>
<text text-anchor="middle" x="441.5" y="-244" font-family="Helvetica,sans-Serif" font-size="10.00" fill="#000000"> &lt; std::future&lt; void &gt; &gt;</text>
</g>
<!-- Node12 -->
<g id="node12" class="node">
<title>Node12</title>
<g id="a_node12"><a xlink:title=" ">
<polygon fill="none" stroke="#bfbfbf" points="565,-196 565,-226 769,-226 769,-196 565,-196"/>
<text text-anchor="start" x="573" y="-214" font-family="Helvetica,sans-Serif" font-size="10.00" fill="#000000">std::queue&lt; std::function</text>
<text text-anchor="middle" x="667" y="-203" font-family="Helvetica,sans-Serif" font-size="10.00" fill="#000000">&lt; void()&gt; &gt;</text>
</a>
</g>
</g>
<!-- Node3&#45;&gt;Node12 -->
<g id="edge14" class="edge">
<title>Node3&#45;&gt;Node12</title>
<path fill="none" stroke="#ffa500" stroke-dasharray="5,2" d="M302.7275,-218.4595C374.9607,-216.9803 484.6259,-214.7346 564.7582,-213.0937"/>
<polygon fill="#ffa500" stroke="#ffa500" points="302.276,-214.9679 292.3497,-218.672 302.4193,-221.9665 302.276,-214.9679"/>
<text text-anchor="middle" x="441.5" y="-220" font-family="Helvetica,sans-Serif" font-size="10.00" fill="#000000"> &lt; std::function&lt; void()&gt; &gt;</text>
</g>
<!-- Node4 -->
<g id="node4" class="node">
<title>Node4</title>
<g id="a_node4"><a xlink:title=" ">
<polygon fill="none" stroke="#bfbfbf" points="0,-134.5 0,-153.5 29,-153.5 29,-134.5 0,-134.5"/>
<text text-anchor="middle" x="14.5" y="-141.5" font-family="Helvetica,sans-Serif" font-size="10.00" fill="#000000">T</text>
</a>
</g>
</g>
<!-- Node4&#45;&gt;Node3 -->
<g id="edge3" class="edge">
<title>Node4&#45;&gt;Node3</title>
<path fill="none" stroke="#9a32cd" stroke-dasharray="5,2" d="M38.1753,-157.5751C61.5807,-170.463 98.7555,-189.5232 133,-201 144.2657,-204.7756 156.5513,-207.9184 168.4246,-210.489"/>
<polygon fill="#9a32cd" stroke="#9a32cd" points="39.7664,-154.4549 29.3289,-152.6356 36.3538,-160.5667 39.7664,-154.4549"/>
<text text-anchor="middle" x="81" y="-196" font-family="Helvetica,sans-Serif" font-size="10.00" fill="#000000"> elements</text>
</g>
<!-- Node8 -->
<g id="node8" class="node">
<title>Node8</title>
<g id="a_node8"><a xlink:title="STL class.">
<polygon fill="none" stroke="#bfbfbf" points="159,-84.5 159,-103.5 296,-103.5 296,-84.5 159,-84.5"/>
<text text-anchor="middle" x="227.5" y="-91.5" font-family="Helvetica,sans-Serif" font-size="10.00" fill="#000000">std::vector&lt; T &gt;</text>
</a>
</g>
</g>
<!-- Node4&#45;&gt;Node8 -->
<g id="edge8" class="edge">
<title>Node4&#45;&gt;Node8</title>
<path fill="none" stroke="#9a32cd" stroke-dasharray="5,2" d="M27.414,-126.5573C32.7802,-120.6046 39.5097,-114.5581 47,-111 81.5434,-94.591 123.956,-89.9284 158.987,-89.5585"/>
<polygon fill="#9a32cd" stroke="#9a32cd" points="24.6372,-124.4237 20.9981,-134.3739 30.048,-128.8649 24.6372,-124.4237"/>
<text text-anchor="middle" x="81" y="-114" font-family="Helvetica,sans-Serif" font-size="10.00" fill="#000000"> elements</text>
</g>
<!-- Node15 -->
<g id="node15" class="node">
<title>Node15</title>
<g id="a_node15"><a xlink:title="STL class.">
<polygon fill="none" stroke="#bfbfbf" points="358,-139.5 358,-158.5 525,-158.5 525,-139.5 358,-139.5"/>
<text text-anchor="middle" x="441.5" y="-146.5" font-family="Helvetica,sans-Serif" font-size="10.00" fill="#000000">std::unique_ptr&lt; T &gt;</text>
</a>
</g>
</g>
<!-- Node4&#45;&gt;Node15 -->
<g id="edge19" class="edge">
<title>Node4&#45;&gt;Node15</title>
<path fill="none" stroke="#9a32cd" stroke-dasharray="5,2" d="M39.3948,-144.2915C100.2944,-145.0046 259.0116,-146.8631 357.8537,-148.0205"/>
<polygon fill="#9a32cd" stroke="#9a32cd" points="39.2386,-140.7895 29.1983,-144.1721 39.1566,-147.7891 39.2386,-140.7895"/>
<text text-anchor="middle" x="81" y="-149" font-family="Helvetica,sans-Serif" font-size="10.00" fill="#000000"> ptr</text>
</g>
<!-- Node5 -->
<g id="node5" class="node">
<title>Node5</title>
<g id="a_node5"><a xlink:href="structfractal_1_1_palette.html" target="_top" xlink:title=" ">
<polygon fill="none" stroke="#000000" points="1175,-38.5 1175,-57.5 1312,-57.5 1312,-38.5 1175,-38.5"/>
<text text-anchor="middle" x="1243.5" y="-45.5" font-family="Helvetica,sans-Serif" font-size="10.00" fill="#000000">fractal::Palette</text>
</a>
</g>
</g>
<!-- Node5&#45;&gt;Node1 -->
<g id="edge4" class="edge">
<title>Node5&#45;&gt;Node1</title>
<path fill="none" stroke="#9a32cd" stroke-dasharray="5,2" d="M1322.4672,-46.119C1403.8236,-45.8535 1533.8046,-50.1085 1643,-75 1670.0929,-81.1759 1699.8727,-92.949 1719.3024,-101.3503"/>
<polygon fill="#9a32cd" stroke="#9a32cd" points="1322.2806,-42.6199 1312.3006,-46.1766 1322.3203,-49.6198 1322.2806,-42.6199"/>
<text text-anchor="middle" x="1428.5" y="-60" font-family="Helvetica,sans-Serif" font-size="10.00" fill="#000000"> palette_</text>
</g>
<!-- Node6 -->
<g id="node6" class="node">
<title>Node6</title>
<g id="a_node6"><a xlink:title=" ">
<polygon fill="none" stroke="#bfbfbf" points="583.5,-29 583.5,-59 750.5,-59 750.5,-29 583.5,-29"/>
<text text-anchor="start" x="591.5" y="-47" font-family="Helvetica,sans-Serif" font-size="10.00" fill="#000000">std::vector&lt; fractal</text>
<text text-anchor="middle" x="667" y="-36" font-family="Helvetica,sans-Serif" font-size="10.00" fill="#000000">::Palette::Color &gt;</text>
</a>
</g>
</g>
<!-- Node6&#45;&gt;Node5 -->
<g id="edge5" class="edge">
<title>Node6&#45;&gt;Node5</title>
<path fill="none" stroke="#9a32cd" stroke-dasharray="5,2" d="M760.8103,-44.6509C876.8915,-45.4563 1071.7888,-46.8086 1174.8339,-47.5236"/>
<polygon fill="#9a32cd" stroke="#9a32cd" points="760.5441,-41.1491 750.52,-44.5795 760.4954,-48.1489 760.5441,-41.1491"/>
<text text-anchor="middle" x="885.5" y="-50" font-family="Helvetica,sans-Serif" font-size="10.00" fill="#000000"> generated_</text>
</g>
<!-- Node7 -->
<g id="node7" class="node">
<title>Node7</title>
<g id="a_node7"><a xlink:href="structfractal_1_1_palette_1_1_color.html" target="_top" xlink:title=" ">
<polygon fill="none" stroke="#000000" points="133,-.5 133,-19.5 322,-19.5 322,-.5 133,-.5"/>
<text text-anchor="middle" x="227.5" y="-7.5" font-family="Helvetica,sans-Serif" font-size="10.00" fill="#000000">fractal::Palette::Color</text>
</a>
</g>
</g>
<!-- Node7&#45;&gt;Node6 -->
<g id="edge6" class="edge">
<title>Node7&#45;&gt;Node6</title>
<path fill="none" stroke="#9a32cd" stroke-dasharray="5,2" d="M332.2701,-3.6267C393.8912,-1.5454 473.174,-1.755 543,-11 569.5012,-14.5088 598.4037,-21.9791 621.6331,-28.926"/>
<polygon fill="#9a32cd" stroke="#9a32cd" points="332.014,-.1336 322.1477,-3.9944 332.2682,-7.129 332.014,-.1336"/>
<text text-anchor="middle" x="441.5" y="-14" font-family="Helvetica,sans-Serif" font-size="10.00" fill="#000000"> elements</text>
</g>
<!-- Node8&#45;&gt;Node6 -->
<g id="edge7" class="edge">
<title>Node8&#45;&gt;Node6</title>
<path fill="none" stroke="#ffa500" stroke-dasharray="5,2" d="M252.6128,-79.5024C274.7814,-67.5891 308.399,-51.6337 340,-45 421.3956,-27.9133 516.7199,-30.0553 583.3751,-35.014"/>
<polygon fill="#ffa500" stroke="#ffa500" points="250.6392,-76.5936 243.5669,-84.4825 254.0151,-82.7257 250.6392,-76.5936"/>
<text text-anchor="start" x="370" y="-59" font-family="Helvetica,sans-Serif" font-size="10.00" fill="#000000"> &lt; fractal::Palette</text>
<text text-anchor="middle" x="441.5" y="-48" font-family="Helvetica,sans-Serif" font-size="10.00" fill="#000000">::Color &gt;</text>
</g>
<!-- Node9 -->
<g id="node9" class="node">
<title>Node9</title>
<g id="a_node9"><a xlink:title=" ">
<polygon fill="none" stroke="#bfbfbf" points="791,-79.5 791,-98.5 980,-98.5 980,-79.5 791,-79.5"/>
<text text-anchor="middle" x="885.5" y="-86.5" font-family="Helvetica,sans-Serif" font-size="10.00" fill="#000000">std::vector&lt; uint32_t &gt;</text>
</a>
</g>
</g>
<!-- Node8&#45;&gt;Node9 -->
<g id="edge10" class="edge">
<title>Node8&#45;&gt;Node9</title>
<path fill="none" stroke="#ffa500" stroke-dasharray="5,2" d="M306.4626,-90.0467C317.717,-89.6125 329.1506,-89.241 340,-89 498.1181,-85.488 682.0803,-86.5581 790.8806,-87.7266"/>
<polygon fill="#ffa500" stroke="#ffa500" points="306.0499,-86.5604 296.1993,-90.4611 306.3324,-93.5547 306.0499,-86.5604"/>
<text text-anchor="middle" x="441.5" y="-92" font-family="Helvetica,sans-Serif" font-size="10.00" fill="#000000"> &lt; uint32_t &gt;</text>
</g>
<!-- Node13 -->
<g id="node13" class="node">
<title>Node13</title>
<g id="a_node13"><a xlink:title=" ">
<polygon fill="none" stroke="#bfbfbf" points="561,-157.5 561,-176.5 773,-176.5 773,-157.5 561,-157.5"/>
<text text-anchor="middle" x="667" y="-164.5" font-family="Helvetica,sans-Serif" font-size="10.00" fill="#000000">std::vector&lt; std::thread &gt;</text>
</a>
</g>
</g>
<!-- Node8&#45;&gt;Node13 -->
<g id="edge17" class="edge">
<title>Node8&#45;&gt;Node13</title>
<path fill="none" stroke="#ffa500" stroke-dasharray="5,2" d="M306.3124,-99.9236C392.2163,-106.5506 520.5045,-117.0092 543,-122 580.3377,-130.2836 621.7299,-146.9095 645.9975,-157.4686"/>
<polygon fill="#ffa500" stroke="#ffa500" points="306.5561,-96.4321 296.3171,-99.1551 306.0193,-103.4115 306.5561,-96.4321"/>
<text text-anchor="middle" x="441.5" y="-125" font-family="Helvetica,sans-Serif" font-size="10.00" fill="#000000"> &lt; std::thread &gt;</text>
</g>
<!-- Node9&#45;&gt;Node1 -->
<g id="edge9" class="edge">
<title>Node9&#45;&gt;Node1</title>
<path fill="none" stroke="#9a32cd" stroke-dasharray="5,2" d="M990.4152,-91.6996C1163.644,-96.1569 1505.7151,-104.9587 1660.7641,-108.9483"/>
<polygon fill="#9a32cd" stroke="#9a32cd" points="990.3535,-88.1969 980.2667,-91.4384 990.1734,-95.1946 990.3535,-88.1969"/>
<text text-anchor="middle" x="1243.5" y="-103" font-family="Helvetica,sans-Serif" font-size="10.00" fill="#000000"> pixels_</text>
</g>
<!-- Node10 -->
<g id="node10" class="node">
<title>Node10</title>
<g id="a_node10"><a xlink:title=" ">
<polygon fill="none" stroke="#bfbfbf" points="1330,-118 1330,-148 1527,-148 1527,-118 1330,-118"/>
<text text-anchor="start" x="1338" y="-136" font-family="Helvetica,sans-Serif" font-size="10.00" fill="#000000">std::unique_ptr&lt; fractal</text>
<text text-anchor="middle" x="1428.5" y="-125" font-family="Helvetica,sans-Serif" font-size="10.00" fill="#000000">::ThreadPool &gt;</text>
</a>
</g>
</g>
<!-- Node10&#45;&gt;Node1 -->
<g id="edge11" class="edge">
<title>Node10&#45;&gt;Node1</title>
<path fill="none" stroke="#9a32cd" stroke-dasharray="5,2" d="M1537.4402,-125.3183C1578.0728,-122.4532 1623.4049,-119.2567 1660.9114,-116.612"/>
<polygon fill="#9a32cd" stroke="#9a32cd" points="1536.9478,-121.8443 1527.2188,-126.0391 1537.4402,-128.8269 1536.9478,-121.8443"/>
<text text-anchor="middle" x="1594" y="-128" font-family="Helvetica,sans-Serif" font-size="10.00" fill="#000000"> thread_pool_</text>
</g>
<!-- Node11 -->
<g id="node11" class="node">
<title>Node11</title>
<g id="a_node11"><a xlink:href="structfractal_1_1_thread_pool.html" target="_top" xlink:title=" ">
<polygon fill="none" stroke="#000000" points="998,-157.5 998,-176.5 1157,-176.5 1157,-157.5 998,-157.5"/>
<text text-anchor="middle" x="1077.5" y="-164.5" font-family="Helvetica,sans-Serif" font-size="10.00" fill="#000000">fractal::ThreadPool</text>
</a>
</g>
</g>
<!-- Node11&#45;&gt;Node10 -->
<g id="edge12" class="edge">
<title>Node11&#45;&gt;Node10</title>
<path fill="none" stroke="#9a32cd" stroke-dasharray="5,2" d="M1167.2301,-158.3082C1216.8876,-153.4981 1278.6933,-147.5112 1329.7234,-142.5681"/>
<polygon fill="#9a32cd" stroke="#9a32cd" points="1166.7633,-154.8369 1157.1473,-159.2849 1167.4382,-161.8043 1166.7633,-154.8369"/>
<text text-anchor="middle" x="1243.5" y="-160" font-family="Helvetica,sans-Serif" font-size="10.00" fill="#000000"> ptr</text>
</g>
<!-- Node12&#45;&gt;Node11 -->
<g id="edge13" class="edge">
<title>Node12&#45;&gt;Node11</title>
<path fill="none" stroke="#9a32cd" stroke-dasharray="5,2" d="M779.2238,-202.2507C838.9406,-197.1791 913.5656,-190.1804 980,-182 992.7484,-180.4302 1006.3955,-178.4928 1019.3206,-176.5378"/>
<polygon fill="#9a32cd" stroke="#9a32cd" points="778.6845,-198.7836 769.0138,-203.1113 779.2725,-205.7589 778.6845,-198.7836"/>
<text text-anchor="middle" x="885.5" y="-203" font-family="Helvetica,sans-Serif" font-size="10.00" fill="#000000"> tasks_</text>
</g>
<!-- Node13&#45;&gt;Node11 -->
<g id="edge15" class="edge">
<title>Node13&#45;&gt;Node11</title>
<path fill="none" stroke="#9a32cd" stroke-dasharray="5,2" d="M783.2485,-167C851.8736,-167 936.9611,-167 997.9585,-167"/>
<polygon fill="#9a32cd" stroke="#9a32cd" points="783.2478,-163.5001 773.2478,-167 783.2478,-170.5001 783.2478,-163.5001"/>
<text text-anchor="middle" x="885.5" y="-170" font-family="Helvetica,sans-Serif" font-size="10.00" fill="#000000"> workers_</text>
</g>
<!-- Node14 -->
<g id="node14" class="node">
<title>Node14</title>
<g id="a_node14"><a xlink:title="STL class.">
<polygon fill="none" stroke="#bfbfbf" points="178,-172.5 178,-191.5 277,-191.5 277,-172.5 178,-172.5"/>
<text text-anchor="middle" x="227.5" y="-179.5" font-family="Helvetica,sans-Serif" font-size="10.00" fill="#000000">std::thread</text>
</a>
</g>
</g>
<!-- Node14&#45;&gt;Node13 -->
<g id="edge16" class="edge">
<title>Node14&#45;&gt;Node13</title>
<path fill="none" stroke="#9a32cd" stroke-dasharray="5,2" d="M287.4873,-179.9527C357.6817,-177.5569 475.2003,-173.5461 560.9005,-170.6211"/>
<polygon fill="#9a32cd" stroke="#9a32cd" points="286.9367,-176.4693 277.0619,-180.3085 287.1755,-183.4652 286.9367,-176.4693"/>
<text text-anchor="middle" x="441.5" y="-181" font-family="Helvetica,sans-Serif" font-size="10.00" fill="#000000"> elements</text>
</g>
<!-- Node15&#45;&gt;Node10 -->
<g id="edge18" class="edge">
<title>Node15&#45;&gt;Node10</title>
<path fill="none" stroke="#ffa500" stroke-dasharray="5,2" d="M535.2971,-147.4795C722.0525,-144.452 1138.7918,-137.6964 1329.6301,-134.6028"/>
<polygon fill="#ffa500" stroke="#ffa500" points="535.1672,-143.981 525.2253,-147.6428 535.2807,-150.9801 535.1672,-143.981"/>
<text text-anchor="middle" x="885.5" y="-147" font-family="Helvetica,sans-Serif" font-size="10.00" fill="#000000"> &lt; fractal::ThreadPool &gt;</text>
</g>
</g>
</svg>
