<?xml version="1.0" encoding="UTF-8" standalone="no"?>
<!DOCTYPE svg PUBLIC "-//W3C//DTD SVG 1.1//EN"
 "http://www.w3.org/Graphics/SVG/1.1/DTD/svg11.dtd">
<!-- Generated by graphviz version 2.40.1 (0)
 -->
<!-- Title: fractal::ThreadPool Pages: 1 -->
<svg width="530pt" height="240pt"
 viewBox="0.00 0.00 529.50 240.00" xmlns="http://www.w3.org/2000/svg" xmlns:xlink="http://www.w3.org/1999/xlink">
<g id="graph0" class="graph" transform="scale(1 1) rotate(0) translate(4 236)">
<title>fractal::ThreadPool</title>
<!-- Node1 -->
<g id="node1" class="node">
<title>Node1</title>
<g id="a_node1"><a xlink:title=" ">
<polygon fill="#bfbfbf" stroke="#000000" points="135.5,-.5 135.5,-19.5 294.5,-19.5 294.5,-.5 135.5,-.5"/>
<text text-anchor="middle" x="215" y="-7.5" font-family="Helvetica,sans-Serif" font-size="10.00" fill="#000000">fractal::ThreadPool</text>
</a>
</g>
</g>
<!-- Node2 -->
<g id="node2" class="node">
<title>Node2</title>
<g id="a_node2"><a xlink:title=" ">
<polygon fill="none" stroke="#bfbfbf" points="0,-67.5 0,-97.5 204,-97.5 204,-67.5 0,-67.5"/>
<text text-anchor="start" x="8" y="-85.5" font-family="Helvetica,sans-Serif" font-size="10.00" fill="#000000">std::queue&lt; std::function</text>
<text text-anchor="middle" x="102" y="-74.5" font-family="Helvetica,sans-Serif" font-size="10.00" fill="#000000">&lt; void()&gt; &gt;</text>
</a>
</g>
</g>
<!-- Node2&#45;&gt;Node1 -->
<g id="edge1" class="edge">
<title>Node2&#45;&gt;Node1</title>
<path fill="none" stroke="#9a32cd" stroke-dasharray="5,2" d="M133.9654,-61.9912C155.5801,-48.1234 183.1401,-30.4411 199.9087,-19.6825"/>
<polygon fill="#9a32cd" stroke="#9a32cd" points="131.9403,-59.132 125.4137,-67.478 135.7203,-65.0237 131.9403,-59.132"/>
<text text-anchor="middle" x="195.5" y="-41" font-family="Helvetica,sans-Serif" font-size="10.00" fill="#000000"> tasks_</text>
</g>
<!-- Node3 -->
<g id="node3" class="node">
<title>Node3</title>
<g id="a_node3"><a xlink:title="STL class.">
<polygon fill="none" stroke="#bfbfbf" points="56.5,-145.5 56.5,-164.5 185.5,-164.5 185.5,-145.5 56.5,-145.5"/>
<text text-anchor="middle" x="121" y="-152.5" font-family="Helvetica,sans-Serif" font-size="10.00" fill="#000000">std::queue&lt; T &gt;</text>
</a>
</g>
</g>
<!-- Node3&#45;&gt;Node2 -->
<g id="edge2" class="edge">
<title>Node3&#45;&gt;Node2</title>
<path fill="none" stroke="#ffa500" stroke-dasharray="5,2" d="M107.2867,-136.724C105.5421,-133.6152 104.0144,-130.3157 103,-127 100.1062,-117.5414 99.8562,-106.4164 100.3296,-97.656"/>
<polygon fill="#ffa500" stroke="#ffa500" points="104.4845,-138.8347 112.8751,-145.3038 110.35,-135.0143 104.4845,-138.8347"/>
<text text-anchor="middle" x="204.5" y="-119" font-family="Helvetica,sans-Serif" font-size="10.00" fill="#000000"> &lt; std::function&lt; void()&gt; &gt;</text>
</g>
<!-- Node4 -->
<g id="node4" class="node">
<title>Node4</title>
<g id="a_node4"><a xlink:title=" ">
<polygon fill="none" stroke="#bfbfbf" points="181.5,-212.5 181.5,-231.5 210.5,-231.5 210.5,-212.5 181.5,-212.5"/>
<text text-anchor="middle" x="196" y="-219.5" font-family="Helvetica,sans-Serif" font-size="10.00" fill="#000000">T</text>
</a>
</g>
</g>
<!-- Node4&#45;&gt;Node3 -->
<g id="edge3" class="edge">
<title>Node4&#45;&gt;Node3</title>
<path fill="none" stroke="#9a32cd" stroke-dasharray="5,2" d="M177.4627,-205.44C163.076,-192.5879 143.6357,-175.2212 131.7257,-164.5817"/>
<polygon fill="#9a32cd" stroke="#9a32cd" points="175.4649,-208.3485 185.2543,-212.4005 180.1285,-203.1282 175.4649,-208.3485"/>
<text text-anchor="middle" x="197" y="-186" font-family="Helvetica,sans-Serif" font-size="10.00" fill="#000000"> elements</text>
</g>
<!-- Node7 -->
<g id="node7" class="node">
<title>Node7</title>
<g id="a_node7"><a xlink:title="STL class.">
<polygon fill="none" stroke="#bfbfbf" points="222.5,-145.5 222.5,-164.5 359.5,-164.5 359.5,-145.5 222.5,-145.5"/>
<text text-anchor="middle" x="291" y="-152.5" font-family="Helvetica,sans-Serif" font-size="10.00" fill="#000000">std::vector&lt; T &gt;</text>
</a>
</g>
</g>
<!-- Node4&#45;&gt;Node7 -->
<g id="edge7" class="edge">
<title>Node4&#45;&gt;Node7</title>
<path fill="none" stroke="#9a32cd" stroke-dasharray="5,2" d="M217.9632,-206.5102C236.3154,-193.567 261.9051,-175.5195 277.4141,-164.5817"/>
<polygon fill="#9a32cd" stroke="#9a32cd" points="215.766,-203.7768 209.6112,-212.4005 219.8005,-209.4973 215.766,-203.7768"/>
<text text-anchor="middle" x="284" y="-186" font-family="Helvetica,sans-Serif" font-size="10.00" fill="#000000"> elements</text>
</g>
<!-- Node5 -->
<g id="node5" class="node">
<title>Node5</title>
<g id="a_node5"><a xlink:title=" ">
<polygon fill="none" stroke="#bfbfbf" points="222,-73 222,-92 434,-92 434,-73 222,-73"/>
<text text-anchor="middle" x="328" y="-80" font-family="Helvetica,sans-Serif" font-size="10.00" fill="#000000">std::vector&lt; std::thread &gt;</text>
</a>
</g>
</g>
<!-- Node5&#45;&gt;Node1 -->
<g id="edge4" class="edge">
<title>Node5&#45;&gt;Node1</title>
<path fill="none" stroke="#9a32cd" stroke-dasharray="5,2" d="M304.1608,-67.2049C281.765,-52.836 248.9422,-31.7771 229.9982,-19.6228"/>
<polygon fill="#9a32cd" stroke="#9a32cd" points="302.4536,-70.2681 312.7603,-72.7223 306.2337,-64.3764 302.4536,-70.2681"/>
<text text-anchor="middle" x="309" y="-41" font-family="Helvetica,sans-Serif" font-size="10.00" fill="#000000"> workers_</text>
</g>
<!-- Node6 -->
<g id="node6" class="node">
<title>Node6</title>
<g id="a_node6"><a xlink:title="STL class.">
<polygon fill="none" stroke="#bfbfbf" points="422.5,-145.5 422.5,-164.5 521.5,-164.5 521.5,-145.5 422.5,-145.5"/>
<text text-anchor="middle" x="472" y="-152.5" font-family="Helvetica,sans-Serif" font-size="10.00" fill="#000000">std::thread</text>
</a>
</g>
</g>
<!-- Node6&#45;&gt;Node5 -->
<g id="edge5" class="edge">
<title>Node6&#45;&gt;Node5</title>
<path fill="none" stroke="#9a32cd" stroke-dasharray="5,2" d="M459.4051,-137.0971C453.3748,-129.6571 445.5946,-121.4942 437,-116 419.4858,-104.8039 398.0018,-97.1564 378.7509,-92.0301"/>
<polygon fill="#9a32cd" stroke="#9a32cd" points="456.7922,-139.4438 465.6244,-145.2956 462.3691,-135.2132 456.7922,-139.4438"/>
<text text-anchor="middle" x="484" y="-119" font-family="Helvetica,sans-Serif" font-size="10.00" fill="#000000"> elements</text>
</g>
<!-- Node7&#45;&gt;Node5 -->
<g id="edge6" class="edge">
<title>Node7&#45;&gt;Node5</title>
<path fill="none" stroke="#ffa500" stroke-dasharray="5,2" d="M301.01,-136.5195C302.6936,-133.3532 304.4096,-130.0889 306,-127 312.1544,-115.0468 318.9775,-101.1371 323.3691,-92.0939"/>
<polygon fill="#ffa500" stroke="#ffa500" points="297.8614,-134.985 296.2151,-145.4512 304.0288,-138.296 297.8614,-134.985"/>
<text text-anchor="middle" x="372.5" y="-119" font-family="Helvetica,sans-Serif" font-size="10.00" fill="#000000"> &lt; std::thread &gt;</text>
</g>
</g>
</svg>
