<?xml version="1.0" encoding="UTF-8" standalone="no"?>
<!DOCTYPE svg PUBLIC "-//W3C//DTD SVG 1.1//EN"
 "http://www.w3.org/Graphics/SVG/1.1/DTD/svg11.dtd">
<!-- Generated by graphviz version 2.40.1 (0)
 -->
<!-- Title: fractal::MainWindow Pages: 1 -->
<svg width="2249pt" height="553pt"
 viewBox="0.00 0.00 2249.00 553.08" xmlns="http://www.w3.org/2000/svg" xmlns:xlink="http://www.w3.org/1999/xlink">
<g id="graph0" class="graph" transform="scale(1 1) rotate(0) translate(4 549.0838)">
<title>fractal::MainWindow</title>
<!-- Node1 -->
<g id="node1" class="node">
<title>Node1</title>
<g id="a_node1"><a xlink:title=" ">
<polygon fill="#bfbfbf" stroke="#000000" points="2082,-250 2082,-269 2241,-269 2241,-250 2082,-250"/>
<text text-anchor="middle" x="2161.5" y="-257" font-family="Helvetica,sans-Serif" font-size="10.00" fill="#000000">fractal::MainWindow</text>
</a>
</g>
</g>
<!-- Node2 -->
<g id="node2" class="node">
<title>Node2</title>
<g id="a_node2"><a xlink:href="structfractal_1_1_glfw_window.html" target="_top" xlink:title=" ">
<polygon fill="none" stroke="#000000" points="1784.5,-456 1784.5,-475 1943.5,-475 1943.5,-456 1784.5,-456"/>
<text text-anchor="middle" x="1864" y="-463" font-family="Helvetica,sans-Serif" font-size="10.00" fill="#000000">fractal::GlfwWindow</text>
</a>
</g>
</g>
<!-- Node2&#45;&gt;Node1 -->
<g id="edge1" class="edge">
<title>Node2&#45;&gt;Node1</title>
<path fill="none" stroke="#9a32cd" stroke-dasharray="5,2" d="M1899.0863,-452.252C1940.7864,-435.5351 2011.3395,-404.1212 2064,-364.5 2102.9612,-335.1859 2139.4158,-289.21 2154.3637,-269.269"/>
<polygon fill="#9a32cd" stroke="#9a32cd" points="1897.6515,-449.0556 1889.6376,-455.9858 1900.2241,-455.5657 1897.6515,-449.0556"/>
<text text-anchor="middle" x="2018.5" y="-420.5" font-family="Helvetica,sans-Serif" font-size="10.00" fill="#000000"> window_</text>
</g>
<!-- Node3 -->
<g id="node3" class="node">
<title>Node3</title>
<g id="a_node3"><a xlink:title=" ">
<polygon fill="none" stroke="#bfbfbf" points="1397,-450.5 1397,-480.5 1624,-480.5 1624,-450.5 1397,-450.5"/>
<text text-anchor="start" x="1405" y="-468.5" font-family="Helvetica,sans-Serif" font-size="10.00" fill="#000000">std::unique_ptr&lt; GLFWwindow,</text>
<text text-anchor="middle" x="1510.5" y="-457.5" font-family="Helvetica,sans-Serif" font-size="10.00" fill="#000000"> void(*)(GLFWwindow *)&gt;</text>
</a>
</g>
</g>
<!-- Node3&#45;&gt;Node2 -->
<g id="edge2" class="edge">
<title>Node3&#45;&gt;Node2</title>
<path fill="none" stroke="#9a32cd" stroke-dasharray="5,2" d="M1634.4829,-465.5C1684.2249,-465.5 1740.1053,-465.5 1784.2735,-465.5"/>
<polygon fill="#9a32cd" stroke="#9a32cd" points="1634.2955,-462.0001 1624.2954,-465.5 1634.2954,-469.0001 1634.2955,-462.0001"/>
<text text-anchor="middle" x="1698.5" y="-468.5" font-family="Helvetica,sans-Serif" font-size="10.00" fill="#000000"> window_</text>
</g>
<!-- Node4 -->
<g id="node4" class="node">
<title>Node4</title>
<g id="a_node4"><a xlink:title="STL class.">
<polygon fill="none" stroke="#bfbfbf" points="1005.5,-459 1005.5,-478 1172.5,-478 1172.5,-459 1005.5,-459"/>
<text text-anchor="middle" x="1089" y="-466" font-family="Helvetica,sans-Serif" font-size="10.00" fill="#000000">std::unique_ptr&lt; T &gt;</text>
</a>
</g>
</g>
<!-- Node4&#45;&gt;Node3 -->
<g id="edge3" class="edge">
<title>Node4&#45;&gt;Node3</title>
<path fill="none" stroke="#ffa500" stroke-dasharray="5,2" d="M1182.8869,-467.8318C1246.1008,-467.3818 1329.827,-466.7859 1396.8138,-466.3092"/>
<polygon fill="#ffa500" stroke="#ffa500" points="1182.5015,-464.3343 1172.5267,-467.9055 1182.5514,-471.3341 1182.5015,-464.3343"/>
<text text-anchor="start" x="1217" y="-481.5" font-family="Helvetica,sans-Serif" font-size="10.00" fill="#000000"> &lt; GLFWwindow, void</text>
<text text-anchor="middle" x="1288.5" y="-470.5" font-family="Helvetica,sans-Serif" font-size="10.00" fill="#000000">(*)(GLFWwindow *)&gt;</text>
</g>
<!-- Node17 -->
<g id="node17" class="node">
<title>Node17</title>
<g id="a_node17"><a xlink:title=" ">
<polygon fill="none" stroke="#bfbfbf" points="1412,-388.5 1412,-418.5 1609,-418.5 1609,-388.5 1412,-388.5"/>
<text text-anchor="start" x="1420" y="-406.5" font-family="Helvetica,sans-Serif" font-size="10.00" fill="#000000">std::unique_ptr&lt; fractal</text>
<text text-anchor="middle" x="1510.5" y="-395.5" font-family="Helvetica,sans-Serif" font-size="10.00" fill="#000000">::ThreadPool &gt;</text>
</a>
</g>
</g>
<!-- Node4&#45;&gt;Node17 -->
<g id="edge27" class="edge">
<title>Node4&#45;&gt;Node17</title>
<path fill="none" stroke="#ffa500" stroke-dasharray="5,2" d="M1155.8318,-457.3076C1169.7613,-455.0186 1184.3555,-452.6526 1198,-450.5 1269.5353,-439.2146 1350.3839,-427.0714 1411.9225,-417.9555"/>
<polygon fill="#ffa500" stroke="#ffa500" points="1155.1269,-453.8765 1145.8294,-458.9566 1156.2656,-460.7832 1155.1269,-453.8765"/>
<text text-anchor="middle" x="1288.5" y="-453.5" font-family="Helvetica,sans-Serif" font-size="10.00" fill="#000000"> &lt; fractal::ThreadPool &gt;</text>
</g>
<!-- Node5 -->
<g id="node5" class="node">
<title>Node5</title>
<g id="a_node5"><a xlink:title=" ">
<polygon fill="none" stroke="#bfbfbf" points="0,-408 0,-427 29,-427 29,-408 0,-408"/>
<text text-anchor="middle" x="14.5" y="-415" font-family="Helvetica,sans-Serif" font-size="10.00" fill="#000000">T</text>
</a>
</g>
</g>
<!-- Node5&#45;&gt;Node4 -->
<g id="edge4" class="edge">
<title>Node5&#45;&gt;Node4</title>
<path fill="none" stroke="#9a32cd" stroke-dasharray="5,2" d="M38.4663,-429.7864C41.2882,-430.8635 44.1709,-431.8062 47,-432.5 227.8552,-476.8549 791.081,-473.167 1005.2229,-470.0103"/>
<polygon fill="#9a32cd" stroke="#9a32cd" points="39.8385,-426.5665 29.2734,-425.7727 37.0375,-432.9817 39.8385,-426.5665"/>
<text text-anchor="middle" x="441.5" y="-471.5" font-family="Helvetica,sans-Serif" font-size="10.00" fill="#000000"> ptr</text>
</g>
<!-- Node8 -->
<g id="node8" class="node">
<title>Node8</title>
<g id="a_node8"><a xlink:title="STL class.">
<polygon fill="none" stroke="#bfbfbf" points="358,-511 358,-530 525,-530 525,-511 358,-511"/>
<text text-anchor="middle" x="441.5" y="-518" font-family="Helvetica,sans-Serif" font-size="10.00" fill="#000000">std::shared_ptr&lt; T &gt;</text>
</a>
</g>
</g>
<!-- Node5&#45;&gt;Node8 -->
<g id="edge8" class="edge">
<title>Node5&#45;&gt;Node8</title>
<path fill="none" stroke="#9a32cd" stroke-dasharray="5,2" d="M17.534,-437.0975C21.2998,-454.2075 29.5121,-478.1751 47,-490.5 154.7981,-566.4725 322.8053,-545.3613 400.0715,-530.0573"/>
<polygon fill="#9a32cd" stroke="#9a32cd" points="20.9305,-436.2197 15.6486,-427.0354 14.0502,-437.5089 20.9305,-436.2197"/>
<text text-anchor="middle" x="81" y="-526.5" font-family="Helvetica,sans-Serif" font-size="10.00" fill="#000000"> ptr</text>
</g>
<!-- Node11 -->
<g id="node11" class="node">
<title>Node11</title>
<g id="a_node11"><a xlink:title="STL class.">
<polygon fill="none" stroke="#bfbfbf" points="163,-408 163,-427 292,-427 292,-408 163,-408"/>
<text text-anchor="middle" x="227.5" y="-415" font-family="Helvetica,sans-Serif" font-size="10.00" fill="#000000">std::queue&lt; T &gt;</text>
</a>
</g>
</g>
<!-- Node5&#45;&gt;Node11 -->
<g id="edge12" class="edge">
<title>Node5&#45;&gt;Node11</title>
<path fill="none" stroke="#9a32cd" stroke-dasharray="5,2" d="M39.1615,-417.5C69.2085,-417.5 121.1249,-417.5 162.8499,-417.5"/>
<polygon fill="#9a32cd" stroke="#9a32cd" points="39.1404,-414.0001 29.1404,-417.5 39.1403,-421.0001 39.1404,-414.0001"/>
<text text-anchor="middle" x="81" y="-420.5" font-family="Helvetica,sans-Serif" font-size="10.00" fill="#000000"> elements</text>
</g>
<!-- Node15 -->
<g id="node15" class="node">
<title>Node15</title>
<g id="a_node15"><a xlink:title="STL class.">
<polygon fill="none" stroke="#bfbfbf" points="159,-302 159,-321 296,-321 296,-302 159,-302"/>
<text text-anchor="middle" x="227.5" y="-309" font-family="Helvetica,sans-Serif" font-size="10.00" fill="#000000">std::vector&lt; T &gt;</text>
</a>
</g>
</g>
<!-- Node5&#45;&gt;Node15 -->
<g id="edge17" class="edge">
<title>Node5&#45;&gt;Node15</title>
<path fill="none" stroke="#9a32cd" stroke-dasharray="5,2" d="M36.6568,-402.1769C59.9144,-386.544 97.9083,-362.2645 133,-345.5 153.4525,-335.7292 177.502,-327.1141 196.2211,-321.0007"/>
<polygon fill="#9a32cd" stroke="#9a32cd" points="34.523,-399.3951 28.2151,-407.9076 38.4546,-405.1867 34.523,-399.3951"/>
<text text-anchor="middle" x="81" y="-397.5" font-family="Helvetica,sans-Serif" font-size="10.00" fill="#000000"> elements</text>
</g>
<!-- Node26 -->
<g id="node26" class="node">
<title>Node26</title>
<g id="a_node26"><a xlink:title="STL class.">
<polygon fill="none" stroke="#bfbfbf" points="163,-170 163,-189 292,-189 292,-170 163,-170"/>
<text text-anchor="middle" x="227.5" y="-177" font-family="Helvetica,sans-Serif" font-size="10.00" fill="#000000">std::array&lt; T &gt;</text>
</a>
</g>
</g>
<!-- Node5&#45;&gt;Node26 -->
<g id="edge34" class="edge">
<title>Node5&#45;&gt;Node26</title>
<path fill="none" stroke="#9a32cd" stroke-dasharray="5,2" d="M18.8661,-397.8111C29.7045,-353.9581 62.2323,-248.2066 133,-198.5 141.7642,-192.3441 152.0526,-188.0786 162.5552,-185.1432"/>
<polygon fill="#9a32cd" stroke="#9a32cd" points="15.4572,-397.0183 16.5679,-407.5547 22.2702,-398.6253 15.4572,-397.0183"/>
<text text-anchor="middle" x="81" y="-311.5" font-family="Helvetica,sans-Serif" font-size="10.00" fill="#000000"> elements</text>
</g>
<!-- Node6 -->
<g id="node6" class="node">
<title>Node6</title>
<g id="a_node6"><a xlink:href="structfractal_1_1_glfw_handle.html" target="_top" xlink:title=" ">
<polygon fill="none" stroke="#000000" points="1431,-500 1431,-519 1590,-519 1590,-500 1431,-500"/>
<text text-anchor="middle" x="1510.5" y="-507" font-family="Helvetica,sans-Serif" font-size="10.00" fill="#000000">fractal::GlfwHandle</text>
</a>
</g>
</g>
<!-- Node6&#45;&gt;Node2 -->
<g id="edge5" class="edge">
<title>Node6&#45;&gt;Node2</title>
<path fill="none" stroke="#9a32cd" stroke-dasharray="5,2" d="M1600.1051,-499.2785C1646.3829,-493.8965 1703.7479,-487.0654 1755,-480.5 1768.3577,-478.7889 1782.6248,-476.8826 1796.2874,-475.0184"/>
<polygon fill="#9a32cd" stroke="#9a32cd" points="1599.6339,-495.8096 1590.104,-500.4392 1600.4409,-502.763 1599.6339,-495.8096"/>
<text text-anchor="middle" x="1698.5" y="-496.5" font-family="Helvetica,sans-Serif" font-size="10.00" fill="#000000"> glfw_handle_</text>
</g>
<!-- Node22 -->
<g id="node22" class="node">
<title>Node22</title>
<g id="a_node22"><a xlink:href="structfractal_1_1_main_window_1_1_glfw.html" target="_top" xlink:title=" ">
<polygon fill="none" stroke="#000000" points="1784.5,-378.5 1784.5,-408.5 1943.5,-408.5 1943.5,-378.5 1784.5,-378.5"/>
<text text-anchor="start" x="1792.5" y="-396.5" font-family="Helvetica,sans-Serif" font-size="10.00" fill="#000000">fractal::MainWindow</text>
<text text-anchor="middle" x="1864" y="-385.5" font-family="Helvetica,sans-Serif" font-size="10.00" fill="#000000">::Glfw</text>
</a>
</g>
</g>
<!-- Node6&#45;&gt;Node22 -->
<g id="edge29" class="edge">
<title>Node6&#45;&gt;Node22</title>
<path fill="none" stroke="#9a32cd" stroke-dasharray="5,2" d="M1599.6893,-503.4289C1608.4321,-500.3025 1616.7383,-496.0999 1624,-490.5 1639.4377,-478.5951 1627.0849,-463.0535 1642,-450.5 1663.6532,-432.2753 1729.7878,-416.7048 1784.2848,-406.4658"/>
<polygon fill="#9a32cd" stroke="#9a32cd" points="1598.5749,-500.1099 1590.0598,-506.4141 1600.6477,-506.796 1598.5749,-500.1099"/>
<text text-anchor="middle" x="1698.5" y="-453.5" font-family="Helvetica,sans-Serif" font-size="10.00" fill="#000000"> handle_</text>
</g>
<!-- Node7 -->
<g id="node7" class="node">
<title>Node7</title>
<g id="a_node7"><a xlink:title=" ">
<polygon fill="none" stroke="#bfbfbf" points="791,-511 791,-530 980,-530 980,-511 791,-511"/>
<text text-anchor="middle" x="885.5" y="-518" font-family="Helvetica,sans-Serif" font-size="10.00" fill="#000000">std::shared_ptr&lt; void &gt;</text>
</a>
</g>
</g>
<!-- Node7&#45;&gt;Node6 -->
<g id="edge6" class="edge">
<title>Node7&#45;&gt;Node6</title>
<path fill="none" stroke="#9a32cd" stroke-dasharray="5,2" d="M990.3736,-518.6542C1114.6672,-516.4667 1318.9945,-512.8705 1430.9744,-510.8997"/>
<polygon fill="#9a32cd" stroke="#9a32cd" points="990.0214,-515.1598 980.0846,-518.8353 990.1446,-522.1587 990.0214,-515.1598"/>
<text text-anchor="middle" x="1089" y="-521.5" font-family="Helvetica,sans-Serif" font-size="10.00" fill="#000000"> instance_</text>
</g>
<!-- Node8&#45;&gt;Node7 -->
<g id="edge7" class="edge">
<title>Node8&#45;&gt;Node7</title>
<path fill="none" stroke="#ffa500" stroke-dasharray="5,2" d="M535.4128,-520.5C610.5592,-520.5 715.4678,-520.5 790.8167,-520.5"/>
<polygon fill="#ffa500" stroke="#ffa500" points="535.013,-517.0001 525.013,-520.5 535.013,-524.0001 535.013,-517.0001"/>
<text text-anchor="middle" x="667" y="-523.5" font-family="Helvetica,sans-Serif" font-size="10.00" fill="#000000"> &lt; void &gt;</text>
</g>
<!-- Node9 -->
<g id="node9" class="node">
<title>Node9</title>
<g id="a_node9"><a xlink:href="structfractal_1_1_mandelbrot.html" target="_top" xlink:title=" ">
<polygon fill="none" stroke="#000000" points="1784.5,-312 1784.5,-331 1943.5,-331 1943.5,-312 1784.5,-312"/>
<text text-anchor="middle" x="1864" y="-319" font-family="Helvetica,sans-Serif" font-size="10.00" fill="#000000">fractal::Mandelbrot</text>
</a>
</g>
</g>
<!-- Node9&#45;&gt;Node1 -->
<g id="edge9" class="edge">
<title>Node9&#45;&gt;Node1</title>
<path fill="none" stroke="#9a32cd" stroke-dasharray="5,2" d="M1919.6843,-309.8952C1976.2587,-298.1049 2062.854,-280.0582 2115.6155,-269.0625"/>
<polygon fill="#9a32cd" stroke="#9a32cd" points="1918.908,-306.4817 1909.8324,-311.9484 1920.3362,-313.3345 1918.908,-306.4817"/>
<text text-anchor="middle" x="2018.5" y="-300.5" font-family="Helvetica,sans-Serif" font-size="10.00" fill="#000000"> mandelbrot_</text>
</g>
<!-- Node10 -->
<g id="node10" class="node">
<title>Node10</title>
<g id="a_node10"><a xlink:title=" ">
<polygon fill="none" stroke="#bfbfbf" points="791,-344.5 791,-374.5 980,-374.5 980,-344.5 791,-344.5"/>
<text text-anchor="start" x="799" y="-362.5" font-family="Helvetica,sans-Serif" font-size="10.00" fill="#000000">std::queue&lt; std::future</text>
<text text-anchor="middle" x="885.5" y="-351.5" font-family="Helvetica,sans-Serif" font-size="10.00" fill="#000000">&lt; void &gt; &gt;</text>
</a>
</g>
</g>
<!-- Node10&#45;&gt;Node9 -->
<g id="edge10" class="edge">
<title>Node10&#45;&gt;Node9</title>
<path fill="none" stroke="#9a32cd" stroke-dasharray="5,2" d="M990.2661,-359.5257C1153.7841,-358.8809 1479.5094,-354.8474 1755,-334.5 1766.9738,-333.6156 1779.6554,-332.3792 1791.9715,-331.0176"/>
<polygon fill="#9a32cd" stroke="#9a32cd" points="990.1979,-356.0258 980.2105,-359.5619 990.2231,-363.0258 990.1979,-356.0258"/>
<text text-anchor="middle" x="1288.5" y="-359.5" font-family="Helvetica,sans-Serif" font-size="10.00" fill="#000000"> futures_</text>
</g>
<!-- Node11&#45;&gt;Node10 -->
<g id="edge11" class="edge">
<title>Node11&#45;&gt;Node10</title>
<path fill="none" stroke="#ffa500" stroke-dasharray="5,2" d="M302.0836,-410.0781C314.7346,-408.8562 327.7409,-407.6231 340,-406.5 532.3403,-388.8796 580.5839,-386.2728 773,-369.5 778.8603,-368.9892 784.892,-368.4607 790.9745,-367.9258"/>
<polygon fill="#ffa500" stroke="#ffa500" points="301.65,-406.6037 292.0348,-411.0533 302.3262,-413.5709 301.65,-406.6037"/>
<text text-anchor="middle" x="441.5" y="-409.5" font-family="Helvetica,sans-Serif" font-size="10.00" fill="#000000"> &lt; std::future&lt; void &gt; &gt;</text>
</g>
<!-- Node19 -->
<g id="node19" class="node">
<title>Node19</title>
<g id="a_node19"><a xlink:title=" ">
<polygon fill="none" stroke="#bfbfbf" points="565,-417.5 565,-447.5 769,-447.5 769,-417.5 565,-417.5"/>
<text text-anchor="start" x="573" y="-435.5" font-family="Helvetica,sans-Serif" font-size="10.00" fill="#000000">std::queue&lt; std::function</text>
<text text-anchor="middle" x="667" y="-424.5" font-family="Helvetica,sans-Serif" font-size="10.00" fill="#000000">&lt; void()&gt; &gt;</text>
</a>
</g>
</g>
<!-- Node11&#45;&gt;Node19 -->
<g id="edge23" class="edge">
<title>Node11&#45;&gt;Node19</title>
<path fill="none" stroke="#ffa500" stroke-dasharray="5,2" d="M302.7275,-420.0675C374.9607,-422.5328 484.6259,-426.2756 564.7582,-429.0105"/>
<polygon fill="#ffa500" stroke="#ffa500" points="302.4633,-416.5565 292.3497,-419.7133 302.2245,-423.5525 302.4633,-416.5565"/>
<text text-anchor="middle" x="441.5" y="-430.5" font-family="Helvetica,sans-Serif" font-size="10.00" fill="#000000"> &lt; std::function&lt; void()&gt; &gt;</text>
</g>
<!-- Node12 -->
<g id="node12" class="node">
<title>Node12</title>
<g id="a_node12"><a xlink:href="structfractal_1_1_palette.html" target="_top" xlink:title=" ">
<polygon fill="none" stroke="#000000" points="1220,-274 1220,-293 1357,-293 1357,-274 1220,-274"/>
<text text-anchor="middle" x="1288.5" y="-281" font-family="Helvetica,sans-Serif" font-size="10.00" fill="#000000">fractal::Palette</text>
</a>
</g>
</g>
<!-- Node12&#45;&gt;Node9 -->
<g id="edge13" class="edge">
<title>Node12&#45;&gt;Node9</title>
<path fill="none" stroke="#9a32cd" stroke-dasharray="5,2" d="M1367.2237,-284.9419C1460.1291,-287.2464 1619.1673,-293.081 1755,-307.5 1767.427,-308.8192 1780.6304,-310.3798 1793.3994,-311.9719"/>
<polygon fill="#9a32cd" stroke="#9a32cd" points="1367.1402,-281.439 1357.0589,-284.6974 1366.9718,-288.437 1367.1402,-281.439"/>
<text text-anchor="middle" x="1510.5" y="-298.5" font-family="Helvetica,sans-Serif" font-size="10.00" fill="#000000"> palette_</text>
</g>
<!-- Node13 -->
<g id="node13" class="node">
<title>Node13</title>
<g id="a_node13"><a xlink:title=" ">
<polygon fill="none" stroke="#bfbfbf" points="583.5,-236.5 583.5,-266.5 750.5,-266.5 750.5,-236.5 583.5,-236.5"/>
<text text-anchor="start" x="591.5" y="-254.5" font-family="Helvetica,sans-Serif" font-size="10.00" fill="#000000">std::vector&lt; fractal</text>
<text text-anchor="middle" x="667" y="-243.5" font-family="Helvetica,sans-Serif" font-size="10.00" fill="#000000">::Palette::Color &gt;</text>
</a>
</g>
</g>
<!-- Node13&#45;&gt;Node12 -->
<g id="edge14" class="edge">
<title>Node13&#45;&gt;Node12</title>
<path fill="none" stroke="#9a32cd" stroke-dasharray="5,2" d="M760.8537,-256.8597C771.028,-257.4224 781.2301,-257.9788 791,-258.5 944.069,-266.6664 1123.6718,-275.5091 1219.685,-280.1767"/>
<polygon fill="#9a32cd" stroke="#9a32cd" points="760.8846,-253.3561 750.7058,-256.296 760.4963,-260.3453 760.8846,-253.3561"/>
<text text-anchor="middle" x="885.5" y="-270.5" font-family="Helvetica,sans-Serif" font-size="10.00" fill="#000000"> generated_</text>
</g>
<!-- Node14 -->
<g id="node14" class="node">
<title>Node14</title>
<g id="a_node14"><a xlink:href="structfractal_1_1_palette_1_1_color.html" target="_top" xlink:title=" ">
<polygon fill="none" stroke="#000000" points="133,-208 133,-227 322,-227 322,-208 133,-208"/>
<text text-anchor="middle" x="227.5" y="-215" font-family="Helvetica,sans-Serif" font-size="10.00" fill="#000000">fractal::Palette::Color</text>
</a>
</g>
</g>
<!-- Node14&#45;&gt;Node13 -->
<g id="edge15" class="edge">
<title>Node14&#45;&gt;Node13</title>
<path fill="none" stroke="#9a32cd" stroke-dasharray="5,2" d="M332.2701,-211.1267C393.8912,-209.0454 473.174,-209.255 543,-218.5 569.5012,-222.0088 598.4037,-229.4791 621.6331,-236.426"/>
<polygon fill="#9a32cd" stroke="#9a32cd" points="332.014,-207.6336 322.1477,-211.4944 332.2682,-214.629 332.014,-207.6336"/>
<text text-anchor="middle" x="441.5" y="-221.5" font-family="Helvetica,sans-Serif" font-size="10.00" fill="#000000"> elements</text>
</g>
<!-- Node15&#45;&gt;Node13 -->
<g id="edge16" class="edge">
<title>Node15&#45;&gt;Node13</title>
<path fill="none" stroke="#ffa500" stroke-dasharray="5,2" d="M248.9529,-296.2102C270.699,-281.7198 305.9108,-260.9519 340,-252.5 420.8632,-232.4511 516.4724,-235.0594 583.3493,-240.9369"/>
<polygon fill="#ffa500" stroke="#ffa500" points="246.785,-293.4523 240.5001,-301.9818 250.7322,-299.2333 246.785,-293.4523"/>
<text text-anchor="start" x="370" y="-266.5" font-family="Helvetica,sans-Serif" font-size="10.00" fill="#000000"> &lt; fractal::Palette</text>
<text text-anchor="middle" x="441.5" y="-255.5" font-family="Helvetica,sans-Serif" font-size="10.00" fill="#000000">::Color &gt;</text>
</g>
<!-- Node16 -->
<g id="node16" class="node">
<title>Node16</title>
<g id="a_node16"><a xlink:title=" ">
<polygon fill="none" stroke="#bfbfbf" points="791,-306 791,-325 980,-325 980,-306 791,-306"/>
<text text-anchor="middle" x="885.5" y="-313" font-family="Helvetica,sans-Serif" font-size="10.00" fill="#000000">std::vector&lt; uint32_t &gt;</text>
</a>
</g>
</g>
<!-- Node15&#45;&gt;Node16 -->
<g id="edge19" class="edge">
<title>Node15&#45;&gt;Node16</title>
<path fill="none" stroke="#ffa500" stroke-dasharray="5,2" d="M306.4626,-307.5467C317.717,-307.1125 329.1506,-306.741 340,-306.5 498.1396,-302.9875 682.0953,-307.8877 790.8884,-311.7194"/>
<polygon fill="#ffa500" stroke="#ffa500" points="306.0499,-304.0604 296.1993,-307.9611 306.3324,-311.0547 306.0499,-304.0604"/>
<text text-anchor="middle" x="441.5" y="-309.5" font-family="Helvetica,sans-Serif" font-size="10.00" fill="#000000"> &lt; uint32_t &gt;</text>
</g>
<!-- Node20 -->
<g id="node20" class="node">
<title>Node20</title>
<g id="a_node20"><a xlink:title=" ">
<polygon fill="none" stroke="#bfbfbf" points="561,-341 561,-360 773,-360 773,-341 561,-341"/>
<text text-anchor="middle" x="667" y="-348" font-family="Helvetica,sans-Serif" font-size="10.00" fill="#000000">std::vector&lt; std::thread &gt;</text>
</a>
</g>
</g>
<!-- Node15&#45;&gt;Node20 -->
<g id="edge26" class="edge">
<title>Node15&#45;&gt;Node20</title>
<path fill="none" stroke="#ffa500" stroke-dasharray="5,2" d="M306.3969,-318.5011C377.4167,-324.8032 482.3621,-334.1157 560.7494,-341.0716"/>
<polygon fill="#ffa500" stroke="#ffa500" points="306.4421,-314.9914 296.1719,-317.5938 305.8233,-321.964 306.4421,-314.9914"/>
<text text-anchor="middle" x="441.5" y="-341.5" font-family="Helvetica,sans-Serif" font-size="10.00" fill="#000000"> &lt; std::thread &gt;</text>
</g>
<!-- Node16&#45;&gt;Node9 -->
<g id="edge18" class="edge">
<title>Node16&#45;&gt;Node9</title>
<path fill="none" stroke="#9a32cd" stroke-dasharray="5,2" d="M990.2745,-316.1425C1187.1376,-317.3496 1608.2449,-319.9318 1784.1786,-321.0105"/>
<polygon fill="#9a32cd" stroke="#9a32cd" points="990.2331,-312.6422 980.2118,-316.0808 990.1901,-319.6421 990.2331,-312.6422"/>
<text text-anchor="middle" x="1288.5" y="-321.5" font-family="Helvetica,sans-Serif" font-size="10.00" fill="#000000"> pixels_</text>
</g>
<!-- Node17&#45;&gt;Node9 -->
<g id="edge20" class="edge">
<title>Node17&#45;&gt;Node9</title>
<path fill="none" stroke="#9a32cd" stroke-dasharray="5,2" d="M1619.4107,-397.7086C1662.2934,-393.477 1711.573,-386.1576 1755,-373.5 1789.8234,-363.3501 1827.359,-343.1711 1848.0379,-331.1531"/>
<polygon fill="#9a32cd" stroke="#9a32cd" points="1618.8545,-394.2454 1609.2268,-398.6679 1619.511,-401.2145 1618.8545,-394.2454"/>
<text text-anchor="middle" x="1698.5" y="-397.5" font-family="Helvetica,sans-Serif" font-size="10.00" fill="#000000"> thread_pool_</text>
</g>
<!-- Node18 -->
<g id="node18" class="node">
<title>Node18</title>
<g id="a_node18"><a xlink:href="structfractal_1_1_thread_pool.html" target="_top" xlink:title=" ">
<polygon fill="none" stroke="#000000" points="1009.5,-391 1009.5,-410 1168.5,-410 1168.5,-391 1009.5,-391"/>
<text text-anchor="middle" x="1089" y="-398" font-family="Helvetica,sans-Serif" font-size="10.00" fill="#000000">fractal::ThreadPool</text>
</a>
</g>
</g>
<!-- Node18&#45;&gt;Node17 -->
<g id="edge21" class="edge">
<title>Node18&#45;&gt;Node17</title>
<path fill="none" stroke="#9a32cd" stroke-dasharray="5,2" d="M1178.8135,-400.5376C1236.0977,-400.6289 1311.9151,-400.8742 1379,-401.5 1389.6167,-401.599 1400.7151,-401.7281 1411.77,-401.873"/>
<polygon fill="#9a32cd" stroke="#9a32cd" points="1178.7068,-397.0376 1168.7016,-400.5228 1178.6964,-404.0376 1178.7068,-397.0376"/>
<text text-anchor="middle" x="1288.5" y="-404.5" font-family="Helvetica,sans-Serif" font-size="10.00" fill="#000000"> ptr</text>
</g>
<!-- Node19&#45;&gt;Node18 -->
<g id="edge22" class="edge">
<title>Node19&#45;&gt;Node18</title>
<path fill="none" stroke="#9a32cd" stroke-dasharray="5,2" d="M779.4366,-425.1791C839.0588,-421.1499 913.5313,-415.8844 980,-410.5 989.4705,-409.7328 999.3996,-408.8839 1009.2469,-408.0143"/>
<polygon fill="#9a32cd" stroke="#9a32cd" points="778.9846,-421.7015 769.2424,-425.8657 779.4551,-428.6857 778.9846,-421.7015"/>
<text text-anchor="middle" x="885.5" y="-426.5" font-family="Helvetica,sans-Serif" font-size="10.00" fill="#000000"> tasks_</text>
</g>
<!-- Node20&#45;&gt;Node18 -->
<g id="edge24" class="edge">
<title>Node20&#45;&gt;Node18</title>
<path fill="none" stroke="#9a32cd" stroke-dasharray="5,2" d="M716.2029,-362.3091C738.8616,-367.3619 766.1748,-372.9123 791,-376.5 864.5875,-387.1346 949.1297,-393.3825 1009.3251,-396.8231"/>
<polygon fill="#9a32cd" stroke="#9a32cd" points="716.6715,-358.8267 706.1453,-360.0315 715.1253,-365.6538 716.6715,-358.8267"/>
<text text-anchor="middle" x="885.5" y="-397.5" font-family="Helvetica,sans-Serif" font-size="10.00" fill="#000000"> workers_</text>
</g>
<!-- Node21 -->
<g id="node21" class="node">
<title>Node21</title>
<g id="a_node21"><a xlink:title="STL class.">
<polygon fill="none" stroke="#bfbfbf" points="178,-355 178,-374 277,-374 277,-355 178,-355"/>
<text text-anchor="middle" x="227.5" y="-362" font-family="Helvetica,sans-Serif" font-size="10.00" fill="#000000">std::thread</text>
</a>
</g>
</g>
<!-- Node21&#45;&gt;Node20 -->
<g id="edge25" class="edge">
<title>Node21&#45;&gt;Node20</title>
<path fill="none" stroke="#9a32cd" stroke-dasharray="5,2" d="M287.4873,-362.5891C357.6817,-360.3531 475.2003,-356.6097 560.9005,-353.8797"/>
<polygon fill="#9a32cd" stroke="#9a32cd" points="286.9454,-359.1045 277.0619,-362.9212 287.1683,-366.101 286.9454,-359.1045"/>
<text text-anchor="middle" x="441.5" y="-363.5" font-family="Helvetica,sans-Serif" font-size="10.00" fill="#000000"> elements</text>
</g>
<!-- Node22&#45;&gt;Node1 -->
<g id="edge28" class="edge">
<title>Node22&#45;&gt;Node1</title>
<path fill="none" stroke="#9a32cd" stroke-dasharray="5,2" d="M1914.6518,-374.8081C1955.4951,-359.3027 2014.1408,-336.0556 2064,-312.5 2093.2657,-298.6736 2126.1099,-280.1692 2145.2322,-269.0811"/>
<polygon fill="#9a32cd" stroke="#9a32cd" points="1913.3035,-371.576 1905.1857,-378.3842 1915.7773,-378.1243 1913.3035,-371.576"/>
<text text-anchor="middle" x="2018.5" y="-352.5" font-family="Helvetica,sans-Serif" font-size="10.00" fill="#000000"> glfw_</text>
</g>
<!-- Node23 -->
<g id="node23" class="node">
<title>Node23</title>
<g id="a_node23"><a xlink:href="structfractal_1_1_full_quad.html" target="_top" xlink:title=" ">
<polygon fill="none" stroke="#000000" points="1792,-217 1792,-236 1936,-236 1936,-217 1792,-217"/>
<text text-anchor="middle" x="1864" y="-224" font-family="Helvetica,sans-Serif" font-size="10.00" fill="#000000">fractal::FullQuad</text>
</a>
</g>
</g>
<!-- Node23&#45;&gt;Node1 -->
<g id="edge30" class="edge">
<title>Node23&#45;&gt;Node1</title>
<path fill="none" stroke="#9a32cd" stroke-dasharray="5,2" d="M1946.0129,-235.5972C1988.3464,-240.293 2039.7773,-245.998 2081.7755,-250.6566"/>
<polygon fill="#9a32cd" stroke="#9a32cd" points="1946.3414,-232.1123 1936.0165,-234.4884 1945.5696,-239.0696 1946.3414,-232.1123"/>
<text text-anchor="middle" x="2018.5" y="-250.5" font-family="Helvetica,sans-Serif" font-size="10.00" fill="#000000"> quad_</text>
</g>
<!-- Node24 -->
<g id="node24" class="node">
<title>Node24</title>
<g id="a_node24"><a xlink:href="structfractal_1_1_gl_array_object.html" target="_top" xlink:title=" ">
<polygon fill="none" stroke="#000000" points="1404.5,-211.5 1404.5,-241.5 1616.5,-241.5 1616.5,-211.5 1404.5,-211.5"/>
<text text-anchor="start" x="1412.5" y="-229.5" font-family="Helvetica,sans-Serif" font-size="10.00" fill="#000000">fractal::GlArrayObject</text>
<text text-anchor="middle" x="1510.5" y="-218.5" font-family="Helvetica,sans-Serif" font-size="10.00" fill="#000000">&lt;&amp;glDeleteBuffers, Tsize &gt;</text>
</a>
</g>
</g>
<!-- Node24&#45;&gt;Node23 -->
<g id="edge31" class="edge">
<title>Node24&#45;&gt;Node23</title>
<path fill="none" stroke="#9a32cd" stroke-dasharray="5,2" d="M1626.6312,-226.5C1681.1354,-226.5 1744.3899,-226.5 1791.8896,-226.5"/>
<polygon fill="#9a32cd" stroke="#9a32cd" points="1626.5617,-223.0001 1616.5617,-226.5 1626.5616,-230.0001 1626.5617,-223.0001"/>
<text text-anchor="middle" x="1698.5" y="-229.5" font-family="Helvetica,sans-Serif" font-size="10.00" fill="#000000"> vertex_buffer_</text>
</g>
<!-- Node25 -->
<g id="node25" class="node">
<title>Node25</title>
<g id="a_node25"><a xlink:title=" ">
<polygon fill="none" stroke="#bfbfbf" points="587.5,-164.5 587.5,-194.5 746.5,-194.5 746.5,-164.5 587.5,-164.5"/>
<text text-anchor="start" x="595.5" y="-182.5" font-family="Helvetica,sans-Serif" font-size="10.00" fill="#000000">std::array&lt; GLuint,</text>
<text text-anchor="middle" x="667" y="-171.5" font-family="Helvetica,sans-Serif" font-size="10.00" fill="#000000"> Tsize &gt;</text>
</a>
</g>
</g>
<!-- Node25&#45;&gt;Node24 -->
<g id="edge32" class="edge">
<title>Node25&#45;&gt;Node24</title>
<path fill="none" stroke="#9a32cd" stroke-dasharray="5,2" d="M756.7357,-192.1898C768.2582,-193.7053 779.9021,-195.1807 791,-196.5 1051.1362,-227.4245 1117.2602,-248.4282 1379,-237.5 1387.2403,-237.156 1395.7634,-236.6911 1404.327,-236.1463"/>
<polygon fill="#9a32cd" stroke="#9a32cd" points="757.0319,-188.6985 746.658,-190.8506 756.1097,-195.6375 757.0319,-188.6985"/>
<text text-anchor="middle" x="1089" y="-241.5" font-family="Helvetica,sans-Serif" font-size="10.00" fill="#000000"> ids_</text>
</g>
<!-- Node27 -->
<g id="node27" class="node">
<title>Node27</title>
<g id="a_node27"><a xlink:href="structfractal_1_1_gl_array_object.html" target="_top" xlink:title=" ">
<polygon fill="none" stroke="#000000" points="998,-167.5 998,-197.5 1180,-197.5 1180,-167.5 998,-167.5"/>
<text text-anchor="start" x="1006" y="-185.5" font-family="Helvetica,sans-Serif" font-size="10.00" fill="#000000">fractal::GlArrayObject</text>
<text text-anchor="middle" x="1089" y="-174.5" font-family="Helvetica,sans-Serif" font-size="10.00" fill="#000000">&lt; Tdeleter, Tsize &gt;</text>
</a>
</g>
</g>
<!-- Node25&#45;&gt;Node27 -->
<g id="edge36" class="edge">
<title>Node25&#45;&gt;Node27</title>
<path fill="none" stroke="#9a32cd" stroke-dasharray="5,2" d="M757.1307,-180.1407C828.0648,-180.645 926.4982,-181.3448 997.7257,-181.8511"/>
<polygon fill="#9a32cd" stroke="#9a32cd" points="756.8958,-176.6391 746.8711,-180.0678 756.8459,-183.6389 756.8958,-176.6391"/>
<text text-anchor="middle" x="885.5" y="-184.5" font-family="Helvetica,sans-Serif" font-size="10.00" fill="#000000"> ids_</text>
</g>
<!-- Node28 -->
<g id="node28" class="node">
<title>Node28</title>
<g id="a_node28"><a xlink:href="structfractal_1_1_gl_array_object.html" target="_top" xlink:title=" ">
<polygon fill="none" stroke="#000000" points="1416,-150 1416,-191 1605,-191 1605,-150 1416,-150"/>
<text text-anchor="start" x="1424" y="-179" font-family="Helvetica,sans-Serif" font-size="10.00" fill="#000000">fractal::GlArrayObject</text>
<text text-anchor="start" x="1424" y="-168" font-family="Helvetica,sans-Serif" font-size="10.00" fill="#000000">&lt;&amp;glDeleteVertexArrays,</text>
<text text-anchor="middle" x="1510.5" y="-157" font-family="Helvetica,sans-Serif" font-size="10.00" fill="#000000"> Tsize &gt;</text>
</a>
</g>
</g>
<!-- Node25&#45;&gt;Node28 -->
<g id="edge38" class="edge">
<title>Node25&#45;&gt;Node28</title>
<path fill="none" stroke="#9a32cd" stroke-dasharray="5,2" d="M756.7832,-168.1129C823.2619,-160.2755 916.1176,-150.5717 998,-146.5 1143.6774,-139.2561 1312.6796,-151.0989 1415.5633,-160.5747"/>
<polygon fill="#9a32cd" stroke="#9a32cd" points="756.2759,-164.6485 746.7588,-169.3041 757.102,-171.5996 756.2759,-164.6485"/>
<text text-anchor="middle" x="1089" y="-149.5" font-family="Helvetica,sans-Serif" font-size="10.00" fill="#000000"> ids_</text>
</g>
<!-- Node33 -->
<g id="node33" class="node">
<title>Node33</title>
<g id="a_node33"><a xlink:href="structfractal_1_1_gl_array_object.html" target="_top" xlink:title=" ">
<polygon fill="none" stroke="#000000" points="1401,-85.5 1401,-115.5 1620,-115.5 1620,-85.5 1401,-85.5"/>
<text text-anchor="start" x="1409" y="-103.5" font-family="Helvetica,sans-Serif" font-size="10.00" fill="#000000">fractal::GlArrayObject</text>
<text text-anchor="middle" x="1510.5" y="-92.5" font-family="Helvetica,sans-Serif" font-size="10.00" fill="#000000">&lt;&amp;glDeleteTextures, Tsize &gt;</text>
</a>
</g>
</g>
<!-- Node25&#45;&gt;Node33 -->
<g id="edge45" class="edge">
<title>Node25&#45;&gt;Node33</title>
<path fill="none" stroke="#9a32cd" stroke-dasharray="5,2" d="M722.5722,-161.5464C743.7875,-155.2937 768.3241,-148.7796 791,-144.5 1004.3627,-104.2326 1259.0025,-98.3362 1400.9669,-98.7177"/>
<polygon fill="#9a32cd" stroke="#9a32cd" points="721.3365,-158.2629 712.763,-164.4876 723.347,-164.968 721.3365,-158.2629"/>
<text text-anchor="middle" x="1089" y="-118.5" font-family="Helvetica,sans-Serif" font-size="10.00" fill="#000000"> ids_</text>
</g>
<!-- Node26&#45;&gt;Node25 -->
<g id="edge33" class="edge">
<title>Node26&#45;&gt;Node25</title>
<path fill="none" stroke="#ffa500" stroke-dasharray="5,2" d="M302.7497,-179.5C382.0454,-179.5 506.433,-179.5 587.3502,-179.5"/>
<polygon fill="#ffa500" stroke="#ffa500" points="302.3498,-176.0001 292.3497,-179.5 302.3497,-183.0001 302.3498,-176.0001"/>
<text text-anchor="middle" x="441.5" y="-182.5" font-family="Helvetica,sans-Serif" font-size="10.00" fill="#000000"> &lt; GLuint, Tsize &gt;</text>
</g>
<!-- Node27&#45;&gt;Node24 -->
<g id="edge35" class="edge">
<title>Node27&#45;&gt;Node24</title>
<path fill="none" stroke="#ffa500" stroke-dasharray="5,2" d="M1190.4046,-193.0855C1255.0398,-199.8327 1338.6536,-208.5611 1404.2143,-215.4049"/>
<polygon fill="#ffa500" stroke="#ffa500" points="1190.509,-189.5775 1180.1996,-192.0202 1189.7822,-196.5397 1190.509,-189.5775"/>
<text text-anchor="start" x="1217" y="-225.5" font-family="Helvetica,sans-Serif" font-size="10.00" fill="#000000"> &lt;&amp;glDeleteBuffers,</text>
<text text-anchor="middle" x="1288.5" y="-214.5" font-family="Helvetica,sans-Serif" font-size="10.00" fill="#000000"> Tsize &gt;</text>
</g>
<!-- Node27&#45;&gt;Node28 -->
<g id="edge39" class="edge">
<title>Node27&#45;&gt;Node28</title>
<path fill="none" stroke="#ffa500" stroke-dasharray="5,2" d="M1190.3109,-171.9413C1192.899,-171.7794 1195.4655,-171.6316 1198,-171.5 1271.0085,-167.7083 1353.7405,-167.6312 1415.7317,-168.4087"/>
<polygon fill="#ffa500" stroke="#ffa500" points="1189.9792,-168.4558 1180.242,-172.6316 1190.458,-175.4394 1189.9792,-168.4558"/>
<text text-anchor="start" x="1198" y="-185.5" font-family="Helvetica,sans-Serif" font-size="10.00" fill="#000000"> &lt;&amp;glDeleteVertexArrays,</text>
<text text-anchor="middle" x="1288.5" y="-174.5" font-family="Helvetica,sans-Serif" font-size="10.00" fill="#000000"> Tsize &gt;</text>
</g>
<!-- Node27&#45;&gt;Node33 -->
<g id="edge46" class="edge">
<title>Node27&#45;&gt;Node33</title>
<path fill="none" stroke="#ffa500" stroke-dasharray="5,2" d="M1150.2278,-164.0786C1160.2973,-160.548 1170.5311,-156.6467 1180,-152.5 1188.383,-148.8288 1189.3139,-145.3818 1198,-142.5 1263.3351,-120.8233 1339.8861,-110.3082 1400.8697,-105.2196"/>
<polygon fill="#ffa500" stroke="#ffa500" points="1148.9878,-160.8035 1140.6543,-167.3459 1151.2488,-167.4283 1148.9878,-160.8035"/>
<text text-anchor="start" x="1213" y="-156.5" font-family="Helvetica,sans-Serif" font-size="10.00" fill="#000000"> &lt;&amp;glDeleteTextures,</text>
<text text-anchor="middle" x="1288.5" y="-145.5" font-family="Helvetica,sans-Serif" font-size="10.00" fill="#000000"> Tsize &gt;</text>
</g>
<!-- Node28&#45;&gt;Node23 -->
<g id="edge37" class="edge">
<title>Node28&#45;&gt;Node23</title>
<path fill="none" stroke="#9a32cd" stroke-dasharray="5,2" d="M1615.3725,-187.1135C1676.9126,-196.8624 1752.4648,-208.8311 1804.0242,-216.9989"/>
<polygon fill="#9a32cd" stroke="#9a32cd" points="1615.656,-183.6148 1605.2315,-185.507 1614.5607,-190.5286 1615.656,-183.6148"/>
<text text-anchor="middle" x="1698.5" y="-210.5" font-family="Helvetica,sans-Serif" font-size="10.00" fill="#000000"> vertex_array_</text>
</g>
<!-- Node29 -->
<g id="node29" class="node">
<title>Node29</title>
<g id="a_node29"><a xlink:href="structfractal_1_1_shader_program.html" target="_top" xlink:title=" ">
<polygon fill="none" stroke="#000000" points="1773,-122 1773,-141 1955,-141 1955,-122 1773,-122"/>
<text text-anchor="middle" x="1864" y="-129" font-family="Helvetica,sans-Serif" font-size="10.00" fill="#000000">fractal::ShaderProgram</text>
</a>
</g>
</g>
<!-- Node29&#45;&gt;Node1 -->
<g id="edge40" class="edge">
<title>Node29&#45;&gt;Node1</title>
<path fill="none" stroke="#9a32cd" stroke-dasharray="5,2" d="M1927.6935,-143.1442C1968.0847,-152.0077 2020.6951,-166.3382 2064,-187.5 2098.9755,-204.5914 2134.3181,-234.5811 2151.2319,-249.9013"/>
<polygon fill="#9a32cd" stroke="#9a32cd" points="1928.2118,-139.676 1917.701,-141.0077 1926.7481,-146.5213 1928.2118,-139.676"/>
<text text-anchor="middle" x="2018.5" y="-190.5" font-family="Helvetica,sans-Serif" font-size="10.00" fill="#000000"> program_</text>
</g>
<!-- Node30 -->
<g id="node30" class="node">
<title>Node30</title>
<g id="a_node30"><a xlink:href="structfractal_1_1_gl_object.html" target="_top" xlink:title=" ">
<polygon fill="none" stroke="#000000" points="1401,-18.5 1401,-48.5 1620,-48.5 1620,-18.5 1401,-18.5"/>
<text text-anchor="start" x="1409" y="-36.5" font-family="Helvetica,sans-Serif" font-size="10.00" fill="#000000">fractal::GlObject&lt;&amp;glDelete</text>
<text text-anchor="middle" x="1510.5" y="-25.5" font-family="Helvetica,sans-Serif" font-size="10.00" fill="#000000">Program &gt;</text>
</a>
</g>
</g>
<!-- Node30&#45;&gt;Node29 -->
<g id="edge41" class="edge">
<title>Node30&#45;&gt;Node29</title>
<path fill="none" stroke="#9a32cd" stroke-dasharray="5,2" d="M1574.7441,-51.3102C1649.5227,-72.041 1770.2808,-105.5184 1829.2946,-121.8787"/>
<polygon fill="#9a32cd" stroke="#9a32cd" points="1575.5313,-47.8965 1564.9597,-48.5977 1573.6612,-54.6421 1575.5313,-47.8965"/>
<text text-anchor="middle" x="1698.5" y="-103.5" font-family="Helvetica,sans-Serif" font-size="10.00" fill="#000000"> program_</text>
</g>
<!-- Node31 -->
<g id="node31" class="node">
<title>Node31</title>
<g id="a_node31"><a xlink:href="structfractal_1_1_gl_object.html" target="_top" xlink:title=" ">
<polygon fill="none" stroke="#000000" points="1013,-.5 1013,-30.5 1165,-30.5 1165,-.5 1013,-.5"/>
<text text-anchor="start" x="1021" y="-18.5" font-family="Helvetica,sans-Serif" font-size="10.00" fill="#000000">fractal::GlObject&lt;</text>
<text text-anchor="middle" x="1089" y="-7.5" font-family="Helvetica,sans-Serif" font-size="10.00" fill="#000000"> Tdeleter &gt;</text>
</a>
</g>
</g>
<!-- Node31&#45;&gt;Node30 -->
<g id="edge42" class="edge">
<title>Node31&#45;&gt;Node30</title>
<path fill="none" stroke="#ffa500" stroke-dasharray="5,2" d="M1175.5664,-19.1968C1240.7023,-21.9784 1330.4399,-25.8106 1400.6351,-28.8083"/>
<polygon fill="#ffa500" stroke="#ffa500" points="1175.4707,-15.6896 1165.3305,-18.7597 1175.172,-22.6832 1175.4707,-15.6896"/>
<text text-anchor="middle" x="1288.5" y="-31.5" font-family="Helvetica,sans-Serif" font-size="10.00" fill="#000000"> &lt;&amp;glDeleteProgram &gt;</text>
</g>
<!-- Node32 -->
<g id="node32" class="node">
<title>Node32</title>
<g id="a_node32"><a xlink:href="structfractal_1_1_texture.html" target="_top" xlink:title=" ">
<polygon fill="none" stroke="#000000" points="1795.5,-173 1795.5,-192 1932.5,-192 1932.5,-173 1795.5,-173"/>
<text text-anchor="middle" x="1864" y="-180" font-family="Helvetica,sans-Serif" font-size="10.00" fill="#000000">fractal::Texture</text>
</a>
</g>
</g>
<!-- Node32&#45;&gt;Node1 -->
<g id="edge43" class="edge">
<title>Node32&#45;&gt;Node1</title>
<path fill="none" stroke="#9a32cd" stroke-dasharray="5,2" d="M1932.4926,-193.8855C1971.4034,-201.0132 2020.8226,-211.1799 2064,-223.5 2090.0273,-230.9266 2119.0278,-242.0097 2138.5816,-249.9147"/>
<polygon fill="#9a32cd" stroke="#9a32cd" points="1932.7879,-190.3822 1922.3249,-192.0481 1931.5431,-197.2707 1932.7879,-190.3822"/>
<text text-anchor="middle" x="2018.5" y="-226.5" font-family="Helvetica,sans-Serif" font-size="10.00" fill="#000000"> texture_</text>
</g>
<!-- Node33&#45;&gt;Node32 -->
<g id="edge44" class="edge">
<title>Node33&#45;&gt;Node32</title>
<path fill="none" stroke="#9a32cd" stroke-dasharray="5,2" d="M1585.3226,-117.8563C1657.7824,-134.6645 1764.9626,-159.5267 1823.0199,-172.994"/>
<polygon fill="#9a32cd" stroke="#9a32cd" points="1585.8696,-114.3903 1575.3373,-115.5401 1584.2878,-121.2093 1585.8696,-114.3903"/>
<text text-anchor="middle" x="1698.5" y="-159.5" font-family="Helvetica,sans-Serif" font-size="10.00" fill="#000000"> texture_</text>
</g>
</g>
</svg>
