<?xml version="1.0" encoding="UTF-8" standalone="no"?>
<!DOCTYPE svg PUBLIC "-//W3C//DTD SVG 1.1//EN"
 "http://www.w3.org/Graphics/SVG/1.1/DTD/svg11.dtd">
<!-- Generated by graphviz version 2.40.1 (0)
 -->
<!-- Title: fractal::FullQuad::unbind Pages: 1 -->
<svg width="1052pt" height="50pt"
 viewBox="0.00 0.00 1052.00 50.00" xmlns="http://www.w3.org/2000/svg" xmlns:xlink="http://www.w3.org/1999/xlink">
<g id="graph0" class="graph" transform="scale(1 1) rotate(0) translate(4 46)">
<title>fractal::FullQuad::unbind</title>
<!-- Node15 -->
<g id="node1" class="node">
<title>Node15</title>
<g id="a_node1"><a xlink:title=" ">
<polygon fill="#bfbfbf" stroke="#000000" points="885,-6 885,-36 1044,-36 1044,-6 885,-6"/>
<text text-anchor="start" x="893" y="-24" font-family="Helvetica,sans-Serif" font-size="10.00" fill="#000000">fractal::FullQuad::</text>
<text text-anchor="middle" x="964.5" y="-13" font-family="Helvetica,sans-Serif" font-size="10.00" fill="#000000">unbind</text>
</a>
</g>
</g>
<!-- Node16 -->
<g id="node2" class="node">
<title>Node16</title>
<g id="a_node2"><a xlink:href="structfractal_1_1_full_quad.html#ab741333738e9ad68ed05cf9c7976d7d6" target="_top" xlink:title=" ">
<polygon fill="none" stroke="#000000" points="660,-11.5 660,-30.5 849,-30.5 849,-11.5 660,-11.5"/>
<text text-anchor="middle" x="754.5" y="-18.5" font-family="Helvetica,sans-Serif" font-size="10.00" fill="#000000">fractal::FullQuad::bind</text>
</a>
</g>
</g>
<!-- Node15&#45;&gt;Node16 -->
<g id="edge1" class="edge">
<title>Node15&#45;&gt;Node16</title>
<path fill="none" stroke="#191970" d="M874.6515,-21C866.2587,-21 857.7341,-21 849.2981,-21"/>
<polygon fill="#191970" stroke="#191970" points="874.8086,-24.5001 884.8086,-21 874.8085,-17.5001 874.8086,-24.5001"/>
</g>
<!-- Node17 -->
<g id="node3" class="node">
<title>Node17</title>
<g id="a_node3"><a xlink:href="structfractal_1_1_main_window.html#a96ec873be43b90688d41fff6ae3ec360" target="_top" xlink:title=" ">
<polygon fill="none" stroke="#000000" points="465,-6 465,-36 624,-36 624,-6 465,-6"/>
<text text-anchor="start" x="473" y="-24" font-family="Helvetica,sans-Serif" font-size="10.00" fill="#000000">fractal::MainWindow</text>
<text text-anchor="middle" x="544.5" y="-13" font-family="Helvetica,sans-Serif" font-size="10.00" fill="#000000">::loop</text>
</a>
</g>
</g>
<!-- Node16&#45;&gt;Node17 -->
<g id="edge2" class="edge">
<title>Node16&#45;&gt;Node17</title>
<path fill="none" stroke="#191970" d="M649.8101,-21C641.1648,-21 632.5167,-21 624.1002,-21"/>
<polygon fill="#191970" stroke="#191970" points="649.9436,-24.5001 659.9436,-21 649.9436,-17.5001 649.9436,-24.5001"/>
</g>
<!-- Node18 -->
<g id="node4" class="node">
<title>Node18</title>
<g id="a_node4"><a xlink:href="namespacefractal_1_1anonymous__namespace_02main_8cpp_03.html#ae8627868777810181cf8e38d084bee20" target="_top" xlink:title=" ">
<polygon fill="none" stroke="#000000" points="255,-.5 255,-41.5 429,-41.5 429,-.5 255,-.5"/>
<text text-anchor="start" x="263" y="-29.5" font-family="Helvetica,sans-Serif" font-size="10.00" fill="#000000">fractal::anonymous</text>
<text text-anchor="start" x="263" y="-18.5" font-family="Helvetica,sans-Serif" font-size="10.00" fill="#000000">_namespace{main::cpp}</text>
<text text-anchor="middle" x="342" y="-7.5" font-family="Helvetica,sans-Serif" font-size="10.00" fill="#000000">::main_impl</text>
</a>
</g>
</g>
<!-- Node17&#45;&gt;Node18 -->
<g id="edge3" class="edge">
<title>Node17&#45;&gt;Node18</title>
<path fill="none" stroke="#191970" d="M454.4985,-21C446.0317,-21 437.4586,-21 429.0201,-21"/>
<polygon fill="#191970" stroke="#191970" points="454.7574,-24.5001 464.7573,-21 454.7573,-17.5001 454.7574,-24.5001"/>
</g>
<!-- Node19 -->
<g id="node5" class="node">
<title>Node19</title>
<g id="a_node5"><a xlink:href="namespacefractal_1_1anonymous__namespace_02main_8cpp_03.html#ade01a7efeea34ebdc6bdf368b08ac518" target="_top" xlink:title=" ">
<polygon fill="none" stroke="#000000" points="0,-6 0,-36 219,-36 219,-6 0,-6"/>
<text text-anchor="start" x="8" y="-24" font-family="Helvetica,sans-Serif" font-size="10.00" fill="#000000">fractal::anonymous</text>
<text text-anchor="middle" x="109.5" y="-13" font-family="Helvetica,sans-Serif" font-size="10.00" fill="#000000">_namespace{main::cpp}::main</text>
</a>
</g>
</g>
<!-- Node18&#45;&gt;Node19 -->
<g id="edge4" class="edge">
<title>Node18&#45;&gt;Node19</title>
<path fill="none" stroke="#191970" d="M244.6165,-21C236.2327,-21 227.7143,-21 219.2422,-21"/>
<polygon fill="#191970" stroke="#191970" points="244.7641,-24.5001 254.7641,-21 244.7641,-17.5001 244.7641,-24.5001"/>
</g>
</g>
</svg>
