<?xml version="1.0" encoding="UTF-8" standalone="no"?>
<!DOCTYPE svg PUBLIC "-//W3C//DTD SVG 1.1//EN"
 "http://www.w3.org/Graphics/SVG/1.1/DTD/svg11.dtd">
<!-- Generated by graphviz version 2.40.1 (0)
 -->
<!-- Title: fractal::GlfwWindow::ptr Pages: 1 -->
<svg width="865pt" height="94pt"
 viewBox="0.00 0.00 865.00 93.50" xmlns="http://www.w3.org/2000/svg" xmlns:xlink="http://www.w3.org/1999/xlink">
<g id="graph0" class="graph" transform="scale(1 1) rotate(0) translate(4 89.5)">
<title>fractal::GlfwWindow::ptr</title>
<!-- Node3 -->
<g id="node1" class="node">
<title>Node3</title>
<g id="a_node1"><a xlink:title=" ">
<polygon fill="#bfbfbf" stroke="#000000" points="660,-30 660,-49 857,-49 857,-30 660,-30"/>
<text text-anchor="middle" x="758.5" y="-37" font-family="Helvetica,sans-Serif" font-size="10.00" fill="#000000">fractal::GlfwWindow::ptr</text>
</a>
</g>
</g>
<!-- Node4 -->
<g id="node2" class="node">
<title>Node4</title>
<g id="a_node2"><a xlink:href="structfractal_1_1_main_window.html#a96ec873be43b90688d41fff6ae3ec360" target="_top" xlink:title=" ">
<polygon fill="none" stroke="#000000" points="465,-49.5 465,-79.5 624,-79.5 624,-49.5 465,-49.5"/>
<text text-anchor="start" x="473" y="-67.5" font-family="Helvetica,sans-Serif" font-size="10.00" fill="#000000">fractal::MainWindow</text>
<text text-anchor="middle" x="544.5" y="-56.5" font-family="Helvetica,sans-Serif" font-size="10.00" fill="#000000">::loop</text>
</a>
</g>
</g>
<!-- Node3&#45;&gt;Node4 -->
<g id="edge1" class="edge">
<title>Node3&#45;&gt;Node4</title>
<path fill="none" stroke="#191970" d="M666.7174,-50.2223C652.5072,-51.8823 637.9316,-53.5851 624.0206,-55.2102"/>
<polygon fill="#191970" stroke="#191970" points="667.459,-53.6595 676.9853,-49.0227 666.6467,-46.7068 667.459,-53.6595"/>
</g>
<!-- Node7 -->
<g id="node5" class="node">
<title>Node7</title>
<g id="a_node5"><a xlink:href="structfractal_1_1_main_window.html#a3466a0ec5dbd171df04e70ff7b78f338" target="_top" xlink:title=" ">
<polygon fill="none" stroke="#000000" points="465,-.5 465,-30.5 624,-30.5 624,-.5 465,-.5"/>
<text text-anchor="start" x="473" y="-18.5" font-family="Helvetica,sans-Serif" font-size="10.00" fill="#000000">fractal::MainWindow</text>
<text text-anchor="middle" x="544.5" y="-7.5" font-family="Helvetica,sans-Serif" font-size="10.00" fill="#000000">::on_key</text>
</a>
</g>
</g>
<!-- Node3&#45;&gt;Node7 -->
<g id="edge4" class="edge">
<title>Node3&#45;&gt;Node7</title>
<path fill="none" stroke="#191970" d="M663.5832,-28.8551C650.3848,-27.3749 636.9379,-25.8669 624.0598,-24.4226"/>
<polygon fill="#191970" stroke="#191970" points="663.2864,-32.3437 673.6142,-29.9801 664.0666,-25.3873 663.2864,-32.3437"/>
</g>
<!-- Node5 -->
<g id="node3" class="node">
<title>Node5</title>
<g id="a_node3"><a xlink:href="namespacefractal_1_1anonymous__namespace_02main_8cpp_03.html#ae8627868777810181cf8e38d084bee20" target="_top" xlink:title=" ">
<polygon fill="none" stroke="#000000" points="255,-44 255,-85 429,-85 429,-44 255,-44"/>
<text text-anchor="start" x="263" y="-73" font-family="Helvetica,sans-Serif" font-size="10.00" fill="#000000">fractal::anonymous</text>
<text text-anchor="start" x="263" y="-62" font-family="Helvetica,sans-Serif" font-size="10.00" fill="#000000">_namespace{main::cpp}</text>
<text text-anchor="middle" x="342" y="-51" font-family="Helvetica,sans-Serif" font-size="10.00" fill="#000000">::main_impl</text>
</a>
</g>
</g>
<!-- Node4&#45;&gt;Node5 -->
<g id="edge2" class="edge">
<title>Node4&#45;&gt;Node5</title>
<path fill="none" stroke="#191970" d="M454.4985,-64.5C446.0317,-64.5 437.4586,-64.5 429.0201,-64.5"/>
<polygon fill="#191970" stroke="#191970" points="454.7574,-68.0001 464.7573,-64.5 454.7573,-61.0001 454.7574,-68.0001"/>
</g>
<!-- Node6 -->
<g id="node4" class="node">
<title>Node6</title>
<g id="a_node4"><a xlink:href="namespacefractal_1_1anonymous__namespace_02main_8cpp_03.html#ade01a7efeea34ebdc6bdf368b08ac518" target="_top" xlink:title=" ">
<polygon fill="none" stroke="#000000" points="0,-49.5 0,-79.5 219,-79.5 219,-49.5 0,-49.5"/>
<text text-anchor="start" x="8" y="-67.5" font-family="Helvetica,sans-Serif" font-size="10.00" fill="#000000">fractal::anonymous</text>
<text text-anchor="middle" x="109.5" y="-56.5" font-family="Helvetica,sans-Serif" font-size="10.00" fill="#000000">_namespace{main::cpp}::main</text>
</a>
</g>
</g>
<!-- Node5&#45;&gt;Node6 -->
<g id="edge3" class="edge">
<title>Node5&#45;&gt;Node6</title>
<path fill="none" stroke="#191970" d="M244.6165,-64.5C236.2327,-64.5 227.7143,-64.5 219.2422,-64.5"/>
<polygon fill="#191970" stroke="#191970" points="244.7641,-68.0001 254.7641,-64.5 244.7641,-61.0001 244.7641,-68.0001"/>
</g>
</g>
</svg>
