<?xml version="1.0" encoding="UTF-8" standalone="no"?>
<!DOCTYPE svg PUBLIC "-//W3C//DTD SVG 1.1//EN"
 "http://www.w3.org/Graphics/SVG/1.1/DTD/svg11.dtd">
<!-- Generated by graphviz version 2.40.1 (0)
 -->
<!-- Title: fractal::GlfwWindow Pages: 1 -->
<svg width="448pt" height="327pt"
 viewBox="0.00 0.00 448.00 327.00" xmlns="http://www.w3.org/2000/svg" xmlns:xlink="http://www.w3.org/1999/xlink">
<g id="graph0" class="graph" transform="scale(1 1) rotate(0) translate(4 323)">
<title>fractal::GlfwWindow</title>
<!-- Node1 -->
<g id="node1" class="node">
<title>Node1</title>
<g id="a_node1"><a xlink:title=" ">
<polygon fill="#bfbfbf" stroke="#000000" points="98,-.5 98,-19.5 257,-19.5 257,-.5 98,-.5"/>
<text text-anchor="middle" x="177.5" y="-7.5" font-family="Helvetica,sans-Serif" font-size="10.00" fill="#000000">fractal::GlfwWindow</text>
</a>
</g>
</g>
<!-- Node2 -->
<g id="node2" class="node">
<title>Node2</title>
<g id="a_node2"><a xlink:title=" ">
<polygon fill="none" stroke="#bfbfbf" points="0,-105.5 0,-135.5 227,-135.5 227,-105.5 0,-105.5"/>
<text text-anchor="start" x="8" y="-123.5" font-family="Helvetica,sans-Serif" font-size="10.00" fill="#000000">std::unique_ptr&lt; GLFWwindow,</text>
<text text-anchor="middle" x="113.5" y="-112.5" font-family="Helvetica,sans-Serif" font-size="10.00" fill="#000000"> void(*)(GLFWwindow *)&gt;</text>
</a>
</g>
</g>
<!-- Node2&#45;&gt;Node1 -->
<g id="edge1" class="edge">
<title>Node2&#45;&gt;Node1</title>
<path fill="none" stroke="#9a32cd" stroke-dasharray="5,2" d="M127.5437,-96.2526C141.454,-72.2357 162.0578,-36.6619 171.887,-19.6912"/>
<polygon fill="#9a32cd" stroke="#9a32cd" points="124.3822,-94.7279 122.3989,-105.1354 130.4396,-98.2363 124.3822,-94.7279"/>
<text text-anchor="middle" x="175" y="-74.5" font-family="Helvetica,sans-Serif" font-size="10.00" fill="#000000"> window_</text>
</g>
<!-- Node3 -->
<g id="node3" class="node">
<title>Node3</title>
<g id="a_node3"><a xlink:title="STL class.">
<polygon fill="none" stroke="#bfbfbf" points="78,-194.5 78,-213.5 245,-213.5 245,-194.5 78,-194.5"/>
<text text-anchor="middle" x="161.5" y="-201.5" font-family="Helvetica,sans-Serif" font-size="10.00" fill="#000000">std::unique_ptr&lt; T &gt;</text>
</a>
</g>
</g>
<!-- Node3&#45;&gt;Node2 -->
<g id="edge2" class="edge">
<title>Node3&#45;&gt;Node2</title>
<path fill="none" stroke="#ffa500" stroke-dasharray="5,2" d="M113.6057,-189.5655C108.0333,-185.987 103.0735,-181.5348 99.5,-176 91.6305,-163.8113 97.2908,-147.4736 103.608,-135.6838"/>
<polygon fill="#ffa500" stroke="#ffa500" points="112.2923,-192.8337 122.7553,-194.5 115.615,-186.6726 112.2923,-192.8337"/>
<text text-anchor="start" x="99.5" y="-168" font-family="Helvetica,sans-Serif" font-size="10.00" fill="#000000"> &lt; GLFWwindow, void</text>
<text text-anchor="middle" x="171" y="-157" font-family="Helvetica,sans-Serif" font-size="10.00" fill="#000000">(*)(GLFWwindow *)&gt;</text>
</g>
<!-- Node4 -->
<g id="node4" class="node">
<title>Node4</title>
<g id="a_node4"><a xlink:title=" ">
<polygon fill="none" stroke="#bfbfbf" points="210,-299.5 210,-318.5 239,-318.5 239,-299.5 210,-299.5"/>
<text text-anchor="middle" x="224.5" y="-306.5" font-family="Helvetica,sans-Serif" font-size="10.00" fill="#000000">T</text>
</a>
</g>
</g>
<!-- Node4&#45;&gt;Node3 -->
<g id="edge3" class="edge">
<title>Node4&#45;&gt;Node3</title>
<path fill="none" stroke="#9a32cd" stroke-dasharray="5,2" d="M213.524,-290.7066C200.0763,-268.2939 177.7909,-231.1515 167.2999,-213.6665"/>
<polygon fill="#9a32cd" stroke="#9a32cd" points="210.5398,-292.5359 218.686,-299.3101 216.5423,-288.9344 210.5398,-292.5359"/>
<text text-anchor="middle" x="223" y="-273" font-family="Helvetica,sans-Serif" font-size="10.00" fill="#000000"> ptr</text>
</g>
<!-- Node7 -->
<g id="node7" class="node">
<title>Node7</title>
<g id="a_node7"><a xlink:title="STL class.">
<polygon fill="none" stroke="#bfbfbf" points="243,-232.5 243,-251.5 410,-251.5 410,-232.5 243,-232.5"/>
<text text-anchor="middle" x="326.5" y="-239.5" font-family="Helvetica,sans-Serif" font-size="10.00" fill="#000000">std::shared_ptr&lt; T &gt;</text>
</a>
</g>
</g>
<!-- Node4&#45;&gt;Node7 -->
<g id="edge7" class="edge">
<title>Node4&#45;&gt;Node7</title>
<path fill="none" stroke="#9a32cd" stroke-dasharray="5,2" d="M247.5461,-293.8619C267.2856,-280.8957 295.1099,-262.619 311.913,-251.5817"/>
<polygon fill="#9a32cd" stroke="#9a32cd" points="245.5507,-290.985 239.1141,-299.4005 249.3938,-296.8357 245.5507,-290.985"/>
<text text-anchor="middle" x="297" y="-273" font-family="Helvetica,sans-Serif" font-size="10.00" fill="#000000"> ptr</text>
</g>
<!-- Node5 -->
<g id="node5" class="node">
<title>Node5</title>
<g id="a_node5"><a xlink:href="structfractal_1_1_glfw_handle.html" target="_top" xlink:title=" ">
<polygon fill="none" stroke="#000000" points="253,-67.5 253,-86.5 412,-86.5 412,-67.5 253,-67.5"/>
<text text-anchor="middle" x="332.5" y="-74.5" font-family="Helvetica,sans-Serif" font-size="10.00" fill="#000000">fractal::GlfwHandle</text>
</a>
</g>
</g>
<!-- Node5&#45;&gt;Node1 -->
<g id="edge4" class="edge">
<title>Node5&#45;&gt;Node1</title>
<path fill="none" stroke="#9a32cd" stroke-dasharray="5,2" d="M301.0647,-63.4118C270.9385,-50.3895 226.2358,-31.0664 199.6665,-19.5817"/>
<polygon fill="#9a32cd" stroke="#9a32cd" points="299.7244,-66.6454 310.2923,-67.4005 302.5019,-60.22 299.7244,-66.6454"/>
<text text-anchor="middle" x="312.5" y="-41" font-family="Helvetica,sans-Serif" font-size="10.00" fill="#000000"> glfw_handle_</text>
</g>
<!-- Node6 -->
<g id="node6" class="node">
<title>Node6</title>
<g id="a_node6"><a xlink:title=" ">
<polygon fill="none" stroke="#bfbfbf" points="251,-155.5 251,-174.5 440,-174.5 440,-155.5 251,-155.5"/>
<text text-anchor="middle" x="345.5" y="-162.5" font-family="Helvetica,sans-Serif" font-size="10.00" fill="#000000">std::shared_ptr&lt; void &gt;</text>
</a>
</g>
</g>
<!-- Node6&#45;&gt;Node5 -->
<g id="edge5" class="edge">
<title>Node6&#45;&gt;Node5</title>
<path fill="none" stroke="#9a32cd" stroke-dasharray="5,2" d="M342.595,-145.3357C339.8919,-127.0373 335.9785,-100.547 333.9078,-86.53"/>
<polygon fill="#9a32cd" stroke="#9a32cd" points="339.1352,-145.8651 344.0591,-155.2462 346.06,-144.8421 339.1352,-145.8651"/>
<text text-anchor="middle" x="378.5" y="-118" font-family="Helvetica,sans-Serif" font-size="10.00" fill="#000000"> instance_</text>
</g>
<!-- Node7&#45;&gt;Node6 -->
<g id="edge6" class="edge">
<title>Node7&#45;&gt;Node6</title>
<path fill="none" stroke="#ffa500" stroke-dasharray="5,2" d="M331.3567,-222.3177C335.0964,-207.1619 340.1092,-186.8469 343.0532,-174.9161"/>
<polygon fill="#ffa500" stroke="#ffa500" points="327.904,-221.7006 328.9064,-232.2479 334.7002,-223.3776 327.904,-221.7006"/>
<text text-anchor="middle" x="371.5" y="-201.5" font-family="Helvetica,sans-Serif" font-size="10.00" fill="#000000"> &lt; void &gt;</text>
</g>
</g>
</svg>
