<?xml version="1.0" encoding="UTF-8" standalone="no"?>
<!DOCTYPE svg PUBLIC "-//W3C//DTD SVG 1.1//EN"
 "http://www.w3.org/Graphics/SVG/1.1/DTD/svg11.dtd">
<!-- Generated by graphviz version 2.40.1 (0)
 -->
<!-- Title: fractal::GlObject::id Pages: 1 -->
<svg width="1067pt" height="181pt"
 viewBox="0.00 0.00 1067.00 181.00" xmlns="http://www.w3.org/2000/svg" xmlns:xlink="http://www.w3.org/1999/xlink">
<g id="graph0" class="graph" transform="scale(1 1) rotate(0) translate(4 177)">
<title>fractal::GlObject::id</title>
<!-- Node11 -->
<g id="node1" class="node">
<title>Node11</title>
<g id="a_node1"><a xlink:title=" ">
<polygon fill="#bfbfbf" stroke="#000000" points="885,-84.5 885,-103.5 1059,-103.5 1059,-84.5 885,-84.5"/>
<text text-anchor="middle" x="972" y="-91.5" font-family="Helvetica,sans-Serif" font-size="10.00" fill="#000000">fractal::GlObject::id</text>
</a>
</g>
</g>
<!-- Node12 -->
<g id="node2" class="node">
<title>Node12</title>
<g id="a_node2"><a xlink:href="structfractal_1_1_shader.html#aa44d91fc00a576d4fa7c5abffda1569e" target="_top" xlink:title=" ">
<polygon fill="none" stroke="#000000" points="660,-153.5 660,-172.5 849,-172.5 849,-153.5 660,-153.5"/>
<text text-anchor="middle" x="754.5" y="-160.5" font-family="Helvetica,sans-Serif" font-size="10.00" fill="#000000">fractal::Shader::Shader</text>
</a>
</g>
</g>
<!-- Node11&#45;&gt;Node12 -->
<g id="edge1" class="edge">
<title>Node11&#45;&gt;Node12</title>
<path fill="none" stroke="#191970" d="M942.8328,-107.6731C918.2564,-118.7497 881.9328,-134.0914 849,-144 836.821,-147.6643 823.5446,-150.8275 810.8957,-153.4642"/>
<polygon fill="#191970" stroke="#191970" points="944.3166,-110.8433 951.9635,-103.5102 941.4126,-104.4741 944.3166,-110.8433"/>
</g>
<!-- Node13 -->
<g id="node3" class="node">
<title>Node13</title>
<g id="a_node3"><a xlink:href="structfractal_1_1_shader_program.html#a4bb423ef4b5cbdb15fcc4d217d65139d" target="_top" xlink:title=" ">
<polygon fill="none" stroke="#000000" points="663.5,-104 663.5,-134 845.5,-134 845.5,-104 663.5,-104"/>
<text text-anchor="start" x="671.5" y="-122" font-family="Helvetica,sans-Serif" font-size="10.00" fill="#000000">fractal::ShaderProgram</text>
<text text-anchor="middle" x="754.5" y="-111" font-family="Helvetica,sans-Serif" font-size="10.00" fill="#000000">::attach</text>
</a>
</g>
</g>
<!-- Node11&#45;&gt;Node13 -->
<g id="edge2" class="edge">
<title>Node11&#45;&gt;Node13</title>
<path fill="none" stroke="#191970" d="M879.1025,-104.6779C868.0771,-105.9452 856.8295,-107.238 845.8262,-108.5027"/>
<polygon fill="#191970" stroke="#191970" points="879.6172,-108.1418 889.1521,-103.5227 878.8178,-101.1876 879.6172,-108.1418"/>
</g>
<!-- Node14 -->
<g id="node4" class="node">
<title>Node14</title>
<g id="a_node4"><a xlink:href="structfractal_1_1_shader_program.html#a2034527b42689c4c3b252d6e8255b565" target="_top" xlink:title=" ">
<polygon fill="none" stroke="#000000" points="663.5,-55 663.5,-85 845.5,-85 845.5,-55 663.5,-55"/>
<text text-anchor="start" x="671.5" y="-73" font-family="Helvetica,sans-Serif" font-size="10.00" fill="#000000">fractal::ShaderProgram</text>
<text text-anchor="middle" x="754.5" y="-62" font-family="Helvetica,sans-Serif" font-size="10.00" fill="#000000">::link</text>
</a>
</g>
</g>
<!-- Node11&#45;&gt;Node14 -->
<g id="edge3" class="edge">
<title>Node11&#45;&gt;Node14</title>
<path fill="none" stroke="#191970" d="M875.7788,-83.3825C865.7711,-82.2782 855.62,-81.1581 845.6706,-80.0602"/>
<polygon fill="#191970" stroke="#191970" points="875.4023,-86.8621 885.7259,-84.4801 876.1701,-79.9043 875.4023,-86.8621"/>
</g>
<!-- Node15 -->
<g id="node5" class="node">
<title>Node15</title>
<g id="a_node5"><a xlink:href="structfractal_1_1_shader_program.html#a65c0c65a3cac5af4a64e898ba200db0b" target="_top" xlink:title=" ">
<polygon fill="none" stroke="#000000" points="663.5,-6 663.5,-36 845.5,-36 845.5,-6 663.5,-6"/>
<text text-anchor="start" x="671.5" y="-24" font-family="Helvetica,sans-Serif" font-size="10.00" fill="#000000">fractal::ShaderProgram</text>
<text text-anchor="middle" x="754.5" y="-13" font-family="Helvetica,sans-Serif" font-size="10.00" fill="#000000">::bind</text>
</a>
</g>
</g>
<!-- Node11&#45;&gt;Node15 -->
<g id="edge4" class="edge">
<title>Node11&#45;&gt;Node15</title>
<path fill="none" stroke="#191970" d="M940.0627,-80.385C915.4446,-70.1724 880.4115,-56.2475 849,-46 838.271,-42.4999 826.7394,-39.1312 815.5461,-36.0619"/>
<polygon fill="#191970" stroke="#191970" points="939.0322,-83.7477 949.6084,-84.3755 941.7321,-77.2893 939.0322,-83.7477"/>
</g>
<!-- Node16 -->
<g id="node6" class="node">
<title>Node16</title>
<g id="a_node6"><a xlink:href="structfractal_1_1_main_window.html#a96ec873be43b90688d41fff6ae3ec360" target="_top" xlink:title=" ">
<polygon fill="none" stroke="#000000" points="465,-6 465,-36 624,-36 624,-6 465,-6"/>
<text text-anchor="start" x="473" y="-24" font-family="Helvetica,sans-Serif" font-size="10.00" fill="#000000">fractal::MainWindow</text>
<text text-anchor="middle" x="544.5" y="-13" font-family="Helvetica,sans-Serif" font-size="10.00" fill="#000000">::loop</text>
</a>
</g>
</g>
<!-- Node15&#45;&gt;Node16 -->
<g id="edge5" class="edge">
<title>Node15&#45;&gt;Node16</title>
<path fill="none" stroke="#191970" d="M653.1613,-21C643.3971,-21 633.5907,-21 624.0803,-21"/>
<polygon fill="#191970" stroke="#191970" points="653.3072,-24.5001 663.3071,-21 653.3071,-17.5001 653.3072,-24.5001"/>
</g>
<!-- Node17 -->
<g id="node7" class="node">
<title>Node17</title>
<g id="a_node7"><a xlink:href="namespacefractal_1_1anonymous__namespace_02main_8cpp_03.html#ae8627868777810181cf8e38d084bee20" target="_top" xlink:title=" ">
<polygon fill="none" stroke="#000000" points="255,-.5 255,-41.5 429,-41.5 429,-.5 255,-.5"/>
<text text-anchor="start" x="263" y="-29.5" font-family="Helvetica,sans-Serif" font-size="10.00" fill="#000000">fractal::anonymous</text>
<text text-anchor="start" x="263" y="-18.5" font-family="Helvetica,sans-Serif" font-size="10.00" fill="#000000">_namespace{main::cpp}</text>
<text text-anchor="middle" x="342" y="-7.5" font-family="Helvetica,sans-Serif" font-size="10.00" fill="#000000">::main_impl</text>
</a>
</g>
</g>
<!-- Node16&#45;&gt;Node17 -->
<g id="edge6" class="edge">
<title>Node16&#45;&gt;Node17</title>
<path fill="none" stroke="#191970" d="M454.4985,-21C446.0317,-21 437.4586,-21 429.0201,-21"/>
<polygon fill="#191970" stroke="#191970" points="454.7574,-24.5001 464.7573,-21 454.7573,-17.5001 454.7574,-24.5001"/>
</g>
<!-- Node18 -->
<g id="node8" class="node">
<title>Node18</title>
<g id="a_node8"><a xlink:href="namespacefractal_1_1anonymous__namespace_02main_8cpp_03.html#ade01a7efeea34ebdc6bdf368b08ac518" target="_top" xlink:title=" ">
<polygon fill="none" stroke="#000000" points="0,-6 0,-36 219,-36 219,-6 0,-6"/>
<text text-anchor="start" x="8" y="-24" font-family="Helvetica,sans-Serif" font-size="10.00" fill="#000000">fractal::anonymous</text>
<text text-anchor="middle" x="109.5" y="-13" font-family="Helvetica,sans-Serif" font-size="10.00" fill="#000000">_namespace{main::cpp}::main</text>
</a>
</g>
</g>
<!-- Node17&#45;&gt;Node18 -->
<g id="edge7" class="edge">
<title>Node17&#45;&gt;Node18</title>
<path fill="none" stroke="#191970" d="M244.6165,-21C236.2327,-21 227.7143,-21 219.2422,-21"/>
<polygon fill="#191970" stroke="#191970" points="244.7641,-24.5001 254.7641,-21 244.7641,-17.5001 244.7641,-24.5001"/>
</g>
</g>
</svg>
