<?xml version="1.0" encoding="UTF-8" standalone="no"?>
<!DOCTYPE svg PUBLIC "-//W3C//DTD SVG 1.1//EN"
 "http://www.w3.org/Graphics/SVG/1.1/DTD/svg11.dtd">
<!-- Generated by graphviz version 2.40.1 (0)
 -->
<!-- Title: fractal::Encoder::encode_rgb Pages: 1 -->
<svg width="475pt" height="88pt"
 viewBox="0.00 0.00 475.00 88.00" xmlns="http://www.w3.org/2000/svg" xmlns:xlink="http://www.w3.org/1999/xlink">
<g id="graph0" class="graph" transform="scale(1 1) rotate(0) translate(4 84)">
<title>fractal::Encoder::encode_rgb</title>
<!-- Node2 -->
<g id="node1" class="node">
<title>Node2</title>
<g id="a_node1"><a xlink:title=" ">
<polygon fill="#bfbfbf" stroke="#000000" points="0,-30 0,-49 227,-49 227,-30 0,-30"/>
<text text-anchor="middle" x="113.5" y="-37" font-family="Helvetica,sans-Serif" font-size="10.00" fill="#000000">fractal::Encoder::encode_rgb</text>
</a>
</g>
</g>
<!-- Node3 -->
<g id="node2" class="node">
<title>Node3</title>
<g id="a_node2"><a xlink:href="structfractal_1_1_encoder.html#ad47c37b5595bd357b3cc8a74a8a909c8" target="_top" xlink:title="Convert RBG pixels to YUV444 (BT.709)">
<polygon fill="none" stroke="#000000" points="278,-49.5 278,-79.5 452,-79.5 452,-49.5 278,-49.5"/>
<text text-anchor="start" x="286" y="-67.5" font-family="Helvetica,sans-Serif" font-size="10.00" fill="#000000">fractal::Encoder::set</text>
<text text-anchor="middle" x="365" y="-56.5" font-family="Helvetica,sans-Serif" font-size="10.00" fill="#000000">_yuv_from_rgb</text>
</a>
</g>
</g>
<!-- Node2&#45;&gt;Node3 -->
<g id="edge1" class="edge">
<title>Node2&#45;&gt;Node3</title>
<path fill="none" stroke="#191970" d="M209.2988,-49.0227C228.3611,-50.9176 248.3983,-52.9094 267.5163,-54.8098"/>
<polygon fill="#191970" stroke="#191970" points="267.4269,-58.318 277.724,-55.8245 268.1193,-51.3524 267.4269,-58.318"/>
</g>
<!-- Node4 -->
<g id="node3" class="node">
<title>Node4</title>
<g id="a_node3"><a xlink:href="structfractal_1_1_encoder.html#aa0a1efa48790120c5697e5057e6b4a7d" target="_top" xlink:title=" ">
<polygon fill="none" stroke="#000000" points="263,-.5 263,-30.5 467,-30.5 467,-.5 263,-.5"/>
<text text-anchor="start" x="271" y="-18.5" font-family="Helvetica,sans-Serif" font-size="10.00" fill="#000000">fractal::Encoder::forward</text>
<text text-anchor="middle" x="365" y="-7.5" font-family="Helvetica,sans-Serif" font-size="10.00" fill="#000000">_encoder_output</text>
</a>
</g>
</g>
<!-- Node2&#45;&gt;Node4 -->
<g id="edge2" class="edge">
<title>Node2&#45;&gt;Node4</title>
<path fill="none" stroke="#191970" d="M213.2607,-29.9801C226.2657,-28.7391 239.6585,-27.461 252.8494,-26.2022"/>
<polygon fill="#191970" stroke="#191970" points="253.2651,-29.6786 262.8873,-25.2443 252.6,-22.7102 253.2651,-29.6786"/>
</g>
</g>
</svg>
