<?xml version="1.0" encoding="UTF-8" standalone="no"?>
<!DOCTYPE svg PUBLIC "-//W3C//DTD SVG 1.1//EN"
 "http://www.w3.org/Graphics/SVG/1.1/DTD/svg11.dtd">
<!-- Generated by graphviz version 2.40.1 (0)
 -->
<!-- Title: fractal::GlObject&lt; Tdeleter &gt; Pages: 1 -->
<svg width="484pt" height="117pt"
 viewBox="0.00 0.00 483.50 117.00" xmlns="http://www.w3.org/2000/svg" xmlns:xlink="http://www.w3.org/1999/xlink">
<g id="graph0" class="graph" transform="scale(1 1) rotate(0) translate(4 113)">
<title>fractal::GlObject&lt; Tdeleter &gt;</title>
<!-- Node0 -->
<g id="node1" class="node">
<title>Node0</title>
<g id="a_node1"><a xlink:title=" ">
<polygon fill="#bfbfbf" stroke="#000000" points="151.5,-78.5 151.5,-108.5 303.5,-108.5 303.5,-78.5 151.5,-78.5"/>
<text text-anchor="start" x="159.5" y="-96.5" font-family="Helvetica,sans-Serif" font-size="10.00" fill="#000000">fractal::GlObject&lt;</text>
<text text-anchor="middle" x="227.5" y="-85.5" font-family="Helvetica,sans-Serif" font-size="10.00" fill="#000000"> Tdeleter &gt;</text>
</a>
</g>
</g>
<!-- Node1 -->
<g id="node2" class="node">
<title>Node1</title>
<g id="a_node2"><a xlink:href="structfractal_1_1_gl_object.html" target="_top" xlink:title=" ">
<polygon fill="none" stroke="#000000" points="0,-.5 0,-30.5 219,-30.5 219,-.5 0,-.5"/>
<text text-anchor="start" x="8" y="-18.5" font-family="Helvetica,sans-Serif" font-size="10.00" fill="#000000">fractal::GlObject&lt;&amp;glDelete</text>
<text text-anchor="middle" x="109.5" y="-7.5" font-family="Helvetica,sans-Serif" font-size="10.00" fill="#000000">Program &gt;</text>
</a>
</g>
</g>
<!-- Node0&#45;&gt;Node1 -->
<g id="edge1" class="edge">
<title>Node0&#45;&gt;Node1</title>
<path fill="none" stroke="#ffa500" stroke-dasharray="5,2" d="M193.6611,-72.8839C186.9405,-68.6838 179.9653,-64.249 173.5,-60 159.024,-50.4864 143.024,-39.3614 130.643,-30.6148"/>
<polygon fill="#ffa500" stroke="#ffa500" points="192.2531,-76.1292 202.596,-78.4263 195.943,-70.1807 192.2531,-76.1292"/>
<text text-anchor="middle" x="249" y="-52" font-family="Helvetica,sans-Serif" font-size="10.00" fill="#000000"> &lt;&amp;glDeleteProgram &gt;</text>
</g>
<!-- Node2 -->
<g id="node3" class="node">
<title>Node2</title>
<g id="a_node3"><a xlink:href="structfractal_1_1_gl_object.html" target="_top" xlink:title=" ">
<polygon fill="none" stroke="#000000" points="237,-.5 237,-30.5 456,-30.5 456,-.5 237,-.5"/>
<text text-anchor="start" x="245" y="-18.5" font-family="Helvetica,sans-Serif" font-size="10.00" fill="#000000">fractal::GlObject&lt;&amp;glDelete</text>
<text text-anchor="middle" x="346.5" y="-7.5" font-family="Helvetica,sans-Serif" font-size="10.00" fill="#000000">Shader &gt;</text>
</a>
</g>
</g>
<!-- Node0&#45;&gt;Node2 -->
<g id="edge2" class="edge">
<title>Node0&#45;&gt;Node2</title>
<path fill="none" stroke="#ffa500" stroke-dasharray="5,2" d="M302.938,-74.2361C310.7242,-70.323 318.1097,-65.6285 324.5,-60 333.2956,-52.253 338.9548,-40.1781 342.3278,-30.5601"/>
<polygon fill="#ffa500" stroke="#ffa500" points="301.2904,-71.1408 293.6492,-78.4799 304.1993,-77.5078 301.2904,-71.1408"/>
<text text-anchor="middle" x="404" y="-52" font-family="Helvetica,sans-Serif" font-size="10.00" fill="#000000"> &lt;&amp;glDeleteShader &gt;</text>
</g>
</g>
</svg>
