<?xml version="1.0" encoding="UTF-8" standalone="no"?>
<!DOCTYPE svg PUBLIC "-//W3C//DTD SVG 1.1//EN"
 "http://www.w3.org/Graphics/SVG/1.1/DTD/svg11.dtd">
<!-- Generated by graphviz version 2.40.1 (0)
 -->
<!-- Title: fractal::Texture Pages: 1 -->
<svg width="350pt" height="407pt"
 viewBox="0.00 0.00 349.50 407.00" xmlns="http://www.w3.org/2000/svg" xmlns:xlink="http://www.w3.org/1999/xlink">
<g id="graph0" class="graph" transform="scale(1 1) rotate(0) translate(4 403)">
<title>fractal::Texture</title>
<!-- Node1 -->
<g id="node1" class="node">
<title>Node1</title>
<g id="a_node1"><a xlink:title=" ">
<polygon fill="#bfbfbf" stroke="#000000" points="41,-.5 41,-19.5 178,-19.5 178,-.5 41,-.5"/>
<text text-anchor="middle" x="109.5" y="-7.5" font-family="Helvetica,sans-Serif" font-size="10.00" fill="#000000">fractal::Texture</text>
</a>
</g>
</g>
<!-- Node2 -->
<g id="node2" class="node">
<title>Node2</title>
<g id="a_node2"><a xlink:href="structfractal_1_1_gl_array_object.html" target="_top" xlink:title=" ">
<polygon fill="none" stroke="#000000" points="0,-67.5 0,-97.5 219,-97.5 219,-67.5 0,-67.5"/>
<text text-anchor="start" x="8" y="-85.5" font-family="Helvetica,sans-Serif" font-size="10.00" fill="#000000">fractal::GlArrayObject</text>
<text text-anchor="middle" x="109.5" y="-74.5" font-family="Helvetica,sans-Serif" font-size="10.00" fill="#000000">&lt;&amp;glDeleteTextures, Tsize &gt;</text>
</a>
</g>
</g>
<!-- Node2&#45;&gt;Node1 -->
<g id="edge1" class="edge">
<title>Node2&#45;&gt;Node1</title>
<path fill="none" stroke="#9a32cd" stroke-dasharray="5,2" d="M109.5,-57.305C109.5,-44.424 109.5,-29.4836 109.5,-19.8957"/>
<polygon fill="#9a32cd" stroke="#9a32cd" points="106.0001,-57.4779 109.5,-67.478 113.0001,-57.478 106.0001,-57.4779"/>
<text text-anchor="middle" x="143.5" y="-41" font-family="Helvetica,sans-Serif" font-size="10.00" fill="#000000"> texture_</text>
</g>
<!-- Node3 -->
<g id="node3" class="node">
<title>Node3</title>
<g id="a_node3"><a xlink:title=" ">
<polygon fill="none" stroke="#bfbfbf" points="30,-234.5 30,-264.5 189,-264.5 189,-234.5 30,-234.5"/>
<text text-anchor="start" x="38" y="-252.5" font-family="Helvetica,sans-Serif" font-size="10.00" fill="#000000">std::array&lt; GLuint,</text>
<text text-anchor="middle" x="109.5" y="-241.5" font-family="Helvetica,sans-Serif" font-size="10.00" fill="#000000"> Tsize &gt;</text>
</a>
</g>
</g>
<!-- Node3&#45;&gt;Node2 -->
<g id="edge2" class="edge">
<title>Node3&#45;&gt;Node2</title>
<path fill="none" stroke="#9a32cd" stroke-dasharray="5,2" d="M106.0281,-224.2874C104.63,-212.9191 103.1872,-199.3094 102.5,-187 100.7264,-155.2292 104.6487,-118.0621 107.3084,-97.723"/>
<polygon fill="#9a32cd" stroke="#9a32cd" points="102.5798,-224.9136 107.3288,-234.3845 109.5224,-224.0192 102.5798,-224.9136"/>
<text text-anchor="middle" x="121.5" y="-169" font-family="Helvetica,sans-Serif" font-size="10.00" fill="#000000"> ids_</text>
</g>
<!-- Node6 -->
<g id="node6" class="node">
<title>Node6</title>
<g id="a_node6"><a xlink:href="structfractal_1_1_gl_array_object.html" target="_top" xlink:title=" ">
<polygon fill="none" stroke="#000000" points="149.5,-156.5 149.5,-186.5 331.5,-186.5 331.5,-156.5 149.5,-156.5"/>
<text text-anchor="start" x="157.5" y="-174.5" font-family="Helvetica,sans-Serif" font-size="10.00" fill="#000000">fractal::GlArrayObject</text>
<text text-anchor="middle" x="240.5" y="-163.5" font-family="Helvetica,sans-Serif" font-size="10.00" fill="#000000">&lt; Tdeleter, Tsize &gt;</text>
</a>
</g>
</g>
<!-- Node3&#45;&gt;Node6 -->
<g id="edge6" class="edge">
<title>Node3&#45;&gt;Node6</title>
<path fill="none" stroke="#9a32cd" stroke-dasharray="5,2" d="M143.5703,-229.2139C165.8598,-215.9423 194.5139,-198.881 214.8724,-186.7592"/>
<polygon fill="#9a32cd" stroke="#9a32cd" points="141.5598,-226.3375 134.7581,-234.4608 145.141,-232.3521 141.5598,-226.3375"/>
<text text-anchor="middle" x="201.5" y="-208" font-family="Helvetica,sans-Serif" font-size="10.00" fill="#000000"> ids_</text>
</g>
<!-- Node4 -->
<g id="node4" class="node">
<title>Node4</title>
<g id="a_node4"><a xlink:title="STL class.">
<polygon fill="none" stroke="#bfbfbf" points="45,-312.5 45,-331.5 174,-331.5 174,-312.5 45,-312.5"/>
<text text-anchor="middle" x="109.5" y="-319.5" font-family="Helvetica,sans-Serif" font-size="10.00" fill="#000000">std::array&lt; T &gt;</text>
</a>
</g>
</g>
<!-- Node4&#45;&gt;Node3 -->
<g id="edge3" class="edge">
<title>Node4&#45;&gt;Node3</title>
<path fill="none" stroke="#ffa500" stroke-dasharray="5,2" d="M109.5,-302.0177C109.5,-290.2164 109.5,-275.513 109.5,-264.668"/>
<polygon fill="#ffa500" stroke="#ffa500" points="106.0001,-302.2223 109.5,-312.2223 113.0001,-302.2224 106.0001,-302.2223"/>
<text text-anchor="middle" x="177.5" y="-286" font-family="Helvetica,sans-Serif" font-size="10.00" fill="#000000"> &lt; GLuint, Tsize &gt;</text>
</g>
<!-- Node5 -->
<g id="node5" class="node">
<title>Node5</title>
<g id="a_node5"><a xlink:title=" ">
<polygon fill="none" stroke="#bfbfbf" points="95,-379.5 95,-398.5 124,-398.5 124,-379.5 95,-379.5"/>
<text text-anchor="middle" x="109.5" y="-386.5" font-family="Helvetica,sans-Serif" font-size="10.00" fill="#000000">T</text>
</a>
</g>
</g>
<!-- Node5&#45;&gt;Node4 -->
<g id="edge4" class="edge">
<title>Node5&#45;&gt;Node4</title>
<path fill="none" stroke="#9a32cd" stroke-dasharray="5,2" d="M109.5,-369.1079C109.5,-356.714 109.5,-341.3263 109.5,-331.5817"/>
<polygon fill="#9a32cd" stroke="#9a32cd" points="106.0001,-369.4005 109.5,-379.4005 113.0001,-369.4006 106.0001,-369.4005"/>
<text text-anchor="middle" x="143.5" y="-353" font-family="Helvetica,sans-Serif" font-size="10.00" fill="#000000"> elements</text>
</g>
<!-- Node6&#45;&gt;Node2 -->
<g id="edge5" class="edge">
<title>Node6&#45;&gt;Node2</title>
<path fill="none" stroke="#ffa500" stroke-dasharray="5,2" d="M209.903,-150.7127C185.9952,-134.47 153.3238,-112.2734 131.8314,-97.6717"/>
<polygon fill="#ffa500" stroke="#ffa500" points="208.0391,-153.6777 218.2776,-156.4024 211.9729,-147.8876 208.0391,-153.6777"/>
<text text-anchor="start" x="190.5" y="-130" font-family="Helvetica,sans-Serif" font-size="10.00" fill="#000000"> &lt;&amp;glDeleteTextures,</text>
<text text-anchor="middle" x="266" y="-119" font-family="Helvetica,sans-Serif" font-size="10.00" fill="#000000"> Tsize &gt;</text>
</g>
</g>
</svg>
