<?xml version="1.0" encoding="UTF-8" standalone="no"?>
<!DOCTYPE svg PUBLIC "-//W3C//DTD SVG 1.1//EN"
 "http://www.w3.org/Graphics/SVG/1.1/DTD/svg11.dtd">
<!-- Generated by graphviz version 2.40.1 (0)
 -->
<!-- Title: fractal::Mandelbrot::generate Pages: 1 -->
<svg width="827pt" height="50pt"
 viewBox="0.00 0.00 827.00 50.00" xmlns="http://www.w3.org/2000/svg" xmlns:xlink="http://www.w3.org/1999/xlink">
<g id="graph0" class="graph" transform="scale(1 1) rotate(0) translate(4 46)">
<title>fractal::Mandelbrot::generate</title>
<!-- Node8 -->
<g id="node1" class="node">
<title>Node8</title>
<g id="a_node1"><a xlink:title="pointer may be invalidated after any interaction with this object">
<polygon fill="#bfbfbf" stroke="#000000" points="660,-6 660,-36 819,-36 819,-6 660,-6"/>
<text text-anchor="start" x="668" y="-24" font-family="Helvetica,sans-Serif" font-size="10.00" fill="#000000">fractal::Mandelbrot</text>
<text text-anchor="middle" x="739.5" y="-13" font-family="Helvetica,sans-Serif" font-size="10.00" fill="#000000">::generate</text>
</a>
</g>
</g>
<!-- Node9 -->
<g id="node2" class="node">
<title>Node9</title>
<g id="a_node2"><a xlink:href="structfractal_1_1_main_window.html#a96ec873be43b90688d41fff6ae3ec360" target="_top" xlink:title=" ">
<polygon fill="none" stroke="#000000" points="465,-6 465,-36 624,-36 624,-6 465,-6"/>
<text text-anchor="start" x="473" y="-24" font-family="Helvetica,sans-Serif" font-size="10.00" fill="#000000">fractal::MainWindow</text>
<text text-anchor="middle" x="544.5" y="-13" font-family="Helvetica,sans-Serif" font-size="10.00" fill="#000000">::loop</text>
</a>
</g>
</g>
<!-- Node8&#45;&gt;Node9 -->
<g id="edge1" class="edge">
<title>Node8&#45;&gt;Node9</title>
<path fill="none" stroke="#191970" d="M649.883,-21C641.3001,-21 632.6353,-21 624.1568,-21"/>
<polygon fill="#191970" stroke="#191970" points="649.9048,-24.5001 659.9048,-21 649.9047,-17.5001 649.9048,-24.5001"/>
</g>
<!-- Node10 -->
<g id="node3" class="node">
<title>Node10</title>
<g id="a_node3"><a xlink:href="namespacefractal_1_1anonymous__namespace_02main_8cpp_03.html#ae8627868777810181cf8e38d084bee20" target="_top" xlink:title=" ">
<polygon fill="none" stroke="#000000" points="255,-.5 255,-41.5 429,-41.5 429,-.5 255,-.5"/>
<text text-anchor="start" x="263" y="-29.5" font-family="Helvetica,sans-Serif" font-size="10.00" fill="#000000">fractal::anonymous</text>
<text text-anchor="start" x="263" y="-18.5" font-family="Helvetica,sans-Serif" font-size="10.00" fill="#000000">_namespace{main::cpp}</text>
<text text-anchor="middle" x="342" y="-7.5" font-family="Helvetica,sans-Serif" font-size="10.00" fill="#000000">::main_impl</text>
</a>
</g>
</g>
<!-- Node9&#45;&gt;Node10 -->
<g id="edge2" class="edge">
<title>Node9&#45;&gt;Node10</title>
<path fill="none" stroke="#191970" d="M454.4985,-21C446.0317,-21 437.4586,-21 429.0201,-21"/>
<polygon fill="#191970" stroke="#191970" points="454.7574,-24.5001 464.7573,-21 454.7573,-17.5001 454.7574,-24.5001"/>
</g>
<!-- Node11 -->
<g id="node4" class="node">
<title>Node11</title>
<g id="a_node4"><a xlink:href="namespacefractal_1_1anonymous__namespace_02main_8cpp_03.html#ade01a7efeea34ebdc6bdf368b08ac518" target="_top" xlink:title=" ">
<polygon fill="none" stroke="#000000" points="0,-6 0,-36 219,-36 219,-6 0,-6"/>
<text text-anchor="start" x="8" y="-24" font-family="Helvetica,sans-Serif" font-size="10.00" fill="#000000">fractal::anonymous</text>
<text text-anchor="middle" x="109.5" y="-13" font-family="Helvetica,sans-Serif" font-size="10.00" fill="#000000">_namespace{main::cpp}::main</text>
</a>
</g>
</g>
<!-- Node10&#45;&gt;Node11 -->
<g id="edge3" class="edge">
<title>Node10&#45;&gt;Node11</title>
<path fill="none" stroke="#191970" d="M244.6165,-21C236.2327,-21 227.7143,-21 219.2422,-21"/>
<polygon fill="#191970" stroke="#191970" points="244.7641,-24.5001 254.7641,-21 244.7641,-17.5001 244.7641,-24.5001"/>
</g>
</g>
</svg>
