<?xml version="1.0" encoding="UTF-8" standalone="no"?>
<!DOCTYPE svg PUBLIC "-//W3C//DTD SVG 1.1//EN"
 "http://www.w3.org/Graphics/SVG/1.1/DTD/svg11.dtd">
<!-- Generated by graphviz version 2.40.1 (0)
 -->
<!-- Title: fractal::FullQuad Pages: 1 -->
<svg width="1579pt" height="113pt"
 viewBox="0.00 0.00 1579.00 113.00" xmlns="http://www.w3.org/2000/svg" xmlns:xlink="http://www.w3.org/1999/xlink">
<g id="graph0" class="graph" transform="scale(1 1) rotate(0) translate(4 109)">
<title>fractal::FullQuad</title>
<!-- Node1 -->
<g id="node1" class="node">
<title>Node1</title>
<g id="a_node1"><a xlink:title=" ">
<polygon fill="#bfbfbf" stroke="#000000" points="1427,-38.5 1427,-57.5 1571,-57.5 1571,-38.5 1427,-38.5"/>
<text text-anchor="middle" x="1499" y="-45.5" font-family="Helvetica,sans-Serif" font-size="10.00" fill="#000000">fractal::FullQuad</text>
</a>
</g>
</g>
<!-- Node2 -->
<g id="node2" class="node">
<title>Node2</title>
<g id="a_node2"><a xlink:href="structfractal_1_1_gl_array_object.html" target="_top" xlink:title=" ">
<polygon fill="none" stroke="#000000" points="1066,-60 1066,-90 1278,-90 1278,-60 1066,-60"/>
<text text-anchor="start" x="1074" y="-78" font-family="Helvetica,sans-Serif" font-size="10.00" fill="#000000">fractal::GlArrayObject</text>
<text text-anchor="middle" x="1172" y="-67" font-family="Helvetica,sans-Serif" font-size="10.00" fill="#000000">&lt;&amp;glDeleteBuffers, Tsize &gt;</text>
</a>
</g>
</g>
<!-- Node2&#45;&gt;Node1 -->
<g id="edge1" class="edge">
<title>Node2&#45;&gt;Node1</title>
<path fill="none" stroke="#9a32cd" stroke-dasharray="5,2" d="M1288.2516,-65.4012C1334.4968,-61.5828 1386.2589,-57.3089 1426.9112,-53.9523"/>
<polygon fill="#9a32cd" stroke="#9a32cd" points="1287.8456,-61.9228 1278.1675,-66.2339 1288.4217,-68.899 1287.8456,-61.9228"/>
<text text-anchor="middle" x="1352.5" y="-68" font-family="Helvetica,sans-Serif" font-size="10.00" fill="#000000"> vertex_buffer_</text>
</g>
<!-- Node3 -->
<g id="node3" class="node">
<title>Node3</title>
<g id="a_node3"><a xlink:title=" ">
<polygon fill="none" stroke="#bfbfbf" points="434,-32 434,-62 593,-62 593,-32 434,-32"/>
<text text-anchor="start" x="442" y="-50" font-family="Helvetica,sans-Serif" font-size="10.00" fill="#000000">std::array&lt; GLuint,</text>
<text text-anchor="middle" x="513.5" y="-39" font-family="Helvetica,sans-Serif" font-size="10.00" fill="#000000"> Tsize &gt;</text>
</a>
</g>
</g>
<!-- Node3&#45;&gt;Node2 -->
<g id="edge2" class="edge">
<title>Node3&#45;&gt;Node2</title>
<path fill="none" stroke="#9a32cd" stroke-dasharray="5,2" d="M603.2077,-61.8046C624.1157,-65.0387 646.3137,-68.2985 667,-71 835.1625,-92.9605 878.803,-103.5442 1048,-92 1055.4792,-91.4897 1063.1945,-90.8082 1070.9466,-90.0109"/>
<polygon fill="#9a32cd" stroke="#9a32cd" points="603.4797,-58.3047 593.0597,-60.2215 602.4007,-65.2211 603.4797,-58.3047"/>
<text text-anchor="middle" x="758" y="-97" font-family="Helvetica,sans-Serif" font-size="10.00" fill="#000000"> ids_</text>
</g>
<!-- Node6 -->
<g id="node6" class="node">
<title>Node6</title>
<g id="a_node6"><a xlink:href="structfractal_1_1_gl_array_object.html" target="_top" xlink:title=" ">
<polygon fill="none" stroke="#000000" points="667,-32 667,-62 849,-62 849,-32 667,-32"/>
<text text-anchor="start" x="675" y="-50" font-family="Helvetica,sans-Serif" font-size="10.00" fill="#000000">fractal::GlArrayObject</text>
<text text-anchor="middle" x="758" y="-39" font-family="Helvetica,sans-Serif" font-size="10.00" fill="#000000">&lt; Tdeleter, Tsize &gt;</text>
</a>
</g>
</g>
<!-- Node3&#45;&gt;Node6 -->
<g id="edge6" class="edge">
<title>Node3&#45;&gt;Node6</title>
<path fill="none" stroke="#9a32cd" stroke-dasharray="5,2" d="M603.2869,-47C624.0369,-47 646.1322,-47 666.9362,-47"/>
<polygon fill="#9a32cd" stroke="#9a32cd" points="603.2202,-43.5001 593.2201,-47 603.2201,-50.5001 603.2202,-43.5001"/>
<text text-anchor="middle" x="630" y="-50" font-family="Helvetica,sans-Serif" font-size="10.00" fill="#000000"> ids_</text>
</g>
<!-- Node7 -->
<g id="node7" class="node">
<title>Node7</title>
<g id="a_node7"><a xlink:href="structfractal_1_1_gl_array_object.html" target="_top" xlink:title=" ">
<polygon fill="none" stroke="#000000" points="1077.5,-.5 1077.5,-41.5 1266.5,-41.5 1266.5,-.5 1077.5,-.5"/>
<text text-anchor="start" x="1085.5" y="-29.5" font-family="Helvetica,sans-Serif" font-size="10.00" fill="#000000">fractal::GlArrayObject</text>
<text text-anchor="start" x="1085.5" y="-18.5" font-family="Helvetica,sans-Serif" font-size="10.00" fill="#000000">&lt;&amp;glDeleteVertexArrays,</text>
<text text-anchor="middle" x="1172" y="-7.5" font-family="Helvetica,sans-Serif" font-size="10.00" fill="#000000"> Tsize &gt;</text>
</a>
</g>
</g>
<!-- Node3&#45;&gt;Node7 -->
<g id="edge8" class="edge">
<title>Node3&#45;&gt;Node7</title>
<path fill="none" stroke="#9a32cd" stroke-dasharray="5,2" d="M574.5079,-29.2839C602.4366,-22.0586 636.1233,-14.5723 667,-11 809.2067,5.4525 975.4052,-3.1449 1077.1675,-11.5343"/>
<polygon fill="#9a32cd" stroke="#9a32cd" points="573.2707,-25.9905 564.4948,-31.9263 575.0568,-32.7588 573.2707,-25.9905"/>
<text text-anchor="middle" x="758" y="-14" font-family="Helvetica,sans-Serif" font-size="10.00" fill="#000000"> ids_</text>
</g>
<!-- Node4 -->
<g id="node4" class="node">
<title>Node4</title>
<g id="a_node4"><a xlink:title="STL class.">
<polygon fill="none" stroke="#bfbfbf" points="133,-37.5 133,-56.5 262,-56.5 262,-37.5 133,-37.5"/>
<text text-anchor="middle" x="197.5" y="-44.5" font-family="Helvetica,sans-Serif" font-size="10.00" fill="#000000">std::array&lt; T &gt;</text>
</a>
</g>
</g>
<!-- Node4&#45;&gt;Node3 -->
<g id="edge3" class="edge">
<title>Node4&#45;&gt;Node3</title>
<path fill="none" stroke="#ffa500" stroke-dasharray="5,2" d="M272.3454,-47C320.9348,-47 384.1977,-47 433.7359,-47"/>
<polygon fill="#ffa500" stroke="#ffa500" points="272.2099,-43.5001 262.2098,-47 272.2098,-50.5001 272.2099,-43.5001"/>
<text text-anchor="middle" x="348" y="-50" font-family="Helvetica,sans-Serif" font-size="10.00" fill="#000000"> &lt; GLuint, Tsize &gt;</text>
</g>
<!-- Node5 -->
<g id="node5" class="node">
<title>Node5</title>
<g id="a_node5"><a xlink:title=" ">
<polygon fill="none" stroke="#bfbfbf" points="0,-37.5 0,-56.5 29,-56.5 29,-37.5 0,-37.5"/>
<text text-anchor="middle" x="14.5" y="-44.5" font-family="Helvetica,sans-Serif" font-size="10.00" fill="#000000">T</text>
</a>
</g>
</g>
<!-- Node5&#45;&gt;Node4 -->
<g id="edge4" class="edge">
<title>Node5&#45;&gt;Node4</title>
<path fill="none" stroke="#9a32cd" stroke-dasharray="5,2" d="M39.4495,-47C63.3299,-47 100.3831,-47 132.6118,-47"/>
<polygon fill="#9a32cd" stroke="#9a32cd" points="39.1663,-43.5001 29.1663,-47 39.1663,-50.5001 39.1663,-43.5001"/>
<text text-anchor="middle" x="81" y="-50" font-family="Helvetica,sans-Serif" font-size="10.00" fill="#000000"> elements</text>
</g>
<!-- Node6&#45;&gt;Node2 -->
<g id="edge5" class="edge">
<title>Node6&#45;&gt;Node2</title>
<path fill="none" stroke="#ffa500" stroke-dasharray="5,2" d="M859.3985,-53.8579C922.0172,-58.0929 1002.2446,-63.519 1065.7447,-67.8137"/>
<polygon fill="#ffa500" stroke="#ffa500" points="859.3236,-50.3449 849.1102,-53.162 858.8512,-57.3289 859.3236,-50.3449"/>
<text text-anchor="start" x="886" y="-80" font-family="Helvetica,sans-Serif" font-size="10.00" fill="#000000"> &lt;&amp;glDeleteBuffers,</text>
<text text-anchor="middle" x="957.5" y="-69" font-family="Helvetica,sans-Serif" font-size="10.00" fill="#000000"> Tsize &gt;</text>
</g>
<!-- Node6&#45;&gt;Node7 -->
<g id="edge9" class="edge">
<title>Node6&#45;&gt;Node7</title>
<path fill="none" stroke="#ffa500" stroke-dasharray="5,2" d="M840.7125,-30.3796C849.5582,-29.0343 858.4465,-27.8631 867,-27 937.2148,-19.9147 1016.968,-18.5797 1077.3069,-18.9285"/>
<polygon fill="#ffa500" stroke="#ffa500" points="840.088,-26.9349 830.7636,-31.9654 841.1899,-33.8476 840.088,-26.9349"/>
<text text-anchor="start" x="867" y="-41" font-family="Helvetica,sans-Serif" font-size="10.00" fill="#000000"> &lt;&amp;glDeleteVertexArrays,</text>
<text text-anchor="middle" x="957.5" y="-30" font-family="Helvetica,sans-Serif" font-size="10.00" fill="#000000"> Tsize &gt;</text>
</g>
<!-- Node7&#45;&gt;Node1 -->
<g id="edge7" class="edge">
<title>Node7&#45;&gt;Node1</title>
<path fill="none" stroke="#9a32cd" stroke-dasharray="5,2" d="M1276.5961,-29.6364C1325.6443,-33.6862 1382.8562,-38.4101 1426.9697,-42.0525"/>
<polygon fill="#9a32cd" stroke="#9a32cd" points="1276.8361,-26.1444 1266.5819,-28.8095 1276.26,-33.1206 1276.8361,-26.1444"/>
<text text-anchor="middle" x="1352.5" y="-44" font-family="Helvetica,sans-Serif" font-size="10.00" fill="#000000"> vertex_array_</text>
</g>
</g>
</svg>
