<?xml version="1.0" encoding="UTF-8" standalone="no"?>
<!DOCTYPE svg PUBLIC "-//W3C//DTD SVG 1.1//EN"
 "http://www.w3.org/Graphics/SVG/1.1/DTD/svg11.dtd">
<!-- Generated by graphviz version 2.40.1 (0)
 -->
<!-- Title: fractal::ShaderProgram::unbind Pages: 1 -->
<svg width="1068pt" height="50pt"
 viewBox="0.00 0.00 1068.00 50.00" xmlns="http://www.w3.org/2000/svg" xmlns:xlink="http://www.w3.org/1999/xlink">
<g id="graph0" class="graph" transform="scale(1 1) rotate(0) translate(4 46)">
<title>fractal::ShaderProgram::unbind</title>
<!-- Node16 -->
<g id="node1" class="node">
<title>Node16</title>
<g id="a_node1"><a xlink:title=" ">
<polygon fill="#bfbfbf" stroke="#000000" points="878,-6 878,-36 1060,-36 1060,-6 878,-6"/>
<text text-anchor="start" x="886" y="-24" font-family="Helvetica,sans-Serif" font-size="10.00" fill="#000000">fractal::ShaderProgram</text>
<text text-anchor="middle" x="969" y="-13" font-family="Helvetica,sans-Serif" font-size="10.00" fill="#000000">::unbind</text>
</a>
</g>
</g>
<!-- Node17 -->
<g id="node2" class="node">
<title>Node17</title>
<g id="a_node2"><a xlink:href="structfractal_1_1_shader_program.html#a65c0c65a3cac5af4a64e898ba200db0b" target="_top" xlink:title=" ">
<polygon fill="none" stroke="#000000" points="660,-6 660,-36 842,-36 842,-6 660,-6"/>
<text text-anchor="start" x="668" y="-24" font-family="Helvetica,sans-Serif" font-size="10.00" fill="#000000">fractal::ShaderProgram</text>
<text text-anchor="middle" x="751" y="-13" font-family="Helvetica,sans-Serif" font-size="10.00" fill="#000000">::bind</text>
</a>
</g>
</g>
<!-- Node16&#45;&gt;Node17 -->
<g id="edge1" class="edge">
<title>Node16&#45;&gt;Node17</title>
<path fill="none" stroke="#191970" d="M867.5346,-21C859.0734,-21 850.5514,-21 842.1737,-21"/>
<polygon fill="#191970" stroke="#191970" points="867.8115,-24.5001 877.8115,-21 867.8115,-17.5001 867.8115,-24.5001"/>
</g>
<!-- Node18 -->
<g id="node3" class="node">
<title>Node18</title>
<g id="a_node3"><a xlink:href="structfractal_1_1_main_window.html#a96ec873be43b90688d41fff6ae3ec360" target="_top" xlink:title=" ">
<polygon fill="none" stroke="#000000" points="465,-6 465,-36 624,-36 624,-6 465,-6"/>
<text text-anchor="start" x="473" y="-24" font-family="Helvetica,sans-Serif" font-size="10.00" fill="#000000">fractal::MainWindow</text>
<text text-anchor="middle" x="544.5" y="-13" font-family="Helvetica,sans-Serif" font-size="10.00" fill="#000000">::loop</text>
</a>
</g>
</g>
<!-- Node17&#45;&gt;Node18 -->
<g id="edge2" class="edge">
<title>Node17&#45;&gt;Node18</title>
<path fill="none" stroke="#191970" d="M649.7601,-21C641.1669,-21 632.5551,-21 624.1629,-21"/>
<polygon fill="#191970" stroke="#191970" points="649.825,-24.5001 659.825,-21 649.825,-17.5001 649.825,-24.5001"/>
</g>
<!-- Node19 -->
<g id="node4" class="node">
<title>Node19</title>
<g id="a_node4"><a xlink:href="namespacefractal_1_1anonymous__namespace_02main_8cpp_03.html#ae8627868777810181cf8e38d084bee20" target="_top" xlink:title=" ">
<polygon fill="none" stroke="#000000" points="255,-.5 255,-41.5 429,-41.5 429,-.5 255,-.5"/>
<text text-anchor="start" x="263" y="-29.5" font-family="Helvetica,sans-Serif" font-size="10.00" fill="#000000">fractal::anonymous</text>
<text text-anchor="start" x="263" y="-18.5" font-family="Helvetica,sans-Serif" font-size="10.00" fill="#000000">_namespace{main::cpp}</text>
<text text-anchor="middle" x="342" y="-7.5" font-family="Helvetica,sans-Serif" font-size="10.00" fill="#000000">::main_impl</text>
</a>
</g>
</g>
<!-- Node18&#45;&gt;Node19 -->
<g id="edge3" class="edge">
<title>Node18&#45;&gt;Node19</title>
<path fill="none" stroke="#191970" d="M454.4985,-21C446.0317,-21 437.4586,-21 429.0201,-21"/>
<polygon fill="#191970" stroke="#191970" points="454.7574,-24.5001 464.7573,-21 454.7573,-17.5001 454.7574,-24.5001"/>
</g>
<!-- Node20 -->
<g id="node5" class="node">
<title>Node20</title>
<g id="a_node5"><a xlink:href="namespacefractal_1_1anonymous__namespace_02main_8cpp_03.html#ade01a7efeea34ebdc6bdf368b08ac518" target="_top" xlink:title=" ">
<polygon fill="none" stroke="#000000" points="0,-6 0,-36 219,-36 219,-6 0,-6"/>
<text text-anchor="start" x="8" y="-24" font-family="Helvetica,sans-Serif" font-size="10.00" fill="#000000">fractal::anonymous</text>
<text text-anchor="middle" x="109.5" y="-13" font-family="Helvetica,sans-Serif" font-size="10.00" fill="#000000">_namespace{main::cpp}::main</text>
</a>
</g>
</g>
<!-- Node19&#45;&gt;Node20 -->
<g id="edge4" class="edge">
<title>Node19&#45;&gt;Node20</title>
<path fill="none" stroke="#191970" d="M244.6165,-21C236.2327,-21 227.7143,-21 219.2422,-21"/>
<polygon fill="#191970" stroke="#191970" points="244.7641,-24.5001 254.7641,-21 244.7641,-17.5001 244.7641,-24.5001"/>
</g>
</g>
</svg>
