<?xml version="1.0" encoding="UTF-8" standalone="no"?>
<!DOCTYPE svg PUBLIC "-//W3C//DTD SVG 1.1//EN"
 "http://www.w3.org/Graphics/SVG/1.1/DTD/svg11.dtd">
<!-- Generated by graphviz version 2.40.1 (0)
 -->
<!-- Title: fractal::MainWindow::Glfw Pages: 1 -->
<svg width="197pt" height="307pt"
 viewBox="0.00 0.00 197.00 307.00" xmlns="http://www.w3.org/2000/svg" xmlns:xlink="http://www.w3.org/1999/xlink">
<g id="graph0" class="graph" transform="scale(1 1) rotate(0) translate(4 303)">
<title>fractal::MainWindow::Glfw</title>
<!-- Node1 -->
<g id="node1" class="node">
<title>Node1</title>
<g id="a_node1"><a xlink:title=" ">
<polygon fill="#bfbfbf" stroke="#000000" points="15,-.5 15,-30.5 174,-30.5 174,-.5 15,-.5"/>
<text text-anchor="start" x="23" y="-18.5" font-family="Helvetica,sans-Serif" font-size="10.00" fill="#000000">fractal::MainWindow</text>
<text text-anchor="middle" x="94.5" y="-7.5" font-family="Helvetica,sans-Serif" font-size="10.00" fill="#000000">::Glfw</text>
</a>
</g>
</g>
<!-- Node2 -->
<g id="node2" class="node">
<title>Node2</title>
<g id="a_node2"><a xlink:href="structfractal_1_1_glfw_handle.html" target="_top" xlink:title=" ">
<polygon fill="none" stroke="#000000" points="15,-78.5 15,-97.5 174,-97.5 174,-78.5 15,-78.5"/>
<text text-anchor="middle" x="94.5" y="-85.5" font-family="Helvetica,sans-Serif" font-size="10.00" fill="#000000">fractal::GlfwHandle</text>
</a>
</g>
</g>
<!-- Node2&#45;&gt;Node1 -->
<g id="edge1" class="edge">
<title>Node2&#45;&gt;Node1</title>
<path fill="none" stroke="#9a32cd" stroke-dasharray="5,2" d="M94.5,-68.0177C94.5,-56.2164 94.5,-41.513 94.5,-30.668"/>
<polygon fill="#9a32cd" stroke="#9a32cd" points="91.0001,-68.2223 94.5,-78.2223 98.0001,-68.2224 91.0001,-68.2223"/>
<text text-anchor="middle" x="125" y="-52" font-family="Helvetica,sans-Serif" font-size="10.00" fill="#000000"> handle_</text>
</g>
<!-- Node3 -->
<g id="node3" class="node">
<title>Node3</title>
<g id="a_node3"><a xlink:title=" ">
<polygon fill="none" stroke="#bfbfbf" points="0,-145.5 0,-164.5 189,-164.5 189,-145.5 0,-145.5"/>
<text text-anchor="middle" x="94.5" y="-152.5" font-family="Helvetica,sans-Serif" font-size="10.00" fill="#000000">std::shared_ptr&lt; void &gt;</text>
</a>
</g>
</g>
<!-- Node3&#45;&gt;Node2 -->
<g id="edge2" class="edge">
<title>Node3&#45;&gt;Node2</title>
<path fill="none" stroke="#9a32cd" stroke-dasharray="5,2" d="M94.5,-135.1079C94.5,-122.714 94.5,-107.3263 94.5,-97.5817"/>
<polygon fill="#9a32cd" stroke="#9a32cd" points="91.0001,-135.4005 94.5,-145.4005 98.0001,-135.4006 91.0001,-135.4005"/>
<text text-anchor="middle" x="132.5" y="-119" font-family="Helvetica,sans-Serif" font-size="10.00" fill="#000000"> instance_</text>
</g>
<!-- Node4 -->
<g id="node4" class="node">
<title>Node4</title>
<g id="a_node4"><a xlink:title="STL class.">
<polygon fill="none" stroke="#bfbfbf" points="11,-212.5 11,-231.5 178,-231.5 178,-212.5 11,-212.5"/>
<text text-anchor="middle" x="94.5" y="-219.5" font-family="Helvetica,sans-Serif" font-size="10.00" fill="#000000">std::shared_ptr&lt; T &gt;</text>
</a>
</g>
</g>
<!-- Node4&#45;&gt;Node3 -->
<g id="edge3" class="edge">
<title>Node4&#45;&gt;Node3</title>
<path fill="none" stroke="#ffa500" stroke-dasharray="5,2" d="M94.5,-202.1079C94.5,-189.714 94.5,-174.3263 94.5,-164.5817"/>
<polygon fill="#ffa500" stroke="#ffa500" points="91.0001,-202.4005 94.5,-212.4005 98.0001,-202.4006 91.0001,-202.4005"/>
<text text-anchor="middle" x="128.5" y="-186" font-family="Helvetica,sans-Serif" font-size="10.00" fill="#000000"> &lt; void &gt;</text>
</g>
<!-- Node5 -->
<g id="node5" class="node">
<title>Node5</title>
<g id="a_node5"><a xlink:title=" ">
<polygon fill="none" stroke="#bfbfbf" points="80,-279.5 80,-298.5 109,-298.5 109,-279.5 80,-279.5"/>
<text text-anchor="middle" x="94.5" y="-286.5" font-family="Helvetica,sans-Serif" font-size="10.00" fill="#000000">T</text>
</a>
</g>
</g>
<!-- Node5&#45;&gt;Node4 -->
<g id="edge4" class="edge">
<title>Node5&#45;&gt;Node4</title>
<path fill="none" stroke="#9a32cd" stroke-dasharray="5,2" d="M94.5,-269.1079C94.5,-256.714 94.5,-241.3263 94.5,-231.5817"/>
<polygon fill="#9a32cd" stroke="#9a32cd" points="91.0001,-269.4005 94.5,-279.4005 98.0001,-269.4006 91.0001,-269.4005"/>
<text text-anchor="middle" x="110" y="-253" font-family="Helvetica,sans-Serif" font-size="10.00" fill="#000000"> ptr</text>
</g>
</g>
</svg>
