<?xml version="1.0" encoding="UTF-8" standalone="no"?>
<!DOCTYPE svg PUBLIC "-//W3C//DTD SVG 1.1//EN"
 "http://www.w3.org/Graphics/SVG/1.1/DTD/svg11.dtd">
<!-- Generated by graphviz version 2.40.1 (0)
 -->
<!-- Title: fractal::MainWindow::loop Pages: 1 -->
<svg width="633pt" height="323pt"
 viewBox="0.00 0.00 633.00 323.00" xmlns="http://www.w3.org/2000/svg" xmlns:xlink="http://www.w3.org/1999/xlink">
<g id="graph0" class="graph" transform="scale(1 1) rotate(0) translate(4 319)">
<title>fractal::MainWindow::loop</title>
<!-- Node2 -->
<g id="node1" class="node">
<title>Node2</title>
<g id="a_node1"><a xlink:title=" ">
<polygon fill="#bfbfbf" stroke="#000000" points="0,-121 0,-151 159,-151 159,-121 0,-121"/>
<text text-anchor="start" x="8" y="-139" font-family="Helvetica,sans-Serif" font-size="10.00" fill="#000000">fractal::MainWindow</text>
<text text-anchor="middle" x="79.5" y="-128" font-family="Helvetica,sans-Serif" font-size="10.00" fill="#000000">::loop</text>
</a>
</g>
</g>
<!-- Node3 -->
<g id="node2" class="node">
<title>Node3</title>
<g id="a_node2"><a xlink:href="structfractal_1_1_shader_program.html#a65c0c65a3cac5af4a64e898ba200db0b" target="_top" xlink:title=" ">
<polygon fill="none" stroke="#000000" points="202.5,-246 202.5,-276 384.5,-276 384.5,-246 202.5,-246"/>
<text text-anchor="start" x="210.5" y="-264" font-family="Helvetica,sans-Serif" font-size="10.00" fill="#000000">fractal::ShaderProgram</text>
<text text-anchor="middle" x="293.5" y="-253" font-family="Helvetica,sans-Serif" font-size="10.00" fill="#000000">::bind</text>
</a>
</g>
</g>
<!-- Node2&#45;&gt;Node3 -->
<g id="edge1" class="edge">
<title>Node2&#45;&gt;Node3</title>
<path fill="none" stroke="#191970" d="M93.7886,-151.0036C114.3381,-171.7682 154.266,-209.1693 195,-231 203.2443,-235.4184 212.2333,-239.2839 221.3183,-242.6379"/>
<polygon fill="#191970" stroke="#191970" points="220.1986,-245.9541 230.7934,-245.9498 222.5083,-239.3461 220.1986,-245.9541"/>
</g>
<!-- Node6 -->
<g id="node5" class="node">
<title>Node6</title>
<g id="a_node5"><a xlink:href="structfractal_1_1_full_quad.html#ab741333738e9ad68ed05cf9c7976d7d6" target="_top" xlink:title=" ">
<polygon fill="none" stroke="#000000" points="199,-202.5 199,-221.5 388,-221.5 388,-202.5 199,-202.5"/>
<text text-anchor="middle" x="293.5" y="-209.5" font-family="Helvetica,sans-Serif" font-size="10.00" fill="#000000">fractal::FullQuad::bind</text>
</a>
</g>
</g>
<!-- Node2&#45;&gt;Node6 -->
<g id="edge4" class="edge">
<title>Node2&#45;&gt;Node6</title>
<path fill="none" stroke="#191970" d="M105.248,-151.2129C128.1072,-164.1005 162.7851,-182.1633 195,-193 203.2155,-195.7636 211.9595,-198.1707 220.716,-200.2556"/>
<polygon fill="#191970" stroke="#191970" points="220.0559,-203.6945 230.5802,-202.4744 221.5921,-196.8651 220.0559,-203.6945"/>
</g>
<!-- Node8 -->
<g id="node7" class="node">
<title>Node8</title>
<g id="a_node7"><a xlink:href="structfractal_1_1_texture.html#a88a52fe97f3eb1d7a86c8158b71f1f15" target="_top" xlink:title=" ">
<polygon fill="none" stroke="#000000" points="202.5,-164.5 202.5,-183.5 384.5,-183.5 384.5,-164.5 202.5,-164.5"/>
<text text-anchor="middle" x="293.5" y="-171.5" font-family="Helvetica,sans-Serif" font-size="10.00" fill="#000000">fractal::Texture::bind</text>
</a>
</g>
</g>
<!-- Node2&#45;&gt;Node8 -->
<g id="edge6" class="edge">
<title>Node2&#45;&gt;Node8</title>
<path fill="none" stroke="#191970" d="M159.1857,-150.1498C182.4754,-154.2854 207.6153,-158.7495 229.7766,-162.6846"/>
<polygon fill="#191970" stroke="#191970" points="229.2739,-166.15 239.7319,-164.4524 230.4978,-159.2579 229.2739,-166.15"/>
</g>
<!-- Node10 -->
<g id="node9" class="node">
<title>Node10</title>
<g id="a_node9"><a xlink:href="structfractal_1_1_glfw_window.html#a3777ec5f1b219cfb104c901f6121299b" target="_top" xlink:title=" ">
<polygon fill="none" stroke="#000000" points="195,-126.5 195,-145.5 392,-145.5 392,-126.5 195,-126.5"/>
<text text-anchor="middle" x="293.5" y="-133.5" font-family="Helvetica,sans-Serif" font-size="10.00" fill="#000000">fractal::GlfwWindow::ptr</text>
</a>
</g>
</g>
<!-- Node2&#45;&gt;Node10 -->
<g id="edge8" class="edge">
<title>Node2&#45;&gt;Node10</title>
<path fill="none" stroke="#191970" d="M159.1857,-136C167.5561,-136 176.1655,-136 184.7897,-136"/>
<polygon fill="#191970" stroke="#191970" points="184.9072,-139.5001 194.9072,-136 184.9071,-132.5001 184.9072,-139.5001"/>
</g>
<!-- Node11 -->
<g id="node10" class="node">
<title>Node11</title>
<g id="a_node10"><a xlink:href="structfractal_1_1_mandelbrot.html#afc6aa66d3967bb1d6828a4cf2efa61d6" target="_top" xlink:title="pointer may be invalidated after any interaction with this object">
<polygon fill="none" stroke="#000000" points="214,-77 214,-107 373,-107 373,-77 214,-77"/>
<text text-anchor="start" x="222" y="-95" font-family="Helvetica,sans-Serif" font-size="10.00" fill="#000000">fractal::Mandelbrot</text>
<text text-anchor="middle" x="293.5" y="-84" font-family="Helvetica,sans-Serif" font-size="10.00" fill="#000000">::generate</text>
</a>
</g>
</g>
<!-- Node2&#45;&gt;Node11 -->
<g id="edge9" class="edge">
<title>Node2&#45;&gt;Node11</title>
<path fill="none" stroke="#191970" d="M152.5481,-120.9808C171.2109,-117.1436 191.411,-112.9903 210.5315,-109.0589"/>
<polygon fill="#191970" stroke="#191970" points="211.3278,-112.4685 220.418,-107.0262 209.918,-105.6119 211.3278,-112.4685"/>
</g>
<!-- Node12 -->
<g id="node11" class="node">
<title>Node12</title>
<g id="a_node11"><a xlink:href="structfractal_1_1_texture.html#a46e23d483c95de7b675e1c60b86d6d36" target="_top" xlink:title=" ">
<polygon fill="none" stroke="#000000" points="195,-38.5 195,-57.5 392,-57.5 392,-38.5 195,-38.5"/>
<text text-anchor="middle" x="293.5" y="-45.5" font-family="Helvetica,sans-Serif" font-size="10.00" fill="#000000">fractal::Texture::update</text>
</a>
</g>
</g>
<!-- Node2&#45;&gt;Node12 -->
<g id="edge10" class="edge">
<title>Node2&#45;&gt;Node12</title>
<path fill="none" stroke="#191970" d="M99.6624,-120.9623C121.8749,-105.1334 159.2103,-80.6568 195,-67 202.1506,-64.2715 209.7488,-61.9198 217.4302,-59.896"/>
<polygon fill="#191970" stroke="#191970" points="218.2993,-63.2867 227.177,-57.5043 216.631,-56.4884 218.2993,-63.2867"/>
</g>
<!-- Node13 -->
<g id="node12" class="node">
<title>Node13</title>
<g id="a_node12"><a xlink:href="structfractal_1_1_full_quad.html#a8c3275ce999f6088f63f1eb1748d21c6" target="_top" xlink:title="Needs to be bound first.">
<polygon fill="none" stroke="#000000" points="199,-.5 199,-19.5 388,-19.5 388,-.5 199,-.5"/>
<text text-anchor="middle" x="293.5" y="-7.5" font-family="Helvetica,sans-Serif" font-size="10.00" fill="#000000">fractal::FullQuad::draw</text>
</a>
</g>
</g>
<!-- Node2&#45;&gt;Node13 -->
<g id="edge11" class="edge">
<title>Node2&#45;&gt;Node13</title>
<path fill="none" stroke="#191970" d="M91.1224,-120.7628C110.0948,-97.0608 150.1329,-51.728 195,-29 199.6864,-26.6261 204.6359,-24.5478 209.7215,-22.7284"/>
<polygon fill="#191970" stroke="#191970" points="211.188,-25.9334 219.6358,-19.5392 209.0444,-19.2697 211.188,-25.9334"/>
</g>
<!-- Node4 -->
<g id="node3" class="node">
<title>Node4</title>
<g id="a_node3"><a xlink:href="structfractal_1_1_gl_object.html#af52b46835d8ac261160a1da910ca0294" target="_top" xlink:title=" ">
<polygon fill="none" stroke="#000000" points="439.5,-295.5 439.5,-314.5 613.5,-314.5 613.5,-295.5 439.5,-295.5"/>
<text text-anchor="middle" x="526.5" y="-302.5" font-family="Helvetica,sans-Serif" font-size="10.00" fill="#000000">fractal::GlObject::id</text>
</a>
</g>
</g>
<!-- Node3&#45;&gt;Node4 -->
<g id="edge2" class="edge">
<title>Node3&#45;&gt;Node4</title>
<path fill="none" stroke="#191970" d="M373.0337,-276.0192C403.4438,-281.7619 437.6028,-288.2125 465.9602,-293.5676"/>
<polygon fill="#191970" stroke="#191970" points="465.6516,-297.0711 476.1274,-295.4876 466.9506,-290.1927 465.6516,-297.0711"/>
</g>
<!-- Node5 -->
<g id="node4" class="node">
<title>Node5</title>
<g id="a_node4"><a xlink:href="structfractal_1_1_shader_program.html#a7ab43c66ed517bc2060f596965a37940" target="_top" xlink:title=" ">
<polygon fill="none" stroke="#000000" points="435.5,-246 435.5,-276 617.5,-276 617.5,-246 435.5,-246"/>
<text text-anchor="start" x="443.5" y="-264" font-family="Helvetica,sans-Serif" font-size="10.00" fill="#000000">fractal::ShaderProgram</text>
<text text-anchor="middle" x="526.5" y="-253" font-family="Helvetica,sans-Serif" font-size="10.00" fill="#000000">::unbind</text>
</a>
</g>
</g>
<!-- Node3&#45;&gt;Node5 -->
<g id="edge3" class="edge">
<title>Node3&#45;&gt;Node5</title>
<path fill="none" stroke="#191970" d="M384.5849,-261C397.909,-261 411.6992,-261 425.2117,-261"/>
<polygon fill="#191970" stroke="#191970" points="425.4784,-264.5001 435.4783,-261 425.4783,-257.5001 425.4784,-264.5001"/>
</g>
<!-- Node7 -->
<g id="node6" class="node">
<title>Node7</title>
<g id="a_node6"><a xlink:href="structfractal_1_1_full_quad.html#a9b052b47f4ad954fd2ff9c04a04932d7" target="_top" xlink:title=" ">
<polygon fill="none" stroke="#000000" points="447,-197 447,-227 606,-227 606,-197 447,-197"/>
<text text-anchor="start" x="455" y="-215" font-family="Helvetica,sans-Serif" font-size="10.00" fill="#000000">fractal::FullQuad::</text>
<text text-anchor="middle" x="526.5" y="-204" font-family="Helvetica,sans-Serif" font-size="10.00" fill="#000000">unbind</text>
</a>
</g>
</g>
<!-- Node6&#45;&gt;Node7 -->
<g id="edge5" class="edge">
<title>Node6&#45;&gt;Node7</title>
<path fill="none" stroke="#191970" d="M388.27,-212C404.1862,-212 420.6634,-212 436.4558,-212"/>
<polygon fill="#191970" stroke="#191970" points="436.7221,-215.5001 446.722,-212 436.722,-208.5001 436.7221,-215.5001"/>
</g>
<!-- Node9 -->
<g id="node8" class="node">
<title>Node9</title>
<g id="a_node8"><a xlink:href="structfractal_1_1_texture.html#a697a1987a6b47324e89a8789bd69bb98" target="_top" xlink:title=" ">
<polygon fill="none" stroke="#000000" points="428,-158.5 428,-177.5 625,-177.5 625,-158.5 428,-158.5"/>
<text text-anchor="middle" x="526.5" y="-165.5" font-family="Helvetica,sans-Serif" font-size="10.00" fill="#000000">fractal::Texture::unbind</text>
</a>
</g>
</g>
<!-- Node8&#45;&gt;Node9 -->
<g id="edge7" class="edge">
<title>Node8&#45;&gt;Node9</title>
<path fill="none" stroke="#191970" d="M384.5849,-171.6545C395.432,-171.3751 406.5881,-171.0879 417.6518,-170.803"/>
<polygon fill="#191970" stroke="#191970" points="417.8682,-174.2986 427.7748,-170.5423 417.6879,-167.301 417.8682,-174.2986"/>
</g>
</g>
</svg>
