<?xml version="1.0" encoding="UTF-8" standalone="no"?>
<!DOCTYPE svg PUBLIC "-//W3C//DTD SVG 1.1//EN"
 "http://www.w3.org/Graphics/SVG/1.1/DTD/svg11.dtd">
<!-- Generated by graphviz version 2.40.1 (0)
 -->
<!-- Title: fractal::Shader Pages: 1 -->
<svg width="261pt" height="184pt"
 viewBox="0.00 0.00 260.50 184.00" xmlns="http://www.w3.org/2000/svg" xmlns:xlink="http://www.w3.org/1999/xlink">
<g id="graph0" class="graph" transform="scale(1 1) rotate(0) translate(4 180)">
<title>fractal::Shader</title>
<!-- Node1 -->
<g id="node1" class="node">
<title>Node1</title>
<g id="a_node1"><a xlink:title=" ">
<polygon fill="#bfbfbf" stroke="#000000" points="45,-.5 45,-19.5 174,-19.5 174,-.5 45,-.5"/>
<text text-anchor="middle" x="109.5" y="-7.5" font-family="Helvetica,sans-Serif" font-size="10.00" fill="#000000">fractal::Shader</text>
</a>
</g>
</g>
<!-- Node2 -->
<g id="node2" class="node">
<title>Node2</title>
<g id="a_node2"><a xlink:href="structfractal_1_1_gl_object.html" target="_top" xlink:title=" ">
<polygon fill="none" stroke="#000000" points="0,-67.5 0,-97.5 219,-97.5 219,-67.5 0,-67.5"/>
<text text-anchor="start" x="8" y="-85.5" font-family="Helvetica,sans-Serif" font-size="10.00" fill="#000000">fractal::GlObject&lt;&amp;glDelete</text>
<text text-anchor="middle" x="109.5" y="-74.5" font-family="Helvetica,sans-Serif" font-size="10.00" fill="#000000">Shader &gt;</text>
</a>
</g>
</g>
<!-- Node2&#45;&gt;Node1 -->
<g id="edge1" class="edge">
<title>Node2&#45;&gt;Node1</title>
<path fill="none" stroke="#9a32cd" stroke-dasharray="5,2" d="M109.5,-57.305C109.5,-44.424 109.5,-29.4836 109.5,-19.8957"/>
<polygon fill="#9a32cd" stroke="#9a32cd" points="106.0001,-57.4779 109.5,-67.478 113.0001,-57.478 106.0001,-57.4779"/>
<text text-anchor="middle" x="140" y="-41" font-family="Helvetica,sans-Serif" font-size="10.00" fill="#000000"> shader_</text>
</g>
<!-- Node3 -->
<g id="node3" class="node">
<title>Node3</title>
<g id="a_node3"><a xlink:href="structfractal_1_1_gl_object.html" target="_top" xlink:title=" ">
<polygon fill="none" stroke="#000000" points="33.5,-145.5 33.5,-175.5 185.5,-175.5 185.5,-145.5 33.5,-145.5"/>
<text text-anchor="start" x="41.5" y="-163.5" font-family="Helvetica,sans-Serif" font-size="10.00" fill="#000000">fractal::GlObject&lt;</text>
<text text-anchor="middle" x="109.5" y="-152.5" font-family="Helvetica,sans-Serif" font-size="10.00" fill="#000000"> Tdeleter &gt;</text>
</a>
</g>
</g>
<!-- Node3&#45;&gt;Node2 -->
<g id="edge2" class="edge">
<title>Node3&#45;&gt;Node2</title>
<path fill="none" stroke="#ffa500" stroke-dasharray="5,2" d="M109.5,-135.2875C109.5,-122.9187 109.5,-108.4264 109.5,-97.7592"/>
<polygon fill="#ffa500" stroke="#ffa500" points="106.0001,-135.4608 109.5,-145.4608 113.0001,-135.4608 106.0001,-135.4608"/>
<text text-anchor="middle" x="181" y="-119" font-family="Helvetica,sans-Serif" font-size="10.00" fill="#000000"> &lt;&amp;glDeleteShader &gt;</text>
</g>
</g>
</svg>
