<?xml version="1.0" encoding="UTF-8" standalone="no"?>
<!DOCTYPE svg PUBLIC "-//W3C//DTD SVG 1.1//EN"
 "http://www.w3.org/Graphics/SVG/1.1/DTD/svg11.dtd">
<!-- Generated by graphviz version 2.40.1 (0)
 -->
<!-- Title: fractal::Mandelbrot::resize Pages: 1 -->
<svg width="362pt" height="88pt"
 viewBox="0.00 0.00 362.00 88.00" xmlns="http://www.w3.org/2000/svg" xmlns:xlink="http://www.w3.org/1999/xlink">
<g id="graph0" class="graph" transform="scale(1 1) rotate(0) translate(4 84)">
<title>fractal::Mandelbrot::resize</title>
<!-- Node13 -->
<g id="node1" class="node">
<title>Node13</title>
<g id="a_node1"><a xlink:title=" ">
<polygon fill="#bfbfbf" stroke="#000000" points="195,-24.5 195,-54.5 354,-54.5 354,-24.5 195,-24.5"/>
<text text-anchor="start" x="203" y="-42.5" font-family="Helvetica,sans-Serif" font-size="10.00" fill="#000000">fractal::Mandelbrot</text>
<text text-anchor="middle" x="274.5" y="-31.5" font-family="Helvetica,sans-Serif" font-size="10.00" fill="#000000">::resize</text>
</a>
</g>
</g>
<!-- Node14 -->
<g id="node2" class="node">
<title>Node14</title>
<g id="a_node2"><a xlink:href="structfractal_1_1_main_window.html#aed296469de15f25d3b316c1b356417b4" target="_top" xlink:title=" ">
<polygon fill="none" stroke="#000000" points="0,-49.5 0,-79.5 159,-79.5 159,-49.5 0,-49.5"/>
<text text-anchor="start" x="8" y="-67.5" font-family="Helvetica,sans-Serif" font-size="10.00" fill="#000000">fractal::MainWindow</text>
<text text-anchor="middle" x="79.5" y="-56.5" font-family="Helvetica,sans-Serif" font-size="10.00" fill="#000000">::on_resize</text>
</a>
</g>
</g>
<!-- Node13&#45;&gt;Node14 -->
<g id="edge1" class="edge">
<title>Node13&#45;&gt;Node14</title>
<path fill="none" stroke="#191970" d="M184.883,-50.9894C176.3001,-52.0897 167.6353,-53.2006 159.1568,-54.2876"/>
<polygon fill="#191970" stroke="#191970" points="185.4311,-54.4478 194.9048,-49.7045 184.5409,-47.5047 185.4311,-54.4478"/>
</g>
<!-- Node15 -->
<g id="node3" class="node">
<title>Node15</title>
<g id="a_node3"><a xlink:href="structfractal_1_1_mandelbrot.html#aac74c23efc4eb1ac04296dbf757dda0d" target="_top" xlink:title=" ">
<polygon fill="none" stroke="#000000" points="0,-.5 0,-30.5 159,-30.5 159,-.5 0,-.5"/>
<text text-anchor="start" x="8" y="-18.5" font-family="Helvetica,sans-Serif" font-size="10.00" fill="#000000">fractal::Mandelbrot</text>
<text text-anchor="middle" x="79.5" y="-7.5" font-family="Helvetica,sans-Serif" font-size="10.00" fill="#000000">::Mandelbrot</text>
</a>
</g>
</g>
<!-- Node13&#45;&gt;Node15 -->
<g id="edge2" class="edge">
<title>Node13&#45;&gt;Node15</title>
<path fill="none" stroke="#191970" d="M184.883,-28.4702C176.3001,-27.4139 167.6353,-26.3474 159.1568,-25.3039"/>
<polygon fill="#191970" stroke="#191970" points="184.5521,-31.9558 194.9048,-29.7037 185.4072,-25.0082 184.5521,-31.9558"/>
</g>
</g>
</svg>
