<?xml version="1.0" encoding="UTF-8" standalone="no"?>
<!DOCTYPE svg PUBLIC "-//W3C//DTD SVG 1.1//EN"
 "http://www.w3.org/Graphics/SVG/1.1/DTD/svg11.dtd">
<!-- Generated by graphviz version 2.40.1 (0)
 -->
<!-- Title: fractal::GlArrayObject&lt; Tdeleter, Tsize &gt; Pages: 1 -->
<svg width="235pt" height="251pt"
 viewBox="0.00 0.00 235.00 251.00" xmlns="http://www.w3.org/2000/svg" xmlns:xlink="http://www.w3.org/1999/xlink">
<g id="graph0" class="graph" transform="scale(1 1) rotate(0) translate(4 247)">
<title>fractal::GlArrayObject&lt; Tdeleter, Tsize &gt;</title>
<!-- Node4 -->
<g id="node1" class="node">
<title>Node4</title>
<g id="a_node1"><a xlink:title=" ">
<polygon fill="#bfbfbf" stroke="#000000" points="0,-.5 0,-30.5 182,-30.5 182,-.5 0,-.5"/>
<text text-anchor="start" x="8" y="-18.5" font-family="Helvetica,sans-Serif" font-size="10.00" fill="#000000">fractal::GlArrayObject</text>
<text text-anchor="middle" x="91" y="-7.5" font-family="Helvetica,sans-Serif" font-size="10.00" fill="#000000">&lt; Tdeleter, Tsize &gt;</text>
</a>
</g>
</g>
<!-- Node5 -->
<g id="node2" class="node">
<title>Node5</title>
<g id="a_node2"><a xlink:title=" ">
<polygon fill="none" stroke="#bfbfbf" points="11.5,-78.5 11.5,-108.5 170.5,-108.5 170.5,-78.5 11.5,-78.5"/>
<text text-anchor="start" x="19.5" y="-96.5" font-family="Helvetica,sans-Serif" font-size="10.00" fill="#000000">std::array&lt; GLuint,</text>
<text text-anchor="middle" x="91" y="-85.5" font-family="Helvetica,sans-Serif" font-size="10.00" fill="#000000"> Tsize &gt;</text>
</a>
</g>
</g>
<!-- Node5&#45;&gt;Node4 -->
<g id="edge1" class="edge">
<title>Node5&#45;&gt;Node4</title>
<path fill="none" stroke="#9a32cd" stroke-dasharray="5,2" d="M91,-68.2875C91,-55.9187 91,-41.4264 91,-30.7592"/>
<polygon fill="#9a32cd" stroke="#9a32cd" points="87.5001,-68.4608 91,-78.4608 94.5001,-68.4608 87.5001,-68.4608"/>
<text text-anchor="middle" x="110" y="-52" font-family="Helvetica,sans-Serif" font-size="10.00" fill="#000000"> ids_</text>
</g>
<!-- Node6 -->
<g id="node3" class="node">
<title>Node6</title>
<g id="a_node3"><a xlink:title="STL class.">
<polygon fill="none" stroke="#bfbfbf" points="26.5,-156.5 26.5,-175.5 155.5,-175.5 155.5,-156.5 26.5,-156.5"/>
<text text-anchor="middle" x="91" y="-163.5" font-family="Helvetica,sans-Serif" font-size="10.00" fill="#000000">std::array&lt; T &gt;</text>
</a>
</g>
</g>
<!-- Node6&#45;&gt;Node5 -->
<g id="edge2" class="edge">
<title>Node6&#45;&gt;Node5</title>
<path fill="none" stroke="#ffa500" stroke-dasharray="5,2" d="M91,-146.0177C91,-134.2164 91,-119.513 91,-108.668"/>
<polygon fill="#ffa500" stroke="#ffa500" points="87.5001,-146.2223 91,-156.2223 94.5001,-146.2224 87.5001,-146.2223"/>
<text text-anchor="middle" x="159" y="-130" font-family="Helvetica,sans-Serif" font-size="10.00" fill="#000000"> &lt; GLuint, Tsize &gt;</text>
</g>
<!-- Node7 -->
<g id="node4" class="node">
<title>Node7</title>
<g id="a_node4"><a xlink:title=" ">
<polygon fill="none" stroke="#bfbfbf" points="76.5,-223.5 76.5,-242.5 105.5,-242.5 105.5,-223.5 76.5,-223.5"/>
<text text-anchor="middle" x="91" y="-230.5" font-family="Helvetica,sans-Serif" font-size="10.00" fill="#000000">T</text>
</a>
</g>
</g>
<!-- Node7&#45;&gt;Node6 -->
<g id="edge3" class="edge">
<title>Node7&#45;&gt;Node6</title>
<path fill="none" stroke="#9a32cd" stroke-dasharray="5,2" d="M91,-213.1079C91,-200.714 91,-185.3263 91,-175.5817"/>
<polygon fill="#9a32cd" stroke="#9a32cd" points="87.5001,-213.4005 91,-223.4005 94.5001,-213.4006 87.5001,-213.4005"/>
<text text-anchor="middle" x="125" y="-197" font-family="Helvetica,sans-Serif" font-size="10.00" fill="#000000"> elements</text>
</g>
</g>
</svg>
