<?xml version="1.0" encoding="UTF-8" standalone="no"?>
<!DOCTYPE svg PUBLIC "-//W3C//DTD SVG 1.1//EN"
 "http://www.w3.org/Graphics/SVG/1.1/DTD/svg11.dtd">
<!-- Generated by graphviz version 2.40.1 (0)
 -->
<!-- Title: fractal::GlArrayObject&lt; Tdeleter, Tsize &gt; Pages: 1 -->
<svg width="626pt" height="147pt"
 viewBox="0.00 0.00 626.00 147.00" xmlns="http://www.w3.org/2000/svg" xmlns:xlink="http://www.w3.org/1999/xlink">
<g id="graph0" class="graph" transform="scale(1 1) rotate(0) translate(4 143)">
<title>fractal::GlArrayObject&lt; Tdeleter, Tsize &gt;</title>
<!-- Node0 -->
<g id="node1" class="node">
<title>Node0</title>
<g id="a_node1"><a xlink:title=" ">
<polygon fill="#bfbfbf" stroke="#000000" points="0,-54.5 0,-84.5 182,-84.5 182,-54.5 0,-54.5"/>
<text text-anchor="start" x="8" y="-72.5" font-family="Helvetica,sans-Serif" font-size="10.00" fill="#000000">fractal::GlArrayObject</text>
<text text-anchor="middle" x="91" y="-61.5" font-family="Helvetica,sans-Serif" font-size="10.00" fill="#000000">&lt; Tdeleter, Tsize &gt;</text>
</a>
</g>
</g>
<!-- Node1 -->
<g id="node2" class="node">
<title>Node1</title>
<g id="a_node2"><a xlink:href="structfractal_1_1_gl_array_object.html" target="_top" xlink:title=" ">
<polygon fill="none" stroke="#000000" points="402.5,-108.5 402.5,-138.5 614.5,-138.5 614.5,-108.5 402.5,-108.5"/>
<text text-anchor="start" x="410.5" y="-126.5" font-family="Helvetica,sans-Serif" font-size="10.00" fill="#000000">fractal::GlArrayObject</text>
<text text-anchor="middle" x="508.5" y="-115.5" font-family="Helvetica,sans-Serif" font-size="10.00" fill="#000000">&lt;&amp;glDeleteBuffers, Tsize &gt;</text>
</a>
</g>
</g>
<!-- Node0&#45;&gt;Node1 -->
<g id="edge1" class="edge">
<title>Node0&#45;&gt;Node1</title>
<path fill="none" stroke="#ffa500" stroke-dasharray="5,2" d="M157.3155,-86.9219C171.3353,-90.1533 186.0959,-93.2228 200,-95.5 266.8709,-106.4519 342.6494,-113.4059 402.3677,-117.6445"/>
<polygon fill="#ffa500" stroke="#ffa500" points="157.7973,-83.4395 147.2607,-84.5494 156.1896,-90.2524 157.7973,-83.4395"/>
<text text-anchor="start" x="219" y="-129.5" font-family="Helvetica,sans-Serif" font-size="10.00" fill="#000000"> &lt;&amp;glDeleteBuffers,</text>
<text text-anchor="middle" x="290.5" y="-118.5" font-family="Helvetica,sans-Serif" font-size="10.00" fill="#000000"> Tsize &gt;</text>
</g>
<!-- Node2 -->
<g id="node3" class="node">
<title>Node2</title>
<g id="a_node3"><a xlink:href="structfractal_1_1_gl_array_object.html" target="_top" xlink:title=" ">
<polygon fill="none" stroke="#000000" points="414,-49 414,-90 603,-90 603,-49 414,-49"/>
<text text-anchor="start" x="422" y="-78" font-family="Helvetica,sans-Serif" font-size="10.00" fill="#000000">fractal::GlArrayObject</text>
<text text-anchor="start" x="422" y="-67" font-family="Helvetica,sans-Serif" font-size="10.00" fill="#000000">&lt;&amp;glDeleteVertexArrays,</text>
<text text-anchor="middle" x="508.5" y="-56" font-family="Helvetica,sans-Serif" font-size="10.00" fill="#000000"> Tsize &gt;</text>
</a>
</g>
</g>
<!-- Node0&#45;&gt;Node2 -->
<g id="edge2" class="edge">
<title>Node0&#45;&gt;Node2</title>
<path fill="none" stroke="#ffa500" stroke-dasharray="5,2" d="M192.3324,-69.5C259.8289,-69.5 347.9195,-69.5 413.9686,-69.5"/>
<polygon fill="#ffa500" stroke="#ffa500" points="192.1063,-66.0001 182.1062,-69.5 192.1062,-73.0001 192.1063,-66.0001"/>
<text text-anchor="start" x="200" y="-83.5" font-family="Helvetica,sans-Serif" font-size="10.00" fill="#000000"> &lt;&amp;glDeleteVertexArrays,</text>
<text text-anchor="middle" x="290.5" y="-72.5" font-family="Helvetica,sans-Serif" font-size="10.00" fill="#000000"> Tsize &gt;</text>
</g>
<!-- Node3 -->
<g id="node4" class="node">
<title>Node3</title>
<g id="a_node4"><a xlink:href="structfractal_1_1_gl_array_object.html" target="_top" xlink:title=" ">
<polygon fill="none" stroke="#000000" points="399,-.5 399,-30.5 618,-30.5 618,-.5 399,-.5"/>
<text text-anchor="start" x="407" y="-18.5" font-family="Helvetica,sans-Serif" font-size="10.00" fill="#000000">fractal::GlArrayObject</text>
<text text-anchor="middle" x="508.5" y="-7.5" font-family="Helvetica,sans-Serif" font-size="10.00" fill="#000000">&lt;&amp;glDeleteTextures, Tsize &gt;</text>
</a>
</g>
</g>
<!-- Node0&#45;&gt;Node3 -->
<g id="edge3" class="edge">
<title>Node0&#45;&gt;Node3</title>
<path fill="none" stroke="#ffa500" stroke-dasharray="5,2" d="M157.3155,-52.0781C171.3353,-48.8467 186.0959,-45.7772 200,-43.5 265.5441,-32.7654 339.6458,-25.8716 398.7943,-21.611"/>
<polygon fill="#ffa500" stroke="#ffa500" points="156.1896,-48.7476 147.2607,-54.4506 157.7973,-55.5605 156.1896,-48.7476"/>
<text text-anchor="start" x="215" y="-57.5" font-family="Helvetica,sans-Serif" font-size="10.00" fill="#000000"> &lt;&amp;glDeleteTextures,</text>
<text text-anchor="middle" x="290.5" y="-46.5" font-family="Helvetica,sans-Serif" font-size="10.00" fill="#000000"> Tsize &gt;</text>
</g>
</g>
</svg>
