<?xml version="1.0" encoding="UTF-8" standalone="no"?>
<!DOCTYPE svg PUBLIC "-//W3C//DTD SVG 1.1//EN"
 "http://www.w3.org/Graphics/SVG/1.1/DTD/svg11.dtd">
<!-- Generated by graphviz version 2.40.1 (0)
 -->
<!-- Title: fractal::Encoder::forward_encoder_output Pages: 1 -->
<svg width="475pt" height="66pt"
 viewBox="0.00 0.00 475.00 66.00" xmlns="http://www.w3.org/2000/svg" xmlns:xlink="http://www.w3.org/1999/xlink">
<g id="graph0" class="graph" transform="scale(1 1) rotate(0) translate(4 62)">
<title>fractal::Encoder::forward_encoder_output</title>
<!-- Node10 -->
<g id="node1" class="node">
<title>Node10</title>
<g id="a_node1"><a xlink:title=" ">
<polygon fill="#bfbfbf" stroke="#000000" points="263,-14 263,-44 467,-44 467,-14 263,-14"/>
<text text-anchor="start" x="271" y="-32" font-family="Helvetica,sans-Serif" font-size="10.00" fill="#000000">fractal::Encoder::forward</text>
<text text-anchor="middle" x="365" y="-21" font-family="Helvetica,sans-Serif" font-size="10.00" fill="#000000">_encoder_output</text>
</a>
</g>
</g>
<!-- Node11 -->
<g id="node2" class="node">
<title>Node11</title>
<g id="a_node2"><a xlink:href="structfractal_1_1_encoder.html#a774370c067b1c0d73add1374ea282e7e" target="_top" xlink:title=" ">
<polygon fill="none" stroke="#000000" points="0,-38.5 0,-57.5 227,-57.5 227,-38.5 0,-38.5"/>
<text text-anchor="middle" x="113.5" y="-45.5" font-family="Helvetica,sans-Serif" font-size="10.00" fill="#000000">fractal::Encoder::encode_rgb</text>
</a>
</g>
</g>
<!-- Node10&#45;&gt;Node11 -->
<g id="edge1" class="edge">
<title>Node10&#45;&gt;Node11</title>
<path fill="none" stroke="#191970" d="M252.503,-37.4988C244.0981,-38.1337 235.6133,-38.7747 227.2011,-39.4103"/>
<polygon fill="#191970" stroke="#191970" points="252.9974,-40.9715 262.7053,-36.728 252.47,-33.9914 252.9974,-40.9715"/>
</g>
<!-- Node12 -->
<g id="node3" class="node">
<title>Node12</title>
<g id="a_node3"><a xlink:href="structfractal_1_1_encoder.html#a9132388487c99a8155fce2bc28495578" target="_top" xlink:title=" ">
<polygon fill="none" stroke="#000000" points="15,-.5 15,-19.5 212,-19.5 212,-.5 15,-.5"/>
<text text-anchor="middle" x="113.5" y="-7.5" font-family="Helvetica,sans-Serif" font-size="10.00" fill="#000000">fractal::Encoder::finish</text>
</a>
</g>
</g>
<!-- Node10&#45;&gt;Node12 -->
<g id="edge2" class="edge">
<title>Node10&#45;&gt;Node12</title>
<path fill="none" stroke="#191970" d="M252.4515,-20.4973C238.9768,-19.4794 225.2978,-18.446 212.0424,-17.4446"/>
<polygon fill="#191970" stroke="#191970" points="252.47,-24.0086 262.7053,-21.272 252.9974,-17.0285 252.47,-24.0086"/>
</g>
</g>
</svg>
