<?xml version="1.0" encoding="UTF-8" standalone="no"?>
<!DOCTYPE svg PUBLIC "-//W3C//DTD SVG 1.1//EN"
 "http://www.w3.org/Graphics/SVG/1.1/DTD/svg11.dtd">
<!-- Generated by graphviz version 2.40.1 (0)
 -->
<!-- Title: fractal/texture.h Pages: 1 -->
<svg width="310pt" height="140pt"
 viewBox="0.00 0.00 310.00 140.00" xmlns="http://www.w3.org/2000/svg" xmlns:xlink="http://www.w3.org/1999/xlink">
<g id="graph0" class="graph" transform="scale(1 1) rotate(0) translate(4 136)">
<title>fractal/texture.h</title>
<!-- Node0 -->
<g id="node1" class="node">
<title>Node0</title>
<g id="a_node1"><a xlink:title=" ">
<polygon fill="#bfbfbf" stroke="#000000" points="55.5,-112.5 55.5,-131.5 199.5,-131.5 199.5,-112.5 55.5,-112.5"/>
<text text-anchor="middle" x="127.5" y="-119.5" font-family="Helvetica,sans-Serif" font-size="10.00" fill="#000000">fractal/texture.h</text>
</a>
</g>
</g>
<!-- Node1 -->
<g id="node2" class="node">
<title>Node1</title>
<g id="a_node2"><a xlink:href="gl__object_8h.html" target="_top" xlink:title=" ">
<polygon fill="none" stroke="#000000" points="78,-56.5 78,-75.5 177,-75.5 177,-56.5 78,-56.5"/>
<text text-anchor="middle" x="127.5" y="-63.5" font-family="Helvetica,sans-Serif" font-size="10.00" fill="#000000">gl_object.h</text>
</a>
</g>
</g>
<!-- Node0&#45;&gt;Node1 -->
<g id="edge1" class="edge">
<title>Node0&#45;&gt;Node1</title>
<path fill="none" stroke="#191970" d="M127.5,-112.2455C127.5,-104.9382 127.5,-94.6944 127.5,-85.7046"/>
<polygon fill="#191970" stroke="#191970" points="131.0001,-85.6426 127.5,-75.6427 124.0001,-85.6427 131.0001,-85.6426"/>
</g>
<!-- Node2 -->
<g id="node3" class="node">
<title>Node2</title>
<g id="a_node3"><a xlink:title=" ">
<polygon fill="none" stroke="#bfbfbf" points="0,-.5 0,-19.5 99,-19.5 99,-.5 0,-.5"/>
<text text-anchor="middle" x="49.5" y="-7.5" font-family="Helvetica,sans-Serif" font-size="10.00" fill="#000000">glad/glad.h</text>
</a>
</g>
</g>
<!-- Node0&#45;&gt;Node2 -->
<g id="edge6" class="edge">
<title>Node0&#45;&gt;Node2</title>
<path fill="none" stroke="#191970" d="M110.4217,-112.4135C97.4332,-104.2954 80.0523,-91.5155 69.5,-76 60.043,-62.0949 54.9428,-43.581 52.2654,-29.701"/>
<polygon fill="#191970" stroke="#191970" points="55.7013,-29.026 50.6007,-19.7397 48.797,-30.1798 55.7013,-29.026"/>
</g>
<!-- Node4 -->
<g id="node5" class="node">
<title>Node4</title>
<g id="a_node5"><a xlink:href="scope__exit_8h.html" target="_top" xlink:title=" ">
<polygon fill="none" stroke="#000000" points="195,-56.5 195,-75.5 302,-75.5 302,-56.5 195,-56.5"/>
<text text-anchor="middle" x="248.5" y="-63.5" font-family="Helvetica,sans-Serif" font-size="10.00" fill="#000000">scope_exit.h</text>
</a>
</g>
</g>
<!-- Node0&#45;&gt;Node4 -->
<g id="edge4" class="edge">
<title>Node0&#45;&gt;Node4</title>
<path fill="none" stroke="#191970" d="M148.3006,-112.3733C167.7243,-103.3838 196.9224,-89.8706 218.7964,-79.7471"/>
<polygon fill="#191970" stroke="#191970" points="220.3656,-82.8776 227.9708,-75.5011 217.4255,-76.5249 220.3656,-82.8776"/>
</g>
<!-- Node1&#45;&gt;Node2 -->
<g id="edge2" class="edge">
<title>Node1&#45;&gt;Node2</title>
<path fill="none" stroke="#191970" d="M113.9134,-56.2455C102.1695,-47.814 84.9801,-35.4729 71.3118,-25.6598"/>
<polygon fill="#191970" stroke="#191970" points="73.0954,-22.6316 62.9309,-19.6427 69.0129,-28.3179 73.0954,-22.6316"/>
</g>
<!-- Node3 -->
<g id="node4" class="node">
<title>Node3</title>
<g id="a_node4"><a xlink:title=" ">
<polygon fill="none" stroke="#bfbfbf" points="117.5,-.5 117.5,-19.5 171.5,-19.5 171.5,-.5 117.5,-.5"/>
<text text-anchor="middle" x="144.5" y="-7.5" font-family="Helvetica,sans-Serif" font-size="10.00" fill="#000000">array</text>
</a>
</g>
</g>
<!-- Node1&#45;&gt;Node3 -->
<g id="edge3" class="edge">
<title>Node1&#45;&gt;Node3</title>
<path fill="none" stroke="#191970" d="M130.4612,-56.2455C132.7038,-48.8579 135.8577,-38.4689 138.6081,-29.4087"/>
<polygon fill="#191970" stroke="#191970" points="142.017,-30.2282 141.5728,-19.6427 135.3188,-28.1948 142.017,-30.2282"/>
</g>
<!-- Node5 -->
<g id="node6" class="node">
<title>Node5</title>
<g id="a_node6"><a xlink:title=" ">
<polygon fill="none" stroke="#bfbfbf" points="202.5,-.5 202.5,-19.5 294.5,-19.5 294.5,-.5 202.5,-.5"/>
<text text-anchor="middle" x="248.5" y="-7.5" font-family="Helvetica,sans-Serif" font-size="10.00" fill="#000000">functional</text>
</a>
</g>
</g>
<!-- Node4&#45;&gt;Node5 -->
<g id="edge5" class="edge">
<title>Node4&#45;&gt;Node5</title>
<path fill="none" stroke="#191970" d="M248.5,-56.2455C248.5,-48.9382 248.5,-38.6944 248.5,-29.7046"/>
<polygon fill="#191970" stroke="#191970" points="252.0001,-29.6426 248.5,-19.6427 245.0001,-29.6427 252.0001,-29.6426"/>
</g>
</g>
</svg>
