<?xml version="1.0" encoding="UTF-8" standalone="no"?>
<!DOCTYPE svg PUBLIC "-//W3C//DTD SVG 1.1//EN"
 "http://www.w3.org/Graphics/SVG/1.1/DTD/svg11.dtd">
<!-- Generated by graphviz version 2.40.1 (0)
 -->
<!-- Title: fractal/thread_pool.h Pages: 1 -->
<svg width="898pt" height="196pt"
 viewBox="0.00 0.00 898.00 196.00" xmlns="http://www.w3.org/2000/svg" xmlns:xlink="http://www.w3.org/1999/xlink">
<g id="graph0" class="graph" transform="scale(1 1) rotate(0) translate(4 192)">
<title>fractal/thread_pool.h</title>
<!-- Node7 -->
<g id="node1" class="node">
<title>Node7</title>
<g id="a_node1"><a xlink:title=" ">
<polygon fill="#bfbfbf" stroke="#000000" points="463.5,-168.5 463.5,-187.5 637.5,-187.5 637.5,-168.5 463.5,-168.5"/>
<text text-anchor="middle" x="550.5" y="-175.5" font-family="Helvetica,sans-Serif" font-size="10.00" fill="#000000">fractal/thread_pool.h</text>
</a>
</g>
</g>
<!-- Node8 -->
<g id="node2" class="node">
<title>Node8</title>
<g id="a_node2"><a xlink:href="mandelbrot_8h.html" target="_top" xlink:title=" ">
<polygon fill="none" stroke="#000000" points="271,-112.5 271,-131.5 438,-131.5 438,-112.5 271,-112.5"/>
<text text-anchor="middle" x="354.5" y="-119.5" font-family="Helvetica,sans-Serif" font-size="10.00" fill="#000000">fractal/mandelbrot.h</text>
</a>
</g>
</g>
<!-- Node7&#45;&gt;Node8 -->
<g id="edge1" class="edge">
<title>Node7&#45;&gt;Node8</title>
<path fill="none" stroke="#191970" d="M507.0587,-165.5882C471.0484,-155.2996 420.6132,-140.8895 387.7539,-131.5011"/>
<polygon fill="#191970" stroke="#191970" points="506.2296,-168.9913 516.8064,-168.3733 508.1527,-162.2606 506.2296,-168.9913"/>
</g>
<!-- Node14 -->
<g id="node8" class="node">
<title>Node14</title>
<g id="a_node8"><a xlink:href="thread__pool_8cpp.html" target="_top" xlink:title=" ">
<polygon fill="none" stroke="#000000" points="456,-112.5 456,-131.5 645,-131.5 645,-112.5 456,-112.5"/>
<text text-anchor="middle" x="550.5" y="-119.5" font-family="Helvetica,sans-Serif" font-size="10.00" fill="#000000">fractal/thread_pool.cpp</text>
</a>
</g>
</g>
<!-- Node7&#45;&gt;Node14 -->
<g id="edge7" class="edge">
<title>Node7&#45;&gt;Node14</title>
<path fill="none" stroke="#191970" d="M550.5,-158.1575C550.5,-149.155 550.5,-138.9199 550.5,-131.6427"/>
<polygon fill="#191970" stroke="#191970" points="547.0001,-158.2455 550.5,-168.2455 554.0001,-158.2456 547.0001,-158.2455"/>
</g>
<!-- Node15 -->
<g id="node9" class="node">
<title>Node15</title>
<g id="a_node9"><a xlink:href="thread__pool_8test_8cpp.html" target="_top" xlink:title=" ">
<polygon fill="none" stroke="#000000" points="663,-112.5 663,-131.5 890,-131.5 890,-112.5 663,-112.5"/>
<text text-anchor="middle" x="776.5" y="-119.5" font-family="Helvetica,sans-Serif" font-size="10.00" fill="#000000">fractal/thread_pool.test.cpp</text>
</a>
</g>
</g>
<!-- Node7&#45;&gt;Node15 -->
<g id="edge8" class="edge">
<title>Node7&#45;&gt;Node15</title>
<path fill="none" stroke="#191970" d="M599.0012,-165.982C640.5847,-155.6781 699.688,-141.0331 738.0652,-131.5237"/>
<polygon fill="#191970" stroke="#191970" points="597.9586,-162.6344 589.094,-168.4369 599.6423,-169.4289 597.9586,-162.6344"/>
</g>
<!-- Node9 -->
<g id="node3" class="node">
<title>Node9</title>
<g id="a_node3"><a xlink:href="main__window_8h.html" target="_top" xlink:title=" ">
<polygon fill="none" stroke="#000000" points="71.5,-56.5 71.5,-75.5 245.5,-75.5 245.5,-56.5 71.5,-56.5"/>
<text text-anchor="middle" x="158.5" y="-63.5" font-family="Helvetica,sans-Serif" font-size="10.00" fill="#000000">fractal/main_window.h</text>
</a>
</g>
</g>
<!-- Node8&#45;&gt;Node9 -->
<g id="edge2" class="edge">
<title>Node8&#45;&gt;Node9</title>
<path fill="none" stroke="#191970" d="M311.0587,-109.5882C275.0484,-99.2996 224.6132,-84.8895 191.7539,-75.5011"/>
<polygon fill="#191970" stroke="#191970" points="310.2296,-112.9913 320.8064,-112.3733 312.1527,-106.2606 310.2296,-112.9913"/>
</g>
<!-- Node12 -->
<g id="node6" class="node">
<title>Node12</title>
<g id="a_node6"><a xlink:href="mandelbrot_8cpp.html" target="_top" xlink:title=" ">
<polygon fill="none" stroke="#000000" points="263.5,-56.5 263.5,-75.5 445.5,-75.5 445.5,-56.5 263.5,-56.5"/>
<text text-anchor="middle" x="354.5" y="-63.5" font-family="Helvetica,sans-Serif" font-size="10.00" fill="#000000">fractal/mandelbrot.cpp</text>
</a>
</g>
</g>
<!-- Node8&#45;&gt;Node12 -->
<g id="edge5" class="edge">
<title>Node8&#45;&gt;Node12</title>
<path fill="none" stroke="#191970" d="M354.5,-102.1575C354.5,-93.155 354.5,-82.9199 354.5,-75.6427"/>
<polygon fill="#191970" stroke="#191970" points="351.0001,-102.2455 354.5,-112.2455 358.0001,-102.2456 351.0001,-102.2455"/>
</g>
<!-- Node13 -->
<g id="node7" class="node">
<title>Node13</title>
<g id="a_node7"><a xlink:href="render__video_8cpp.html" target="_top" xlink:title=" ">
<polygon fill="none" stroke="#000000" points="464,-56.5 464,-75.5 661,-75.5 661,-56.5 464,-56.5"/>
<text text-anchor="middle" x="562.5" y="-63.5" font-family="Helvetica,sans-Serif" font-size="10.00" fill="#000000">fractal/render_video.cpp</text>
</a>
</g>
</g>
<!-- Node8&#45;&gt;Node13 -->
<g id="edge6" class="edge">
<title>Node8&#45;&gt;Node13</title>
<path fill="none" stroke="#191970" d="M400.1118,-109.7199C438.3582,-99.4228 492.19,-84.9296 527.2101,-75.5011"/>
<polygon fill="#191970" stroke="#191970" points="399.0027,-106.3938 390.2565,-112.3733 400.8226,-113.1531 399.0027,-106.3938"/>
</g>
<!-- Node10 -->
<g id="node4" class="node">
<title>Node10</title>
<g id="a_node4"><a xlink:href="main_8cpp.html" target="_top" xlink:title=" ">
<polygon fill="none" stroke="#000000" points="0,-.5 0,-19.5 137,-19.5 137,-.5 0,-.5"/>
<text text-anchor="middle" x="68.5" y="-7.5" font-family="Helvetica,sans-Serif" font-size="10.00" fill="#000000">fractal/main.cpp</text>
</a>
</g>
</g>
<!-- Node9&#45;&gt;Node10 -->
<g id="edge3" class="edge">
<title>Node9&#45;&gt;Node10</title>
<path fill="none" stroke="#191970" d="M134.0216,-50.769C118.0734,-40.8456 97.749,-28.1994 83.9972,-19.6427"/>
<polygon fill="#191970" stroke="#191970" points="132.4835,-53.9342 142.8232,-56.2455 136.1817,-47.9908 132.4835,-53.9342"/>
</g>
<!-- Node11 -->
<g id="node5" class="node">
<title>Node11</title>
<g id="a_node5"><a xlink:href="main__window_8cpp.html" target="_top" xlink:title=" ">
<polygon fill="none" stroke="#000000" points="155,-.5 155,-19.5 344,-19.5 344,-.5 155,-.5"/>
<text text-anchor="middle" x="249.5" y="-7.5" font-family="Helvetica,sans-Serif" font-size="10.00" fill="#000000">fractal/main_window.cpp</text>
</a>
</g>
</g>
<!-- Node9&#45;&gt;Node11 -->
<g id="edge4" class="edge">
<title>Node9&#45;&gt;Node11</title>
<path fill="none" stroke="#191970" d="M183.2504,-50.769C199.3758,-40.8456 219.926,-28.1994 233.8307,-19.6427"/>
<polygon fill="#191970" stroke="#191970" points="181.0332,-48.0237 174.351,-56.2455 184.7019,-53.9853 181.0332,-48.0237"/>
</g>
</g>
</svg>
