<?xml version="1.0" encoding="UTF-8" standalone="no"?>
<!DOCTYPE svg PUBLIC "-//W3C//DTD SVG 1.1//EN"
 "http://www.w3.org/Graphics/SVG/1.1/DTD/svg11.dtd">
<!-- Generated by graphviz version 2.40.1 (0)
 -->
<!-- Title: fractal/thread_pool.cpp Pages: 1 -->
<svg width="530pt" height="140pt"
 viewBox="0.00 0.00 530.00 140.00" xmlns="http://www.w3.org/2000/svg" xmlns:xlink="http://www.w3.org/1999/xlink">
<g id="graph0" class="graph" transform="scale(1 1) rotate(0) translate(4 136)">
<title>fractal/thread_pool.cpp</title>
<!-- Node0 -->
<g id="node1" class="node">
<title>Node0</title>
<g id="a_node1"><a xlink:title=" ">
<polygon fill="#bfbfbf" stroke="#000000" points="160.5,-112.5 160.5,-131.5 349.5,-131.5 349.5,-112.5 160.5,-112.5"/>
<text text-anchor="middle" x="255" y="-119.5" font-family="Helvetica,sans-Serif" font-size="10.00" fill="#000000">fractal/thread_pool.cpp</text>
</a>
</g>
</g>
<!-- Node1 -->
<g id="node2" class="node">
<title>Node1</title>
<g id="a_node2"><a xlink:href="thread__pool_8h.html" target="_top" xlink:title=" ">
<polygon fill="none" stroke="#000000" points="198,-56.5 198,-75.5 312,-75.5 312,-56.5 198,-56.5"/>
<text text-anchor="middle" x="255" y="-63.5" font-family="Helvetica,sans-Serif" font-size="10.00" fill="#000000">thread_pool.h</text>
</a>
</g>
</g>
<!-- Node0&#45;&gt;Node1 -->
<g id="edge1" class="edge">
<title>Node0&#45;&gt;Node1</title>
<path fill="none" stroke="#191970" d="M255,-112.2455C255,-104.9382 255,-94.6944 255,-85.7046"/>
<polygon fill="#191970" stroke="#191970" points="258.5001,-85.6426 255,-75.6427 251.5001,-85.6427 258.5001,-85.6426"/>
</g>
<!-- Node2 -->
<g id="node3" class="node">
<title>Node2</title>
<g id="a_node3"><a xlink:title=" ">
<polygon fill="none" stroke="#bfbfbf" points="0,-.5 0,-19.5 92,-19.5 92,-.5 0,-.5"/>
<text text-anchor="middle" x="46" y="-7.5" font-family="Helvetica,sans-Serif" font-size="10.00" fill="#000000">functional</text>
</a>
</g>
</g>
<!-- Node1&#45;&gt;Node2 -->
<g id="edge2" class="edge">
<title>Node1&#45;&gt;Node2</title>
<path fill="none" stroke="#191970" d="M219.0716,-56.3733C183.7163,-46.9001 129.612,-32.4032 91.3212,-22.1435"/>
<polygon fill="#191970" stroke="#191970" points="92.0247,-18.7086 81.4595,-19.5011 90.213,-25.4701 92.0247,-18.7086"/>
</g>
<!-- Node3 -->
<g id="node4" class="node">
<title>Node3</title>
<g id="a_node4"><a xlink:title=" ">
<polygon fill="none" stroke="#bfbfbf" points="110,-.5 110,-19.5 172,-19.5 172,-.5 110,-.5"/>
<text text-anchor="middle" x="141" y="-7.5" font-family="Helvetica,sans-Serif" font-size="10.00" fill="#000000">future</text>
</a>
</g>
</g>
<!-- Node1&#45;&gt;Node3 -->
<g id="edge3" class="edge">
<title>Node1&#45;&gt;Node3</title>
<path fill="none" stroke="#191970" d="M235.4027,-56.3733C217.2669,-47.4644 190.0865,-34.1127 169.5413,-24.0203"/>
<polygon fill="#191970" stroke="#191970" points="170.8603,-20.7688 160.3416,-19.5011 167.7739,-27.0517 170.8603,-20.7688"/>
</g>
<!-- Node4 -->
<g id="node5" class="node">
<title>Node4</title>
<g id="a_node5"><a xlink:title=" ">
<polygon fill="none" stroke="#bfbfbf" points="190,-.5 190,-19.5 244,-19.5 244,-.5 190,-.5"/>
<text text-anchor="middle" x="217" y="-7.5" font-family="Helvetica,sans-Serif" font-size="10.00" fill="#000000">queue</text>
</a>
</g>
</g>
<!-- Node1&#45;&gt;Node4 -->
<g id="edge4" class="edge">
<title>Node1&#45;&gt;Node4</title>
<path fill="none" stroke="#191970" d="M248.3809,-56.2455C243.0954,-48.4564 235.5459,-37.3308 229.1762,-27.9439"/>
<polygon fill="#191970" stroke="#191970" points="232.0545,-25.9522 223.5432,-19.6427 226.2621,-29.8827 232.0545,-25.9522"/>
</g>
<!-- Node5 -->
<g id="node6" class="node">
<title>Node5</title>
<g id="a_node6"><a xlink:title=" ">
<polygon fill="none" stroke="#bfbfbf" points="262,-.5 262,-19.5 324,-19.5 324,-.5 262,-.5"/>
<text text-anchor="middle" x="293" y="-7.5" font-family="Helvetica,sans-Serif" font-size="10.00" fill="#000000">thread</text>
</a>
</g>
</g>
<!-- Node1&#45;&gt;Node5 -->
<g id="edge5" class="edge">
<title>Node1&#45;&gt;Node5</title>
<path fill="none" stroke="#191970" d="M261.6191,-56.2455C266.9046,-48.4564 274.4541,-37.3308 280.8238,-27.9439"/>
<polygon fill="#191970" stroke="#191970" points="283.7379,-29.8827 286.4568,-19.6427 277.9455,-25.9522 283.7379,-29.8827"/>
</g>
<!-- Node6 -->
<g id="node7" class="node">
<title>Node6</title>
<g id="a_node7"><a xlink:title=" ">
<polygon fill="none" stroke="#bfbfbf" points="342.5,-.5 342.5,-19.5 441.5,-19.5 441.5,-.5 342.5,-.5"/>
<text text-anchor="middle" x="392" y="-7.5" font-family="Helvetica,sans-Serif" font-size="10.00" fill="#000000">type_traits</text>
</a>
</g>
</g>
<!-- Node1&#45;&gt;Node6 -->
<g id="edge6" class="edge">
<title>Node1&#45;&gt;Node6</title>
<path fill="none" stroke="#191970" d="M278.5511,-56.3733C300.8391,-47.2629 334.4937,-33.5062 359.3637,-23.3404"/>
<polygon fill="#191970" stroke="#191970" points="360.8239,-26.5247 368.7562,-19.5011 358.1753,-20.0451 360.8239,-26.5247"/>
</g>
<!-- Node7 -->
<g id="node8" class="node">
<title>Node7</title>
<g id="a_node8"><a xlink:title=" ">
<polygon fill="none" stroke="#bfbfbf" points="460,-.5 460,-19.5 522,-19.5 522,-.5 460,-.5"/>
<text text-anchor="middle" x="491" y="-7.5" font-family="Helvetica,sans-Serif" font-size="10.00" fill="#000000">vector</text>
</a>
</g>
</g>
<!-- Node1&#45;&gt;Node7 -->
<g id="edge7" class="edge">
<title>Node1&#45;&gt;Node7</title>
<path fill="none" stroke="#191970" d="M296.3377,-56.4811C333.9397,-47.7815 391.2288,-34.4255 449.7804,-20.2738"/>
<polygon fill="#191970" stroke="#191970" points="450.6724,-23.6591 459.5677,-17.9036 449.0248,-16.8557 450.6724,-23.6591"/>
</g>
</g>
</svg>
